<?xml version="1.0" encoding="utf-8" standalone="no"?>
<!DOCTYPE svg PUBLIC "-//W3C//DTD SVG 1.1//EN"
  "http://www.w3.org/Graphics/SVG/1.1/DTD/svg11.dtd">
<svg xmlns:xlink="http://www.w3.org/1999/xlink" width="864pt" height="288pt" viewBox="0 0 864 288" xmlns="http://www.w3.org/2000/svg" version="1.1">
 <metadata>
  <rdf:RDF xmlns:dc="http://purl.org/dc/elements/1.1/" xmlns:cc="http://creativecommons.org/ns#" xmlns:rdf="http://www.w3.org/1999/02/22-rdf-syntax-ns#">
   <cc:Work>
    <dc:type rdf:resource="http://purl.org/dc/dcmitype/StillImage"/>
    <dc:date>2023-07-29T16:59:41.147962</dc:date>
    <dc:format>image/svg+xml</dc:format>
    <dc:creator>
     <cc:Agent>
      <dc:title>Matplotlib v3.7.1, https://matplotlib.org/</dc:title>
     </cc:Agent>
    </dc:creator>
   </cc:Work>
  </rdf:RDF>
 </metadata>
 <defs>
  <style type="text/css">*{stroke-linejoin: round; stroke-linecap: butt}</style>
 </defs>
 <g id="figure_1">
  <g id="patch_1">
   <path d="M 0 288 
L 864 288 
L 864 0 
L 0 0 
z
" style="fill: #f0f0f0"/>
  </g>
  <g id="axes_1">
   <g id="patch_2">
    <path d="M 69.12 267.84 
L 410.792727 267.84 
L 410.792727 2.88 
L 69.12 2.88 
z
" style="fill: #e5e5e5"/>
   </g>
   <g id="matplotlib.axis_1">
    <g id="xtick_1">
     <g id="line2d_1">
      <path d="M 84.650579 267.84 
L 84.650579 2.88 
" clip-path="url(#p4a61364780)" style="fill: none; stroke: #ffffff; stroke-width: 0.5"/>
     </g>
     <g id="line2d_2"/>
     <g id="text_1">
      <!-- 0 -->
      <g style="fill: #555555" transform="translate(81.87011 278.497813) scale(0.1 -0.1)">
       <defs>
        <path id="ArialMT-30" d="M 266 2259 
Q 266 3072 433 3567 
Q 600 4063 929 4331 
Q 1259 4600 1759 4600 
Q 2128 4600 2406 4451 
Q 2684 4303 2865 4023 
Q 3047 3744 3150 3342 
Q 3253 2941 3253 2259 
Q 3253 1453 3087 958 
Q 2922 463 2592 192 
Q 2263 -78 1759 -78 
Q 1097 -78 719 397 
Q 266 969 266 2259 
z
M 844 2259 
Q 844 1131 1108 757 
Q 1372 384 1759 384 
Q 2147 384 2411 759 
Q 2675 1134 2675 2259 
Q 2675 3391 2411 3762 
Q 2147 4134 1753 4134 
Q 1366 4134 1134 3806 
Q 844 3388 844 2259 
z
" transform="scale(0.015625)"/>
       </defs>
       <use xlink:href="#ArialMT-30"/>
      </g>
     </g>
    </g>
    <g id="xtick_2">
     <g id="line2d_3">
      <path d="M 147.400391 267.84 
L 147.400391 2.88 
" clip-path="url(#p4a61364780)" style="fill: none; stroke: #ffffff; stroke-width: 0.5"/>
     </g>
     <g id="line2d_4"/>
     <g id="text_2">
      <!-- 20 -->
      <g style="fill: #555555" transform="translate(141.839453 278.497813) scale(0.1 -0.1)">
       <defs>
        <path id="ArialMT-32" d="M 3222 541 
L 3222 0 
L 194 0 
Q 188 203 259 391 
Q 375 700 629 1000 
Q 884 1300 1366 1694 
Q 2113 2306 2375 2664 
Q 2638 3022 2638 3341 
Q 2638 3675 2398 3904 
Q 2159 4134 1775 4134 
Q 1369 4134 1125 3890 
Q 881 3647 878 3216 
L 300 3275 
Q 359 3922 746 4261 
Q 1134 4600 1788 4600 
Q 2447 4600 2831 4234 
Q 3216 3869 3216 3328 
Q 3216 3053 3103 2787 
Q 2991 2522 2730 2228 
Q 2469 1934 1863 1422 
Q 1356 997 1212 845 
Q 1069 694 975 541 
L 3222 541 
z
" transform="scale(0.015625)"/>
       </defs>
       <use xlink:href="#ArialMT-32"/>
       <use xlink:href="#ArialMT-30" x="55.615234"/>
      </g>
     </g>
    </g>
    <g id="xtick_3">
     <g id="line2d_5">
      <path d="M 210.150203 267.84 
L 210.150203 2.88 
" clip-path="url(#p4a61364780)" style="fill: none; stroke: #ffffff; stroke-width: 0.5"/>
     </g>
     <g id="line2d_6"/>
     <g id="text_3">
      <!-- 40 -->
      <g style="fill: #555555" transform="translate(204.589265 278.497813) scale(0.1 -0.1)">
       <defs>
        <path id="ArialMT-34" d="M 2069 0 
L 2069 1097 
L 81 1097 
L 81 1613 
L 2172 4581 
L 2631 4581 
L 2631 1613 
L 3250 1613 
L 3250 1097 
L 2631 1097 
L 2631 0 
L 2069 0 
z
M 2069 1613 
L 2069 3678 
L 634 1613 
L 2069 1613 
z
" transform="scale(0.015625)"/>
       </defs>
       <use xlink:href="#ArialMT-34"/>
       <use xlink:href="#ArialMT-30" x="55.615234"/>
      </g>
     </g>
    </g>
    <g id="xtick_4">
     <g id="line2d_7">
      <path d="M 272.900015 267.84 
L 272.900015 2.88 
" clip-path="url(#p4a61364780)" style="fill: none; stroke: #ffffff; stroke-width: 0.5"/>
     </g>
     <g id="line2d_8"/>
     <g id="text_4">
      <!-- 60 -->
      <g style="fill: #555555" transform="translate(267.339078 278.497813) scale(0.1 -0.1)">
       <defs>
        <path id="ArialMT-36" d="M 3184 3459 
L 2625 3416 
Q 2550 3747 2413 3897 
Q 2184 4138 1850 4138 
Q 1581 4138 1378 3988 
Q 1113 3794 959 3422 
Q 806 3050 800 2363 
Q 1003 2672 1297 2822 
Q 1591 2972 1913 2972 
Q 2475 2972 2870 2558 
Q 3266 2144 3266 1488 
Q 3266 1056 3080 686 
Q 2894 316 2569 119 
Q 2244 -78 1831 -78 
Q 1128 -78 684 439 
Q 241 956 241 2144 
Q 241 3472 731 4075 
Q 1159 4600 1884 4600 
Q 2425 4600 2770 4297 
Q 3116 3994 3184 3459 
z
M 888 1484 
Q 888 1194 1011 928 
Q 1134 663 1356 523 
Q 1578 384 1822 384 
Q 2178 384 2434 671 
Q 2691 959 2691 1453 
Q 2691 1928 2437 2201 
Q 2184 2475 1800 2475 
Q 1419 2475 1153 2201 
Q 888 1928 888 1484 
z
" transform="scale(0.015625)"/>
       </defs>
       <use xlink:href="#ArialMT-36"/>
       <use xlink:href="#ArialMT-30" x="55.615234"/>
      </g>
     </g>
    </g>
    <g id="xtick_5">
     <g id="line2d_9">
      <path d="M 335.649827 267.84 
L 335.649827 2.88 
" clip-path="url(#p4a61364780)" style="fill: none; stroke: #ffffff; stroke-width: 0.5"/>
     </g>
     <g id="line2d_10"/>
     <g id="text_5">
      <!-- 80 -->
      <g style="fill: #555555" transform="translate(330.08889 278.497813) scale(0.1 -0.1)">
       <defs>
        <path id="ArialMT-38" d="M 1131 2484 
Q 781 2613 612 2850 
Q 444 3088 444 3419 
Q 444 3919 803 4259 
Q 1163 4600 1759 4600 
Q 2359 4600 2725 4251 
Q 3091 3903 3091 3403 
Q 3091 3084 2923 2848 
Q 2756 2613 2416 2484 
Q 2838 2347 3058 2040 
Q 3278 1734 3278 1309 
Q 3278 722 2862 322 
Q 2447 -78 1769 -78 
Q 1091 -78 675 323 
Q 259 725 259 1325 
Q 259 1772 486 2073 
Q 713 2375 1131 2484 
z
M 1019 3438 
Q 1019 3113 1228 2906 
Q 1438 2700 1772 2700 
Q 2097 2700 2305 2904 
Q 2513 3109 2513 3406 
Q 2513 3716 2298 3927 
Q 2084 4138 1766 4138 
Q 1444 4138 1231 3931 
Q 1019 3725 1019 3438 
z
M 838 1322 
Q 838 1081 952 856 
Q 1066 631 1291 507 
Q 1516 384 1775 384 
Q 2178 384 2440 643 
Q 2703 903 2703 1303 
Q 2703 1709 2433 1975 
Q 2163 2241 1756 2241 
Q 1359 2241 1098 1978 
Q 838 1716 838 1322 
z
" transform="scale(0.015625)"/>
       </defs>
       <use xlink:href="#ArialMT-38"/>
       <use xlink:href="#ArialMT-30" x="55.615234"/>
      </g>
     </g>
    </g>
    <g id="xtick_6">
     <g id="line2d_11">
      <path d="M 398.399639 267.84 
L 398.399639 2.88 
" clip-path="url(#p4a61364780)" style="fill: none; stroke: #ffffff; stroke-width: 0.5"/>
     </g>
     <g id="line2d_12"/>
     <g id="text_6">
      <!-- 100 -->
      <g style="fill: #555555" transform="translate(390.058233 278.497813) scale(0.1 -0.1)">
       <defs>
        <path id="ArialMT-31" d="M 2384 0 
L 1822 0 
L 1822 3584 
Q 1619 3391 1289 3197 
Q 959 3003 697 2906 
L 697 3450 
Q 1169 3672 1522 3987 
Q 1875 4303 2022 4600 
L 2384 4600 
L 2384 0 
z
" transform="scale(0.015625)"/>
       </defs>
       <use xlink:href="#ArialMT-31"/>
       <use xlink:href="#ArialMT-30" x="55.615234"/>
       <use xlink:href="#ArialMT-30" x="111.230469"/>
      </g>
     </g>
    </g>
   </g>
   <g id="matplotlib.axis_2">
    <g id="ytick_1">
     <g id="line2d_13">
      <path d="M 69.12 255.792739 
L 410.792727 255.792739 
" clip-path="url(#p4a61364780)" style="fill: none; stroke: #ffffff; stroke-width: 0.5"/>
     </g>
     <g id="line2d_14"/>
     <g id="text_7">
      <!-- 0.0 -->
      <g style="fill: #555555" transform="translate(51.72 259.371646) scale(0.1 -0.1)">
       <defs>
        <path id="ArialMT-2e" d="M 581 0 
L 581 641 
L 1222 641 
L 1222 0 
L 581 0 
z
" transform="scale(0.015625)"/>
       </defs>
       <use xlink:href="#ArialMT-30"/>
       <use xlink:href="#ArialMT-2e" x="55.615234"/>
       <use xlink:href="#ArialMT-30" x="83.398438"/>
      </g>
     </g>
    </g>
    <g id="ytick_2">
     <g id="line2d_15">
      <path d="M 69.12 207.618919 
L 410.792727 207.618919 
" clip-path="url(#p4a61364780)" style="fill: none; stroke: #ffffff; stroke-width: 0.5"/>
     </g>
     <g id="line2d_16"/>
     <g id="text_8">
      <!-- 0.2 -->
      <g style="fill: #555555" transform="translate(51.72 211.197825) scale(0.1 -0.1)">
       <use xlink:href="#ArialMT-30"/>
       <use xlink:href="#ArialMT-2e" x="55.615234"/>
       <use xlink:href="#ArialMT-32" x="83.398438"/>
      </g>
     </g>
    </g>
    <g id="ytick_3">
     <g id="line2d_17">
      <path d="M 69.12 159.445098 
L 410.792727 159.445098 
" clip-path="url(#p4a61364780)" style="fill: none; stroke: #ffffff; stroke-width: 0.5"/>
     </g>
     <g id="line2d_18"/>
     <g id="text_9">
      <!-- 0.4 -->
      <g style="fill: #555555" transform="translate(51.72 163.024004) scale(0.1 -0.1)">
       <use xlink:href="#ArialMT-30"/>
       <use xlink:href="#ArialMT-2e" x="55.615234"/>
       <use xlink:href="#ArialMT-34" x="83.398438"/>
      </g>
     </g>
    </g>
    <g id="ytick_4">
     <g id="line2d_19">
      <path d="M 69.12 111.271278 
L 410.792727 111.271278 
" clip-path="url(#p4a61364780)" style="fill: none; stroke: #ffffff; stroke-width: 0.5"/>
     </g>
     <g id="line2d_20"/>
     <g id="text_10">
      <!-- 0.6 -->
      <g style="fill: #555555" transform="translate(51.72 114.850184) scale(0.1 -0.1)">
       <use xlink:href="#ArialMT-30"/>
       <use xlink:href="#ArialMT-2e" x="55.615234"/>
       <use xlink:href="#ArialMT-36" x="83.398438"/>
      </g>
     </g>
    </g>
    <g id="ytick_5">
     <g id="line2d_21">
      <path d="M 69.12 63.097457 
L 410.792727 63.097457 
" clip-path="url(#p4a61364780)" style="fill: none; stroke: #ffffff; stroke-width: 0.5"/>
     </g>
     <g id="line2d_22"/>
     <g id="text_11">
      <!-- 0.8 -->
      <g style="fill: #555555" transform="translate(51.72 66.676363) scale(0.1 -0.1)">
       <use xlink:href="#ArialMT-30"/>
       <use xlink:href="#ArialMT-2e" x="55.615234"/>
       <use xlink:href="#ArialMT-38" x="83.398438"/>
      </g>
     </g>
    </g>
    <g id="ytick_6">
     <g id="line2d_23">
      <path d="M 69.12 14.923636 
L 410.792727 14.923636 
" clip-path="url(#p4a61364780)" style="fill: none; stroke: #ffffff; stroke-width: 0.5"/>
     </g>
     <g id="line2d_24"/>
     <g id="text_12">
      <!-- 1.0 -->
      <g style="fill: #555555" transform="translate(51.72 18.502543) scale(0.1 -0.1)">
       <use xlink:href="#ArialMT-31"/>
       <use xlink:href="#ArialMT-2e" x="55.615234"/>
       <use xlink:href="#ArialMT-30" x="83.398438"/>
      </g>
     </g>
    </g>
   </g>
   <g id="line2d_25">
    <path d="M 84.650579 255.792739 
L 87.788069 255.792735 
L 90.92556 255.791841 
L 94.06305 255.779072 
L 97.200541 255.714059 
L 100.338032 255.517186 
L 103.475522 255.076384 
L 106.613013 254.26618 
L 109.750503 252.959935 
L 112.887994 251.038255 
L 116.025485 248.407641 
L 119.162975 245.013262 
L 122.300466 240.835291 
L 125.437956 235.870944 
L 128.575447 230.120366 
L 131.712938 223.588717 
L 134.850428 216.3033 
L 137.987919 208.328914 
L 141.125409 199.767333 
L 144.2629 190.741191 
L 147.400391 181.377361 
L 150.537881 171.799663 
L 153.675372 162.113611 
L 156.812863 152.388993 
L 159.950353 142.657251 
L 163.087844 132.925167 
L 166.225334 123.193108 
L 169.362825 113.463038 
L 172.500316 103.751502 
L 175.637806 94.108414 
L 178.775297 84.622806 
L 181.912787 75.411969 
L 185.050278 66.602287 
L 188.187769 58.319762 
L 191.325259 50.679247 
L 194.46275 43.765135 
L 197.60024 37.622505 
L 200.737731 32.264955 
L 203.875222 27.693822 
L 207.012712 23.908557 
L 210.150203 20.900442 
L 213.287693 18.633668 
L 216.425184 17.033498 
L 219.562675 15.990977 
L 222.700165 15.381353 
L 225.837656 15.077825 
L 228.975147 14.959228 
L 232.112637 14.927802 
L 235.250128 14.923745 
L 238.387618 14.923636 
L 241.525109 14.923636 
L 244.6626 14.923745 
L 247.80009 14.927802 
L 250.937581 14.959228 
L 254.075071 15.077825 
L 257.212562 15.381353 
L 260.350053 15.990977 
L 263.487543 17.033498 
L 266.625034 18.633668 
L 269.762524 20.900442 
L 272.900015 23.908557 
L 276.037506 27.693822 
L 279.174996 32.264955 
L 282.312487 37.622505 
L 285.449977 43.765135 
L 288.587468 50.679247 
L 291.724959 58.319762 
L 294.862449 66.602287 
L 297.99994 75.411969 
L 301.137431 84.622806 
L 304.274921 94.108414 
L 307.412412 103.751502 
L 310.549902 113.463038 
L 313.687393 123.193108 
L 316.824884 132.925167 
L 319.962374 142.657251 
L 323.099865 152.388993 
L 326.237355 162.113611 
L 329.374846 171.799663 
L 332.512337 181.377361 
L 335.649827 190.741191 
L 338.787318 199.767333 
L 341.924808 208.328914 
L 345.062299 216.3033 
L 348.19979 223.588717 
L 351.33728 230.120366 
L 354.474771 235.870944 
L 357.612261 240.835291 
L 360.749752 245.013262 
L 363.887243 248.407641 
L 367.024733 251.038255 
L 370.162224 252.959935 
L 373.299715 254.26618 
L 376.437205 255.076384 
L 379.574696 255.517186 
L 382.712186 255.714059 
L 385.849677 255.779072 
L 388.987168 255.791841 
L 392.124658 255.792735 
L 395.262149 255.792739 
" clip-path="url(#p4a61364780)" style="fill: none; stroke: #e24a33; stroke-width: 2"/>
   </g>
   <g id="line2d_26">
    <path d="M 84.650579 255.796364 
L 87.788069 255.516941 
L 90.92556 253.651061 
L 94.06305 250.516999 
L 97.200541 246.725522 
L 100.338032 241.158434 
L 103.475522 234.669529 
L 106.613013 227.25887 
L 109.750503 218.072723 
L 112.887994 208.456511 
L 116.025485 200.101319 
L 119.162975 193.332744 
L 122.300466 187.123064 
L 125.437956 182.499842 
L 128.575447 179.144764 
L 131.712938 176.446975 
L 134.850428 175.524201 
L 137.987919 175.45946 
L 141.125409 174.536689 
L 144.2629 171.838902 
L 147.400391 168.48383 
L 150.537881 163.860616 
L 153.675372 157.650945 
L 156.812863 150.882384 
L 159.950353 142.527209 
L 163.087844 132.911018 
L 166.225334 123.724901 
L 169.362825 116.314279 
L 172.500316 109.825427 
L 175.637806 104.258415 
L 178.775297 100.467055 
L 181.912787 97.333197 
L 185.050278 95.467791 
L 188.187769 95.190705 
L 191.325259 94.91362 
L 194.46275 93.048216 
L 197.60024 89.914363 
L 200.737731 86.123009 
L 203.875222 80.556006 
L 207.012712 74.067165 
L 210.150203 66.656559 
L 213.287693 57.47046 
L 216.425184 47.854295 
L 219.562675 39.499153 
L 222.700165 32.730636 
L 225.837656 26.521028 
L 228.975147 21.897907 
L 232.112637 18.542986 
L 235.250128 15.845495 
L 238.387618 14.923636 
L 241.525109 14.923636 
L 244.6626 15.845495 
L 247.80009 18.542986 
L 250.937581 21.897907 
L 254.075071 26.521028 
L 257.212562 32.730636 
L 260.350053 39.499153 
L 263.487543 47.854295 
L 266.625034 57.47046 
L 269.762524 66.656559 
L 272.900015 74.067165 
L 276.037506 80.556006 
L 279.174996 86.123009 
L 282.312487 89.914363 
L 285.449977 93.048216 
L 288.587468 94.91362 
L 291.724959 95.190705 
L 294.862449 95.467791 
L 297.99994 97.333197 
L 301.137431 100.467055 
L 304.274921 104.258415 
L 307.412412 109.825427 
L 310.549902 116.314279 
L 313.687393 123.724901 
L 316.824884 132.911018 
L 319.962374 142.527209 
L 323.099865 150.882384 
L 326.237355 157.650945 
L 329.374846 163.860616 
L 332.512337 168.48383 
L 335.649827 171.838902 
L 338.787318 174.536689 
L 341.924808 175.45946 
L 345.062299 175.524201 
L 348.19979 176.446975 
L 351.33728 179.144764 
L 354.474771 182.499842 
L 357.612261 187.123064 
L 360.749752 193.332744 
L 363.887243 200.101319 
L 367.024733 208.456511 
L 370.162224 218.072723 
L 373.299715 227.25887 
L 376.437205 234.669529 
L 379.574696 241.158434 
L 382.712186 246.725522 
L 385.849677 250.516999 
L 388.987168 253.651061 
L 392.124658 255.516941 
L 395.262149 255.796364 
" clip-path="url(#p4a61364780)" style="fill: none; stroke: #348abd; stroke-width: 2"/>
   </g>
   <g id="line2d_27">
    <path d="M 84.650579 255.792715 
L 87.788069 255.779354 
L 90.92556 255.493595 
L 94.06305 254.360212 
L 97.200541 251.870167 
L 100.338032 247.888866 
L 103.475522 242.414568 
L 106.613013 235.447274 
L 109.750503 226.988723 
L 112.887994 217.173511 
L 116.025485 206.510679 
L 119.162975 195.575457 
L 122.300466 184.626875 
L 125.437956 173.678283 
L 128.575447 162.729688 
L 131.712938 151.781093 
L 134.850428 140.832497 
L 137.987919 129.883902 
L 141.125409 118.935306 
L 144.2629 107.98671 
L 147.400391 97.038116 
L 150.537881 86.089523 
L 153.675372 75.140941 
L 156.812863 64.205719 
L 159.950353 53.542887 
L 163.087844 43.727674 
L 166.225334 35.269123 
L 169.362825 28.301829 
L 172.500316 22.827531 
L 175.637806 18.846228 
L 178.775297 16.356183 
L 181.912787 15.222799 
L 185.050278 14.937035 
L 188.187769 14.92366 
L 191.325259 14.923646 
L 194.46275 14.923642 
L 197.60024 14.923641 
L 200.737731 14.92364 
L 203.875222 14.923639 
L 207.012712 14.923639 
L 210.150203 14.923638 
L 213.287693 14.923638 
L 216.425184 14.923638 
L 219.562675 14.923637 
L 222.700165 14.923637 
L 225.837656 14.923637 
L 228.975147 14.923637 
L 232.112637 14.923636 
L 235.250128 14.923636 
L 238.387618 14.923636 
L 241.525109 14.923636 
L 244.6626 14.923636 
L 247.80009 14.923636 
L 250.937581 14.923637 
L 254.075071 14.923637 
L 257.212562 14.923637 
L 260.350053 14.923637 
L 263.487543 14.923638 
L 266.625034 14.923638 
L 269.762524 14.923638 
L 272.900015 14.923639 
L 276.037506 14.923639 
L 279.174996 14.92364 
L 282.312487 14.923641 
L 285.449977 14.923642 
L 288.587468 14.923646 
L 291.724959 14.92366 
L 294.862449 14.937035 
L 297.99994 15.222799 
L 301.137431 16.356183 
L 304.274921 18.846228 
L 307.412412 22.827531 
L 310.549902 28.301829 
L 313.687393 35.269123 
L 316.824884 43.727674 
L 319.962374 53.542887 
L 323.099865 64.205719 
L 326.237355 75.140941 
L 329.374846 86.089523 
L 332.512337 97.038116 
L 335.649827 107.98671 
L 338.787318 118.935306 
L 341.924808 129.883902 
L 345.062299 140.832497 
L 348.19979 151.781093 
L 351.33728 162.729688 
L 354.474771 173.678283 
L 357.612261 184.626875 
L 360.749752 195.575457 
L 363.887243 206.510679 
L 367.024733 217.173511 
L 370.162224 226.988723 
L 373.299715 235.447274 
L 376.437205 242.414568 
L 379.574696 247.888866 
L 382.712186 251.870167 
L 385.849677 254.360212 
L 388.987168 255.493595 
L 392.124658 255.779354 
L 395.262149 255.792715 
" clip-path="url(#p4a61364780)" style="fill: none; stroke: #988ed5; stroke-width: 2"/>
   </g>
   <g id="line2d_28">
    <path d="M 84.650579 255.792739 
L 87.788069 255.792739 
L 90.92556 255.792739 
L 94.06305 255.792728 
L 97.200541 255.792546 
L 100.338032 255.791236 
L 103.475522 255.785575 
L 106.613013 255.767999 
L 109.750503 255.724365 
L 112.887994 255.6317 
L 116.025485 255.456214 
L 119.162975 255.152589 
L 122.300466 254.665665 
L 125.437956 253.934152 
L 128.575447 252.895069 
L 131.712938 251.488252 
L 134.850428 249.660711 
L 137.987919 247.369952 
L 141.125409 244.585033 
L 144.2629 241.285394 
L 147.400391 237.458748 
L 150.537881 233.098826 
L 153.675372 228.203149 
L 156.812863 222.771066 
L 159.950353 216.802485 
L 163.087844 210.297403 
L 166.225334 203.25582 
L 169.362825 195.677736 
L 172.500316 187.563224 
L 175.637806 178.913088 
L 178.775297 169.731388 
L 181.912787 160.030435 
L 185.050278 149.837213 
L 188.187769 139.200153 
L 191.325259 128.195803 
L 194.46275 116.934219 
L 197.60024 105.559518 
L 200.737731 94.242964 
L 203.875222 83.170962 
L 207.012712 72.531614 
L 210.150203 62.501198 
L 213.287693 53.231538 
L 216.425184 44.841436 
L 219.562675 37.415424 
L 222.700165 31.00835 
L 225.837656 25.651923 
L 228.975147 21.361496 
L 232.112637 18.142641 
L 235.250128 15.99664 
L 238.387618 14.923636 
L 241.525109 14.923636 
L 244.6626 15.99664 
L 247.80009 18.142641 
L 250.937581 21.361496 
L 254.075071 25.651923 
L 257.212562 31.00835 
L 260.350053 37.415424 
L 263.487543 44.841436 
L 266.625034 53.231538 
L 269.762524 62.501198 
L 272.900015 72.531614 
L 276.037506 83.170962 
L 279.174996 94.242964 
L 282.312487 105.559518 
L 285.449977 116.934219 
L 288.587468 128.195803 
L 291.724959 139.200153 
L 294.862449 149.837213 
L 297.99994 160.030435 
L 301.137431 169.731388 
L 304.274921 178.913088 
L 307.412412 187.563224 
L 310.549902 195.677736 
L 313.687393 203.25582 
L 316.824884 210.297403 
L 319.962374 216.802485 
L 323.099865 222.771066 
L 326.237355 228.203149 
L 329.374846 233.098826 
L 332.512337 237.458748 
L 335.649827 241.285394 
L 338.787318 244.585033 
L 341.924808 247.369952 
L 345.062299 249.660711 
L 348.19979 251.488252 
L 351.33728 252.895069 
L 354.474771 253.934152 
L 357.612261 254.665665 
L 360.749752 255.152589 
L 363.887243 255.456214 
L 367.024733 255.6317 
L 370.162224 255.724365 
L 373.299715 255.767999 
L 376.437205 255.785575 
L 379.574696 255.791236 
L 382.712186 255.792546 
L 385.849677 255.792728 
L 388.987168 255.792739 
L 392.124658 255.792739 
L 395.262149 255.792739 
" clip-path="url(#p4a61364780)" style="fill: none; stroke: #777777; stroke-width: 2"/>
   </g>
   <g id="line2d_29">
    <path d="M 84.650579 255.792739 
L 87.788069 255.792739 
L 90.92556 255.792739 
L 94.06305 255.792708 
L 97.200541 255.792407 
L 100.338032 255.790885 
L 103.475522 255.78566 
L 106.613013 255.771759 
L 109.750503 255.740763 
L 112.887994 255.680015 
L 116.025485 255.572152 
L 119.162975 255.394949 
L 122.300466 255.121299 
L 125.437956 254.719246 
L 128.575447 254.152194 
L 131.712938 253.379443 
L 134.850428 252.357034 
L 137.987919 251.038711 
L 141.125409 249.376869 
L 144.2629 247.32332 
L 147.400391 244.829724 
L 150.537881 241.847725 
L 153.675372 238.328974 
L 156.812863 234.225309 
L 159.950353 229.489691 
L 163.087844 224.078506 
L 166.225334 217.955001 
L 169.362825 211.093172 
L 172.500316 203.481511 
L 175.637806 195.125952 
L 178.775297 186.051455 
L 181.912787 176.30247 
L 185.050278 165.942972 
L 188.187769 155.056243 
L 191.325259 143.74381 
L 194.46275 132.123016 
L 197.60024 120.323496 
L 200.737731 108.483288 
L 203.875222 96.745128 
L 207.012712 85.253624 
L 210.150203 74.15381 
L 213.287693 63.590756 
L 216.425184 53.709505 
L 219.562675 44.65467 
L 222.700165 36.568658 
L 225.837656 29.587819 
L 228.975147 23.837062 
L 232.112637 19.424008 
L 235.250128 16.433516 
L 238.387618 14.923636 
L 241.525109 14.923636 
L 244.6626 16.433516 
L 247.80009 19.424008 
L 250.937581 23.837062 
L 254.075071 29.587819 
L 257.212562 36.568658 
L 260.350053 44.65467 
L 263.487543 53.709505 
L 266.625034 63.590756 
L 269.762524 74.15381 
L 272.900015 85.253624 
L 276.037506 96.745128 
L 279.174996 108.483288 
L 282.312487 120.323496 
L 285.449977 132.123016 
L 288.587468 143.74381 
L 291.724959 155.056243 
L 294.862449 165.942972 
L 297.99994 176.30247 
L 301.137431 186.051455 
L 304.274921 195.125952 
L 307.412412 203.481511 
L 310.549902 211.093172 
L 313.687393 217.955001 
L 316.824884 224.078506 
L 319.962374 229.489691 
L 323.099865 234.225309 
L 326.237355 238.328974 
L 329.374846 241.847725 
L 332.512337 244.829724 
L 335.649827 247.32332 
L 338.787318 249.376869 
L 341.924808 251.038711 
L 345.062299 252.357034 
L 348.19979 253.379443 
L 351.33728 254.152194 
L 354.474771 254.719246 
L 357.612261 255.121299 
L 360.749752 255.394949 
L 363.887243 255.572152 
L 367.024733 255.680015 
L 370.162224 255.740763 
L 373.299715 255.771759 
L 376.437205 255.78566 
L 379.574696 255.790885 
L 382.712186 255.792407 
L 385.849677 255.792708 
L 388.987168 255.792739 
L 392.124658 255.792739 
L 395.262149 255.792739 
" clip-path="url(#p4a61364780)" style="fill: none; stroke: #fbc15e; stroke-width: 2"/>
   </g>
   <g id="line2d_30">
    <path d="M 84.650579 255.792739 
L 87.788069 255.792739 
L 90.92556 255.792739 
L 94.06305 255.792739 
L 97.200541 255.792739 
L 100.338032 255.792739 
L 103.475522 255.792739 
L 106.613013 255.792739 
L 109.750503 255.792732 
L 112.887994 255.792693 
L 116.025485 255.792521 
L 119.162975 255.791899 
L 122.300466 255.79 
L 125.437956 255.784946 
L 128.575447 255.772947 
L 131.712938 255.747079 
L 134.850428 255.695705 
L 137.987919 255.600623 
L 141.125409 255.435085 
L 144.2629 255.161884 
L 147.400391 254.731787 
L 150.537881 254.082599 
L 153.675372 253.139133 
L 156.812863 251.814253 
L 159.950353 250.011001 
L 163.087844 247.625702 
L 166.225334 244.551786 
L 169.362825 240.684089 
L 172.500316 235.923404 
L 175.637806 230.181151 
L 178.775297 223.384079 
L 181.912787 215.478981 
L 185.050278 206.437401 
L 188.187769 196.260308 
L 191.325259 184.982626 
L 194.46275 172.67739 
L 197.60024 159.459095 
L 200.737731 145.485621 
L 203.875222 130.958039 
L 207.012712 116.117733 
L 210.150203 101.240575 
L 213.287693 86.62834 
L 216.425184 72.597912 
L 219.562675 59.46912 
L 222.700165 47.55214 
L 225.837656 37.135374 
L 228.975147 28.474605 
L 232.112637 21.784025 
L 235.250128 17.229439 
L 238.387618 14.923636 
L 241.525109 14.923636 
L 244.6626 17.229439 
L 247.80009 21.784025 
L 250.937581 28.474605 
L 254.075071 37.135374 
L 257.212562 47.55214 
L 260.350053 59.46912 
L 263.487543 72.597912 
L 266.625034 86.62834 
L 269.762524 101.240575 
L 272.900015 116.117733 
L 276.037506 130.958039 
L 279.174996 145.485621 
L 282.312487 159.459095 
L 285.449977 172.67739 
L 288.587468 184.982626 
L 291.724959 196.260308 
L 294.862449 206.437401 
L 297.99994 215.478981 
L 301.137431 223.384079 
L 304.274921 230.181151 
L 307.412412 235.923404 
L 310.549902 240.684089 
L 313.687393 244.551786 
L 316.824884 247.625702 
L 319.962374 250.011001 
L 323.099865 251.814253 
L 326.237355 253.139133 
L 329.374846 254.082599 
L 332.512337 254.731787 
L 335.649827 255.161884 
L 338.787318 255.435085 
L 341.924808 255.600623 
L 345.062299 255.695705 
L 348.19979 255.747079 
L 351.33728 255.772947 
L 354.474771 255.784946 
L 357.612261 255.79 
L 360.749752 255.791899 
L 363.887243 255.792521 
L 367.024733 255.792693 
L 370.162224 255.792732 
L 373.299715 255.792739 
L 376.437205 255.792739 
L 379.574696 255.792739 
L 382.712186 255.792739 
L 385.849677 255.792739 
L 388.987168 255.792739 
L 392.124658 255.792739 
L 395.262149 255.792739 
" clip-path="url(#p4a61364780)" style="fill: none; stroke: #8eba42; stroke-width: 2"/>
   </g>
   <g id="line2d_31">
    <path d="M 84.650579 255.792739 
L 87.788069 255.792739 
L 90.92556 255.792613 
L 94.06305 255.790366 
L 97.200541 255.776853 
L 100.338032 255.730166 
L 103.475522 255.613565 
L 106.613013 255.37667 
L 109.750503 254.960357 
L 112.887994 254.302621 
L 116.025485 253.341208 
L 119.162975 252.014979 
L 122.300466 250.268377 
L 125.437956 248.057474 
L 128.575447 245.352986 
L 131.712938 242.139896 
L 134.850428 238.413448 
L 137.987919 234.173022 
L 141.125409 229.418618 
L 144.2629 224.150856 
L 147.400391 218.374492 
L 150.537881 212.104544 
L 153.675372 205.370293 
L 156.812863 198.215671 
L 159.950353 190.696232 
L 163.087844 182.873116 
L 166.225334 174.808577 
L 169.362825 166.56462 
L 172.500316 158.200369 
L 175.637806 149.766204 
L 178.775297 141.298865 
L 181.912787 132.82026 
L 185.050278 124.339535 
L 188.187769 115.858683 
L 191.325259 107.377832 
L 194.46275 98.897233 
L 197.60024 90.420874 
L 200.737731 81.967048 
L 203.875222 73.579571 
L 207.012712 65.33192 
L 210.150203 57.324858 
L 213.287693 49.676632 
L 216.425184 42.511253 
L 219.562675 35.953226 
L 222.700165 30.124834 
L 225.837656 25.137184 
L 228.975147 21.07814 
L 232.112637 18.006263 
L 235.250128 15.951592 
L 238.387618 14.923636 
L 241.525109 14.923636 
L 244.6626 15.951592 
L 247.80009 18.006263 
L 250.937581 21.07814 
L 254.075071 25.137184 
L 257.212562 30.124834 
L 260.350053 35.953226 
L 263.487543 42.511253 
L 266.625034 49.676632 
L 269.762524 57.324858 
L 272.900015 65.33192 
L 276.037506 73.579571 
L 279.174996 81.967048 
L 282.312487 90.420874 
L 285.449977 98.897233 
L 288.587468 107.377832 
L 291.724959 115.858683 
L 294.862449 124.339535 
L 297.99994 132.82026 
L 301.137431 141.298865 
L 304.274921 149.766204 
L 307.412412 158.200369 
L 310.549902 166.56462 
L 313.687393 174.808577 
L 316.824884 182.873116 
L 319.962374 190.696232 
L 323.099865 198.215671 
L 326.237355 205.370293 
L 329.374846 212.104544 
L 332.512337 218.374492 
L 335.649827 224.150856 
L 338.787318 229.418618 
L 341.924808 234.173022 
L 345.062299 238.413448 
L 348.19979 242.139896 
L 351.33728 245.352986 
L 354.474771 248.057474 
L 357.612261 250.268377 
L 360.749752 252.014979 
L 363.887243 253.341208 
L 367.024733 254.302621 
L 370.162224 254.960357 
L 373.299715 255.37667 
L 376.437205 255.613565 
L 379.574696 255.730166 
L 382.712186 255.776853 
L 385.849677 255.790366 
L 388.987168 255.792613 
L 392.124658 255.792739 
L 395.262149 255.792739 
" clip-path="url(#p4a61364780)" style="fill: none; stroke: #ffb5b8; stroke-width: 2"/>
   </g>
   <g id="line2d_32">
    <path d="M 84.650579 255.792723 
L 87.788069 255.790654 
L 90.92556 255.749785 
L 94.06305 255.569162 
L 97.200541 255.141629 
L 100.338032 254.421689 
L 103.475522 253.376161 
L 106.613013 251.91123 
L 109.750503 249.914777 
L 112.887994 247.334805 
L 116.025485 244.188648 
L 119.162975 240.562311 
L 122.300466 236.57139 
L 125.437956 232.276943 
L 128.575447 227.705247 
L 131.712938 222.934084 
L 134.850428 218.080845 
L 137.987919 213.214801 
L 141.125409 208.335951 
L 144.2629 203.375025 
L 147.400391 198.214633 
L 150.537881 192.776991 
L 153.675372 187.035824 
L 156.812863 180.930073 
L 159.950353 174.344141 
L 163.087844 167.192024 
L 166.225334 159.456389 
L 169.362825 151.189231 
L 172.500316 142.502671 
L 175.637806 133.490523 
L 178.775297 124.185967 
L 181.912787 114.634503 
L 185.050278 104.943287 
L 188.187769 95.213279 
L 191.325259 85.485341 
L 194.46275 75.834994 
L 197.60024 66.464153 
L 200.737731 57.587129 
L 203.875222 49.294922 
L 207.012712 41.65389 
L 210.150203 34.851664 
L 213.287693 29.112481 
L 216.425184 24.540336 
L 219.562675 21.100561 
L 222.700165 18.621147 
L 225.837656 16.870901 
L 228.975147 15.727706 
L 232.112637 15.13901 
L 235.250128 14.949247 
L 238.387618 14.923636 
L 241.525109 14.923636 
L 244.6626 14.949247 
L 247.80009 15.13901 
L 250.937581 15.727706 
L 254.075071 16.870901 
L 257.212562 18.621147 
L 260.350053 21.100561 
L 263.487543 24.540336 
L 266.625034 29.112481 
L 269.762524 34.851664 
L 272.900015 41.65389 
L 276.037506 49.294922 
L 279.174996 57.587129 
L 282.312487 66.464153 
L 285.449977 75.834994 
L 288.587468 85.485341 
L 291.724959 95.213279 
L 294.862449 104.943287 
L 297.99994 114.634503 
L 301.137431 124.185967 
L 304.274921 133.490523 
L 307.412412 142.502671 
L 310.549902 151.189231 
L 313.687393 159.456389 
L 316.824884 167.192024 
L 319.962374 174.344141 
L 323.099865 180.930073 
L 326.237355 187.035824 
L 329.374846 192.776991 
L 332.512337 198.214633 
L 335.649827 203.375025 
L 338.787318 208.335951 
L 341.924808 213.214801 
L 345.062299 218.080845 
L 348.19979 222.934084 
L 351.33728 227.705247 
L 354.474771 232.276943 
L 357.612261 236.57139 
L 360.749752 240.562311 
L 363.887243 244.188648 
L 367.024733 247.334805 
L 370.162224 249.914777 
L 373.299715 251.91123 
L 376.437205 253.376161 
L 379.574696 254.421689 
L 382.712186 255.141629 
L 385.849677 255.569162 
L 388.987168 255.749785 
L 392.124658 255.790654 
L 395.262149 255.792723 
" clip-path="url(#p4a61364780)" style="fill: none; stroke: #e24a33; stroke-width: 2"/>
   </g>
   <g id="patch_3">
    <path d="M 69.12 267.84 
L 69.12 2.88 
" style="fill: none; stroke: #ffffff; stroke-linejoin: miter; stroke-linecap: square"/>
   </g>
   <g id="patch_4">
    <path d="M 410.792727 267.84 
L 410.792727 2.88 
" style="fill: none; stroke: #ffffff; stroke-linejoin: miter; stroke-linecap: square"/>
   </g>
   <g id="patch_5">
    <path d="M 69.12 267.84 
L 410.792727 267.84 
" style="fill: none; stroke: #ffffff; stroke-linejoin: miter; stroke-linecap: square"/>
   </g>
   <g id="patch_6">
    <path d="M 69.12 2.88 
L 410.792727 2.88 
" style="fill: none; stroke: #ffffff; stroke-linejoin: miter; stroke-linecap: square"/>
   </g>
   <g id="text_13">
    <!-- $\mathrm{mode}=max$ -->
    <g style="fill: #262626" transform="translate(200.788364 -3.12) scale(0.144 -0.144)">
     <defs>
      <path id="Cmr10-6d" d="M 191 0 
L 191 225 
Q 409 225 550 259 
Q 691 294 691 428 
L 691 2175 
Q 691 2347 639 2423 
Q 588 2500 491 2517 
Q 394 2534 191 2534 
L 191 2759 
L 1119 2828 
L 1119 2203 
Q 1247 2478 1498 2653 
Q 1750 2828 2047 2828 
Q 2784 2828 2913 2228 
Q 3041 2497 3287 2662 
Q 3534 2828 3828 2828 
Q 4119 2828 4317 2734 
Q 4516 2641 4616 2448 
Q 4716 2256 4716 1966 
L 4716 428 
Q 4716 294 4858 259 
Q 5000 225 5216 225 
L 5216 0 
L 3750 0 
L 3750 225 
Q 3969 225 4109 259 
Q 4250 294 4250 428 
L 4250 1947 
Q 4250 2269 4159 2466 
Q 4069 2663 3788 2663 
Q 3419 2663 3178 2366 
Q 2938 2069 2938 1691 
L 2938 428 
Q 2938 294 3078 259 
Q 3219 225 3438 225 
L 3438 0 
L 1972 0 
L 1972 225 
Q 2191 225 2331 259 
Q 2472 294 2472 428 
L 2472 1947 
Q 2472 2259 2381 2461 
Q 2291 2663 2009 2663 
Q 1638 2663 1398 2366 
Q 1159 2069 1159 1691 
L 1159 428 
Q 1159 294 1300 259 
Q 1441 225 1656 225 
L 1656 0 
L 191 0 
z
" transform="scale(0.015625)"/>
      <path id="Cmr10-6f" d="M 1600 -72 
Q 1216 -72 887 123 
Q 559 319 368 647 
Q 178 975 178 1363 
Q 178 1656 283 1928 
Q 388 2200 583 2414 
Q 778 2628 1037 2748 
Q 1297 2869 1600 2869 
Q 1994 2869 2317 2661 
Q 2641 2453 2828 2104 
Q 3016 1756 3016 1363 
Q 3016 978 2825 648 
Q 2634 319 2307 123 
Q 1981 -72 1600 -72 
z
M 1600 116 
Q 2113 116 2284 487 
Q 2456 859 2456 1434 
Q 2456 1756 2422 1967 
Q 2388 2178 2272 2350 
Q 2200 2456 2089 2536 
Q 1978 2616 1854 2658 
Q 1731 2700 1600 2700 
Q 1400 2700 1220 2609 
Q 1041 2519 922 2350 
Q 803 2169 770 1951 
Q 738 1734 738 1434 
Q 738 1075 800 789 
Q 863 503 1052 309 
Q 1241 116 1600 116 
z
" transform="scale(0.015625)"/>
      <path id="Cmr10-64" d="M 1563 -72 
Q 1184 -72 871 133 
Q 559 338 386 672 
Q 213 1006 213 1381 
Q 213 1769 402 2101 
Q 591 2434 916 2631 
Q 1241 2828 1631 2828 
Q 1866 2828 2075 2729 
Q 2284 2631 2438 2456 
L 2438 3788 
Q 2438 3959 2386 4036 
Q 2334 4113 2239 4130 
Q 2144 4147 1941 4147 
L 1941 4372 
L 2888 4441 
L 2888 581 
Q 2888 413 2939 336 
Q 2991 259 3086 242 
Q 3181 225 3384 225 
L 3384 0 
L 2419 -72 
L 2419 331 
Q 2253 141 2025 34 
Q 1797 -72 1563 -72 
z
M 909 556 
Q 1019 347 1201 222 
Q 1384 97 1600 97 
Q 1866 97 2087 250 
Q 2309 403 2419 647 
L 2419 2181 
Q 2344 2322 2230 2433 
Q 2116 2544 1973 2603 
Q 1831 2663 1672 2663 
Q 1338 2663 1134 2473 
Q 931 2284 850 1990 
Q 769 1697 769 1375 
Q 769 1119 795 928 
Q 822 738 909 556 
z
" transform="scale(0.015625)"/>
      <path id="Cmr10-65" d="M 1594 -72 
Q 1203 -72 876 133 
Q 550 338 364 680 
Q 178 1022 178 1403 
Q 178 1778 348 2115 
Q 519 2453 823 2661 
Q 1128 2869 1503 2869 
Q 1797 2869 2014 2770 
Q 2231 2672 2372 2497 
Q 2513 2322 2584 2084 
Q 2656 1847 2656 1563 
Q 2656 1478 2591 1478 
L 738 1478 
L 738 1409 
Q 738 878 952 497 
Q 1166 116 1650 116 
Q 1847 116 2014 203 
Q 2181 291 2304 447 
Q 2428 603 2472 781 
Q 2478 803 2495 820 
Q 2513 838 2534 838 
L 2591 838 
Q 2656 838 2656 756 
Q 2566 394 2266 161 
Q 1966 -72 1594 -72 
z
M 744 1638 
L 2203 1638 
Q 2203 1878 2136 2125 
Q 2069 2372 1912 2536 
Q 1756 2700 1503 2700 
Q 1141 2700 942 2361 
Q 744 2022 744 1638 
z
" transform="scale(0.015625)"/>
      <path id="Cmr10-3d" d="M 481 850 
Q 428 850 393 890 
Q 359 931 359 978 
Q 359 1031 393 1068 
Q 428 1106 481 1106 
L 4500 1106 
Q 4547 1106 4581 1068 
Q 4616 1031 4616 978 
Q 4616 931 4581 890 
Q 4547 850 4500 850 
L 481 850 
z
M 481 2094 
Q 428 2094 393 2131 
Q 359 2169 359 2222 
Q 359 2269 393 2309 
Q 428 2350 481 2350 
L 4500 2350 
Q 4547 2350 4581 2309 
Q 4616 2269 4616 2222 
Q 4616 2169 4581 2131 
Q 4547 2094 4500 2094 
L 481 2094 
z
" transform="scale(0.015625)"/>
      <path id="Cmmi10-6d" d="M 494 109 
Q 494 147 500 166 
L 978 2075 
Q 1025 2253 1025 2388 
Q 1025 2663 838 2663 
Q 638 2663 541 2423 
Q 444 2184 353 1819 
Q 353 1800 334 1789 
Q 316 1778 300 1778 
L 225 1778 
Q 203 1778 187 1801 
Q 172 1825 172 1844 
Q 241 2122 305 2315 
Q 369 2509 505 2668 
Q 641 2828 844 2828 
Q 1084 2828 1268 2676 
Q 1453 2525 1453 2291 
Q 1644 2541 1900 2684 
Q 2156 2828 2444 2828 
Q 2747 2828 2967 2673 
Q 3188 2519 3188 2234 
Q 3384 2513 3648 2670 
Q 3913 2828 4225 2828 
Q 4556 2828 4757 2648 
Q 4959 2469 4959 2138 
Q 4959 1875 4842 1503 
Q 4725 1131 4550 672 
Q 4459 450 4459 288 
Q 4459 97 4609 97 
Q 4859 97 5025 365 
Q 5191 634 5259 941 
Q 5278 978 5313 978 
L 5388 978 
Q 5413 978 5430 961 
Q 5447 944 5447 922 
Q 5447 916 5441 903 
Q 5353 541 5136 234 
Q 4919 -72 4594 -72 
Q 4369 -72 4209 83 
Q 4050 238 4050 459 
Q 4050 572 4103 709 
Q 4284 1191 4404 1569 
Q 4525 1947 4525 2234 
Q 4525 2413 4453 2538 
Q 4381 2663 4213 2663 
Q 3863 2663 3606 2448 
Q 3350 2234 3163 1881 
Q 3150 1819 3144 1784 
L 2731 141 
Q 2709 53 2632 -9 
Q 2556 -72 2463 -72 
Q 2388 -72 2330 -22 
Q 2272 28 2272 109 
Q 2272 147 2278 166 
L 2688 1797 
Q 2753 2059 2753 2234 
Q 2753 2413 2679 2538 
Q 2606 2663 2431 2663 
Q 2197 2663 2000 2559 
Q 1803 2456 1656 2286 
Q 1509 2116 1388 1881 
L 953 141 
Q 931 53 854 -9 
Q 778 -72 684 -72 
Q 606 -72 550 -22 
Q 494 28 494 109 
z
" transform="scale(0.015625)"/>
      <path id="Cmmi10-61" d="M 1113 -72 
Q 709 -72 476 233 
Q 244 538 244 953 
Q 244 1363 456 1803 
Q 669 2244 1030 2536 
Q 1391 2828 1806 2828 
Q 1997 2828 2147 2725 
Q 2297 2622 2381 2444 
Q 2453 2700 2663 2700 
Q 2744 2700 2798 2651 
Q 2853 2603 2853 2522 
Q 2853 2503 2851 2493 
Q 2850 2484 2847 2472 
L 2400 684 
Q 2356 494 2356 372 
Q 2356 97 2541 97 
Q 2741 97 2845 351 
Q 2950 606 3022 941 
Q 3034 978 3072 978 
L 3150 978 
Q 3175 978 3190 956 
Q 3206 934 3206 916 
Q 3094 469 2961 198 
Q 2828 -72 2528 -72 
Q 2313 -72 2147 54 
Q 1981 181 1941 391 
Q 1528 -72 1113 -72 
z
M 1119 97 
Q 1350 97 1567 270 
Q 1784 444 1941 678 
Q 1947 684 1947 697 
L 2291 2088 
L 2297 2106 
Q 2259 2334 2132 2498 
Q 2006 2663 1791 2663 
Q 1575 2663 1389 2486 
Q 1203 2309 1075 2069 
Q 950 1813 836 1366 
Q 722 919 722 672 
Q 722 450 817 273 
Q 913 97 1119 97 
z
" transform="scale(0.015625)"/>
      <path id="Cmmi10-78" d="M 500 184 
Q 613 97 819 97 
Q 1019 97 1172 289 
Q 1325 481 1381 709 
L 1672 1844 
Q 1741 2153 1741 2266 
Q 1741 2425 1652 2544 
Q 1563 2663 1403 2663 
Q 1200 2663 1022 2536 
Q 844 2409 722 2214 
Q 600 2019 550 1819 
Q 538 1778 500 1778 
L 422 1778 
Q 372 1778 372 1838 
L 372 1856 
Q 434 2094 584 2320 
Q 734 2547 951 2687 
Q 1169 2828 1416 2828 
Q 1650 2828 1839 2703 
Q 2028 2578 2106 2363 
Q 2216 2559 2386 2693 
Q 2556 2828 2759 2828 
Q 2897 2828 3040 2779 
Q 3184 2731 3275 2631 
Q 3366 2531 3366 2381 
Q 3366 2219 3261 2101 
Q 3156 1984 2994 1984 
Q 2891 1984 2822 2050 
Q 2753 2116 2753 2216 
Q 2753 2350 2845 2451 
Q 2938 2553 3066 2572 
Q 2950 2663 2747 2663 
Q 2541 2663 2389 2472 
Q 2238 2281 2175 2047 
L 1894 916 
Q 1825 659 1825 494 
Q 1825 331 1917 214 
Q 2009 97 2163 97 
Q 2463 97 2698 361 
Q 2934 625 3009 941 
Q 3022 978 3059 978 
L 3138 978 
Q 3163 978 3178 961 
Q 3194 944 3194 922 
Q 3194 916 3188 903 
Q 3097 522 2806 225 
Q 2516 -72 2150 -72 
Q 1916 -72 1727 54 
Q 1538 181 1459 397 
Q 1359 209 1182 68 
Q 1006 -72 806 -72 
Q 669 -72 523 -23 
Q 378 25 287 125 
Q 197 225 197 378 
Q 197 528 301 651 
Q 406 775 563 775 
Q 669 775 741 711 
Q 813 647 813 544 
Q 813 409 723 309 
Q 634 209 500 184 
z
" transform="scale(0.015625)"/>
     </defs>
     <use xlink:href="#Cmr10-6d" transform="translate(0 0.609375)"/>
     <use xlink:href="#Cmr10-6f" transform="translate(83.300781 0.609375)"/>
     <use xlink:href="#Cmr10-64" transform="translate(133.300781 0.609375)"/>
     <use xlink:href="#Cmr10-65" transform="translate(188.818359 0.609375)"/>
     <use xlink:href="#Cmr10-3d" transform="translate(250.761719 0.609375)"/>
     <use xlink:href="#Cmmi10-6d" transform="translate(346.005859 0.609375)"/>
     <use xlink:href="#Cmmi10-61" transform="translate(433.798828 0.609375)"/>
     <use xlink:href="#Cmmi10-78" transform="translate(486.582031 0.609375)"/>
    </g>
   </g>
   <g id="legend_1">
    <g id="line2d_33">
     <path d="M 351.092727 15.537813 
L 361.092727 15.537813 
L 371.092727 15.537813 
" style="fill: none; stroke: #e24a33; stroke-width: 2"/>
    </g>
    <g id="text_14">
     <!-- $\mathrm{up}$ -->
     <g style="fill: #262626" transform="translate(379.092727 19.037813) scale(0.1 -0.1)">
      <defs>
       <path id="Cmr10-75" d="M 691 763 
L 691 2175 
Q 691 2347 639 2423 
Q 588 2500 491 2517 
Q 394 2534 191 2534 
L 191 2759 
L 1159 2828 
L 1159 763 
Q 1159 513 1195 373 
Q 1231 234 1348 165 
Q 1466 97 1722 97 
Q 2066 97 2269 384 
Q 2472 672 2472 1038 
L 2472 2175 
Q 2472 2347 2419 2423 
Q 2366 2500 2270 2517 
Q 2175 2534 1972 2534 
L 1972 2759 
L 2938 2828 
L 2938 581 
Q 2938 413 2989 336 
Q 3041 259 3137 242 
Q 3234 225 3438 225 
L 3438 0 
L 2491 -72 
L 2491 469 
Q 2372 228 2159 78 
Q 1947 -72 1691 -72 
Q 1231 -72 961 123 
Q 691 319 691 763 
z
" transform="scale(0.015625)"/>
       <path id="Cmr10-70" d="M 166 -1241 
L 166 -1019 
Q 384 -1019 525 -981 
Q 666 -944 666 -813 
L 666 2272 
Q 666 2447 541 2490 
Q 416 2534 166 2534 
L 166 2759 
L 1113 2828 
L 1113 2431 
Q 1288 2625 1520 2726 
Q 1753 2828 2016 2828 
Q 2394 2828 2697 2623 
Q 3000 2419 3170 2086 
Q 3341 1753 3341 1381 
Q 3341 994 3152 659 
Q 2963 325 2636 126 
Q 2309 -72 1919 -72 
Q 1453 -72 1131 306 
L 1131 -813 
Q 1131 -944 1273 -981 
Q 1416 -1019 1631 -1019 
L 1631 -1241 
L 166 -1241 
z
M 1131 622 
Q 1244 394 1444 245 
Q 1644 97 1881 97 
Q 2103 97 2273 215 
Q 2444 334 2559 534 
Q 2675 734 2729 954 
Q 2784 1175 2784 1381 
Q 2784 1638 2692 1936 
Q 2600 2234 2411 2439 
Q 2222 2644 1953 2644 
Q 1694 2644 1476 2511 
Q 1259 2378 1131 2150 
L 1131 622 
z
" transform="scale(0.015625)"/>
      </defs>
      <use xlink:href="#Cmr10-75" transform="translate(0 0.8125)"/>
      <use xlink:href="#Cmr10-70" transform="translate(55.517578 0.8125)"/>
     </g>
    </g>
    <g id="line2d_34">
     <path d="M 351.092727 29.695625 
L 361.092727 29.695625 
L 371.092727 29.695625 
" style="fill: none; stroke: #348abd; stroke-width: 2"/>
    </g>
    <g id="text_15">
     <!-- $\mathrm{up}_3$ -->
     <g style="fill: #262626" transform="translate(379.092727 33.195625) scale(0.1 -0.1)">
      <defs>
       <path id="Cmr10-33" d="M 609 494 
Q 759 275 1012 169 
Q 1266 63 1556 63 
Q 1928 63 2084 380 
Q 2241 697 2241 1100 
Q 2241 1281 2208 1462 
Q 2175 1644 2097 1800 
Q 2019 1956 1883 2050 
Q 1747 2144 1550 2144 
L 1125 2144 
Q 1069 2144 1069 2203 
L 1069 2259 
Q 1069 2309 1125 2309 
L 1478 2338 
Q 1703 2338 1851 2506 
Q 2000 2675 2069 2917 
Q 2138 3159 2138 3378 
Q 2138 3684 1994 3881 
Q 1850 4078 1556 4078 
Q 1313 4078 1091 3986 
Q 869 3894 738 3706 
Q 750 3709 759 3711 
Q 769 3713 781 3713 
Q 925 3713 1022 3613 
Q 1119 3513 1119 3372 
Q 1119 3234 1022 3134 
Q 925 3034 781 3034 
Q 641 3034 541 3134 
Q 441 3234 441 3372 
Q 441 3647 606 3850 
Q 772 4053 1033 4158 
Q 1294 4263 1556 4263 
Q 1750 4263 1965 4205 
Q 2181 4147 2356 4039 
Q 2531 3931 2642 3762 
Q 2753 3594 2753 3378 
Q 2753 3109 2633 2881 
Q 2513 2653 2303 2487 
Q 2094 2322 1844 2241 
Q 2122 2188 2372 2031 
Q 2622 1875 2773 1631 
Q 2925 1388 2925 1106 
Q 2925 753 2731 467 
Q 2538 181 2222 20 
Q 1906 -141 1556 -141 
Q 1256 -141 954 -26 
Q 653 88 461 316 
Q 269 544 269 863 
Q 269 1022 375 1128 
Q 481 1234 641 1234 
Q 744 1234 830 1186 
Q 916 1138 964 1050 
Q 1013 963 1013 863 
Q 1013 706 903 600 
Q 794 494 641 494 
L 609 494 
z
" transform="scale(0.015625)"/>
      </defs>
      <use xlink:href="#Cmr10-75" transform="translate(0 0.8125)"/>
      <use xlink:href="#Cmr10-70" transform="translate(55.517578 0.8125)"/>
      <use xlink:href="#Cmr10-33" transform="translate(115.499297 -16.19375) scale(0.7)"/>
     </g>
    </g>
    <g id="line2d_35">
     <path d="M 351.092727 43.853438 
L 361.092727 43.853438 
L 371.092727 43.853438 
" style="fill: none; stroke: #988ed5; stroke-width: 2"/>
    </g>
    <g id="text_16">
     <!-- $\mathrm{h}_3$ -->
     <g style="fill: #262626" transform="translate(379.092727 47.353438) scale(0.1 -0.1)">
      <defs>
       <path id="Cmr10-68" d="M 191 0 
L 191 225 
Q 409 225 550 259 
Q 691 294 691 428 
L 691 3788 
Q 691 3959 639 4036 
Q 588 4113 491 4130 
Q 394 4147 191 4147 
L 191 4372 
L 1141 4441 
L 1141 2241 
Q 1275 2506 1515 2667 
Q 1756 2828 2047 2828 
Q 2491 2828 2714 2615 
Q 2938 2403 2938 1966 
L 2938 428 
Q 2938 294 3078 259 
Q 3219 225 3438 225 
L 3438 0 
L 1972 0 
L 1972 225 
Q 2191 225 2331 259 
Q 2472 294 2472 428 
L 2472 1947 
Q 2472 2259 2381 2461 
Q 2291 2663 2009 2663 
Q 1638 2663 1398 2366 
Q 1159 2069 1159 1691 
L 1159 428 
Q 1159 294 1300 259 
Q 1441 225 1656 225 
L 1656 0 
L 191 0 
z
" transform="scale(0.015625)"/>
      </defs>
      <use xlink:href="#Cmr10-68" transform="translate(0 0.609375)"/>
      <use xlink:href="#Cmr10-33" transform="translate(59.981719 -16.396875) scale(0.7)"/>
     </g>
    </g>
    <g id="line2d_36">
     <path d="M 351.092727 57.99875 
L 361.092727 57.99875 
L 371.092727 57.99875 
" style="fill: none; stroke: #777777; stroke-width: 2"/>
    </g>
    <g id="text_17">
     <!-- $\mathrm{\Xi}_3$ -->
     <g style="fill: #262626" transform="translate(379.092727 61.49875) scale(0.1 -0.1)">
      <defs>
       <path id="Cmr10-a5" d="M 319 0 
L 269 1094 
L 453 1094 
Q 469 603 544 519 
Q 569 494 781 484 
Q 994 475 1306 475 
L 2956 475 
Q 3272 475 3483 484 
Q 3694 494 3719 519 
Q 3794 603 3809 1094 
L 3994 1094 
L 3944 0 
L 319 0 
z
M 891 1709 
L 891 2834 
L 1075 2834 
L 1075 2509 
L 3188 2509 
L 3188 2834 
L 3372 2834 
L 3372 1709 
L 3188 1709 
L 3188 2034 
L 1075 2034 
L 1075 1709 
L 891 1709 
z
M 300 3347 
L 353 4372 
L 3909 4372 
L 3963 3347 
L 3775 3347 
Q 3759 3784 3694 3859 
Q 3647 3897 2938 3897 
L 1325 3897 
Q 616 3897 569 3859 
Q 503 3784 488 3347 
L 300 3347 
z
" transform="scale(0.015625)"/>
      </defs>
      <use xlink:href="#Cmr10-a5" transform="translate(0 0.6875)"/>
      <use xlink:href="#Cmr10-33" transform="translate(71.065703 -16.31875) scale(0.7)"/>
     </g>
    </g>
    <g id="line2d_37">
     <path d="M 351.092727 72.144063 
L 361.092727 72.144063 
L 371.092727 72.144063 
" style="fill: none; stroke: #fbc15e; stroke-width: 2"/>
    </g>
    <g id="text_18">
     <!-- $\mathrm{fup}_3$ -->
     <g style="fill: #262626" transform="translate(379.092727 75.644063) scale(0.1 -0.1)">
      <defs>
       <path id="Cmr10-66" d="M 206 0 
L 206 225 
Q 422 225 562 259 
Q 703 294 703 428 
L 703 2534 
L 213 2534 
L 213 2759 
L 703 2759 
L 703 3525 
Q 703 3731 789 3911 
Q 875 4091 1020 4225 
Q 1166 4359 1355 4436 
Q 1544 4513 1747 4513 
Q 1963 4513 2136 4384 
Q 2309 4256 2309 4044 
Q 2309 3922 2226 3839 
Q 2144 3756 2022 3756 
Q 1900 3756 1814 3839 
Q 1728 3922 1728 4044 
Q 1728 4244 1900 4313 
Q 1797 4347 1716 4347 
Q 1528 4347 1395 4214 
Q 1263 4081 1197 3890 
Q 1131 3700 1131 3513 
L 1131 2759 
L 1869 2759 
L 1869 2534 
L 1153 2534 
L 1153 428 
Q 1153 297 1340 261 
Q 1528 225 1772 225 
L 1772 0 
L 206 0 
z
" transform="scale(0.015625)"/>
      </defs>
      <use xlink:href="#Cmr10-66" transform="translate(0 0.484375)"/>
      <use xlink:href="#Cmr10-75" transform="translate(30.517578 0.484375)"/>
      <use xlink:href="#Cmr10-70" transform="translate(86.035156 0.484375)"/>
      <use xlink:href="#Cmr10-33" transform="translate(146.016875 -16.521875) scale(0.7)"/>
     </g>
    </g>
    <g id="line2d_38">
     <path d="M 351.092727 86.301875 
L 361.092727 86.301875 
L 371.092727 86.301875 
" style="fill: none; stroke: #8eba42; stroke-width: 2"/>
    </g>
    <g id="text_19">
     <!-- $\mathrm{ch}_{2,3}$ -->
     <g style="fill: #262626" transform="translate(379.092727 89.801875) scale(0.1 -0.1)">
      <defs>
       <path id="Cmr10-63" d="M 1594 -72 
Q 1206 -72 890 129 
Q 575 331 394 667 
Q 213 1003 213 1381 
Q 213 1759 392 2106 
Q 572 2453 889 2661 
Q 1206 2869 1594 2869 
Q 1969 2869 2276 2722 
Q 2584 2575 2584 2241 
Q 2584 2116 2495 2023 
Q 2406 1931 2278 1931 
Q 2150 1931 2061 2023 
Q 1972 2116 1972 2241 
Q 1972 2353 2044 2436 
Q 2116 2519 2222 2541 
Q 2000 2681 1600 2681 
Q 1294 2681 1106 2478 
Q 919 2275 844 1975 
Q 769 1675 769 1381 
Q 769 1072 861 783 
Q 953 494 1158 305 
Q 1363 116 1672 116 
Q 1975 116 2187 302 
Q 2400 488 2478 788 
Q 2478 825 2528 825 
L 2606 825 
Q 2625 825 2640 808 
Q 2656 791 2656 769 
L 2656 750 
Q 2559 372 2271 150 
Q 1984 -72 1594 -72 
z
" transform="scale(0.015625)"/>
       <path id="Cmr10-32" d="M 319 0 
L 319 172 
Q 319 188 331 206 
L 1325 1306 
Q 1550 1550 1690 1715 
Q 1831 1881 1968 2097 
Q 2106 2313 2186 2536 
Q 2266 2759 2266 3009 
Q 2266 3272 2169 3511 
Q 2072 3750 1880 3894 
Q 1688 4038 1416 4038 
Q 1138 4038 916 3870 
Q 694 3703 603 3438 
Q 628 3444 672 3444 
Q 816 3444 917 3347 
Q 1019 3250 1019 3097 
Q 1019 2950 917 2848 
Q 816 2747 672 2747 
Q 522 2747 420 2851 
Q 319 2956 319 3097 
Q 319 3338 409 3548 
Q 500 3759 670 3923 
Q 841 4088 1055 4175 
Q 1269 4263 1509 4263 
Q 1875 4263 2190 4108 
Q 2506 3953 2690 3670 
Q 2875 3388 2875 3009 
Q 2875 2731 2753 2481 
Q 2631 2231 2440 2026 
Q 2250 1822 1953 1562 
Q 1656 1303 1563 1216 
L 838 519 
L 1453 519 
Q 1906 519 2211 526 
Q 2516 534 2534 550 
Q 2609 631 2688 1141 
L 2875 1141 
L 2694 0 
L 319 0 
z
" transform="scale(0.015625)"/>
       <path id="Cmmi10-3b" d="M 634 -1153 
Q 634 -1125 659 -1100 
Q 891 -878 1019 -587 
Q 1147 -297 1147 25 
L 1147 103 
Q 1044 0 891 0 
Q 744 0 641 103 
Q 538 206 538 353 
Q 538 503 641 603 
Q 744 703 891 703 
Q 1119 703 1216 492 
Q 1313 281 1313 25 
Q 1313 -331 1170 -651 
Q 1028 -972 769 -1228 
Q 744 -1241 728 -1241 
Q 697 -1241 665 -1212 
Q 634 -1184 634 -1153 
z
" transform="scale(0.015625)"/>
      </defs>
      <use xlink:href="#Cmr10-63" transform="translate(0 0.609375)"/>
      <use xlink:href="#Cmr10-68" transform="translate(44.384766 0.609375)"/>
      <use xlink:href="#Cmr10-32" transform="translate(104.366484 -16.396875) scale(0.7)"/>
      <use xlink:href="#Cmmi10-3b" transform="translate(139.366484 -16.396875) scale(0.7)"/>
      <use xlink:href="#Cmr10-33" transform="translate(171.037383 -16.396875) scale(0.7)"/>
     </g>
    </g>
    <g id="line2d_39">
     <path d="M 351.092727 101.559688 
L 361.092727 101.559688 
L 371.092727 101.559688 
" style="fill: none; stroke: #ffb5b8; stroke-width: 2"/>
    </g>
    <g id="text_20">
     <!-- $\mathrm{fip}_{2,1}$ -->
     <g style="fill: #262626" transform="translate(379.092727 105.059688) scale(0.1 -0.1)">
      <defs>
       <path id="Cmr10-69" d="M 197 0 
L 197 225 
Q 416 225 556 259 
Q 697 294 697 428 
L 697 2175 
Q 697 2422 601 2478 
Q 506 2534 225 2534 
L 225 2759 
L 1147 2828 
L 1147 428 
Q 1147 294 1269 259 
Q 1391 225 1594 225 
L 1594 0 
L 197 0 
z
M 469 3928 
Q 469 4069 575 4175 
Q 681 4281 819 4281 
Q 909 4281 993 4234 
Q 1078 4188 1125 4103 
Q 1172 4019 1172 3928 
Q 1172 3791 1065 3684 
Q 959 3578 819 3578 
Q 681 3578 575 3684 
Q 469 3791 469 3928 
z
" transform="scale(0.015625)"/>
       <path id="Cmr10-31" d="M 594 0 
L 594 225 
Q 1394 225 1394 428 
L 1394 3788 
Q 1063 3628 556 3628 
L 556 3853 
Q 1341 3853 1741 4263 
L 1831 4263 
Q 1853 4263 1873 4245 
Q 1894 4228 1894 4206 
L 1894 428 
Q 1894 225 2694 225 
L 2694 0 
L 594 0 
z
" transform="scale(0.015625)"/>
      </defs>
      <use xlink:href="#Cmr10-66" transform="translate(0 0.484375)"/>
      <use xlink:href="#Cmr10-69" transform="translate(30.517578 0.484375)"/>
      <use xlink:href="#Cmr10-70" transform="translate(58.203125 0.484375)"/>
      <use xlink:href="#Cmr10-32" transform="translate(118.184844 -16.521875) scale(0.7)"/>
      <use xlink:href="#Cmmi10-3b" transform="translate(153.184844 -16.521875) scale(0.7)"/>
      <use xlink:href="#Cmr10-31" transform="translate(184.855742 -16.521875) scale(0.7)"/>
     </g>
    </g>
    <g id="line2d_40">
     <path d="M 351.092727 116.8175 
L 361.092727 116.8175 
L 371.092727 116.8175 
" style="fill: none; stroke: #e24a33; stroke-width: 2"/>
    </g>
    <g id="text_21">
     <!-- $\mathrm{fp}_{2,1}$ -->
     <g style="fill: #262626" transform="translate(379.092727 120.3175) scale(0.1 -0.1)">
      <use xlink:href="#Cmr10-66" transform="translate(0 0.484375)"/>
      <use xlink:href="#Cmr10-70" transform="translate(30.517578 0.484375)"/>
      <use xlink:href="#Cmr10-32" transform="translate(90.499297 -16.521875) scale(0.7)"/>
      <use xlink:href="#Cmmi10-3b" transform="translate(125.499297 -16.521875) scale(0.7)"/>
      <use xlink:href="#Cmr10-31" transform="translate(157.170195 -16.521875) scale(0.7)"/>
     </g>
    </g>
   </g>
  </g>
  <g id="axes_2">
   <g id="patch_7">
    <path d="M 479.127273 267.84 
L 820.8 267.84 
L 820.8 2.88 
L 479.127273 2.88 
z
" style="fill: #e5e5e5"/>
   </g>
   <g id="matplotlib.axis_3">
    <g id="xtick_7">
     <g id="line2d_41">
      <path d="M 494.657851 267.84 
L 494.657851 2.88 
" clip-path="url(#p33dc13ddf0)" style="fill: none; stroke: #ffffff; stroke-width: 0.5"/>
     </g>
     <g id="line2d_42"/>
     <g id="text_22">
      <!-- 0 -->
      <g style="fill: #555555" transform="translate(491.877382 278.497813) scale(0.1 -0.1)">
       <use xlink:href="#ArialMT-30"/>
      </g>
     </g>
    </g>
    <g id="xtick_8">
     <g id="line2d_43">
      <path d="M 557.407663 267.84 
L 557.407663 2.88 
" clip-path="url(#p33dc13ddf0)" style="fill: none; stroke: #ffffff; stroke-width: 0.5"/>
     </g>
     <g id="line2d_44"/>
     <g id="text_23">
      <!-- 20 -->
      <g style="fill: #555555" transform="translate(551.846726 278.497813) scale(0.1 -0.1)">
       <use xlink:href="#ArialMT-32"/>
       <use xlink:href="#ArialMT-30" x="55.615234"/>
      </g>
     </g>
    </g>
    <g id="xtick_9">
     <g id="line2d_45">
      <path d="M 620.157476 267.84 
L 620.157476 2.88 
" clip-path="url(#p33dc13ddf0)" style="fill: none; stroke: #ffffff; stroke-width: 0.5"/>
     </g>
     <g id="line2d_46"/>
     <g id="text_24">
      <!-- 40 -->
      <g style="fill: #555555" transform="translate(614.596538 278.497813) scale(0.1 -0.1)">
       <use xlink:href="#ArialMT-34"/>
       <use xlink:href="#ArialMT-30" x="55.615234"/>
      </g>
     </g>
    </g>
    <g id="xtick_10">
     <g id="line2d_47">
      <path d="M 682.907288 267.84 
L 682.907288 2.88 
" clip-path="url(#p33dc13ddf0)" style="fill: none; stroke: #ffffff; stroke-width: 0.5"/>
     </g>
     <g id="line2d_48"/>
     <g id="text_25">
      <!-- 60 -->
      <g style="fill: #555555" transform="translate(677.34635 278.497813) scale(0.1 -0.1)">
       <use xlink:href="#ArialMT-36"/>
       <use xlink:href="#ArialMT-30" x="55.615234"/>
      </g>
     </g>
    </g>
    <g id="xtick_11">
     <g id="line2d_49">
      <path d="M 745.6571 267.84 
L 745.6571 2.88 
" clip-path="url(#p33dc13ddf0)" style="fill: none; stroke: #ffffff; stroke-width: 0.5"/>
     </g>
     <g id="line2d_50"/>
     <g id="text_26">
      <!-- 80 -->
      <g style="fill: #555555" transform="translate(740.096162 278.497813) scale(0.1 -0.1)">
       <use xlink:href="#ArialMT-38"/>
       <use xlink:href="#ArialMT-30" x="55.615234"/>
      </g>
     </g>
    </g>
    <g id="xtick_12">
     <g id="line2d_51">
      <path d="M 808.406912 267.84 
L 808.406912 2.88 
" clip-path="url(#p33dc13ddf0)" style="fill: none; stroke: #ffffff; stroke-width: 0.5"/>
     </g>
     <g id="line2d_52"/>
     <g id="text_27">
      <!-- 100 -->
      <g style="fill: #555555" transform="translate(800.065506 278.497813) scale(0.1 -0.1)">
       <use xlink:href="#ArialMT-31"/>
       <use xlink:href="#ArialMT-30" x="55.615234"/>
       <use xlink:href="#ArialMT-30" x="111.230469"/>
      </g>
     </g>
    </g>
   </g>
   <g id="matplotlib.axis_4">
    <g id="ytick_7">
     <g id="line2d_53">
      <path d="M 479.127273 255.794556 
L 820.8 255.794556 
" clip-path="url(#p33dc13ddf0)" style="fill: none; stroke: #ffffff; stroke-width: 0.5"/>
     </g>
     <g id="line2d_54"/>
     <g id="text_28">
      <!-- 0.00 -->
      <g style="fill: #555555" transform="translate(456.166335 259.373462) scale(0.1 -0.1)">
       <use xlink:href="#ArialMT-30"/>
       <use xlink:href="#ArialMT-2e" x="55.615234"/>
       <use xlink:href="#ArialMT-30" x="83.398438"/>
       <use xlink:href="#ArialMT-30" x="139.013672"/>
      </g>
     </g>
    </g>
    <g id="ytick_8">
     <g id="line2d_55">
      <path d="M 479.127273 225.752758 
L 820.8 225.752758 
" clip-path="url(#p33dc13ddf0)" style="fill: none; stroke: #ffffff; stroke-width: 0.5"/>
     </g>
     <g id="line2d_56"/>
     <g id="text_29">
      <!-- 0.25 -->
      <g style="fill: #555555" transform="translate(456.166335 229.331664) scale(0.1 -0.1)">
       <defs>
        <path id="ArialMT-35" d="M 266 1200 
L 856 1250 
Q 922 819 1161 601 
Q 1400 384 1738 384 
Q 2144 384 2425 690 
Q 2706 997 2706 1503 
Q 2706 1984 2436 2262 
Q 2166 2541 1728 2541 
Q 1456 2541 1237 2417 
Q 1019 2294 894 2097 
L 366 2166 
L 809 4519 
L 3088 4519 
L 3088 3981 
L 1259 3981 
L 1013 2750 
Q 1425 3038 1878 3038 
Q 2478 3038 2890 2622 
Q 3303 2206 3303 1553 
Q 3303 931 2941 478 
Q 2500 -78 1738 -78 
Q 1113 -78 717 272 
Q 322 622 266 1200 
z
" transform="scale(0.015625)"/>
       </defs>
       <use xlink:href="#ArialMT-30"/>
       <use xlink:href="#ArialMT-2e" x="55.615234"/>
       <use xlink:href="#ArialMT-32" x="83.398438"/>
       <use xlink:href="#ArialMT-35" x="139.013672"/>
      </g>
     </g>
    </g>
    <g id="ytick_9">
     <g id="line2d_57">
      <path d="M 479.127273 195.710959 
L 820.8 195.710959 
" clip-path="url(#p33dc13ddf0)" style="fill: none; stroke: #ffffff; stroke-width: 0.5"/>
     </g>
     <g id="line2d_58"/>
     <g id="text_30">
      <!-- 0.50 -->
      <g style="fill: #555555" transform="translate(456.166335 199.289866) scale(0.1 -0.1)">
       <use xlink:href="#ArialMT-30"/>
       <use xlink:href="#ArialMT-2e" x="55.615234"/>
       <use xlink:href="#ArialMT-35" x="83.398438"/>
       <use xlink:href="#ArialMT-30" x="139.013672"/>
      </g>
     </g>
    </g>
    <g id="ytick_10">
     <g id="line2d_59">
      <path d="M 479.127273 165.669161 
L 820.8 165.669161 
" clip-path="url(#p33dc13ddf0)" style="fill: none; stroke: #ffffff; stroke-width: 0.5"/>
     </g>
     <g id="line2d_60"/>
     <g id="text_31">
      <!-- 0.75 -->
      <g style="fill: #555555" transform="translate(456.166335 169.248067) scale(0.1 -0.1)">
       <defs>
        <path id="ArialMT-37" d="M 303 3981 
L 303 4522 
L 3269 4522 
L 3269 4084 
Q 2831 3619 2401 2847 
Q 1972 2075 1738 1259 
Q 1569 684 1522 0 
L 944 0 
Q 953 541 1156 1306 
Q 1359 2072 1739 2783 
Q 2119 3494 2547 3981 
L 303 3981 
z
" transform="scale(0.015625)"/>
       </defs>
       <use xlink:href="#ArialMT-30"/>
       <use xlink:href="#ArialMT-2e" x="55.615234"/>
       <use xlink:href="#ArialMT-37" x="83.398438"/>
       <use xlink:href="#ArialMT-35" x="139.013672"/>
      </g>
     </g>
    </g>
    <g id="ytick_11">
     <g id="line2d_61">
      <path d="M 479.127273 135.627363 
L 820.8 135.627363 
" clip-path="url(#p33dc13ddf0)" style="fill: none; stroke: #ffffff; stroke-width: 0.5"/>
     </g>
     <g id="line2d_62"/>
     <g id="text_32">
      <!-- 1.00 -->
      <g style="fill: #555555" transform="translate(456.166335 139.206269) scale(0.1 -0.1)">
       <use xlink:href="#ArialMT-31"/>
       <use xlink:href="#ArialMT-2e" x="55.615234"/>
       <use xlink:href="#ArialMT-30" x="83.398438"/>
       <use xlink:href="#ArialMT-30" x="139.013672"/>
      </g>
     </g>
    </g>
    <g id="ytick_12">
     <g id="line2d_63">
      <path d="M 479.127273 105.585565 
L 820.8 105.585565 
" clip-path="url(#p33dc13ddf0)" style="fill: none; stroke: #ffffff; stroke-width: 0.5"/>
     </g>
     <g id="line2d_64"/>
     <g id="text_33">
      <!-- 1.25 -->
      <g style="fill: #555555" transform="translate(456.166335 109.164471) scale(0.1 -0.1)">
       <use xlink:href="#ArialMT-31"/>
       <use xlink:href="#ArialMT-2e" x="55.615234"/>
       <use xlink:href="#ArialMT-32" x="83.398438"/>
       <use xlink:href="#ArialMT-35" x="139.013672"/>
      </g>
     </g>
    </g>
    <g id="ytick_13">
     <g id="line2d_65">
      <path d="M 479.127273 75.543766 
L 820.8 75.543766 
" clip-path="url(#p33dc13ddf0)" style="fill: none; stroke: #ffffff; stroke-width: 0.5"/>
     </g>
     <g id="line2d_66"/>
     <g id="text_34">
      <!-- 1.50 -->
      <g style="fill: #555555" transform="translate(456.166335 79.122673) scale(0.1 -0.1)">
       <use xlink:href="#ArialMT-31"/>
       <use xlink:href="#ArialMT-2e" x="55.615234"/>
       <use xlink:href="#ArialMT-35" x="83.398438"/>
       <use xlink:href="#ArialMT-30" x="139.013672"/>
      </g>
     </g>
    </g>
    <g id="ytick_14">
     <g id="line2d_67">
      <path d="M 479.127273 45.501968 
L 820.8 45.501968 
" clip-path="url(#p33dc13ddf0)" style="fill: none; stroke: #ffffff; stroke-width: 0.5"/>
     </g>
     <g id="line2d_68"/>
     <g id="text_35">
      <!-- 1.75 -->
      <g style="fill: #555555" transform="translate(456.166335 49.080874) scale(0.1 -0.1)">
       <use xlink:href="#ArialMT-31"/>
       <use xlink:href="#ArialMT-2e" x="55.615234"/>
       <use xlink:href="#ArialMT-37" x="83.398438"/>
       <use xlink:href="#ArialMT-35" x="139.013672"/>
      </g>
     </g>
    </g>
    <g id="ytick_15">
     <g id="line2d_69">
      <path d="M 479.127273 15.46017 
L 820.8 15.46017 
" clip-path="url(#p33dc13ddf0)" style="fill: none; stroke: #ffffff; stroke-width: 0.5"/>
     </g>
     <g id="line2d_70"/>
     <g id="text_36">
      <!-- 2.00 -->
      <g style="fill: #555555" transform="translate(456.166335 19.039076) scale(0.1 -0.1)">
       <use xlink:href="#ArialMT-32"/>
       <use xlink:href="#ArialMT-2e" x="55.615234"/>
       <use xlink:href="#ArialMT-30" x="83.398438"/>
       <use xlink:href="#ArialMT-30" x="139.013672"/>
      </g>
     </g>
    </g>
   </g>
   <g id="line2d_71">
    <path d="M 494.657851 255.794556 
L 497.795342 255.794554 
L 500.932832 255.794108 
L 504.070323 255.787737 
L 507.207814 255.755303 
L 510.345304 255.657085 
L 513.482795 255.437173 
L 516.620285 255.032971 
L 519.757776 254.381298 
L 522.895267 253.422591 
L 526.032757 252.110204 
L 529.170248 250.416782 
L 532.307739 248.332434 
L 535.445229 245.855771 
L 538.58272 242.986865 
L 541.72021 239.72829 
L 544.857701 236.093668 
L 547.995192 232.115327 
L 551.132682 227.844039 
L 554.270173 223.340987 
L 557.407663 218.669466 
L 560.545154 213.891248 
L 563.682645 209.058973 
L 566.820135 204.207458 
L 569.957626 199.352389 
L 573.095116 194.497149 
L 576.232607 189.641922 
L 579.370098 184.787687 
L 582.507588 179.942699 
L 585.645079 175.131859 
L 588.782569 170.399583 
L 591.92006 165.804389 
L 595.057551 161.409326 
L 598.195041 157.277257 
L 601.332532 153.465481 
L 604.470023 150.016099 
L 607.607513 146.951602 
L 610.745004 144.278774 
L 613.882494 141.998281 
L 617.019985 140.10985 
L 620.157476 138.609132 
L 623.294966 137.478261 
L 626.432457 136.679952 
L 629.569947 136.159849 
L 632.707438 135.855713 
L 635.844929 135.704286 
L 638.982419 135.645119 
L 642.11991 135.629441 
L 645.2574 135.627417 
L 648.394891 135.627363 
L 651.532382 135.627363 
L 654.669872 135.627417 
L 657.807363 135.629441 
L 660.944853 135.645119 
L 664.082344 135.704286 
L 667.219835 135.855713 
L 670.357325 136.159849 
L 673.494816 136.679952 
L 676.632307 137.478261 
L 679.769797 138.609132 
L 682.907288 140.10985 
L 686.044778 141.998281 
L 689.182269 144.278774 
L 692.31976 146.951602 
L 695.45725 150.016099 
L 698.594741 153.465481 
L 701.732231 157.277257 
L 704.869722 161.409326 
L 708.007213 165.804389 
L 711.144703 170.399583 
L 714.282194 175.131859 
L 717.419684 179.942699 
L 720.557175 184.787687 
L 723.694666 189.641922 
L 726.832156 194.497149 
L 729.969647 199.352389 
L 733.107137 204.207458 
L 736.244628 209.058973 
L 739.382119 213.891248 
L 742.519609 218.669466 
L 745.6571 223.340987 
L 748.794591 227.844039 
L 751.932081 232.115327 
L 755.069572 236.093668 
L 758.207062 239.72829 
L 761.344553 242.986865 
L 764.482044 245.855771 
L 767.619534 248.332434 
L 770.757025 250.416782 
L 773.894515 252.110204 
L 777.032006 253.422591 
L 780.169497 254.381298 
L 783.306987 255.032971 
L 786.444478 255.437173 
L 789.581968 255.657085 
L 792.719459 255.755303 
L 795.85695 255.787737 
L 798.99444 255.794108 
L 802.131931 255.794554 
L 805.269421 255.794556 
" clip-path="url(#p33dc13ddf0)" style="fill: none; stroke: #e24a33; stroke-width: 2"/>
   </g>
   <g id="line2d_72">
    <path d="M 494.657851 255.796364 
L 497.795342 255.656982 
L 500.932832 254.726244 
L 504.070323 253.16291 
L 507.207814 251.271645 
L 510.345304 248.49467 
L 513.482795 245.257873 
L 516.620285 241.561287 
L 519.757776 236.979052 
L 522.895267 232.182292 
L 526.032757 228.014554 
L 529.170248 224.638253 
L 532.307739 221.540739 
L 535.445229 219.234583 
L 538.58272 217.561002 
L 541.72021 216.215291 
L 544.857701 215.754993 
L 547.995192 215.722699 
L 551.132682 215.262402 
L 554.270173 213.916691 
L 557.407663 212.243114 
L 560.545154 209.936961 
L 563.682645 206.839453 
L 566.820135 203.463158 
L 569.957626 199.295428 
L 573.095116 194.498679 
L 576.232607 189.916458 
L 579.370098 186.219891 
L 582.507588 182.983121 
L 585.645079 180.206184 
L 588.782569 178.314977 
L 591.92006 176.751745 
L 595.057551 175.821243 
L 598.195041 175.683027 
L 601.332532 175.544812 
L 604.470023 174.614311 
L 607.607513 173.051082 
L 610.745004 171.159878 
L 613.882494 168.382945 
L 617.019985 165.14618 
L 620.157476 161.44962 
L 623.294966 156.867409 
L 626.432457 152.070672 
L 629.569947 147.902959 
L 632.707438 144.526687 
L 635.844929 141.42921 
L 638.982419 139.123104 
L 642.11991 137.449601 
L 645.2574 136.104039 
L 648.394891 135.644197 
L 651.532382 135.644197 
L 654.669872 136.104039 
L 657.807363 137.449601 
L 660.944853 139.123104 
L 664.082344 141.42921 
L 667.219835 144.526687 
L 670.357325 147.902959 
L 673.494816 152.070672 
L 676.632307 156.867409 
L 679.769797 161.44962 
L 682.907288 165.14618 
L 686.044778 168.382945 
L 689.182269 171.159878 
L 692.31976 173.051082 
L 695.45725 174.614311 
L 698.594741 175.544812 
L 701.732231 175.683027 
L 704.869722 175.821243 
L 708.007213 176.751745 
L 711.144703 178.314977 
L 714.282194 180.206184 
L 717.419684 182.983121 
L 720.557175 186.219891 
L 723.694666 189.916458 
L 726.832156 194.498679 
L 729.969647 199.295428 
L 733.107137 203.463158 
L 736.244628 206.839453 
L 739.382119 209.936961 
L 742.519609 212.243114 
L 745.6571 213.916691 
L 748.794591 215.262402 
L 751.932081 215.722699 
L 755.069572 215.754993 
L 758.207062 216.215291 
L 761.344553 217.561002 
L 764.482044 219.234583 
L 767.619534 221.540739 
L 770.757025 224.638253 
L 773.894515 228.014554 
L 777.032006 232.182292 
L 780.169497 236.979052 
L 783.306987 241.561287 
L 786.444478 245.257873 
L 789.581968 248.49467 
L 792.719459 251.271645 
L 795.85695 253.16291 
L 798.99444 254.726244 
L 802.131931 255.656982 
L 805.269421 255.796364 
" clip-path="url(#p33dc13ddf0)" style="fill: none; stroke: #348abd; stroke-width: 2"/>
   </g>
   <g id="line2d_73">
    <path d="M 494.657851 255.794547 
L 497.795342 255.789548 
L 500.932832 255.682626 
L 504.070323 255.258551 
L 507.207814 254.326857 
L 510.345304 252.837183 
L 513.482795 250.788878 
L 516.620285 248.181943 
L 519.757776 245.017028 
L 522.895267 241.344494 
L 526.032757 237.354809 
L 529.170248 233.263204 
L 532.307739 229.1666 
L 535.445229 225.069992 
L 538.58272 220.973383 
L 541.72021 216.876774 
L 544.857701 212.780165 
L 547.995192 208.683556 
L 551.132682 204.586947 
L 554.270173 200.490338 
L 557.407663 196.393729 
L 560.545154 192.297121 
L 563.682645 188.200517 
L 566.820135 184.108912 
L 569.957626 180.119227 
L 573.095116 176.446693 
L 576.232607 173.281777 
L 579.370098 170.674842 
L 582.507588 168.626537 
L 585.645079 167.136863 
L 588.782569 166.205169 
L 591.92006 165.781094 
L 595.057551 165.67417 
L 598.195041 165.669166 
L 601.332532 165.66916 
L 604.470023 165.669159 
L 607.607513 165.669158 
L 610.745004 165.669158 
L 613.882494 165.669158 
L 617.019985 165.669158 
L 620.157476 165.669157 
L 623.294966 165.669157 
L 626.432457 165.669157 
L 629.569947 165.669157 
L 632.707438 165.669157 
L 635.844929 165.669157 
L 638.982419 165.669157 
L 642.11991 165.669157 
L 645.2574 165.669157 
L 648.394891 165.669157 
L 651.532382 165.669157 
L 654.669872 165.669157 
L 657.807363 165.669157 
L 660.944853 165.669157 
L 664.082344 165.669157 
L 667.219835 165.669157 
L 670.357325 165.669157 
L 673.494816 165.669157 
L 676.632307 165.669157 
L 679.769797 165.669157 
L 682.907288 165.669158 
L 686.044778 165.669158 
L 689.182269 165.669158 
L 692.31976 165.669158 
L 695.45725 165.669159 
L 698.594741 165.66916 
L 701.732231 165.669166 
L 704.869722 165.67417 
L 708.007213 165.781094 
L 711.144703 166.205169 
L 714.282194 167.136863 
L 717.419684 168.626537 
L 720.557175 170.674842 
L 723.694666 173.281777 
L 726.832156 176.446693 
L 729.969647 180.119227 
L 733.107137 184.108912 
L 736.244628 188.200517 
L 739.382119 192.297121 
L 742.519609 196.393729 
L 745.6571 200.490338 
L 748.794591 204.586947 
L 751.932081 208.683556 
L 755.069572 212.780165 
L 758.207062 216.876774 
L 761.344553 220.973383 
L 764.482044 225.069992 
L 767.619534 229.1666 
L 770.757025 233.263204 
L 773.894515 237.354809 
L 777.032006 241.344494 
L 780.169497 245.017028 
L 783.306987 248.181943 
L 786.444478 250.788878 
L 789.581968 252.837183 
L 792.719459 254.326857 
L 795.85695 255.258551 
L 798.99444 255.682626 
L 802.131931 255.789548 
L 805.269421 255.794547 
" clip-path="url(#p33dc13ddf0)" style="fill: none; stroke: #988ed5; stroke-width: 2"/>
   </g>
   <g id="line2d_74">
    <path d="M 494.657851 255.794556 
L 497.795342 255.794556 
L 500.932832 255.794556 
L 504.070323 255.794548 
L 507.207814 255.794414 
L 510.345304 255.793457 
L 513.482795 255.789316 
L 516.620285 255.776463 
L 519.757776 255.744554 
L 522.895267 255.676788 
L 526.032757 255.548456 
L 529.170248 255.326415 
L 532.307739 254.970328 
L 535.445229 254.435375 
L 538.58272 253.675495 
L 541.72021 252.646692 
L 544.857701 251.310215 
L 547.995192 249.634987 
L 551.132682 247.598381 
L 554.270173 245.185361 
L 557.407663 242.386942 
L 560.545154 239.198539 
L 563.682645 235.618339 
L 566.820135 231.645867 
L 569.957626 227.281055 
L 573.095116 222.5239 
L 576.232607 217.374403 
L 579.370098 211.832565 
L 582.507588 205.898437 
L 585.645079 199.572608 
L 588.782569 192.858048 
L 591.92006 185.763759 
L 595.057551 178.309475 
L 598.195041 170.530612 
L 601.332532 162.483152 
L 604.470023 154.247576 
L 607.607513 145.929278 
L 610.745004 137.653503 
L 613.882494 129.556568 
L 617.019985 121.776033 
L 620.157476 114.440808 
L 623.294966 107.661923 
L 626.432457 101.526257 
L 629.569947 96.095628 
L 632.707438 91.410146 
L 635.844929 87.493002 
L 638.982419 84.35542 
L 642.11991 82.001477 
L 645.2574 80.43211 
L 648.394891 79.647425 
L 651.532382 79.647425 
L 654.669872 80.43211 
L 657.807363 82.001477 
L 660.944853 84.35542 
L 664.082344 87.493002 
L 667.219835 91.410146 
L 670.357325 96.095628 
L 673.494816 101.526257 
L 676.632307 107.661923 
L 679.769797 114.440808 
L 682.907288 121.776033 
L 686.044778 129.556568 
L 689.182269 137.653503 
L 692.31976 145.929278 
L 695.45725 154.247576 
L 698.594741 162.483152 
L 701.732231 170.530612 
L 704.869722 178.309475 
L 708.007213 185.763759 
L 711.144703 192.858048 
L 714.282194 199.572608 
L 717.419684 205.898437 
L 720.557175 211.832565 
L 723.694666 217.374403 
L 726.832156 222.5239 
L 729.969647 227.281055 
L 733.107137 231.645867 
L 736.244628 235.618339 
L 739.382119 239.198539 
L 742.519609 242.386942 
L 745.6571 245.185361 
L 748.794591 247.598381 
L 751.932081 249.634987 
L 755.069572 251.310215 
L 758.207062 252.646692 
L 761.344553 253.675495 
L 764.482044 254.435375 
L 767.619534 254.970328 
L 770.757025 255.326415 
L 773.894515 255.548456 
L 777.032006 255.676788 
L 780.169497 255.744554 
L 783.306987 255.776463 
L 786.444478 255.789316 
L 789.581968 255.793457 
L 792.719459 255.794414 
L 795.85695 255.794548 
L 798.99444 255.794556 
L 802.131931 255.794556 
L 805.269421 255.794556 
" clip-path="url(#p33dc13ddf0)" style="fill: none; stroke: #777777; stroke-width: 2"/>
   </g>
   <g id="line2d_75">
    <path d="M 494.657851 255.794556 
L 497.795342 255.794556 
L 500.932832 255.794555 
L 504.070323 255.79453 
L 507.207814 255.79429 
L 510.345304 255.793072 
L 513.482795 255.78889 
L 516.620285 255.777764 
L 519.757776 255.752957 
L 522.895267 255.704338 
L 526.032757 255.618011 
L 529.170248 255.476189 
L 532.307739 255.257177 
L 535.445229 254.935399 
L 538.58272 254.481565 
L 541.72021 253.863104 
L 544.857701 253.044832 
L 547.995192 251.989729 
L 551.132682 250.659694 
L 554.270173 249.016162 
L 557.407663 247.020444 
L 560.545154 244.633838 
L 563.682645 241.81765 
L 566.820135 238.533332 
L 569.957626 234.74324 
L 573.095116 230.412465 
L 576.232607 225.511595 
L 579.370098 220.019816 
L 582.507588 213.927919 
L 585.645079 207.240651 
L 588.782569 199.977991 
L 591.92006 192.175513 
L 595.057551 183.884419 
L 598.195041 175.171361 
L 601.332532 166.117596 
L 604.470023 156.817039 
L 607.607513 147.373441 
L 610.745004 137.897279 
L 613.882494 128.502789 
L 617.019985 119.305708 
L 620.157476 110.422111 
L 623.294966 101.968103 
L 626.432457 94.059767 
L 629.569947 86.812843 
L 632.707438 80.341304 
L 635.844929 74.754277 
L 638.982419 70.15173 
L 642.11991 66.619798 
L 645.2574 64.226395 
L 648.394891 63.017982 
L 651.532382 63.017982 
L 654.669872 64.226395 
L 657.807363 66.619798 
L 660.944853 70.15173 
L 664.082344 74.754277 
L 667.219835 80.341304 
L 670.357325 86.812843 
L 673.494816 94.059767 
L 676.632307 101.968103 
L 679.769797 110.422111 
L 682.907288 119.305708 
L 686.044778 128.502789 
L 689.182269 137.897279 
L 692.31976 147.373441 
L 695.45725 156.817039 
L 698.594741 166.117596 
L 701.732231 175.171361 
L 704.869722 183.884419 
L 708.007213 192.175513 
L 711.144703 199.977991 
L 714.282194 207.240651 
L 717.419684 213.927919 
L 720.557175 220.019816 
L 723.694666 225.511595 
L 726.832156 230.412465 
L 729.969647 234.74324 
L 733.107137 238.533332 
L 736.244628 241.81765 
L 739.382119 244.633838 
L 742.519609 247.020444 
L 745.6571 249.016162 
L 748.794591 250.659694 
L 751.932081 251.989729 
L 755.069572 253.044832 
L 758.207062 253.863104 
L 761.344553 254.481565 
L 764.482044 254.935399 
L 767.619534 255.257177 
L 770.757025 255.476189 
L 773.894515 255.618011 
L 777.032006 255.704338 
L 780.169497 255.752957 
L 783.306987 255.777764 
L 786.444478 255.78889 
L 789.581968 255.793072 
L 792.719459 255.79429 
L 795.85695 255.79453 
L 798.99444 255.794555 
L 802.131931 255.794556 
L 805.269421 255.794556 
" clip-path="url(#p33dc13ddf0)" style="fill: none; stroke: #fbc15e; stroke-width: 2"/>
   </g>
   <g id="line2d_76">
    <path d="M 494.657851 255.794556 
L 497.795342 255.794556 
L 500.932832 255.794556 
L 504.070323 255.794556 
L 507.207814 255.794556 
L 510.345304 255.794556 
L 513.482795 255.794556 
L 516.620285 255.794555 
L 519.757776 255.794548 
L 522.895267 255.79451 
L 526.032757 255.794337 
L 529.170248 255.793715 
L 532.307739 255.791816 
L 535.445229 255.786762 
L 538.58272 255.774764 
L 541.72021 255.748895 
L 544.857701 255.697521 
L 547.995192 255.602438 
L 551.132682 255.436899 
L 554.270173 255.163696 
L 557.407663 254.733595 
L 560.545154 254.084402 
L 563.682645 253.14093 
L 566.820135 251.816039 
L 569.957626 250.012774 
L 573.095116 247.627457 
L 576.232607 244.553518 
L 579.370098 240.685791 
L 582.507588 235.925071 
L 585.645079 230.182775 
L 588.782569 223.385651 
L 591.92006 215.480493 
L 595.057551 206.438845 
L 598.195041 196.261676 
L 601.332532 184.983908 
L 604.470023 172.678579 
L 607.607513 159.460185 
L 610.745004 145.486605 
L 613.882494 130.958914 
L 617.019985 116.118496 
L 620.157476 101.241226 
L 623.294966 86.628881 
L 626.432457 72.598347 
L 629.569947 59.469455 
L 632.707438 47.552386 
L 635.844929 37.135542 
L 638.982419 28.474708 
L 642.11991 21.784076 
L 645.2574 17.229456 
L 648.394891 14.923636 
L 651.532382 14.923636 
L 654.669872 17.229456 
L 657.807363 21.784076 
L 660.944853 28.474708 
L 664.082344 37.135542 
L 667.219835 47.552386 
L 670.357325 59.469455 
L 673.494816 72.598347 
L 676.632307 86.628881 
L 679.769797 101.241226 
L 682.907288 116.118496 
L 686.044778 130.958914 
L 689.182269 145.486605 
L 692.31976 159.460185 
L 695.45725 172.678579 
L 698.594741 184.983908 
L 701.732231 196.261676 
L 704.869722 206.438845 
L 708.007213 215.480493 
L 711.144703 223.385651 
L 714.282194 230.182775 
L 717.419684 235.925071 
L 720.557175 240.685791 
L 723.694666 244.553518 
L 726.832156 247.627457 
L 729.969647 250.012774 
L 733.107137 251.816039 
L 736.244628 253.14093 
L 739.382119 254.084402 
L 742.519609 254.733595 
L 745.6571 255.163696 
L 748.794591 255.436899 
L 751.932081 255.602438 
L 755.069572 255.697521 
L 758.207062 255.748895 
L 761.344553 255.774764 
L 764.482044 255.786762 
L 767.619534 255.791816 
L 770.757025 255.793715 
L 773.894515 255.794337 
L 777.032006 255.79451 
L 780.169497 255.794548 
L 783.306987 255.794555 
L 786.444478 255.794556 
L 789.581968 255.794556 
L 792.719459 255.794556 
L 795.85695 255.794556 
L 798.99444 255.794556 
L 802.131931 255.794556 
L 805.269421 255.794556 
" clip-path="url(#p33dc13ddf0)" style="fill: none; stroke: #8eba42; stroke-width: 2"/>
   </g>
   <g id="line2d_77">
    <path d="M 494.657851 255.794556 
L 497.795342 255.794556 
L 500.932832 255.794474 
L 504.070323 255.793027 
L 507.207814 255.784324 
L 510.345304 255.754255 
L 513.482795 255.679158 
L 516.620285 255.526584 
L 519.757776 255.258455 
L 522.895267 254.834836 
L 526.032757 254.215632 
L 529.170248 253.361466 
L 532.307739 252.236556 
L 535.445229 250.81261 
L 538.58272 249.070768 
L 541.72021 247.001357 
L 544.857701 244.601315 
L 547.995192 241.870243 
L 551.132682 238.80814 
L 554.270173 235.415405 
L 557.407663 231.695102 
L 560.545154 227.656903 
L 563.682645 223.319667 
L 566.820135 218.711689 
L 569.957626 213.868747 
L 573.095116 208.830221 
L 576.232607 203.636205 
L 579.370098 198.326634 
L 582.507588 192.939586 
L 585.645079 187.50751 
L 588.782569 182.054068 
L 591.92006 176.59337 
L 595.057551 171.131306 
L 598.195041 165.669161 
L 601.332532 160.207017 
L 604.470023 154.745034 
L 607.607513 149.285783 
L 610.745004 143.841044 
L 613.882494 138.439037 
L 617.019985 133.127087 
L 620.157476 127.970089 
L 623.294966 123.044202 
L 626.432457 118.429295 
L 629.569947 114.205557 
L 632.707438 110.451745 
L 635.844929 107.239419 
L 638.982419 104.625166 
L 642.11991 102.646705 
L 645.2574 101.323381 
L 648.394891 100.66132 
L 651.532382 100.66132 
L 654.669872 101.323381 
L 657.807363 102.646705 
L 660.944853 104.625166 
L 664.082344 107.239419 
L 667.219835 110.451745 
L 670.357325 114.205557 
L 673.494816 118.429295 
L 676.632307 123.044202 
L 679.769797 127.970089 
L 682.907288 133.127087 
L 686.044778 138.439037 
L 689.182269 143.841044 
L 692.31976 149.285783 
L 695.45725 154.745034 
L 698.594741 160.207017 
L 701.732231 165.669161 
L 704.869722 171.131306 
L 708.007213 176.59337 
L 711.144703 182.054068 
L 714.282194 187.50751 
L 717.419684 192.939586 
L 720.557175 198.326634 
L 723.694666 203.636205 
L 726.832156 208.830221 
L 729.969647 213.868747 
L 733.107137 218.711689 
L 736.244628 223.319667 
L 739.382119 227.656903 
L 742.519609 231.695102 
L 745.6571 235.415405 
L 748.794591 238.80814 
L 751.932081 241.870243 
L 755.069572 244.601315 
L 758.207062 247.001357 
L 761.344553 249.070768 
L 764.482044 250.81261 
L 767.619534 252.236556 
L 770.757025 253.361466 
L 773.894515 254.215632 
L 777.032006 254.834836 
L 780.169497 255.258455 
L 783.306987 255.526584 
L 786.444478 255.679158 
L 789.581968 255.754255 
L 792.719459 255.784324 
L 795.85695 255.793027 
L 798.99444 255.794474 
L 802.131931 255.794556 
L 805.269421 255.794556 
" clip-path="url(#p33dc13ddf0)" style="fill: none; stroke: #ffb5b8; stroke-width: 2"/>
   </g>
   <g id="line2d_78">
    <path d="M 494.657851 255.794547 
L 497.795342 255.793385 
L 500.932832 255.770448 
L 504.070323 255.669073 
L 507.207814 255.42912 
L 510.345304 255.025052 
L 513.482795 254.438248 
L 516.620285 253.616054 
L 519.757776 252.495543 
L 522.895267 251.047531 
L 526.032757 249.281747 
L 529.170248 247.246462 
L 532.307739 245.006553 
L 535.445229 242.59629 
L 538.58272 240.030421 
L 541.72021 237.352601 
L 544.857701 234.628716 
L 547.995192 231.897643 
L 551.132682 229.159384 
L 554.270173 226.375059 
L 557.407663 223.478783 
L 560.545154 220.426901 
L 563.682645 217.204665 
L 566.820135 213.777806 
L 569.957626 210.081445 
L 573.095116 206.067312 
L 576.232607 201.725678 
L 579.370098 197.085727 
L 582.507588 192.210386 
L 585.645079 187.152309 
L 588.782569 181.930117 
L 591.92006 176.569348 
L 595.057551 171.130143 
L 598.195041 165.669166 
L 601.332532 160.20935 
L 604.470023 154.793082 
L 607.607513 149.533688 
L 610.745004 144.55145 
L 613.882494 139.89744 
L 617.019985 135.608902 
L 620.157476 131.791146 
L 623.294966 128.570023 
L 626.432457 126.003902 
L 629.569947 124.073325 
L 632.707438 122.681751 
L 635.844929 121.699424 
L 638.982419 121.057804 
L 642.11991 120.727398 
L 645.2574 120.620893 
L 648.394891 120.606519 
L 651.532382 120.606519 
L 654.669872 120.620893 
L 657.807363 120.727398 
L 660.944853 121.057804 
L 664.082344 121.699424 
L 667.219835 122.681751 
L 670.357325 124.073325 
L 673.494816 126.003902 
L 676.632307 128.570023 
L 679.769797 131.791146 
L 682.907288 135.608902 
L 686.044778 139.89744 
L 689.182269 144.55145 
L 692.31976 149.533688 
L 695.45725 154.793082 
L 698.594741 160.20935 
L 701.732231 165.669166 
L 704.869722 171.130143 
L 708.007213 176.569348 
L 711.144703 181.930117 
L 714.282194 187.152309 
L 717.419684 192.210386 
L 720.557175 197.085727 
L 723.694666 201.725678 
L 726.832156 206.067312 
L 729.969647 210.081445 
L 733.107137 213.777806 
L 736.244628 217.204665 
L 739.382119 220.426901 
L 742.519609 223.478783 
L 745.6571 226.375059 
L 748.794591 229.159384 
L 751.932081 231.897643 
L 755.069572 234.628716 
L 758.207062 237.352601 
L 761.344553 240.030421 
L 764.482044 242.59629 
L 767.619534 245.006553 
L 770.757025 247.246462 
L 773.894515 249.281747 
L 777.032006 251.047531 
L 780.169497 252.495543 
L 783.306987 253.616054 
L 786.444478 254.438248 
L 789.581968 255.025052 
L 792.719459 255.42912 
L 795.85695 255.669073 
L 798.99444 255.770448 
L 802.131931 255.793385 
L 805.269421 255.794547 
" clip-path="url(#p33dc13ddf0)" style="fill: none; stroke: #e24a33; stroke-width: 2"/>
   </g>
   <g id="patch_8">
    <path d="M 479.127273 267.84 
L 479.127273 2.88 
" style="fill: none; stroke: #ffffff; stroke-linejoin: miter; stroke-linecap: square"/>
   </g>
   <g id="patch_9">
    <path d="M 820.8 267.84 
L 820.8 2.88 
" style="fill: none; stroke: #ffffff; stroke-linejoin: miter; stroke-linecap: square"/>
   </g>
   <g id="patch_10">
    <path d="M 479.127273 267.84 
L 820.8 267.84 
" style="fill: none; stroke: #ffffff; stroke-linejoin: miter; stroke-linecap: square"/>
   </g>
   <g id="patch_11">
    <path d="M 479.127273 2.88 
L 820.8 2.88 
" style="fill: none; stroke: #ffffff; stroke-linejoin: miter; stroke-linecap: square"/>
   </g>
   <g id="text_37">
    <!-- $\mathrm{mode}=area$ -->
    <g style="fill: #262626" transform="translate(610.795636 -3.12) scale(0.144 -0.144)">
     <defs>
      <path id="Cmmi10-72" d="M 494 109 
Q 494 147 500 166 
L 978 2075 
Q 1025 2253 1025 2388 
Q 1025 2663 838 2663 
Q 638 2663 541 2423 
Q 444 2184 353 1819 
Q 353 1800 334 1789 
Q 316 1778 300 1778 
L 225 1778 
Q 203 1778 187 1801 
Q 172 1825 172 1844 
Q 241 2122 305 2315 
Q 369 2509 505 2668 
Q 641 2828 844 2828 
Q 1066 2828 1233 2700 
Q 1400 2572 1441 2363 
Q 1603 2575 1811 2701 
Q 2019 2828 2266 2828 
Q 2469 2828 2623 2709 
Q 2778 2591 2778 2388 
Q 2778 2225 2676 2104 
Q 2575 1984 2406 1984 
Q 2303 1984 2233 2048 
Q 2163 2113 2163 2216 
Q 2163 2356 2266 2467 
Q 2369 2578 2503 2578 
Q 2400 2663 2253 2663 
Q 1978 2663 1775 2467 
Q 1572 2272 1409 1972 
L 953 141 
Q 931 53 854 -9 
Q 778 -72 684 -72 
Q 606 -72 550 -22 
Q 494 28 494 109 
z
" transform="scale(0.015625)"/>
      <path id="Cmmi10-65" d="M 1288 -72 
Q 981 -72 751 87 
Q 522 247 401 517 
Q 281 788 281 1088 
Q 281 1544 511 1945 
Q 741 2347 1134 2587 
Q 1528 2828 1978 2828 
Q 2253 2828 2458 2686 
Q 2663 2544 2663 2278 
Q 2663 1909 2369 1729 
Q 2075 1550 1706 1508 
Q 1338 1466 891 1466 
L 872 1466 
Q 769 1084 769 813 
Q 769 528 900 312 
Q 1031 97 1300 97 
Q 1681 97 2032 272 
Q 2384 447 2606 756 
Q 2625 775 2656 775 
Q 2688 775 2720 739 
Q 2753 703 2753 672 
Q 2753 647 2741 634 
Q 2506 306 2109 117 
Q 1713 -72 1288 -72 
z
M 909 1631 
Q 1281 1631 1597 1665 
Q 1913 1700 2169 1839 
Q 2425 1978 2425 2272 
Q 2425 2391 2359 2480 
Q 2294 2569 2189 2616 
Q 2084 2663 1972 2663 
Q 1700 2663 1483 2516 
Q 1266 2369 1125 2133 
Q 984 1897 909 1631 
z
" transform="scale(0.015625)"/>
     </defs>
     <use xlink:href="#Cmr10-6d" transform="translate(0 0.609375)"/>
     <use xlink:href="#Cmr10-6f" transform="translate(83.300781 0.609375)"/>
     <use xlink:href="#Cmr10-64" transform="translate(133.300781 0.609375)"/>
     <use xlink:href="#Cmr10-65" transform="translate(188.818359 0.609375)"/>
     <use xlink:href="#Cmr10-3d" transform="translate(250.761719 0.609375)"/>
     <use xlink:href="#Cmmi10-61" transform="translate(346.005859 0.609375)"/>
     <use xlink:href="#Cmmi10-72" transform="translate(398.789062 0.609375)"/>
     <use xlink:href="#Cmmi10-65" transform="translate(443.90625 0.609375)"/>
     <use xlink:href="#Cmmi10-61" transform="translate(490.390625 0.609375)"/>
    </g>
   </g>
   <g id="legend_2">
    <g id="line2d_79">
     <path d="M 761.1 15.537813 
L 771.1 15.537813 
L 781.1 15.537813 
" style="fill: none; stroke: #e24a33; stroke-width: 2"/>
    </g>
    <g id="text_38">
     <!-- $\mathrm{up}$ -->
     <g style="fill: #262626" transform="translate(789.1 19.037813) scale(0.1 -0.1)">
      <use xlink:href="#Cmr10-75" transform="translate(0 0.8125)"/>
      <use xlink:href="#Cmr10-70" transform="translate(55.517578 0.8125)"/>
     </g>
    </g>
    <g id="line2d_80">
     <path d="M 761.1 29.695625 
L 771.1 29.695625 
L 781.1 29.695625 
" style="fill: none; stroke: #348abd; stroke-width: 2"/>
    </g>
    <g id="text_39">
     <!-- $\mathrm{up}_3$ -->
     <g style="fill: #262626" transform="translate(789.1 33.195625) scale(0.1 -0.1)">
      <use xlink:href="#Cmr10-75" transform="translate(0 0.8125)"/>
      <use xlink:href="#Cmr10-70" transform="translate(55.517578 0.8125)"/>
      <use xlink:href="#Cmr10-33" transform="translate(115.499297 -16.19375) scale(0.7)"/>
     </g>
    </g>
    <g id="line2d_81">
     <path d="M 761.1 43.853438 
L 771.1 43.853438 
L 781.1 43.853438 
" style="fill: none; stroke: #988ed5; stroke-width: 2"/>
    </g>
    <g id="text_40">
     <!-- $\mathrm{h}_3$ -->
     <g style="fill: #262626" transform="translate(789.1 47.353438) scale(0.1 -0.1)">
      <use xlink:href="#Cmr10-68" transform="translate(0 0.609375)"/>
      <use xlink:href="#Cmr10-33" transform="translate(59.981719 -16.396875) scale(0.7)"/>
     </g>
    </g>
    <g id="line2d_82">
     <path d="M 761.1 57.99875 
L 771.1 57.99875 
L 781.1 57.99875 
" style="fill: none; stroke: #777777; stroke-width: 2"/>
    </g>
    <g id="text_41">
     <!-- $\mathrm{\Xi}_3$ -->
     <g style="fill: #262626" transform="translate(789.1 61.49875) scale(0.1 -0.1)">
      <use xlink:href="#Cmr10-a5" transform="translate(0 0.6875)"/>
      <use xlink:href="#Cmr10-33" transform="translate(71.065703 -16.31875) scale(0.7)"/>
     </g>
    </g>
    <g id="line2d_83">
     <path d="M 761.1 72.144063 
L 771.1 72.144063 
L 781.1 72.144063 
" style="fill: none; stroke: #fbc15e; stroke-width: 2"/>
    </g>
    <g id="text_42">
     <!-- $\mathrm{fup}_3$ -->
     <g style="fill: #262626" transform="translate(789.1 75.644063) scale(0.1 -0.1)">
      <use xlink:href="#Cmr10-66" transform="translate(0 0.484375)"/>
      <use xlink:href="#Cmr10-75" transform="translate(30.517578 0.484375)"/>
      <use xlink:href="#Cmr10-70" transform="translate(86.035156 0.484375)"/>
      <use xlink:href="#Cmr10-33" transform="translate(146.016875 -16.521875) scale(0.7)"/>
     </g>
    </g>
    <g id="line2d_84">
     <path d="M 761.1 86.301875 
L 771.1 86.301875 
L 781.1 86.301875 
" style="fill: none; stroke: #8eba42; stroke-width: 2"/>
    </g>
    <g id="text_43">
     <!-- $\mathrm{ch}_{2,3}$ -->
     <g style="fill: #262626" transform="translate(789.1 89.801875) scale(0.1 -0.1)">
      <use xlink:href="#Cmr10-63" transform="translate(0 0.609375)"/>
      <use xlink:href="#Cmr10-68" transform="translate(44.384766 0.609375)"/>
      <use xlink:href="#Cmr10-32" transform="translate(104.366484 -16.396875) scale(0.7)"/>
      <use xlink:href="#Cmmi10-3b" transform="translate(139.366484 -16.396875) scale(0.7)"/>
      <use xlink:href="#Cmr10-33" transform="translate(171.037383 -16.396875) scale(0.7)"/>
     </g>
    </g>
    <g id="line2d_85">
     <path d="M 761.1 101.559688 
L 771.1 101.559688 
L 781.1 101.559688 
" style="fill: none; stroke: #ffb5b8; stroke-width: 2"/>
    </g>
    <g id="text_44">
     <!-- $\mathrm{fip}_{2,1}$ -->
     <g style="fill: #262626" transform="translate(789.1 105.059688) scale(0.1 -0.1)">
      <use xlink:href="#Cmr10-66" transform="translate(0 0.484375)"/>
      <use xlink:href="#Cmr10-69" transform="translate(30.517578 0.484375)"/>
      <use xlink:href="#Cmr10-70" transform="translate(58.203125 0.484375)"/>
      <use xlink:href="#Cmr10-32" transform="translate(118.184844 -16.521875) scale(0.7)"/>
      <use xlink:href="#Cmmi10-3b" transform="translate(153.184844 -16.521875) scale(0.7)"/>
      <use xlink:href="#Cmr10-31" transform="translate(184.855742 -16.521875) scale(0.7)"/>
     </g>
    </g>
    <g id="line2d_86">
     <path d="M 761.1 116.8175 
L 771.1 116.8175 
L 781.1 116.8175 
" style="fill: none; stroke: #e24a33; stroke-width: 2"/>
    </g>
    <g id="text_45">
     <!-- $\mathrm{fp}_{2,1}$ -->
     <g style="fill: #262626" transform="translate(789.1 120.3175) scale(0.1 -0.1)">
      <use xlink:href="#Cmr10-66" transform="translate(0 0.484375)"/>
      <use xlink:href="#Cmr10-70" transform="translate(30.517578 0.484375)"/>
      <use xlink:href="#Cmr10-32" transform="translate(90.499297 -16.521875) scale(0.7)"/>
      <use xlink:href="#Cmmi10-3b" transform="translate(125.499297 -16.521875) scale(0.7)"/>
      <use xlink:href="#Cmr10-31" transform="translate(157.170195 -16.521875) scale(0.7)"/>
     </g>
    </g>
   </g>
  </g>
 </g>
 <defs>
  <clipPath id="p4a61364780">
   <rect x="69.12" y="2.88" width="341.672727" height="264.96"/>
  </clipPath>
  <clipPath id="p33dc13ddf0">
   <rect x="479.127273" y="2.88" width="341.672727" height="264.96"/>
  </clipPath>
 </defs>
</svg>
