<?xml version="1.0" encoding="utf-8" standalone="no"?>
<!DOCTYPE svg PUBLIC "-//W3C//DTD SVG 1.1//EN"
  "http://www.w3.org/Graphics/SVG/1.1/DTD/svg11.dtd">
<svg xmlns:xlink="http://www.w3.org/1999/xlink" width="648pt" height="288pt" viewBox="0 0 648 288" xmlns="http://www.w3.org/2000/svg" version="1.1">
 <metadata>
  <rdf:RDF xmlns:dc="http://purl.org/dc/elements/1.1/" xmlns:cc="http://creativecommons.org/ns#" xmlns:rdf="http://www.w3.org/1999/02/22-rdf-syntax-ns#">
   <cc:Work>
    <dc:type rdf:resource="http://purl.org/dc/dcmitype/StillImage"/>
    <dc:date>2023-07-29T17:09:10.428639</dc:date>
    <dc:format>image/svg+xml</dc:format>
    <dc:creator>
     <cc:Agent>
      <dc:title>Matplotlib v3.7.1, https://matplotlib.org/</dc:title>
     </cc:Agent>
    </dc:creator>
   </cc:Work>
  </rdf:RDF>
 </metadata>
 <defs>
  <style type="text/css">*{stroke-linejoin: round; stroke-linecap: butt}</style>
 </defs>
 <g id="figure_1">
  <g id="patch_1">
   <path d="M 0 288 
L 648 288 
L 648 0 
L 0 0 
z
" style="fill: #f0f0f0"/>
  </g>
  <g id="axes_1">
   <g id="patch_2">
    <path d="M 51.84 267.84 
L 308.094545 267.84 
L 308.094545 2.88 
L 51.84 2.88 
z
" style="fill: #e5e5e5"/>
   </g>
   <g id="matplotlib.axis_1">
    <g id="xtick_1">
     <g id="line2d_1">
      <path d="M 63.487934 267.84 
L 63.487934 2.88 
" clip-path="url(#p7b35cf6c16)" style="fill: none; stroke: #ffffff; stroke-width: 0.5"/>
     </g>
     <g id="line2d_2"/>
     <g id="text_1">
      <!-- −1.0 -->
      <g style="fill: #555555" transform="translate(53.617621 278.497813) scale(0.1 -0.1)">
       <defs>
        <path id="ArialMT-2212" d="M 3381 1997 
L 356 1997 
L 356 2522 
L 3381 2522 
L 3381 1997 
z
" transform="scale(0.015625)"/>
        <path id="ArialMT-31" d="M 2384 0 
L 1822 0 
L 1822 3584 
Q 1619 3391 1289 3197 
Q 959 3003 697 2906 
L 697 3450 
Q 1169 3672 1522 3987 
Q 1875 4303 2022 4600 
L 2384 4600 
L 2384 0 
z
" transform="scale(0.015625)"/>
        <path id="ArialMT-2e" d="M 581 0 
L 581 641 
L 1222 641 
L 1222 0 
L 581 0 
z
" transform="scale(0.015625)"/>
        <path id="ArialMT-30" d="M 266 2259 
Q 266 3072 433 3567 
Q 600 4063 929 4331 
Q 1259 4600 1759 4600 
Q 2128 4600 2406 4451 
Q 2684 4303 2865 4023 
Q 3047 3744 3150 3342 
Q 3253 2941 3253 2259 
Q 3253 1453 3087 958 
Q 2922 463 2592 192 
Q 2263 -78 1759 -78 
Q 1097 -78 719 397 
Q 266 969 266 2259 
z
M 844 2259 
Q 844 1131 1108 757 
Q 1372 384 1759 384 
Q 2147 384 2411 759 
Q 2675 1134 2675 2259 
Q 2675 3391 2411 3762 
Q 2147 4134 1753 4134 
Q 1366 4134 1134 3806 
Q 844 3388 844 2259 
z
" transform="scale(0.015625)"/>
       </defs>
       <use xlink:href="#ArialMT-2212"/>
       <use xlink:href="#ArialMT-31" x="58.398438"/>
       <use xlink:href="#ArialMT-2e" x="114.013672"/>
       <use xlink:href="#ArialMT-30" x="141.796875"/>
      </g>
     </g>
    </g>
    <g id="xtick_2">
     <g id="line2d_3">
      <path d="M 121.727603 267.84 
L 121.727603 2.88 
" clip-path="url(#p7b35cf6c16)" style="fill: none; stroke: #ffffff; stroke-width: 0.5"/>
     </g>
     <g id="line2d_4"/>
     <g id="text_2">
      <!-- −0.5 -->
      <g style="fill: #555555" transform="translate(111.857291 278.497813) scale(0.1 -0.1)">
       <defs>
        <path id="ArialMT-35" d="M 266 1200 
L 856 1250 
Q 922 819 1161 601 
Q 1400 384 1738 384 
Q 2144 384 2425 690 
Q 2706 997 2706 1503 
Q 2706 1984 2436 2262 
Q 2166 2541 1728 2541 
Q 1456 2541 1237 2417 
Q 1019 2294 894 2097 
L 366 2166 
L 809 4519 
L 3088 4519 
L 3088 3981 
L 1259 3981 
L 1013 2750 
Q 1425 3038 1878 3038 
Q 2478 3038 2890 2622 
Q 3303 2206 3303 1553 
Q 3303 931 2941 478 
Q 2500 -78 1738 -78 
Q 1113 -78 717 272 
Q 322 622 266 1200 
z
" transform="scale(0.015625)"/>
       </defs>
       <use xlink:href="#ArialMT-2212"/>
       <use xlink:href="#ArialMT-30" x="58.398438"/>
       <use xlink:href="#ArialMT-2e" x="114.013672"/>
       <use xlink:href="#ArialMT-35" x="141.796875"/>
      </g>
     </g>
    </g>
    <g id="xtick_3">
     <g id="line2d_5">
      <path d="M 179.967273 267.84 
L 179.967273 2.88 
" clip-path="url(#p7b35cf6c16)" style="fill: none; stroke: #ffffff; stroke-width: 0.5"/>
     </g>
     <g id="line2d_6"/>
     <g id="text_3">
      <!-- 0.0 -->
      <g style="fill: #555555" transform="translate(173.017273 278.497813) scale(0.1 -0.1)">
       <use xlink:href="#ArialMT-30"/>
       <use xlink:href="#ArialMT-2e" x="55.615234"/>
       <use xlink:href="#ArialMT-30" x="83.398438"/>
      </g>
     </g>
    </g>
    <g id="xtick_4">
     <g id="line2d_7">
      <path d="M 238.206942 267.84 
L 238.206942 2.88 
" clip-path="url(#p7b35cf6c16)" style="fill: none; stroke: #ffffff; stroke-width: 0.5"/>
     </g>
     <g id="line2d_8"/>
     <g id="text_4">
      <!-- 0.5 -->
      <g style="fill: #555555" transform="translate(231.256942 278.497813) scale(0.1 -0.1)">
       <use xlink:href="#ArialMT-30"/>
       <use xlink:href="#ArialMT-2e" x="55.615234"/>
       <use xlink:href="#ArialMT-35" x="83.398438"/>
      </g>
     </g>
    </g>
    <g id="xtick_5">
     <g id="line2d_9">
      <path d="M 296.446612 267.84 
L 296.446612 2.88 
" clip-path="url(#p7b35cf6c16)" style="fill: none; stroke: #ffffff; stroke-width: 0.5"/>
     </g>
     <g id="line2d_10"/>
     <g id="text_5">
      <!-- 1.0 -->
      <g style="fill: #555555" transform="translate(289.496612 278.497813) scale(0.1 -0.1)">
       <use xlink:href="#ArialMT-31"/>
       <use xlink:href="#ArialMT-2e" x="55.615234"/>
       <use xlink:href="#ArialMT-30" x="83.398438"/>
      </g>
     </g>
    </g>
   </g>
   <g id="matplotlib.axis_2">
    <g id="ytick_1">
     <g id="line2d_11">
      <path d="M 51.84 255.796359 
L 308.094545 255.796359 
" clip-path="url(#p7b35cf6c16)" style="fill: none; stroke: #ffffff; stroke-width: 0.5"/>
     </g>
     <g id="line2d_12"/>
     <g id="text_6">
      <!-- −2.0 -->
      <g style="fill: #555555" transform="translate(28.599375 259.375266) scale(0.1 -0.1)">
       <defs>
        <path id="ArialMT-32" d="M 3222 541 
L 3222 0 
L 194 0 
Q 188 203 259 391 
Q 375 700 629 1000 
Q 884 1300 1366 1694 
Q 2113 2306 2375 2664 
Q 2638 3022 2638 3341 
Q 2638 3675 2398 3904 
Q 2159 4134 1775 4134 
Q 1369 4134 1125 3890 
Q 881 3647 878 3216 
L 300 3275 
Q 359 3922 746 4261 
Q 1134 4600 1788 4600 
Q 2447 4600 2831 4234 
Q 3216 3869 3216 3328 
Q 3216 3053 3103 2787 
Q 2991 2522 2730 2228 
Q 2469 1934 1863 1422 
Q 1356 997 1212 845 
Q 1069 694 975 541 
L 3222 541 
z
" transform="scale(0.015625)"/>
       </defs>
       <use xlink:href="#ArialMT-2212"/>
       <use xlink:href="#ArialMT-32" x="58.398438"/>
       <use xlink:href="#ArialMT-2e" x="114.013672"/>
       <use xlink:href="#ArialMT-30" x="141.796875"/>
      </g>
     </g>
    </g>
    <g id="ytick_2">
     <g id="line2d_13">
      <path d="M 51.84 225.68727 
L 308.094545 225.68727 
" clip-path="url(#p7b35cf6c16)" style="fill: none; stroke: #ffffff; stroke-width: 0.5"/>
     </g>
     <g id="line2d_14"/>
     <g id="text_7">
      <!-- −1.5 -->
      <g style="fill: #555555" transform="translate(28.599375 229.266176) scale(0.1 -0.1)">
       <use xlink:href="#ArialMT-2212"/>
       <use xlink:href="#ArialMT-31" x="58.398438"/>
       <use xlink:href="#ArialMT-2e" x="114.013672"/>
       <use xlink:href="#ArialMT-35" x="141.796875"/>
      </g>
     </g>
    </g>
    <g id="ytick_3">
     <g id="line2d_15">
      <path d="M 51.84 195.57818 
L 308.094545 195.57818 
" clip-path="url(#p7b35cf6c16)" style="fill: none; stroke: #ffffff; stroke-width: 0.5"/>
     </g>
     <g id="line2d_16"/>
     <g id="text_8">
      <!-- −1.0 -->
      <g style="fill: #555555" transform="translate(28.599375 199.157086) scale(0.1 -0.1)">
       <use xlink:href="#ArialMT-2212"/>
       <use xlink:href="#ArialMT-31" x="58.398438"/>
       <use xlink:href="#ArialMT-2e" x="114.013672"/>
       <use xlink:href="#ArialMT-30" x="141.796875"/>
      </g>
     </g>
    </g>
    <g id="ytick_4">
     <g id="line2d_17">
      <path d="M 51.84 165.46909 
L 308.094545 165.46909 
" clip-path="url(#p7b35cf6c16)" style="fill: none; stroke: #ffffff; stroke-width: 0.5"/>
     </g>
     <g id="line2d_18"/>
     <g id="text_9">
      <!-- −0.5 -->
      <g style="fill: #555555" transform="translate(28.599375 169.047996) scale(0.1 -0.1)">
       <use xlink:href="#ArialMT-2212"/>
       <use xlink:href="#ArialMT-30" x="58.398438"/>
       <use xlink:href="#ArialMT-2e" x="114.013672"/>
       <use xlink:href="#ArialMT-35" x="141.796875"/>
      </g>
     </g>
    </g>
    <g id="ytick_5">
     <g id="line2d_19">
      <path d="M 51.84 135.36 
L 308.094545 135.36 
" clip-path="url(#p7b35cf6c16)" style="fill: none; stroke: #ffffff; stroke-width: 0.5"/>
     </g>
     <g id="line2d_20"/>
     <g id="text_10">
      <!-- 0.0 -->
      <g style="fill: #555555" transform="translate(34.44 138.938906) scale(0.1 -0.1)">
       <use xlink:href="#ArialMT-30"/>
       <use xlink:href="#ArialMT-2e" x="55.615234"/>
       <use xlink:href="#ArialMT-30" x="83.398438"/>
      </g>
     </g>
    </g>
    <g id="ytick_6">
     <g id="line2d_21">
      <path d="M 51.84 105.25091 
L 308.094545 105.25091 
" clip-path="url(#p7b35cf6c16)" style="fill: none; stroke: #ffffff; stroke-width: 0.5"/>
     </g>
     <g id="line2d_22"/>
     <g id="text_11">
      <!-- 0.5 -->
      <g style="fill: #555555" transform="translate(34.44 108.829816) scale(0.1 -0.1)">
       <use xlink:href="#ArialMT-30"/>
       <use xlink:href="#ArialMT-2e" x="55.615234"/>
       <use xlink:href="#ArialMT-35" x="83.398438"/>
      </g>
     </g>
    </g>
    <g id="ytick_7">
     <g id="line2d_23">
      <path d="M 51.84 75.14182 
L 308.094545 75.14182 
" clip-path="url(#p7b35cf6c16)" style="fill: none; stroke: #ffffff; stroke-width: 0.5"/>
     </g>
     <g id="line2d_24"/>
     <g id="text_12">
      <!-- 1.0 -->
      <g style="fill: #555555" transform="translate(34.44 78.720727) scale(0.1 -0.1)">
       <use xlink:href="#ArialMT-31"/>
       <use xlink:href="#ArialMT-2e" x="55.615234"/>
       <use xlink:href="#ArialMT-30" x="83.398438"/>
      </g>
     </g>
    </g>
    <g id="ytick_8">
     <g id="line2d_25">
      <path d="M 51.84 45.03273 
L 308.094545 45.03273 
" clip-path="url(#p7b35cf6c16)" style="fill: none; stroke: #ffffff; stroke-width: 0.5"/>
     </g>
     <g id="line2d_26"/>
     <g id="text_13">
      <!-- 1.5 -->
      <g style="fill: #555555" transform="translate(34.44 48.611637) scale(0.1 -0.1)">
       <use xlink:href="#ArialMT-31"/>
       <use xlink:href="#ArialMT-2e" x="55.615234"/>
       <use xlink:href="#ArialMT-35" x="83.398438"/>
      </g>
     </g>
    </g>
    <g id="ytick_9">
     <g id="line2d_27">
      <path d="M 51.84 14.923641 
L 308.094545 14.923641 
" clip-path="url(#p7b35cf6c16)" style="fill: none; stroke: #ffffff; stroke-width: 0.5"/>
     </g>
     <g id="line2d_28"/>
     <g id="text_14">
      <!-- 2.0 -->
      <g style="fill: #555555" transform="translate(34.44 18.502547) scale(0.1 -0.1)">
       <use xlink:href="#ArialMT-32"/>
       <use xlink:href="#ArialMT-2e" x="55.615234"/>
       <use xlink:href="#ArialMT-30" x="83.398438"/>
      </g>
     </g>
    </g>
   </g>
   <g id="line2d_29">
    <path d="M 63.487934 135.36 
L 83.775627 134.372923 
L 91.470958 131.742979 
L 99.399482 126.850724 
L 108.960348 118.345345 
L 148.136583 80.855551 
L 156.298298 77.032469 
L 164.460013 75.427232 
L 179.151101 75.14182 
L 200.138369 76.104332 
L 207.833701 78.703511 
L 215.762225 83.563223 
L 225.089899 91.810994 
L 265.198901 129.99774 
L 273.360616 133.652486 
L 281.755524 135.14135 
L 296.446612 135.36 
L 296.446612 135.36 
" clip-path="url(#p7b35cf6c16)" style="fill: none; stroke: #ff0000; stroke-width: 2"/>
   </g>
   <g id="line2d_30">
    <path d="M 63.487934 135.36 
L 72.116033 134.409758 
L 75.147527 131.801428 
L 78.645405 125.710146 
L 82.842859 113.859013 
L 89.838615 86.593345 
L 104.762895 29.080888 
L 109.19354 19.680474 
L 112.92461 15.966799 
L 116.888872 14.969816 
L 129.014849 15.343816 
L 132.279535 17.26527 
L 135.544222 21.82844 
L 139.508483 31.417558 
L 144.871896 50.577525 
L 164.226822 124.357354 
L 168.424275 131.945122 
L 171.922153 134.677684 
L 176.352799 135.352066 
L 188.711968 136.371513 
L 191.743462 139.066016 
L 195.24134 145.272689 
L 199.438794 157.256333 
L 206.667742 185.572498 
L 221.125638 241.316625 
L 225.556283 250.863525 
L 229.287353 254.687853 
L 233.251615 255.743409 
L 245.1444 255.468576 
L 248.642278 253.564044 
L 251.906964 249.106126 
L 255.871226 239.64749 
L 261.234639 220.608322 
L 280.822756 146.084365 
L 285.02021 138.634915 
L 288.518088 135.995987 
L 292.948734 135.366445 
L 296.446612 135.36 
L 296.446612 135.36 
" clip-path="url(#p7b35cf6c16)" style="fill: none; stroke: #0000ff; stroke-width: 2"/>
   </g>
   <g id="patch_3">
    <path d="M 51.84 267.84 
L 51.84 2.88 
" style="fill: none; stroke: #ffffff; stroke-linejoin: miter; stroke-linecap: square"/>
   </g>
   <g id="patch_4">
    <path d="M 308.094545 267.84 
L 308.094545 2.88 
" style="fill: none; stroke: #ffffff; stroke-linejoin: miter; stroke-linecap: square"/>
   </g>
   <g id="patch_5">
    <path d="M 51.84 267.84 
L 308.094545 267.84 
" style="fill: none; stroke: #ffffff; stroke-linejoin: miter; stroke-linecap: square"/>
   </g>
   <g id="patch_6">
    <path d="M 51.84 2.88 
L 308.094545 2.88 
" style="fill: none; stroke: #ffffff; stroke-linejoin: miter; stroke-linecap: square"/>
   </g>
   <g id="legend_1">
    <g id="line2d_31">
     <path d="M 243.394545 15.88 
L 253.394545 15.88 
L 263.394545 15.88 
" style="fill: none; stroke: #ff0000; stroke-width: 2"/>
    </g>
    <g id="text_15">
     <!-- $\mathrm{up}(x)$ -->
     <g style="fill: #262626" transform="translate(271.394545 19.38) scale(0.1 -0.1)">
      <defs>
       <path id="Cmr10-75" d="M 691 763 
L 691 2175 
Q 691 2347 639 2423 
Q 588 2500 491 2517 
Q 394 2534 191 2534 
L 191 2759 
L 1159 2828 
L 1159 763 
Q 1159 513 1195 373 
Q 1231 234 1348 165 
Q 1466 97 1722 97 
Q 2066 97 2269 384 
Q 2472 672 2472 1038 
L 2472 2175 
Q 2472 2347 2419 2423 
Q 2366 2500 2270 2517 
Q 2175 2534 1972 2534 
L 1972 2759 
L 2938 2828 
L 2938 581 
Q 2938 413 2989 336 
Q 3041 259 3137 242 
Q 3234 225 3438 225 
L 3438 0 
L 2491 -72 
L 2491 469 
Q 2372 228 2159 78 
Q 1947 -72 1691 -72 
Q 1231 -72 961 123 
Q 691 319 691 763 
z
" transform="scale(0.015625)"/>
       <path id="Cmr10-70" d="M 166 -1241 
L 166 -1019 
Q 384 -1019 525 -981 
Q 666 -944 666 -813 
L 666 2272 
Q 666 2447 541 2490 
Q 416 2534 166 2534 
L 166 2759 
L 1113 2828 
L 1113 2431 
Q 1288 2625 1520 2726 
Q 1753 2828 2016 2828 
Q 2394 2828 2697 2623 
Q 3000 2419 3170 2086 
Q 3341 1753 3341 1381 
Q 3341 994 3152 659 
Q 2963 325 2636 126 
Q 2309 -72 1919 -72 
Q 1453 -72 1131 306 
L 1131 -813 
Q 1131 -944 1273 -981 
Q 1416 -1019 1631 -1019 
L 1631 -1241 
L 166 -1241 
z
M 1131 622 
Q 1244 394 1444 245 
Q 1644 97 1881 97 
Q 2103 97 2273 215 
Q 2444 334 2559 534 
Q 2675 734 2729 954 
Q 2784 1175 2784 1381 
Q 2784 1638 2692 1936 
Q 2600 2234 2411 2439 
Q 2222 2644 1953 2644 
Q 1694 2644 1476 2511 
Q 1259 2378 1131 2150 
L 1131 622 
z
" transform="scale(0.015625)"/>
       <path id="Cmr10-28" d="M 1984 -1588 
Q 1628 -1306 1370 -942 
Q 1113 -578 948 -165 
Q 784 247 703 697 
Q 622 1147 622 1600 
Q 622 2059 703 2509 
Q 784 2959 951 3375 
Q 1119 3791 1378 4153 
Q 1638 4516 1984 4788 
Q 1984 4800 2016 4800 
L 2075 4800 
Q 2094 4800 2109 4783 
Q 2125 4766 2125 4744 
Q 2125 4716 2113 4703 
Q 1800 4397 1592 4047 
Q 1384 3697 1257 3301 
Q 1131 2906 1075 2482 
Q 1019 2059 1019 1600 
Q 1019 -434 2106 -1491 
Q 2125 -1509 2125 -1544 
Q 2125 -1559 2108 -1579 
Q 2091 -1600 2075 -1600 
L 2016 -1600 
Q 1984 -1600 1984 -1588 
z
" transform="scale(0.015625)"/>
       <path id="Cmmi10-78" d="M 500 184 
Q 613 97 819 97 
Q 1019 97 1172 289 
Q 1325 481 1381 709 
L 1672 1844 
Q 1741 2153 1741 2266 
Q 1741 2425 1652 2544 
Q 1563 2663 1403 2663 
Q 1200 2663 1022 2536 
Q 844 2409 722 2214 
Q 600 2019 550 1819 
Q 538 1778 500 1778 
L 422 1778 
Q 372 1778 372 1838 
L 372 1856 
Q 434 2094 584 2320 
Q 734 2547 951 2687 
Q 1169 2828 1416 2828 
Q 1650 2828 1839 2703 
Q 2028 2578 2106 2363 
Q 2216 2559 2386 2693 
Q 2556 2828 2759 2828 
Q 2897 2828 3040 2779 
Q 3184 2731 3275 2631 
Q 3366 2531 3366 2381 
Q 3366 2219 3261 2101 
Q 3156 1984 2994 1984 
Q 2891 1984 2822 2050 
Q 2753 2116 2753 2216 
Q 2753 2350 2845 2451 
Q 2938 2553 3066 2572 
Q 2950 2663 2747 2663 
Q 2541 2663 2389 2472 
Q 2238 2281 2175 2047 
L 1894 916 
Q 1825 659 1825 494 
Q 1825 331 1917 214 
Q 2009 97 2163 97 
Q 2463 97 2698 361 
Q 2934 625 3009 941 
Q 3022 978 3059 978 
L 3138 978 
Q 3163 978 3178 961 
Q 3194 944 3194 922 
Q 3194 916 3188 903 
Q 3097 522 2806 225 
Q 2516 -72 2150 -72 
Q 1916 -72 1727 54 
Q 1538 181 1459 397 
Q 1359 209 1182 68 
Q 1006 -72 806 -72 
Q 669 -72 523 -23 
Q 378 25 287 125 
Q 197 225 197 378 
Q 197 528 301 651 
Q 406 775 563 775 
Q 669 775 741 711 
Q 813 647 813 544 
Q 813 409 723 309 
Q 634 209 500 184 
z
" transform="scale(0.015625)"/>
       <path id="Cmr10-29" d="M 416 -1600 
Q 359 -1600 359 -1544 
Q 359 -1516 372 -1503 
Q 1466 -434 1466 1600 
Q 1466 3634 384 4691 
Q 359 4706 359 4744 
Q 359 4766 376 4783 
Q 394 4800 416 4800 
L 475 4800 
Q 494 4800 506 4788 
Q 966 4425 1272 3906 
Q 1578 3388 1720 2800 
Q 1863 2213 1863 1600 
Q 1863 1147 1786 708 
Q 1709 269 1542 -157 
Q 1375 -584 1119 -945 
Q 863 -1306 506 -1588 
Q 494 -1600 475 -1600 
L 416 -1600 
z
" transform="scale(0.015625)"/>
      </defs>
      <use xlink:href="#Cmr10-75"/>
      <use xlink:href="#Cmr10-70" transform="translate(55.517578 0)"/>
      <use xlink:href="#Cmr10-28" transform="translate(111.035156 0)"/>
      <use xlink:href="#Cmmi10-78" transform="translate(149.853516 0)"/>
      <use xlink:href="#Cmr10-29" transform="translate(206.933594 0)"/>
     </g>
    </g>
    <g id="line2d_32">
     <path d="M 243.394545 31.28 
L 253.394545 31.28 
L 263.394545 31.28 
" style="fill: none; stroke: #0000ff; stroke-width: 2"/>
    </g>
    <g id="text_16">
     <!-- $\mathrm{up'}(x)$ -->
     <g style="fill: #262626" transform="translate(271.394545 34.78) scale(0.1 -0.1)">
      <defs>
       <path id="Cmsy10-30" d="M 225 347 
Q 184 359 184 409 
L 966 3316 
Q 1003 3434 1093 3506 
Q 1184 3578 1300 3578 
Q 1450 3578 1564 3479 
Q 1678 3381 1678 3231 
Q 1678 3166 1644 3084 
L 488 319 
Q 466 275 428 275 
Q 394 275 320 306 
Q 247 338 225 347 
z
" transform="scale(0.015625)"/>
      </defs>
      <use xlink:href="#Cmr10-75" transform="translate(0 0.715625)"/>
      <use xlink:href="#Cmr10-70" transform="translate(55.517578 0.715625)"/>
      <use xlink:href="#Cmsy10-30" transform="translate(115.602656 39.865625) scale(0.7)"/>
      <use xlink:href="#Cmr10-28" transform="translate(141.37082 0.715625)"/>
      <use xlink:href="#Cmmi10-78" transform="translate(180.18918 0.715625)"/>
      <use xlink:href="#Cmr10-29" transform="translate(237.269258 0.715625)"/>
     </g>
    </g>
   </g>
  </g>
  <g id="axes_2">
   <g id="patch_7">
    <path d="M 359.345455 267.84 
L 615.6 267.84 
L 615.6 2.88 
L 359.345455 2.88 
z
" style="fill: #e5e5e5"/>
   </g>
   <g id="matplotlib.axis_3">
    <g id="xtick_6">
     <g id="line2d_33">
      <path d="M 370.993388 267.84 
L 370.993388 2.88 
" clip-path="url(#p59c3e079bc)" style="fill: none; stroke: #ffffff; stroke-width: 0.5"/>
     </g>
     <g id="line2d_34"/>
     <g id="text_17">
      <!-- −1.0 -->
      <g style="fill: #555555" transform="translate(361.123076 278.497813) scale(0.1 -0.1)">
       <use xlink:href="#ArialMT-2212"/>
       <use xlink:href="#ArialMT-31" x="58.398438"/>
       <use xlink:href="#ArialMT-2e" x="114.013672"/>
       <use xlink:href="#ArialMT-30" x="141.796875"/>
      </g>
     </g>
    </g>
    <g id="xtick_7">
     <g id="line2d_35">
      <path d="M 429.233058 267.84 
L 429.233058 2.88 
" clip-path="url(#p59c3e079bc)" style="fill: none; stroke: #ffffff; stroke-width: 0.5"/>
     </g>
     <g id="line2d_36"/>
     <g id="text_18">
      <!-- −0.5 -->
      <g style="fill: #555555" transform="translate(419.362745 278.497813) scale(0.1 -0.1)">
       <use xlink:href="#ArialMT-2212"/>
       <use xlink:href="#ArialMT-30" x="58.398438"/>
       <use xlink:href="#ArialMT-2e" x="114.013672"/>
       <use xlink:href="#ArialMT-35" x="141.796875"/>
      </g>
     </g>
    </g>
    <g id="xtick_8">
     <g id="line2d_37">
      <path d="M 487.472727 267.84 
L 487.472727 2.88 
" clip-path="url(#p59c3e079bc)" style="fill: none; stroke: #ffffff; stroke-width: 0.5"/>
     </g>
     <g id="line2d_38"/>
     <g id="text_19">
      <!-- 0.0 -->
      <g style="fill: #555555" transform="translate(480.522727 278.497813) scale(0.1 -0.1)">
       <use xlink:href="#ArialMT-30"/>
       <use xlink:href="#ArialMT-2e" x="55.615234"/>
       <use xlink:href="#ArialMT-30" x="83.398438"/>
      </g>
     </g>
    </g>
    <g id="xtick_9">
     <g id="line2d_39">
      <path d="M 545.712397 267.84 
L 545.712397 2.88 
" clip-path="url(#p59c3e079bc)" style="fill: none; stroke: #ffffff; stroke-width: 0.5"/>
     </g>
     <g id="line2d_40"/>
     <g id="text_20">
      <!-- 0.5 -->
      <g style="fill: #555555" transform="translate(538.762397 278.497813) scale(0.1 -0.1)">
       <use xlink:href="#ArialMT-30"/>
       <use xlink:href="#ArialMT-2e" x="55.615234"/>
       <use xlink:href="#ArialMT-35" x="83.398438"/>
      </g>
     </g>
    </g>
    <g id="xtick_10">
     <g id="line2d_41">
      <path d="M 603.952066 267.84 
L 603.952066 2.88 
" clip-path="url(#p59c3e079bc)" style="fill: none; stroke: #ffffff; stroke-width: 0.5"/>
     </g>
     <g id="line2d_42"/>
     <g id="text_21">
      <!-- 1.0 -->
      <g style="fill: #555555" transform="translate(597.002066 278.497813) scale(0.1 -0.1)">
       <use xlink:href="#ArialMT-31"/>
       <use xlink:href="#ArialMT-2e" x="55.615234"/>
       <use xlink:href="#ArialMT-30" x="83.398438"/>
      </g>
     </g>
    </g>
   </g>
   <g id="matplotlib.axis_4">
    <g id="ytick_10">
     <g id="line2d_43">
      <path d="M 359.345455 255.716705 
L 615.6 255.716705 
" clip-path="url(#p59c3e079bc)" style="fill: none; stroke: #ffffff; stroke-width: 0.5"/>
     </g>
     <g id="line2d_44"/>
     <g id="text_22">
      <!-- −2.0 -->
      <g style="fill: #555555" transform="translate(336.10483 259.295611) scale(0.1 -0.1)">
       <use xlink:href="#ArialMT-2212"/>
       <use xlink:href="#ArialMT-32" x="58.398438"/>
       <use xlink:href="#ArialMT-2e" x="114.013672"/>
       <use xlink:href="#ArialMT-30" x="141.796875"/>
      </g>
     </g>
    </g>
    <g id="ytick_11">
     <g id="line2d_45">
      <path d="M 359.345455 225.627529 
L 615.6 225.627529 
" clip-path="url(#p59c3e079bc)" style="fill: none; stroke: #ffffff; stroke-width: 0.5"/>
     </g>
     <g id="line2d_46"/>
     <g id="text_23">
      <!-- −1.5 -->
      <g style="fill: #555555" transform="translate(336.10483 229.206435) scale(0.1 -0.1)">
       <use xlink:href="#ArialMT-2212"/>
       <use xlink:href="#ArialMT-31" x="58.398438"/>
       <use xlink:href="#ArialMT-2e" x="114.013672"/>
       <use xlink:href="#ArialMT-35" x="141.796875"/>
      </g>
     </g>
    </g>
    <g id="ytick_12">
     <g id="line2d_47">
      <path d="M 359.345455 195.538352 
L 615.6 195.538352 
" clip-path="url(#p59c3e079bc)" style="fill: none; stroke: #ffffff; stroke-width: 0.5"/>
     </g>
     <g id="line2d_48"/>
     <g id="text_24">
      <!-- −1.0 -->
      <g style="fill: #555555" transform="translate(336.10483 199.117259) scale(0.1 -0.1)">
       <use xlink:href="#ArialMT-2212"/>
       <use xlink:href="#ArialMT-31" x="58.398438"/>
       <use xlink:href="#ArialMT-2e" x="114.013672"/>
       <use xlink:href="#ArialMT-30" x="141.796875"/>
      </g>
     </g>
    </g>
    <g id="ytick_13">
     <g id="line2d_49">
      <path d="M 359.345455 165.449176 
L 615.6 165.449176 
" clip-path="url(#p59c3e079bc)" style="fill: none; stroke: #ffffff; stroke-width: 0.5"/>
     </g>
     <g id="line2d_50"/>
     <g id="text_25">
      <!-- −0.5 -->
      <g style="fill: #555555" transform="translate(336.10483 169.028082) scale(0.1 -0.1)">
       <use xlink:href="#ArialMT-2212"/>
       <use xlink:href="#ArialMT-30" x="58.398438"/>
       <use xlink:href="#ArialMT-2e" x="114.013672"/>
       <use xlink:href="#ArialMT-35" x="141.796875"/>
      </g>
     </g>
    </g>
    <g id="ytick_14">
     <g id="line2d_51">
      <path d="M 359.345455 135.36 
L 615.6 135.36 
" clip-path="url(#p59c3e079bc)" style="fill: none; stroke: #ffffff; stroke-width: 0.5"/>
     </g>
     <g id="line2d_52"/>
     <g id="text_26">
      <!-- 0.0 -->
      <g style="fill: #555555" transform="translate(341.945455 138.938906) scale(0.1 -0.1)">
       <use xlink:href="#ArialMT-30"/>
       <use xlink:href="#ArialMT-2e" x="55.615234"/>
       <use xlink:href="#ArialMT-30" x="83.398438"/>
      </g>
     </g>
    </g>
    <g id="ytick_15">
     <g id="line2d_53">
      <path d="M 359.345455 105.270824 
L 615.6 105.270824 
" clip-path="url(#p59c3e079bc)" style="fill: none; stroke: #ffffff; stroke-width: 0.5"/>
     </g>
     <g id="line2d_54"/>
     <g id="text_27">
      <!-- 0.5 -->
      <g style="fill: #555555" transform="translate(341.945455 108.84973) scale(0.1 -0.1)">
       <use xlink:href="#ArialMT-30"/>
       <use xlink:href="#ArialMT-2e" x="55.615234"/>
       <use xlink:href="#ArialMT-35" x="83.398438"/>
      </g>
     </g>
    </g>
    <g id="ytick_16">
     <g id="line2d_55">
      <path d="M 359.345455 75.181648 
L 615.6 75.181648 
" clip-path="url(#p59c3e079bc)" style="fill: none; stroke: #ffffff; stroke-width: 0.5"/>
     </g>
     <g id="line2d_56"/>
     <g id="text_28">
      <!-- 1.0 -->
      <g style="fill: #555555" transform="translate(341.945455 78.760554) scale(0.1 -0.1)">
       <use xlink:href="#ArialMT-31"/>
       <use xlink:href="#ArialMT-2e" x="55.615234"/>
       <use xlink:href="#ArialMT-30" x="83.398438"/>
      </g>
     </g>
    </g>
    <g id="ytick_17">
     <g id="line2d_57">
      <path d="M 359.345455 45.092471 
L 615.6 45.092471 
" clip-path="url(#p59c3e079bc)" style="fill: none; stroke: #ffffff; stroke-width: 0.5"/>
     </g>
     <g id="line2d_58"/>
     <g id="text_29">
      <!-- 1.5 -->
      <g style="fill: #555555" transform="translate(341.945455 48.671378) scale(0.1 -0.1)">
       <use xlink:href="#ArialMT-31"/>
       <use xlink:href="#ArialMT-2e" x="55.615234"/>
       <use xlink:href="#ArialMT-35" x="83.398438"/>
      </g>
     </g>
    </g>
    <g id="ytick_18">
     <g id="line2d_59">
      <path d="M 359.345455 15.003295 
L 615.6 15.003295 
" clip-path="url(#p59c3e079bc)" style="fill: none; stroke: #ffffff; stroke-width: 0.5"/>
     </g>
     <g id="line2d_60"/>
     <g id="text_30">
      <!-- 2.0 -->
      <g style="fill: #555555" transform="translate(341.945455 18.582201) scale(0.1 -0.1)">
       <use xlink:href="#ArialMT-32"/>
       <use xlink:href="#ArialMT-2e" x="55.615234"/>
       <use xlink:href="#ArialMT-30" x="83.398438"/>
      </g>
     </g>
    </g>
   </g>
   <g id="line2d_61">
    <path d="M 370.993388 135.360905 
L 377.056377 134.386238 
L 383.585749 131.143504 
L 390.581505 125.149488 
L 397.810453 119.120081 
L 403.873442 116.234617 
L 409.703239 115.300449 
L 415.766227 114.366588 
L 422.2956 111.163895 
L 429.291356 105.210564 
L 436.520304 99.139584 
L 442.583292 96.214648 
L 448.413089 95.241096 
L 454.70927 94.267456 
L 461.238642 91.024579 
L 468.234398 85.030533 
L 475.463346 79.001111 
L 481.526335 76.115837 
L 487.356131 75.180805 
L 493.41912 76.115837 
L 499.948492 79.318314 
L 506.944248 85.271623 
L 514.173196 91.342662 
L 520.236185 94.267456 
L 526.065982 95.241189 
L 532.362162 96.214648 
L 538.891535 99.457534 
L 545.887291 105.45158 
L 553.116239 111.480938 
L 559.179227 114.366588 
L 565.009024 115.300546 
L 571.072013 116.234617 
L 577.601385 119.437259 
L 584.597141 125.390584 
L 591.826089 131.461635 
L 597.889078 134.386238 
L 603.718874 135.360651 
L 603.952066 135.360905 
L 603.952066 135.360905 
" clip-path="url(#p59c3e079bc)" style="fill: none; stroke: #ff0000; stroke-width: 2"/>
   </g>
   <g id="line2d_62">
    <path d="M 370.993388 135.36 
L 372.159348 132.931959 
L 373.558499 122.662601 
L 377.056377 95.738035 
L 378.68872 92.564923 
L 380.087871 81.937983 
L 383.352558 55.881625 
L 385.218092 52.146186 
L 386.850436 38.708149 
L 389.88193 15.462426 
L 390.581505 14.974327 
L 390.814697 15.235344 
L 391.980657 19.605276 
L 393.846192 37.376674 
L 396.17811 54.104934 
L 398.510029 59.9231 
L 400.841948 83.118636 
L 402.940675 94.723681 
L 404.573018 97.945286 
L 405.972169 108.504587 
L 409.236855 134.768198 
L 409.936431 135.396735 
L 410.402814 134.802094 
L 411.568774 129.646555 
L 422.761983 55.168212 
L 423.927943 52.638101 
L 425.327094 42.478044 
L 428.824972 15.261429 
L 429.524548 15.112701 
L 429.75774 15.460023 
L 430.923699 20.311751 
L 433.255618 43.668118 
L 435.354344 54.722856 
L 436.986688 58.002509 
L 438.385839 69.088519 
L 441.650525 94.541747 
L 443.51606 98.501646 
L 445.148403 112.346253 
L 447.946705 134.523783 
L 448.646281 135.41683 
L 449.112665 134.996244 
L 450.278624 130.437693 
L 452.377351 109.753523 
L 454.70927 95.730409 
L 456.341613 92.59273 
L 457.740764 81.912249 
L 461.00545 55.894131 
L 462.870985 52.131572 
L 464.270136 41.275864 
L 467.534822 15.444674 
L 468.234398 14.98226 
L 468.46759 15.251145 
L 469.633549 19.590642 
L 471.499084 37.386227 
L 473.831003 54.119266 
L 476.162922 59.942677 
L 478.261648 80.694172 
L 480.593567 94.747912 
L 482.22591 97.906262 
L 483.625061 108.545554 
L 486.889748 134.583865 
L 488.988474 139.477335 
L 490.854009 157.066979 
L 493.41912 174.799202 
L 495.284655 178.681006 
L 496.916998 192.597005 
L 499.7153 214.611442 
L 502.047219 220.453131 
L 504.145946 241.265591 
L 506.477865 255.468855 
L 507.17744 255.641644 
L 507.410632 255.275326 
L 508.576591 250.392524 
L 510.675318 229.444136 
L 512.774045 216.362396 
L 514.872772 211.505393 
L 516.738307 193.915919 
L 519.303417 176.175654 
L 521.168952 172.250338 
L 522.801296 158.375005 
L 525.599598 136.228533 
L 526.532365 135.394462 
L 526.765557 135.691572 
L 527.931517 140.314393 
L 530.030243 160.985418 
L 532.12897 174.568574 
L 534.460889 180.636779 
L 537.259191 208.295732 
L 539.124726 215.420291 
L 540.290686 217.648706 
L 541.689837 227.051882 
L 545.420907 255.607299 
L 546.120482 255.458571 
L 547.286442 251.140821 
L 549.151977 233.377891 
L 551.483895 216.647944 
L 553.815814 210.828375 
L 556.147733 187.631671 
L 558.24646 176.009413 
L 559.878803 172.740461 
L 561.277954 162.242174 
L 564.54264 135.917906 
L 565.242216 135.333699 
L 565.475408 135.54449 
L 566.641367 139.584381 
L 568.506902 157.048828 
L 571.072013 174.796176 
L 572.937547 178.651925 
L 574.569891 192.610633 
L 577.368193 214.604481 
L 579.700112 220.451912 
L 581.565647 238.703508 
L 583.897565 255.014415 
L 584.597141 255.793637 
L 585.063525 255.257574 
L 586.229484 250.409768 
L 588.328211 229.450968 
L 590.426938 216.352804 
L 592.525665 211.48371 
L 594.391199 193.909184 
L 596.95631 176.158977 
L 598.821845 172.284929 
L 600.454188 158.375758 
L 603.252491 136.371225 
L 603.952066 135.36 
L 603.952066 135.36 
" clip-path="url(#p59c3e079bc)" style="fill: none; stroke: #0000ff; stroke-width: 2"/>
   </g>
   <g id="patch_8">
    <path d="M 359.345455 267.84 
L 359.345455 2.88 
" style="fill: none; stroke: #ffffff; stroke-linejoin: miter; stroke-linecap: square"/>
   </g>
   <g id="patch_9">
    <path d="M 615.6 267.84 
L 615.6 2.88 
" style="fill: none; stroke: #ffffff; stroke-linejoin: miter; stroke-linecap: square"/>
   </g>
   <g id="patch_10">
    <path d="M 359.345455 267.84 
L 615.6 267.84 
" style="fill: none; stroke: #ffffff; stroke-linejoin: miter; stroke-linecap: square"/>
   </g>
   <g id="patch_11">
    <path d="M 359.345455 2.88 
L 615.6 2.88 
" style="fill: none; stroke: #ffffff; stroke-linejoin: miter; stroke-linecap: square"/>
   </g>
   <g id="legend_2">
    <g id="line2d_63">
     <path d="M 546.3 15.88 
L 556.3 15.88 
L 566.3 15.88 
" style="fill: none; stroke: #ff0000; stroke-width: 2"/>
    </g>
    <g id="text_31">
     <!-- $\mathrm{up_3}(x)$ -->
     <g style="fill: #262626" transform="translate(574.3 19.38) scale(0.1 -0.1)">
      <defs>
       <path id="Cmr10-33" d="M 609 494 
Q 759 275 1012 169 
Q 1266 63 1556 63 
Q 1928 63 2084 380 
Q 2241 697 2241 1100 
Q 2241 1281 2208 1462 
Q 2175 1644 2097 1800 
Q 2019 1956 1883 2050 
Q 1747 2144 1550 2144 
L 1125 2144 
Q 1069 2144 1069 2203 
L 1069 2259 
Q 1069 2309 1125 2309 
L 1478 2338 
Q 1703 2338 1851 2506 
Q 2000 2675 2069 2917 
Q 2138 3159 2138 3378 
Q 2138 3684 1994 3881 
Q 1850 4078 1556 4078 
Q 1313 4078 1091 3986 
Q 869 3894 738 3706 
Q 750 3709 759 3711 
Q 769 3713 781 3713 
Q 925 3713 1022 3613 
Q 1119 3513 1119 3372 
Q 1119 3234 1022 3134 
Q 925 3034 781 3034 
Q 641 3034 541 3134 
Q 441 3234 441 3372 
Q 441 3647 606 3850 
Q 772 4053 1033 4158 
Q 1294 4263 1556 4263 
Q 1750 4263 1965 4205 
Q 2181 4147 2356 4039 
Q 2531 3931 2642 3762 
Q 2753 3594 2753 3378 
Q 2753 3109 2633 2881 
Q 2513 2653 2303 2487 
Q 2094 2322 1844 2241 
Q 2122 2188 2372 2031 
Q 2622 1875 2773 1631 
Q 2925 1388 2925 1106 
Q 2925 753 2731 467 
Q 2538 181 2222 20 
Q 1906 -141 1556 -141 
Q 1256 -141 954 -26 
Q 653 88 461 316 
Q 269 544 269 863 
Q 269 1022 375 1128 
Q 481 1234 641 1234 
Q 744 1234 830 1186 
Q 916 1138 964 1050 
Q 1013 963 1013 863 
Q 1013 706 903 600 
Q 794 494 641 494 
L 609 494 
z
" transform="scale(0.015625)"/>
      </defs>
      <use xlink:href="#Cmr10-75"/>
      <use xlink:href="#Cmr10-70" transform="translate(55.517578 0)"/>
      <use xlink:href="#Cmr10-33" transform="translate(115.602656 -17.4) scale(0.7)"/>
      <use xlink:href="#Cmr10-28" transform="translate(157.127656 0)"/>
      <use xlink:href="#Cmmi10-78" transform="translate(195.946016 0)"/>
      <use xlink:href="#Cmr10-29" transform="translate(253.026094 0)"/>
     </g>
    </g>
    <g id="line2d_64">
     <path d="M 546.3 31.28 
L 556.3 31.28 
L 566.3 31.28 
" style="fill: none; stroke: #0000ff; stroke-width: 2"/>
    </g>
    <g id="text_32">
     <!-- $\mathrm{up'_3}(x)$ -->
     <g style="fill: #262626" transform="translate(574.3 34.78) scale(0.1 -0.1)">
      <use xlink:href="#Cmr10-75" transform="translate(0 0.715625)"/>
      <use xlink:href="#Cmr10-70" transform="translate(55.517578 0.715625)"/>
      <use xlink:href="#Cmsy10-30" transform="translate(115.602656 39.865625) scale(0.7)"/>
      <use xlink:href="#Cmr10-33" transform="translate(145.93832 -16.684375) scale(0.7)"/>
      <use xlink:href="#Cmr10-28" transform="translate(187.46332 0.715625)"/>
      <use xlink:href="#Cmmi10-78" transform="translate(226.28168 0.715625)"/>
      <use xlink:href="#Cmr10-29" transform="translate(283.361758 0.715625)"/>
     </g>
    </g>
   </g>
  </g>
 </g>
 <defs>
  <clipPath id="p7b35cf6c16">
   <rect x="51.84" y="2.88" width="256.254545" height="264.96"/>
  </clipPath>
  <clipPath id="p59c3e079bc">
   <rect x="359.345455" y="2.88" width="256.254545" height="264.96"/>
  </clipPath>
 </defs>
</svg>
