<?xml version="1.0" encoding="utf-8" standalone="no"?>
<!DOCTYPE svg PUBLIC "-//W3C//DTD SVG 1.1//EN"
  "http://www.w3.org/Graphics/SVG/1.1/DTD/svg11.dtd">
<svg xmlns:xlink="http://www.w3.org/1999/xlink" width="460.8pt" height="345.6pt" viewBox="0 0 460.8 345.6" xmlns="http://www.w3.org/2000/svg" version="1.1">
 <metadata>
  <rdf:RDF xmlns:dc="http://purl.org/dc/elements/1.1/" xmlns:cc="http://creativecommons.org/ns#" xmlns:rdf="http://www.w3.org/1999/02/22-rdf-syntax-ns#">
   <cc:Work>
    <dc:type rdf:resource="http://purl.org/dc/dcmitype/StillImage"/>
    <dc:date>2023-07-28T21:54:54.127614</dc:date>
    <dc:format>image/svg+xml</dc:format>
    <dc:creator>
     <cc:Agent>
      <dc:title>Matplotlib v3.7.1, https://matplotlib.org/</dc:title>
     </cc:Agent>
    </dc:creator>
   </cc:Work>
  </rdf:RDF>
 </metadata>
 <defs>
  <style type="text/css">*{stroke-linejoin: round; stroke-linecap: butt}</style>
 </defs>
 <g id="figure_1">
  <g id="patch_1">
   <path d="M 0 345.6 
L 460.8 345.6 
L 460.8 0 
L 0 0 
z
" style="fill: #ffffff"/>
  </g>
  <g id="axes_1">
   <g id="patch_2">
    <path d="M 57.6 307.584 
L 219.927273 307.584 
L 219.927273 41.472 
L 57.6 41.472 
z
" style="fill: #ffffff"/>
   </g>
   <g id="matplotlib.axis_1">
    <g id="xtick_1">
     <g id="line2d_1">
      <defs>
       <path id="m0f98ec1025" d="M 0 0 
L 0 3.5 
" style="stroke: #000000; stroke-width: 0.8"/>
      </defs>
      <g>
       <use xlink:href="#m0f98ec1025" x="64.978512" y="307.584" style="stroke: #000000; stroke-width: 0.8"/>
      </g>
     </g>
     <g id="text_1">
      <!-- −1.0 -->
      <g transform="translate(52.837106 322.182437) scale(0.1 -0.1)">
       <defs>
        <path id="DejaVuSans-2212" d="M 678 2272 
L 4684 2272 
L 4684 1741 
L 678 1741 
L 678 2272 
z
" transform="scale(0.015625)"/>
        <path id="DejaVuSans-31" d="M 794 531 
L 1825 531 
L 1825 4091 
L 703 3866 
L 703 4441 
L 1819 4666 
L 2450 4666 
L 2450 531 
L 3481 531 
L 3481 0 
L 794 0 
L 794 531 
z
" transform="scale(0.015625)"/>
        <path id="DejaVuSans-2e" d="M 684 794 
L 1344 794 
L 1344 0 
L 684 0 
L 684 794 
z
" transform="scale(0.015625)"/>
        <path id="DejaVuSans-30" d="M 2034 4250 
Q 1547 4250 1301 3770 
Q 1056 3291 1056 2328 
Q 1056 1369 1301 889 
Q 1547 409 2034 409 
Q 2525 409 2770 889 
Q 3016 1369 3016 2328 
Q 3016 3291 2770 3770 
Q 2525 4250 2034 4250 
z
M 2034 4750 
Q 2819 4750 3233 4129 
Q 3647 3509 3647 2328 
Q 3647 1150 3233 529 
Q 2819 -91 2034 -91 
Q 1250 -91 836 529 
Q 422 1150 422 2328 
Q 422 3509 836 4129 
Q 1250 4750 2034 4750 
z
" transform="scale(0.015625)"/>
       </defs>
       <use xlink:href="#DejaVuSans-2212"/>
       <use xlink:href="#DejaVuSans-31" x="83.789062"/>
       <use xlink:href="#DejaVuSans-2e" x="147.412109"/>
       <use xlink:href="#DejaVuSans-30" x="179.199219"/>
      </g>
     </g>
    </g>
    <g id="xtick_2">
     <g id="line2d_2">
      <g>
       <use xlink:href="#m0f98ec1025" x="101.871074" y="307.584" style="stroke: #000000; stroke-width: 0.8"/>
      </g>
     </g>
     <g id="text_2">
      <!-- −0.5 -->
      <g transform="translate(89.729668 322.182437) scale(0.1 -0.1)">
       <defs>
        <path id="DejaVuSans-35" d="M 691 4666 
L 3169 4666 
L 3169 4134 
L 1269 4134 
L 1269 2991 
Q 1406 3038 1543 3061 
Q 1681 3084 1819 3084 
Q 2600 3084 3056 2656 
Q 3513 2228 3513 1497 
Q 3513 744 3044 326 
Q 2575 -91 1722 -91 
Q 1428 -91 1123 -41 
Q 819 9 494 109 
L 494 744 
Q 775 591 1075 516 
Q 1375 441 1709 441 
Q 2250 441 2565 725 
Q 2881 1009 2881 1497 
Q 2881 1984 2565 2268 
Q 2250 2553 1709 2553 
Q 1456 2553 1204 2497 
Q 953 2441 691 2322 
L 691 4666 
z
" transform="scale(0.015625)"/>
       </defs>
       <use xlink:href="#DejaVuSans-2212"/>
       <use xlink:href="#DejaVuSans-30" x="83.789062"/>
       <use xlink:href="#DejaVuSans-2e" x="147.412109"/>
       <use xlink:href="#DejaVuSans-35" x="179.199219"/>
      </g>
     </g>
    </g>
    <g id="xtick_3">
     <g id="line2d_3">
      <g>
       <use xlink:href="#m0f98ec1025" x="138.763636" y="307.584" style="stroke: #000000; stroke-width: 0.8"/>
      </g>
     </g>
     <g id="text_3">
      <!-- 0.0 -->
      <g transform="translate(130.812074 322.182437) scale(0.1 -0.1)">
       <use xlink:href="#DejaVuSans-30"/>
       <use xlink:href="#DejaVuSans-2e" x="63.623047"/>
       <use xlink:href="#DejaVuSans-30" x="95.410156"/>
      </g>
     </g>
    </g>
    <g id="xtick_4">
     <g id="line2d_4">
      <g>
       <use xlink:href="#m0f98ec1025" x="175.656198" y="307.584" style="stroke: #000000; stroke-width: 0.8"/>
      </g>
     </g>
     <g id="text_4">
      <!-- 0.5 -->
      <g transform="translate(167.704636 322.182437) scale(0.1 -0.1)">
       <use xlink:href="#DejaVuSans-30"/>
       <use xlink:href="#DejaVuSans-2e" x="63.623047"/>
       <use xlink:href="#DejaVuSans-35" x="95.410156"/>
      </g>
     </g>
    </g>
    <g id="xtick_5">
     <g id="line2d_5">
      <g>
       <use xlink:href="#m0f98ec1025" x="212.54876" y="307.584" style="stroke: #000000; stroke-width: 0.8"/>
      </g>
     </g>
     <g id="text_5">
      <!-- 1.0 -->
      <g transform="translate(204.597198 322.182437) scale(0.1 -0.1)">
       <use xlink:href="#DejaVuSans-31"/>
       <use xlink:href="#DejaVuSans-2e" x="63.623047"/>
       <use xlink:href="#DejaVuSans-30" x="95.410156"/>
      </g>
     </g>
    </g>
   </g>
   <g id="matplotlib.axis_2">
    <g id="ytick_1">
     <g id="line2d_6">
      <defs>
       <path id="me2d6b097ea" d="M 0 0 
L -3.5 0 
" style="stroke: #000000; stroke-width: 0.8"/>
      </defs>
      <g>
       <use xlink:href="#me2d6b097ea" x="57.6" y="295.487996" style="stroke: #000000; stroke-width: 0.8"/>
      </g>
     </g>
     <g id="text_6">
      <!-- −2.0 -->
      <g transform="translate(26.317187 299.287215) scale(0.1 -0.1)">
       <defs>
        <path id="DejaVuSans-32" d="M 1228 531 
L 3431 531 
L 3431 0 
L 469 0 
L 469 531 
Q 828 903 1448 1529 
Q 2069 2156 2228 2338 
Q 2531 2678 2651 2914 
Q 2772 3150 2772 3378 
Q 2772 3750 2511 3984 
Q 2250 4219 1831 4219 
Q 1534 4219 1204 4116 
Q 875 4013 500 3803 
L 500 4441 
Q 881 4594 1212 4672 
Q 1544 4750 1819 4750 
Q 2544 4750 2975 4387 
Q 3406 4025 3406 3419 
Q 3406 3131 3298 2873 
Q 3191 2616 2906 2266 
Q 2828 2175 2409 1742 
Q 1991 1309 1228 531 
z
" transform="scale(0.015625)"/>
       </defs>
       <use xlink:href="#DejaVuSans-2212"/>
       <use xlink:href="#DejaVuSans-32" x="83.789062"/>
       <use xlink:href="#DejaVuSans-2e" x="147.412109"/>
       <use xlink:href="#DejaVuSans-30" x="179.199219"/>
      </g>
     </g>
    </g>
    <g id="ytick_2">
     <g id="line2d_7">
      <g>
       <use xlink:href="#me2d6b097ea" x="57.6" y="265.247997" style="stroke: #000000; stroke-width: 0.8"/>
      </g>
     </g>
     <g id="text_7">
      <!-- −1.5 -->
      <g transform="translate(26.317187 269.047216) scale(0.1 -0.1)">
       <use xlink:href="#DejaVuSans-2212"/>
       <use xlink:href="#DejaVuSans-31" x="83.789062"/>
       <use xlink:href="#DejaVuSans-2e" x="147.412109"/>
       <use xlink:href="#DejaVuSans-35" x="179.199219"/>
      </g>
     </g>
    </g>
    <g id="ytick_3">
     <g id="line2d_8">
      <g>
       <use xlink:href="#me2d6b097ea" x="57.6" y="235.007998" style="stroke: #000000; stroke-width: 0.8"/>
      </g>
     </g>
     <g id="text_8">
      <!-- −1.0 -->
      <g transform="translate(26.317187 238.807217) scale(0.1 -0.1)">
       <use xlink:href="#DejaVuSans-2212"/>
       <use xlink:href="#DejaVuSans-31" x="83.789062"/>
       <use xlink:href="#DejaVuSans-2e" x="147.412109"/>
       <use xlink:href="#DejaVuSans-30" x="179.199219"/>
      </g>
     </g>
    </g>
    <g id="ytick_4">
     <g id="line2d_9">
      <g>
       <use xlink:href="#me2d6b097ea" x="57.6" y="204.767999" style="stroke: #000000; stroke-width: 0.8"/>
      </g>
     </g>
     <g id="text_9">
      <!-- −0.5 -->
      <g transform="translate(26.317187 208.567218) scale(0.1 -0.1)">
       <use xlink:href="#DejaVuSans-2212"/>
       <use xlink:href="#DejaVuSans-30" x="83.789062"/>
       <use xlink:href="#DejaVuSans-2e" x="147.412109"/>
       <use xlink:href="#DejaVuSans-35" x="179.199219"/>
      </g>
     </g>
    </g>
    <g id="ytick_5">
     <g id="line2d_10">
      <g>
       <use xlink:href="#me2d6b097ea" x="57.6" y="174.528" style="stroke: #000000; stroke-width: 0.8"/>
      </g>
     </g>
     <g id="text_10">
      <!-- 0.0 -->
      <g transform="translate(34.696875 178.327219) scale(0.1 -0.1)">
       <use xlink:href="#DejaVuSans-30"/>
       <use xlink:href="#DejaVuSans-2e" x="63.623047"/>
       <use xlink:href="#DejaVuSans-30" x="95.410156"/>
      </g>
     </g>
    </g>
    <g id="ytick_6">
     <g id="line2d_11">
      <g>
       <use xlink:href="#me2d6b097ea" x="57.6" y="144.288001" style="stroke: #000000; stroke-width: 0.8"/>
      </g>
     </g>
     <g id="text_11">
      <!-- 0.5 -->
      <g transform="translate(34.696875 148.08722) scale(0.1 -0.1)">
       <use xlink:href="#DejaVuSans-30"/>
       <use xlink:href="#DejaVuSans-2e" x="63.623047"/>
       <use xlink:href="#DejaVuSans-35" x="95.410156"/>
      </g>
     </g>
    </g>
    <g id="ytick_7">
     <g id="line2d_12">
      <g>
       <use xlink:href="#me2d6b097ea" x="57.6" y="114.048002" style="stroke: #000000; stroke-width: 0.8"/>
      </g>
     </g>
     <g id="text_12">
      <!-- 1.0 -->
      <g transform="translate(34.696875 117.847221) scale(0.1 -0.1)">
       <use xlink:href="#DejaVuSans-31"/>
       <use xlink:href="#DejaVuSans-2e" x="63.623047"/>
       <use xlink:href="#DejaVuSans-30" x="95.410156"/>
      </g>
     </g>
    </g>
    <g id="ytick_8">
     <g id="line2d_13">
      <g>
       <use xlink:href="#me2d6b097ea" x="57.6" y="83.808003" style="stroke: #000000; stroke-width: 0.8"/>
      </g>
     </g>
     <g id="text_13">
      <!-- 1.5 -->
      <g transform="translate(34.696875 87.607222) scale(0.1 -0.1)">
       <use xlink:href="#DejaVuSans-31"/>
       <use xlink:href="#DejaVuSans-2e" x="63.623047"/>
       <use xlink:href="#DejaVuSans-35" x="95.410156"/>
      </g>
     </g>
    </g>
    <g id="ytick_9">
     <g id="line2d_14">
      <g>
       <use xlink:href="#me2d6b097ea" x="57.6" y="53.568004" style="stroke: #000000; stroke-width: 0.8"/>
      </g>
     </g>
     <g id="text_14">
      <!-- 2.0 -->
      <g transform="translate(34.696875 57.367223) scale(0.1 -0.1)">
       <use xlink:href="#DejaVuSans-32"/>
       <use xlink:href="#DejaVuSans-2e" x="63.623047"/>
       <use xlink:href="#DejaVuSans-30" x="95.410156"/>
      </g>
     </g>
    </g>
   </g>
   <g id="line2d_15">
    <path d="M 64.978512 174.528 
L 73.103001 174.418397 
L 75.466488 174.135229 
L 77.386822 173.678464 
L 79.159437 173.018344 
L 80.784335 172.182636 
L 82.55695 171.00591 
L 84.329566 169.550028 
L 86.102182 167.815001 
L 88.022515 165.624135 
L 90.090567 162.927218 
L 92.601772 159.268386 
L 96.147003 153.656227 
L 112.543697 127.218353 
L 114.907185 123.972082 
L 116.975236 121.483274 
L 118.89557 119.503207 
L 120.815904 117.850372 
L 122.588519 116.615533 
L 124.361135 115.65821 
L 126.13375 114.966604 
L 127.906366 114.510357 
L 129.974417 114.212643 
L 132.633341 114.071206 
L 138.985213 114.048002 
L 146.814266 114.152465 
L 149.177753 114.427799 
L 151.098087 114.875324 
L 152.870702 115.525062 
L 154.4956 116.350379 
L 156.268215 117.51549 
L 158.040831 118.959737 
L 159.813447 120.683148 
L 161.73378 122.861787 
L 163.801832 125.547004 
L 166.313037 129.195218 
L 169.71055 134.560409 
L 186.550398 161.677704 
L 188.913886 164.887415 
L 190.981937 167.337792 
L 192.902271 169.280232 
L 194.674886 170.782656 
L 196.447502 172.005868 
L 198.220118 172.951772 
L 199.992733 173.632828 
L 201.765349 174.080203 
L 203.8334 174.370301 
L 206.492324 174.506366 
L 212.54876 174.528 
L 212.54876 174.528 
" clip-path="url(#pe547fb0703)" style="fill: none; stroke: #ff0000; stroke-width: 1.5; stroke-linecap: square"/>
   </g>
   <g id="line2d_16">
    <path d="M 64.978512 174.528 
L 68.523744 174.422648 
L 69.410051 174.184467 
L 70.148641 173.79384 
L 70.887231 173.162483 
L 71.625821 172.231521 
L 72.364411 170.953956 
L 73.250718 168.924601 
L 74.137026 166.33861 
L 75.171052 162.615782 
L 76.352796 157.435602 
L 77.682257 150.504897 
L 79.454873 139.886308 
L 83.147822 115.864219 
L 88.465669 81.643035 
L 90.090567 72.661768 
L 91.420028 66.529622 
L 92.601772 62.119911 
L 93.635798 59.07577 
L 94.522106 57.069418 
L 95.408413 55.600795 
L 96.147003 54.749768 
L 96.885593 54.184353 
L 97.771901 53.797798 
L 98.805927 53.614381 
L 100.72626 53.568068 
L 105.305517 53.656378 
L 106.339543 53.926304 
L 107.078133 54.327503 
L 107.816723 54.972496 
L 108.555312 55.919815 
L 109.293902 57.215617 
L 110.18021 59.268006 
L 111.066518 61.877264 
L 112.100544 65.627234 
L 113.282287 70.837831 
L 114.611749 77.798339 
L 116.384365 88.442468 
L 120.225032 113.442597 
L 125.39516 146.671866 
L 127.020058 155.62063 
L 128.34952 161.719195 
L 129.531263 166.097902 
L 130.565289 169.1149 
L 131.451597 171.098274 
L 132.337905 172.545393 
L 133.076495 173.380808 
L 133.815085 173.933495 
L 134.701392 174.308853 
L 135.735418 174.484761 
L 137.80347 174.527982 
L 142.235009 174.621781 
L 143.269034 174.901526 
L 144.007624 175.313446 
L 144.746214 175.972229 
L 145.484804 176.936015 
L 146.223394 178.250129 
L 147.109701 180.325572 
L 147.996009 182.958098 
L 149.030035 186.735211 
L 150.211779 191.97617 
L 151.54124 198.966279 
L 153.313856 209.63558 
L 157.154523 234.644754 
L 162.324652 267.850177 
L 163.94955 276.766145 
L 165.279011 282.83104 
L 166.460755 287.178736 
L 167.494781 290.168593 
L 168.381089 292.129024 
L 169.267396 293.55473 
L 170.005986 294.37467 
L 170.744576 294.914775 
L 171.630884 295.279128 
L 172.66491 295.44773 
L 174.732961 295.487981 
L 179.1645 295.388555 
L 180.050808 295.158787 
L 180.789398 294.77857 
L 181.527987 294.160706 
L 182.266577 293.245974 
L 183.005167 291.986582 
L 183.891475 289.98023 
L 184.777783 287.417505 
L 185.811809 283.721823 
L 186.993552 278.572109 
L 188.323014 271.671404 
L 190.09563 261.078727 
L 193.640861 238.035026 
L 199.254143 201.948095 
L 200.879041 193.065217 
L 202.208503 187.034075 
L 203.390246 182.71739 
L 204.424272 179.754672 
L 205.31058 177.817154 
L 206.196888 176.412756 
L 206.935478 175.608164 
L 207.674067 175.080482 
L 208.560375 174.726951 
L 209.594401 174.565456 
L 211.810171 174.528002 
L 212.54876 174.528 
L 212.54876 174.528 
" clip-path="url(#pe547fb0703)" style="fill: none; stroke: #0000ff; stroke-width: 1.5; stroke-linecap: square"/>
   </g>
   <g id="patch_3">
    <path d="M 57.6 307.584 
L 57.6 41.472 
" style="fill: none; stroke: #000000; stroke-width: 0.8; stroke-linejoin: miter; stroke-linecap: square"/>
   </g>
   <g id="patch_4">
    <path d="M 219.927273 307.584 
L 219.927273 41.472 
" style="fill: none; stroke: #000000; stroke-width: 0.8; stroke-linejoin: miter; stroke-linecap: square"/>
   </g>
   <g id="patch_5">
    <path d="M 57.6 307.584 
L 219.927273 307.584 
" style="fill: none; stroke: #000000; stroke-width: 0.8; stroke-linejoin: miter; stroke-linecap: square"/>
   </g>
   <g id="patch_6">
    <path d="M 57.6 41.472 
L 219.927273 41.472 
" style="fill: none; stroke: #000000; stroke-width: 0.8; stroke-linejoin: miter; stroke-linecap: square"/>
   </g>
   <g id="legend_1">
    <g id="patch_7">
     <path d="M 152.227273 79.072 
L 212.927273 79.072 
Q 214.927273 79.072 214.927273 77.072 
L 214.927273 48.472 
Q 214.927273 46.472 212.927273 46.472 
L 152.227273 46.472 
Q 150.227273 46.472 150.227273 48.472 
L 150.227273 77.072 
Q 150.227273 79.072 152.227273 79.072 
z
" style="fill: #ffffff; opacity: 0.8; stroke: #cccccc; stroke-linejoin: miter"/>
    </g>
    <g id="line2d_17">
     <path d="M 154.227273 54.572 
L 164.227273 54.572 
L 174.227273 54.572 
" style="fill: none; stroke: #ff0000; stroke-width: 1.5; stroke-linecap: square"/>
    </g>
    <g id="text_15">
     <!-- $\mathrm{up}(x)$ -->
     <g transform="translate(182.227273 58.072) scale(0.1 -0.1)">
      <defs>
       <path id="DejaVuSans-75" d="M 544 1381 
L 544 3500 
L 1119 3500 
L 1119 1403 
Q 1119 906 1312 657 
Q 1506 409 1894 409 
Q 2359 409 2629 706 
Q 2900 1003 2900 1516 
L 2900 3500 
L 3475 3500 
L 3475 0 
L 2900 0 
L 2900 538 
Q 2691 219 2414 64 
Q 2138 -91 1772 -91 
Q 1169 -91 856 284 
Q 544 659 544 1381 
z
M 1991 3584 
L 1991 3584 
z
" transform="scale(0.015625)"/>
       <path id="DejaVuSans-70" d="M 1159 525 
L 1159 -1331 
L 581 -1331 
L 581 3500 
L 1159 3500 
L 1159 2969 
Q 1341 3281 1617 3432 
Q 1894 3584 2278 3584 
Q 2916 3584 3314 3078 
Q 3713 2572 3713 1747 
Q 3713 922 3314 415 
Q 2916 -91 2278 -91 
Q 1894 -91 1617 61 
Q 1341 213 1159 525 
z
M 3116 1747 
Q 3116 2381 2855 2742 
Q 2594 3103 2138 3103 
Q 1681 3103 1420 2742 
Q 1159 2381 1159 1747 
Q 1159 1113 1420 752 
Q 1681 391 2138 391 
Q 2594 391 2855 752 
Q 3116 1113 3116 1747 
z
" transform="scale(0.015625)"/>
       <path id="DejaVuSans-28" d="M 1984 4856 
Q 1566 4138 1362 3434 
Q 1159 2731 1159 2009 
Q 1159 1288 1364 580 
Q 1569 -128 1984 -844 
L 1484 -844 
Q 1016 -109 783 600 
Q 550 1309 550 2009 
Q 550 2706 781 3412 
Q 1013 4119 1484 4856 
L 1984 4856 
z
" transform="scale(0.015625)"/>
       <path id="DejaVuSans-Oblique-78" d="M 3841 3500 
L 2234 1784 
L 3219 0 
L 2559 0 
L 1819 1388 
L 531 0 
L -166 0 
L 1556 1844 
L 641 3500 
L 1300 3500 
L 1972 2234 
L 3144 3500 
L 3841 3500 
z
" transform="scale(0.015625)"/>
       <path id="DejaVuSans-29" d="M 513 4856 
L 1013 4856 
Q 1481 4119 1714 3412 
Q 1947 2706 1947 2009 
Q 1947 1309 1714 600 
Q 1481 -109 1013 -844 
L 513 -844 
Q 928 -128 1133 580 
Q 1338 1288 1338 2009 
Q 1338 2731 1133 3434 
Q 928 4138 513 4856 
z
" transform="scale(0.015625)"/>
      </defs>
      <use xlink:href="#DejaVuSans-75" transform="translate(0 0.125)"/>
      <use xlink:href="#DejaVuSans-70" transform="translate(63.378906 0.125)"/>
      <use xlink:href="#DejaVuSans-28" transform="translate(126.855469 0.125)"/>
      <use xlink:href="#DejaVuSans-Oblique-78" transform="translate(165.869141 0.125)"/>
      <use xlink:href="#DejaVuSans-29" transform="translate(225.048828 0.125)"/>
     </g>
    </g>
    <g id="line2d_18">
     <path d="M 154.227273 69.472 
L 164.227273 69.472 
L 174.227273 69.472 
" style="fill: none; stroke: #0000ff; stroke-width: 1.5; stroke-linecap: square"/>
    </g>
    <g id="text_16">
     <!-- $\mathrm{up'}(x)$ -->
     <g transform="translate(182.227273 72.972) scale(0.1 -0.1)">
      <defs>
       <path id="Cmsy10-30" d="M 225 347 
Q 184 359 184 409 
L 966 3316 
Q 1003 3434 1093 3506 
Q 1184 3578 1300 3578 
Q 1450 3578 1564 3479 
Q 1678 3381 1678 3231 
Q 1678 3166 1644 3084 
L 488 319 
Q 466 275 428 275 
Q 394 275 320 306 
Q 247 338 225 347 
z
" transform="scale(0.015625)"/>
      </defs>
      <use xlink:href="#DejaVuSans-75" transform="translate(0 0.584375)"/>
      <use xlink:href="#DejaVuSans-70" transform="translate(63.378906 0.584375)"/>
      <use xlink:href="#Cmsy10-30" transform="translate(127.8125 38.865625) scale(0.7)"/>
      <use xlink:href="#DejaVuSans-28" transform="translate(149.790039 0.584375)"/>
      <use xlink:href="#DejaVuSans-Oblique-78" transform="translate(188.803711 0.584375)"/>
      <use xlink:href="#DejaVuSans-29" transform="translate(247.983398 0.584375)"/>
     </g>
    </g>
   </g>
  </g>
  <g id="axes_2">
   <g id="patch_8">
    <path d="M 252.392727 307.584 
L 414.72 307.584 
L 414.72 41.472 
L 252.392727 41.472 
z
" style="fill: #ffffff"/>
   </g>
   <g id="matplotlib.axis_3">
    <g id="xtick_6">
     <g id="line2d_19">
      <g>
       <use xlink:href="#m0f98ec1025" x="259.77124" y="307.584" style="stroke: #000000; stroke-width: 0.8"/>
      </g>
     </g>
     <g id="text_17">
      <!-- −1.0 -->
      <g transform="translate(247.629833 322.182437) scale(0.1 -0.1)">
       <use xlink:href="#DejaVuSans-2212"/>
       <use xlink:href="#DejaVuSans-31" x="83.789062"/>
       <use xlink:href="#DejaVuSans-2e" x="147.412109"/>
       <use xlink:href="#DejaVuSans-30" x="179.199219"/>
      </g>
     </g>
    </g>
    <g id="xtick_7">
     <g id="line2d_20">
      <g>
       <use xlink:href="#m0f98ec1025" x="296.663802" y="307.584" style="stroke: #000000; stroke-width: 0.8"/>
      </g>
     </g>
     <g id="text_18">
      <!-- −0.5 -->
      <g transform="translate(284.522395 322.182437) scale(0.1 -0.1)">
       <use xlink:href="#DejaVuSans-2212"/>
       <use xlink:href="#DejaVuSans-30" x="83.789062"/>
       <use xlink:href="#DejaVuSans-2e" x="147.412109"/>
       <use xlink:href="#DejaVuSans-35" x="179.199219"/>
      </g>
     </g>
    </g>
    <g id="xtick_8">
     <g id="line2d_21">
      <g>
       <use xlink:href="#m0f98ec1025" x="333.556364" y="307.584" style="stroke: #000000; stroke-width: 0.8"/>
      </g>
     </g>
     <g id="text_19">
      <!-- 0.0 -->
      <g transform="translate(325.604801 322.182437) scale(0.1 -0.1)">
       <use xlink:href="#DejaVuSans-30"/>
       <use xlink:href="#DejaVuSans-2e" x="63.623047"/>
       <use xlink:href="#DejaVuSans-30" x="95.410156"/>
      </g>
     </g>
    </g>
    <g id="xtick_9">
     <g id="line2d_22">
      <g>
       <use xlink:href="#m0f98ec1025" x="370.448926" y="307.584" style="stroke: #000000; stroke-width: 0.8"/>
      </g>
     </g>
     <g id="text_20">
      <!-- 0.5 -->
      <g transform="translate(362.497363 322.182437) scale(0.1 -0.1)">
       <use xlink:href="#DejaVuSans-30"/>
       <use xlink:href="#DejaVuSans-2e" x="63.623047"/>
       <use xlink:href="#DejaVuSans-35" x="95.410156"/>
      </g>
     </g>
    </g>
    <g id="xtick_10">
     <g id="line2d_23">
      <g>
       <use xlink:href="#m0f98ec1025" x="407.341488" y="307.584" style="stroke: #000000; stroke-width: 0.8"/>
      </g>
     </g>
     <g id="text_21">
      <!-- 1.0 -->
      <g transform="translate(399.389925 322.182437) scale(0.1 -0.1)">
       <use xlink:href="#DejaVuSans-31"/>
       <use xlink:href="#DejaVuSans-2e" x="63.623047"/>
       <use xlink:href="#DejaVuSans-30" x="95.410156"/>
      </g>
     </g>
    </g>
   </g>
   <g id="matplotlib.axis_4">
    <g id="ytick_10">
     <g id="line2d_24">
      <g>
       <use xlink:href="#me2d6b097ea" x="252.392727" y="295.407995" style="stroke: #000000; stroke-width: 0.8"/>
      </g>
     </g>
     <g id="text_22">
      <!-- −2.0 -->
      <g transform="translate(221.109915 299.207214) scale(0.1 -0.1)">
       <use xlink:href="#DejaVuSans-2212"/>
       <use xlink:href="#DejaVuSans-32" x="83.789062"/>
       <use xlink:href="#DejaVuSans-2e" x="147.412109"/>
       <use xlink:href="#DejaVuSans-30" x="179.199219"/>
      </g>
     </g>
    </g>
    <g id="ytick_11">
     <g id="line2d_25">
      <g>
       <use xlink:href="#me2d6b097ea" x="252.392727" y="265.187996" style="stroke: #000000; stroke-width: 0.8"/>
      </g>
     </g>
     <g id="text_23">
      <!-- −1.5 -->
      <g transform="translate(221.109915 268.987215) scale(0.1 -0.1)">
       <use xlink:href="#DejaVuSans-2212"/>
       <use xlink:href="#DejaVuSans-31" x="83.789062"/>
       <use xlink:href="#DejaVuSans-2e" x="147.412109"/>
       <use xlink:href="#DejaVuSans-35" x="179.199219"/>
      </g>
     </g>
    </g>
    <g id="ytick_12">
     <g id="line2d_26">
      <g>
       <use xlink:href="#me2d6b097ea" x="252.392727" y="234.967997" style="stroke: #000000; stroke-width: 0.8"/>
      </g>
     </g>
     <g id="text_24">
      <!-- −1.0 -->
      <g transform="translate(221.109915 238.767216) scale(0.1 -0.1)">
       <use xlink:href="#DejaVuSans-2212"/>
       <use xlink:href="#DejaVuSans-31" x="83.789062"/>
       <use xlink:href="#DejaVuSans-2e" x="147.412109"/>
       <use xlink:href="#DejaVuSans-30" x="179.199219"/>
      </g>
     </g>
    </g>
    <g id="ytick_13">
     <g id="line2d_27">
      <g>
       <use xlink:href="#me2d6b097ea" x="252.392727" y="204.747999" style="stroke: #000000; stroke-width: 0.8"/>
      </g>
     </g>
     <g id="text_25">
      <!-- −0.5 -->
      <g transform="translate(221.109915 208.547217) scale(0.1 -0.1)">
       <use xlink:href="#DejaVuSans-2212"/>
       <use xlink:href="#DejaVuSans-30" x="83.789062"/>
       <use xlink:href="#DejaVuSans-2e" x="147.412109"/>
       <use xlink:href="#DejaVuSans-35" x="179.199219"/>
      </g>
     </g>
    </g>
    <g id="ytick_14">
     <g id="line2d_28">
      <g>
       <use xlink:href="#me2d6b097ea" x="252.392727" y="174.528" style="stroke: #000000; stroke-width: 0.8"/>
      </g>
     </g>
     <g id="text_26">
      <!-- 0.0 -->
      <g transform="translate(229.489602 178.327219) scale(0.1 -0.1)">
       <use xlink:href="#DejaVuSans-30"/>
       <use xlink:href="#DejaVuSans-2e" x="63.623047"/>
       <use xlink:href="#DejaVuSans-30" x="95.410156"/>
      </g>
     </g>
    </g>
    <g id="ytick_15">
     <g id="line2d_29">
      <g>
       <use xlink:href="#me2d6b097ea" x="252.392727" y="144.308001" style="stroke: #000000; stroke-width: 0.8"/>
      </g>
     </g>
     <g id="text_27">
      <!-- 0.5 -->
      <g transform="translate(229.489602 148.10722) scale(0.1 -0.1)">
       <use xlink:href="#DejaVuSans-30"/>
       <use xlink:href="#DejaVuSans-2e" x="63.623047"/>
       <use xlink:href="#DejaVuSans-35" x="95.410156"/>
      </g>
     </g>
    </g>
    <g id="ytick_16">
     <g id="line2d_30">
      <g>
       <use xlink:href="#me2d6b097ea" x="252.392727" y="114.088003" style="stroke: #000000; stroke-width: 0.8"/>
      </g>
     </g>
     <g id="text_28">
      <!-- 1.0 -->
      <g transform="translate(229.489602 117.887221) scale(0.1 -0.1)">
       <use xlink:href="#DejaVuSans-31"/>
       <use xlink:href="#DejaVuSans-2e" x="63.623047"/>
       <use xlink:href="#DejaVuSans-30" x="95.410156"/>
      </g>
     </g>
    </g>
    <g id="ytick_17">
     <g id="line2d_31">
      <g>
       <use xlink:href="#me2d6b097ea" x="252.392727" y="83.868004" style="stroke: #000000; stroke-width: 0.8"/>
      </g>
     </g>
     <g id="text_29">
      <!-- 1.5 -->
      <g transform="translate(229.489602 87.667223) scale(0.1 -0.1)">
       <use xlink:href="#DejaVuSans-31"/>
       <use xlink:href="#DejaVuSans-2e" x="63.623047"/>
       <use xlink:href="#DejaVuSans-35" x="95.410156"/>
      </g>
     </g>
    </g>
    <g id="ytick_18">
     <g id="line2d_32">
      <g>
       <use xlink:href="#me2d6b097ea" x="252.392727" y="53.648005" style="stroke: #000000; stroke-width: 0.8"/>
      </g>
     </g>
     <g id="text_30">
      <!-- 2.0 -->
      <g transform="translate(229.489602 57.447224) scale(0.1 -0.1)">
       <use xlink:href="#DejaVuSans-32"/>
       <use xlink:href="#DejaVuSans-2e" x="63.623047"/>
       <use xlink:href="#DejaVuSans-30" x="95.410156"/>
      </g>
     </g>
    </g>
   </g>
   <g id="line2d_33">
    <path d="M 259.77124 174.528909 
L 261.396137 174.437548 
L 262.430163 174.133063 
L 263.907343 173.389498 
L 265.679958 172.29438 
L 266.861702 171.233251 
L 269.077472 168.812988 
L 270.406933 167.080078 
L 272.179549 164.273095 
L 274.099882 161.306679 
L 275.429344 159.67338 
L 277.792832 157.17419 
L 278.974575 156.250851 
L 280.747191 155.240635 
L 282.076653 154.638462 
L 283.110678 154.422255 
L 284.735576 154.38056 
L 286.065038 154.277297 
L 287.099063 153.955294 
L 288.723961 153.120863 
L 290.201141 152.203176 
L 291.235166 151.307923 
L 293.1555 149.254647 
L 294.63268 147.455881 
L 295.962141 145.450791 
L 298.916501 140.862474 
L 300.39368 139.115721 
L 302.60945 136.82945 
L 303.791194 135.963716 
L 305.859245 134.829908 
L 307.040989 134.386116 
L 308.075015 134.248578 
L 311.029374 134.044945 
L 312.0634 133.639521 
L 314.131451 132.505509 
L 315.313195 131.639863 
L 316.642657 130.319283 
L 319.006144 127.606879 
L 320.335606 125.65797 
L 323.733119 120.430136 
L 325.358017 118.564181 
L 327.27835 116.619269 
L 328.460094 115.772061 
L 330.528145 114.647517 
L 331.562171 114.258049 
L 332.596197 114.1061 
L 334.664248 114.115803 
L 335.698274 114.299044 
L 336.7323 114.719208 
L 338.800351 115.863166 
L 339.982095 116.747539 
L 341.311557 118.08286 
L 343.527326 120.619339 
L 344.856788 122.548023 
L 348.402019 127.98534 
L 350.174635 129.999816 
L 351.94725 131.765499 
L 353.128994 132.595104 
L 355.344764 133.776641 
L 356.378789 134.116145 
L 357.560533 134.230748 
L 359.924021 134.353228 
L 360.958046 134.692782 
L 362.582944 135.536089 
L 364.060124 136.468454 
L 365.241867 137.529385 
L 367.457637 139.949723 
L 368.787099 141.682705 
L 370.559714 144.489543 
L 372.480048 147.455881 
L 373.809509 149.089171 
L 376.172997 151.588583 
L 377.354741 152.511891 
L 379.127356 153.522137 
L 380.456818 154.124312 
L 381.490844 154.340351 
L 383.115741 154.382107 
L 384.445203 154.485305 
L 385.479229 154.807314 
L 387.104126 155.641702 
L 388.581306 156.559388 
L 389.615332 157.454823 
L 391.535665 159.507915 
L 393.012845 161.306679 
L 394.342307 163.311826 
L 397.296666 167.900149 
L 398.773846 169.646908 
L 400.989615 171.933246 
L 402.171359 172.798772 
L 404.23941 173.932991 
L 405.421154 174.376463 
L 406.45518 174.51372 
L 407.341488 174.528909 
L 407.341488 174.528909 
" clip-path="url(#p35b876e3ed)" style="fill: none; stroke: #ff0000; stroke-width: 1.5; stroke-linecap: square"/>
   </g>
   <g id="line2d_34">
    <path d="M 259.77124 174.528 
L 260.066676 173.948613 
L 260.362112 172.90738 
L 260.657547 171.024715 
L 261.100701 166.21361 
L 261.839291 154.050437 
L 262.577881 142.055625 
L 263.021035 137.442527 
L 263.464189 135.132976 
L 263.907343 134.176716 
L 264.202779 133.551636 
L 264.498215 132.419112 
L 264.793651 130.42484 
L 265.236804 125.42912 
L 265.975394 113.073733 
L 266.713984 101.311743 
L 267.157138 96.85903 
L 267.600292 94.704067 
L 268.4866 92.641277 
L 268.782036 90.952387 
L 269.225189 86.601393 
L 269.816061 77.455924 
L 270.850087 60.601409 
L 271.293241 56.419133 
L 271.736395 54.109133 
L 272.031831 53.570738 
L 272.179549 53.618911 
L 272.474985 54.353348 
L 272.770421 55.906291 
L 273.213575 59.777867 
L 273.656728 65.722709 
L 275.133908 89.066123 
L 275.577062 92.280621 
L 276.020216 93.730643 
L 276.611088 94.938978 
L 276.906524 96.335958 
L 277.20196 98.763114 
L 277.645114 104.407273 
L 279.417729 131.047849 
L 279.860883 133.323892 
L 280.304037 134.273384 
L 280.599473 134.920362 
L 280.894909 136.075294 
L 281.190345 138.067344 
L 281.633499 143.012855 
L 282.372088 155.426149 
L 283.110678 167.120412 
L 283.553832 171.514574 
L 283.996986 173.933625 
L 284.292422 174.554416 
L 284.44014 174.564895 
L 284.587858 174.370174 
L 284.883294 173.356389 
L 285.17873 171.504485 
L 285.621884 167.092415 
L 286.212756 158.105646 
L 287.246781 141.083819 
L 287.689935 136.985015 
L 288.133089 134.911784 
L 288.576243 133.982342 
L 288.871679 133.33209 
L 289.167115 132.071384 
L 289.462551 129.801209 
L 289.905705 124.314894 
L 291.67832 97.394746 
L 292.121474 94.975072 
L 292.564628 93.987552 
L 292.860064 93.352966 
L 293.1555 92.263655 
L 293.450936 90.401863 
L 293.89409 85.687791 
L 294.484962 76.083944 
L 295.371269 61.540247 
L 295.814423 56.944979 
L 296.257577 54.356546 
L 296.553013 53.6584 
L 296.700731 53.608684 
L 296.848449 53.757886 
L 297.143885 54.657141 
L 297.439321 56.379878 
L 297.882475 60.627532 
L 298.473347 69.441628 
L 299.507372 86.64442 
L 299.950526 90.954428 
L 300.39368 93.136871 
L 300.836834 94.119621 
L 301.13227 94.75256 
L 301.427706 95.916078 
L 301.723142 98.026772 
L 302.166296 103.301404 
L 303.052604 118.321678 
L 303.791194 129.054365 
L 304.234347 132.469415 
L 304.529783 133.532276 
L 305.268373 135.148954 
L 305.563809 136.5178 
L 306.006963 140.235377 
L 306.450117 146.31065 
L 307.927297 169.552067 
L 308.37045 172.972342 
L 308.665886 174.194986 
L 308.961322 174.585077 
L 309.10904 174.473447 
L 309.404476 173.655691 
L 309.699912 172.046318 
L 310.143066 168.002679 
L 310.733938 159.359437 
L 311.915682 140.237076 
L 312.358836 136.484458 
L 312.801989 134.726107 
L 313.540579 133.074981 
L 313.836015 131.574786 
L 314.279169 127.367653 
L 314.870041 118.32528 
L 315.904067 101.307733 
L 316.347221 96.838881 
L 316.790375 94.716627 
L 317.676682 92.623445 
L 317.972118 90.93771 
L 318.415272 86.61728 
L 319.006144 77.451566 
L 320.04017 60.619205 
L 320.483324 56.41957 
L 320.926478 54.091303 
L 321.221913 53.568 
L 321.369631 53.626878 
L 321.665067 54.371532 
L 321.960503 55.911305 
L 322.403657 59.759482 
L 322.846811 65.726352 
L 324.323991 89.064899 
L 324.767145 92.300269 
L 325.210299 93.722597 
L 325.80117 94.931986 
L 326.096606 96.352554 
L 326.53976 100.403701 
L 327.130632 109.172939 
L 328.312376 128.232906 
L 328.75553 132.012449 
L 329.198684 133.739338 
L 329.937273 135.387467 
L 330.232709 136.91142 
L 330.675863 141.118041 
L 331.266735 150.114348 
L 332.300761 167.181865 
L 332.743915 171.589529 
L 333.187069 173.74849 
L 334.221094 176.528603 
L 334.51653 178.663236 
L 334.959684 183.8716 
L 335.698274 196.329357 
L 336.436864 207.937959 
L 336.880018 212.14458 
L 337.323172 214.138677 
L 338.20948 216.284806 
L 338.504915 218.037359 
L 338.948069 222.6271 
L 339.538941 232.013862 
L 340.572967 248.652299 
L 341.016121 252.703446 
L 341.311557 254.124014 
L 341.754711 255.07977 
L 342.050147 255.662541 
L 342.345583 256.755731 
L 342.641019 258.67028 
L 343.084172 263.404378 
L 343.675044 272.927746 
L 344.561352 287.551049 
L 345.004506 292.078097 
L 345.44766 294.684468 
L 345.743096 295.429122 
L 345.890814 295.488 
L 346.038532 295.332608 
L 346.333968 294.389585 
L 346.629404 292.63643 
L 347.072558 288.436795 
L 347.663429 279.630502 
L 348.697455 262.43872 
L 349.140609 258.11829 
L 349.583763 255.882581 
L 350.026917 254.941698 
L 350.322353 254.339373 
L 350.617789 253.157161 
L 350.913225 251.00446 
L 351.356379 245.737109 
L 352.242686 230.73072 
L 352.981276 220.004729 
L 353.42443 216.618797 
L 353.867584 215.184492 
L 354.458456 213.909193 
L 354.753892 212.571542 
L 355.049328 210.332899 
L 355.492482 204.98996 
L 356.378789 189.696563 
L 356.969661 181.053321 
L 357.412815 177.009682 
L 357.855969 174.893338 
L 358.151405 174.470923 
L 358.299123 174.562612 
L 358.594559 175.367853 
L 358.889995 177.009265 
L 359.333149 181.085943 
L 359.924021 189.664404 
L 361.105764 208.820623 
L 361.548918 212.5382 
L 361.992072 214.348376 
L 362.87838 216.586585 
L 363.173816 218.58032 
L 363.61697 223.671629 
L 364.35556 235.941993 
L 365.094149 247.780844 
L 365.537303 252.221828 
L 365.980457 254.30344 
L 366.866765 256.458833 
L 367.162201 258.101572 
L 367.605355 262.41158 
L 368.196227 271.642404 
L 369.230252 288.428468 
L 369.673406 292.676122 
L 370.11656 294.949281 
L 370.411996 295.447316 
L 370.559714 295.3976 
L 370.85515 294.699454 
L 371.150586 293.186471 
L 371.59374 289.28203 
L 372.036894 283.295158 
L 373.514073 259.952867 
L 373.957227 256.792345 
L 374.400381 255.351596 
L 374.991253 254.080928 
L 375.286689 252.713473 
L 375.582125 250.324498 
L 376.025279 244.655729 
L 377.797894 217.978223 
L 378.241048 215.72391 
L 379.275074 212.951665 
L 379.57051 210.961927 
L 380.013664 206.071802 
L 380.604536 196.299401 
L 381.490844 181.963585 
L 381.933997 177.551515 
L 382.377151 175.088332 
L 382.672587 174.491105 
L 382.820305 174.501584 
L 382.968023 174.713292 
L 383.263459 175.727328 
L 383.558895 177.541426 
L 384.002049 181.935588 
L 384.592921 190.984504 
L 385.626947 207.960004 
L 386.070101 212.105387 
L 386.513254 214.135638 
L 387.399562 216.27452 
L 387.694998 218.008151 
L 388.138152 222.63199 
L 388.729024 232.027549 
L 389.76305 248.662684 
L 390.206204 252.720042 
L 390.501639 254.117022 
L 390.944793 255.062336 
L 391.240229 255.666507 
L 391.535665 256.775379 
L 391.831101 258.680362 
L 392.274255 263.386003 
L 392.865127 272.93734 
L 393.751435 287.535449 
L 394.194589 292.072241 
L 394.637743 294.702652 
L 394.933178 295.437089 
L 395.080896 295.485262 
L 395.228614 295.320128 
L 395.52405 294.372686 
L 395.819486 292.636867 
L 396.26264 288.454591 
L 396.853512 279.613862 
L 397.887538 262.454607 
L 398.330692 258.103613 
L 398.773846 255.872947 
L 399.216999 254.961723 
L 399.512435 254.351933 
L 399.807871 253.145548 
L 400.103307 250.982683 
L 400.546461 245.746586 
L 401.285051 233.331746 
L 402.023641 221.691609 
L 402.466795 217.509143 
L 402.909949 215.504364 
L 403.796256 213.368888 
L 404.091692 211.613473 
L 404.534846 207.000375 
L 405.125718 197.643826 
L 406.159744 180.970119 
L 406.602898 176.966597 
L 407.046052 175.107387 
L 407.341488 174.528 
L 407.341488 174.528 
" clip-path="url(#p35b876e3ed)" style="fill: none; stroke: #0000ff; stroke-width: 1.5; stroke-linecap: square"/>
   </g>
   <g id="patch_9">
    <path d="M 252.392727 307.584 
L 252.392727 41.472 
" style="fill: none; stroke: #000000; stroke-width: 0.8; stroke-linejoin: miter; stroke-linecap: square"/>
   </g>
   <g id="patch_10">
    <path d="M 414.72 307.584 
L 414.72 41.472 
" style="fill: none; stroke: #000000; stroke-width: 0.8; stroke-linejoin: miter; stroke-linecap: square"/>
   </g>
   <g id="patch_11">
    <path d="M 252.392727 307.584 
L 414.72 307.584 
" style="fill: none; stroke: #000000; stroke-width: 0.8; stroke-linejoin: miter; stroke-linecap: square"/>
   </g>
   <g id="patch_12">
    <path d="M 252.392727 41.472 
L 414.72 41.472 
" style="fill: none; stroke: #000000; stroke-width: 0.8; stroke-linejoin: miter; stroke-linecap: square"/>
   </g>
   <g id="legend_2">
    <g id="patch_13">
     <path d="M 342.12 79.072 
L 407.72 79.072 
Q 409.72 79.072 409.72 77.072 
L 409.72 48.472 
Q 409.72 46.472 407.72 46.472 
L 342.12 46.472 
Q 340.12 46.472 340.12 48.472 
L 340.12 77.072 
Q 340.12 79.072 342.12 79.072 
z
" style="fill: #ffffff; opacity: 0.8; stroke: #cccccc; stroke-linejoin: miter"/>
    </g>
    <g id="line2d_35">
     <path d="M 344.12 54.572 
L 354.12 54.572 
L 364.12 54.572 
" style="fill: none; stroke: #ff0000; stroke-width: 1.5; stroke-linecap: square"/>
    </g>
    <g id="text_31">
     <!-- $\mathrm{up_3}(x)$ -->
     <g transform="translate(372.12 58.072) scale(0.1 -0.1)">
      <defs>
       <path id="DejaVuSans-33" d="M 2597 2516 
Q 3050 2419 3304 2112 
Q 3559 1806 3559 1356 
Q 3559 666 3084 287 
Q 2609 -91 1734 -91 
Q 1441 -91 1130 -33 
Q 819 25 488 141 
L 488 750 
Q 750 597 1062 519 
Q 1375 441 1716 441 
Q 2309 441 2620 675 
Q 2931 909 2931 1356 
Q 2931 1769 2642 2001 
Q 2353 2234 1838 2234 
L 1294 2234 
L 1294 2753 
L 1863 2753 
Q 2328 2753 2575 2939 
Q 2822 3125 2822 3475 
Q 2822 3834 2567 4026 
Q 2313 4219 1838 4219 
Q 1578 4219 1281 4162 
Q 984 4106 628 3988 
L 628 4550 
Q 988 4650 1302 4700 
Q 1616 4750 1894 4750 
Q 2613 4750 3031 4423 
Q 3450 4097 3450 3541 
Q 3450 3153 3228 2886 
Q 3006 2619 2597 2516 
z
" transform="scale(0.015625)"/>
      </defs>
      <use xlink:href="#DejaVuSans-75" transform="translate(0 0.125)"/>
      <use xlink:href="#DejaVuSans-70" transform="translate(63.378906 0.125)"/>
      <use xlink:href="#DejaVuSans-33" transform="translate(127.8125 -16.28125) scale(0.7)"/>
      <use xlink:href="#DejaVuSans-28" transform="translate(175.083008 0.125)"/>
      <use xlink:href="#DejaVuSans-Oblique-78" transform="translate(214.09668 0.125)"/>
      <use xlink:href="#DejaVuSans-29" transform="translate(273.276367 0.125)"/>
     </g>
    </g>
    <g id="line2d_36">
     <path d="M 344.12 69.472 
L 354.12 69.472 
L 364.12 69.472 
" style="fill: none; stroke: #0000ff; stroke-width: 1.5; stroke-linecap: square"/>
    </g>
    <g id="text_32">
     <!-- $\mathrm{up'_3}(x)$ -->
     <g transform="translate(372.12 72.972) scale(0.1 -0.1)">
      <use xlink:href="#DejaVuSans-75" transform="translate(0 0.584375)"/>
      <use xlink:href="#DejaVuSans-70" transform="translate(63.378906 0.584375)"/>
      <use xlink:href="#Cmsy10-30" transform="translate(127.8125 38.865625) scale(0.7)"/>
      <use xlink:href="#DejaVuSans-33" transform="translate(150.74707 -15.821875) scale(0.7)"/>
      <use xlink:href="#DejaVuSans-28" transform="translate(198.017578 0.584375)"/>
      <use xlink:href="#DejaVuSans-Oblique-78" transform="translate(237.03125 0.584375)"/>
      <use xlink:href="#DejaVuSans-29" transform="translate(296.210938 0.584375)"/>
     </g>
    </g>
   </g>
  </g>
 </g>
 <defs>
  <clipPath id="pe547fb0703">
   <rect x="57.6" y="41.472" width="162.327273" height="266.112"/>
  </clipPath>
  <clipPath id="p35b876e3ed">
   <rect x="252.392727" y="41.472" width="162.327273" height="266.112"/>
  </clipPath>
 </defs>
</svg>
