<?xml version="1.0" encoding="utf-8" standalone="no"?>
<!DOCTYPE svg PUBLIC "-//W3C//DTD SVG 1.1//EN"
  "http://www.w3.org/Graphics/SVG/1.1/DTD/svg11.dtd">
<svg xmlns:xlink="http://www.w3.org/1999/xlink" width="864pt" height="288pt" viewBox="0 0 864 288" xmlns="http://www.w3.org/2000/svg" version="1.1">
 <metadata>
  <rdf:RDF xmlns:dc="http://purl.org/dc/elements/1.1/" xmlns:cc="http://creativecommons.org/ns#" xmlns:rdf="http://www.w3.org/1999/02/22-rdf-syntax-ns#">
   <cc:Work>
    <dc:type rdf:resource="http://purl.org/dc/dcmitype/StillImage"/>
    <dc:date>2023-07-29T16:59:40.505881</dc:date>
    <dc:format>image/svg+xml</dc:format>
    <dc:creator>
     <cc:Agent>
      <dc:title>Matplotlib v3.7.1, https://matplotlib.org/</dc:title>
     </cc:Agent>
    </dc:creator>
   </cc:Work>
  </rdf:RDF>
 </metadata>
 <defs>
  <style type="text/css">*{stroke-linejoin: round; stroke-linecap: butt}</style>
 </defs>
 <g id="figure_1">
  <g id="patch_1">
   <path d="M 0 288 
L 864 288 
L 864 0 
L 0 0 
z
" style="fill: #f0f0f0"/>
  </g>
  <g id="axes_1">
   <g id="patch_2">
    <path d="M 69.12 267.84 
L 410.792727 267.84 
L 410.792727 2.88 
L 69.12 2.88 
z
" style="fill: #e5e5e5"/>
   </g>
   <g id="matplotlib.axis_1">
    <g id="xtick_1">
     <g id="line2d_1">
      <path d="M 84.650579 267.84 
L 84.650579 2.88 
" clip-path="url(#peb207bb5d7)" style="fill: none; stroke: #ffffff; stroke-width: 0.5"/>
     </g>
     <g id="line2d_2"/>
     <g id="text_1">
      <!-- −1.00 -->
      <g style="fill: #555555" transform="translate(71.999797 278.497813) scale(0.1 -0.1)">
       <defs>
        <path id="ArialMT-2212" d="M 3381 1997 
L 356 1997 
L 356 2522 
L 3381 2522 
L 3381 1997 
z
" transform="scale(0.015625)"/>
        <path id="ArialMT-31" d="M 2384 0 
L 1822 0 
L 1822 3584 
Q 1619 3391 1289 3197 
Q 959 3003 697 2906 
L 697 3450 
Q 1169 3672 1522 3987 
Q 1875 4303 2022 4600 
L 2384 4600 
L 2384 0 
z
" transform="scale(0.015625)"/>
        <path id="ArialMT-2e" d="M 581 0 
L 581 641 
L 1222 641 
L 1222 0 
L 581 0 
z
" transform="scale(0.015625)"/>
        <path id="ArialMT-30" d="M 266 2259 
Q 266 3072 433 3567 
Q 600 4063 929 4331 
Q 1259 4600 1759 4600 
Q 2128 4600 2406 4451 
Q 2684 4303 2865 4023 
Q 3047 3744 3150 3342 
Q 3253 2941 3253 2259 
Q 3253 1453 3087 958 
Q 2922 463 2592 192 
Q 2263 -78 1759 -78 
Q 1097 -78 719 397 
Q 266 969 266 2259 
z
M 844 2259 
Q 844 1131 1108 757 
Q 1372 384 1759 384 
Q 2147 384 2411 759 
Q 2675 1134 2675 2259 
Q 2675 3391 2411 3762 
Q 2147 4134 1753 4134 
Q 1366 4134 1134 3806 
Q 844 3388 844 2259 
z
" transform="scale(0.015625)"/>
       </defs>
       <use xlink:href="#ArialMT-2212"/>
       <use xlink:href="#ArialMT-31" x="58.398438"/>
       <use xlink:href="#ArialMT-2e" x="114.013672"/>
       <use xlink:href="#ArialMT-30" x="141.796875"/>
       <use xlink:href="#ArialMT-30" x="197.412109"/>
      </g>
     </g>
    </g>
    <g id="xtick_2">
     <g id="line2d_3">
      <path d="M 123.477025 267.84 
L 123.477025 2.88 
" clip-path="url(#peb207bb5d7)" style="fill: none; stroke: #ffffff; stroke-width: 0.5"/>
     </g>
     <g id="line2d_4"/>
     <g id="text_2">
      <!-- −0.75 -->
      <g style="fill: #555555" transform="translate(110.826244 278.497813) scale(0.1 -0.1)">
       <defs>
        <path id="ArialMT-37" d="M 303 3981 
L 303 4522 
L 3269 4522 
L 3269 4084 
Q 2831 3619 2401 2847 
Q 1972 2075 1738 1259 
Q 1569 684 1522 0 
L 944 0 
Q 953 541 1156 1306 
Q 1359 2072 1739 2783 
Q 2119 3494 2547 3981 
L 303 3981 
z
" transform="scale(0.015625)"/>
        <path id="ArialMT-35" d="M 266 1200 
L 856 1250 
Q 922 819 1161 601 
Q 1400 384 1738 384 
Q 2144 384 2425 690 
Q 2706 997 2706 1503 
Q 2706 1984 2436 2262 
Q 2166 2541 1728 2541 
Q 1456 2541 1237 2417 
Q 1019 2294 894 2097 
L 366 2166 
L 809 4519 
L 3088 4519 
L 3088 3981 
L 1259 3981 
L 1013 2750 
Q 1425 3038 1878 3038 
Q 2478 3038 2890 2622 
Q 3303 2206 3303 1553 
Q 3303 931 2941 478 
Q 2500 -78 1738 -78 
Q 1113 -78 717 272 
Q 322 622 266 1200 
z
" transform="scale(0.015625)"/>
       </defs>
       <use xlink:href="#ArialMT-2212"/>
       <use xlink:href="#ArialMT-30" x="58.398438"/>
       <use xlink:href="#ArialMT-2e" x="114.013672"/>
       <use xlink:href="#ArialMT-37" x="141.796875"/>
       <use xlink:href="#ArialMT-35" x="197.412109"/>
      </g>
     </g>
    </g>
    <g id="xtick_3">
     <g id="line2d_5">
      <path d="M 162.303471 267.84 
L 162.303471 2.88 
" clip-path="url(#peb207bb5d7)" style="fill: none; stroke: #ffffff; stroke-width: 0.5"/>
     </g>
     <g id="line2d_6"/>
     <g id="text_3">
      <!-- −0.50 -->
      <g style="fill: #555555" transform="translate(149.65269 278.497813) scale(0.1 -0.1)">
       <use xlink:href="#ArialMT-2212"/>
       <use xlink:href="#ArialMT-30" x="58.398438"/>
       <use xlink:href="#ArialMT-2e" x="114.013672"/>
       <use xlink:href="#ArialMT-35" x="141.796875"/>
       <use xlink:href="#ArialMT-30" x="197.412109"/>
      </g>
     </g>
    </g>
    <g id="xtick_4">
     <g id="line2d_7">
      <path d="M 201.129917 267.84 
L 201.129917 2.88 
" clip-path="url(#peb207bb5d7)" style="fill: none; stroke: #ffffff; stroke-width: 0.5"/>
     </g>
     <g id="line2d_8"/>
     <g id="text_4">
      <!-- −0.25 -->
      <g style="fill: #555555" transform="translate(188.479136 278.497813) scale(0.1 -0.1)">
       <defs>
        <path id="ArialMT-32" d="M 3222 541 
L 3222 0 
L 194 0 
Q 188 203 259 391 
Q 375 700 629 1000 
Q 884 1300 1366 1694 
Q 2113 2306 2375 2664 
Q 2638 3022 2638 3341 
Q 2638 3675 2398 3904 
Q 2159 4134 1775 4134 
Q 1369 4134 1125 3890 
Q 881 3647 878 3216 
L 300 3275 
Q 359 3922 746 4261 
Q 1134 4600 1788 4600 
Q 2447 4600 2831 4234 
Q 3216 3869 3216 3328 
Q 3216 3053 3103 2787 
Q 2991 2522 2730 2228 
Q 2469 1934 1863 1422 
Q 1356 997 1212 845 
Q 1069 694 975 541 
L 3222 541 
z
" transform="scale(0.015625)"/>
       </defs>
       <use xlink:href="#ArialMT-2212"/>
       <use xlink:href="#ArialMT-30" x="58.398438"/>
       <use xlink:href="#ArialMT-2e" x="114.013672"/>
       <use xlink:href="#ArialMT-32" x="141.796875"/>
       <use xlink:href="#ArialMT-35" x="197.412109"/>
      </g>
     </g>
    </g>
    <g id="xtick_5">
     <g id="line2d_9">
      <path d="M 239.956364 267.84 
L 239.956364 2.88 
" clip-path="url(#peb207bb5d7)" style="fill: none; stroke: #ffffff; stroke-width: 0.5"/>
     </g>
     <g id="line2d_10"/>
     <g id="text_5">
      <!-- 0.00 -->
      <g style="fill: #555555" transform="translate(230.225895 278.497813) scale(0.1 -0.1)">
       <use xlink:href="#ArialMT-30"/>
       <use xlink:href="#ArialMT-2e" x="55.615234"/>
       <use xlink:href="#ArialMT-30" x="83.398438"/>
       <use xlink:href="#ArialMT-30" x="139.013672"/>
      </g>
     </g>
    </g>
    <g id="xtick_6">
     <g id="line2d_11">
      <path d="M 278.78281 267.84 
L 278.78281 2.88 
" clip-path="url(#peb207bb5d7)" style="fill: none; stroke: #ffffff; stroke-width: 0.5"/>
     </g>
     <g id="line2d_12"/>
     <g id="text_6">
      <!-- 0.25 -->
      <g style="fill: #555555" transform="translate(269.052341 278.497813) scale(0.1 -0.1)">
       <use xlink:href="#ArialMT-30"/>
       <use xlink:href="#ArialMT-2e" x="55.615234"/>
       <use xlink:href="#ArialMT-32" x="83.398438"/>
       <use xlink:href="#ArialMT-35" x="139.013672"/>
      </g>
     </g>
    </g>
    <g id="xtick_7">
     <g id="line2d_13">
      <path d="M 317.609256 267.84 
L 317.609256 2.88 
" clip-path="url(#peb207bb5d7)" style="fill: none; stroke: #ffffff; stroke-width: 0.5"/>
     </g>
     <g id="line2d_14"/>
     <g id="text_7">
      <!-- 0.50 -->
      <g style="fill: #555555" transform="translate(307.878787 278.497813) scale(0.1 -0.1)">
       <use xlink:href="#ArialMT-30"/>
       <use xlink:href="#ArialMT-2e" x="55.615234"/>
       <use xlink:href="#ArialMT-35" x="83.398438"/>
       <use xlink:href="#ArialMT-30" x="139.013672"/>
      </g>
     </g>
    </g>
    <g id="xtick_8">
     <g id="line2d_15">
      <path d="M 356.435702 267.84 
L 356.435702 2.88 
" clip-path="url(#peb207bb5d7)" style="fill: none; stroke: #ffffff; stroke-width: 0.5"/>
     </g>
     <g id="line2d_16"/>
     <g id="text_8">
      <!-- 0.75 -->
      <g style="fill: #555555" transform="translate(346.705234 278.497813) scale(0.1 -0.1)">
       <use xlink:href="#ArialMT-30"/>
       <use xlink:href="#ArialMT-2e" x="55.615234"/>
       <use xlink:href="#ArialMT-37" x="83.398438"/>
       <use xlink:href="#ArialMT-35" x="139.013672"/>
      </g>
     </g>
    </g>
    <g id="xtick_9">
     <g id="line2d_17">
      <path d="M 395.262149 267.84 
L 395.262149 2.88 
" clip-path="url(#peb207bb5d7)" style="fill: none; stroke: #ffffff; stroke-width: 0.5"/>
     </g>
     <g id="line2d_18"/>
     <g id="text_9">
      <!-- 1.00 -->
      <g style="fill: #555555" transform="translate(385.53168 278.497813) scale(0.1 -0.1)">
       <use xlink:href="#ArialMT-31"/>
       <use xlink:href="#ArialMT-2e" x="55.615234"/>
       <use xlink:href="#ArialMT-30" x="83.398438"/>
       <use xlink:href="#ArialMT-30" x="139.013672"/>
      </g>
     </g>
    </g>
   </g>
   <g id="matplotlib.axis_2">
    <g id="ytick_1">
     <g id="line2d_19">
      <path d="M 69.12 255.796359 
L 410.792727 255.796359 
" clip-path="url(#peb207bb5d7)" style="fill: none; stroke: #ffffff; stroke-width: 0.5"/>
     </g>
     <g id="line2d_20"/>
     <g id="text_10">
      <!-- −2.0 -->
      <g style="fill: #555555" transform="translate(45.879375 259.375266) scale(0.1 -0.1)">
       <use xlink:href="#ArialMT-2212"/>
       <use xlink:href="#ArialMT-32" x="58.398438"/>
       <use xlink:href="#ArialMT-2e" x="114.013672"/>
       <use xlink:href="#ArialMT-30" x="141.796875"/>
      </g>
     </g>
    </g>
    <g id="ytick_2">
     <g id="line2d_21">
      <path d="M 69.12 225.68727 
L 410.792727 225.68727 
" clip-path="url(#peb207bb5d7)" style="fill: none; stroke: #ffffff; stroke-width: 0.5"/>
     </g>
     <g id="line2d_22"/>
     <g id="text_11">
      <!-- −1.5 -->
      <g style="fill: #555555" transform="translate(45.879375 229.266176) scale(0.1 -0.1)">
       <use xlink:href="#ArialMT-2212"/>
       <use xlink:href="#ArialMT-31" x="58.398438"/>
       <use xlink:href="#ArialMT-2e" x="114.013672"/>
       <use xlink:href="#ArialMT-35" x="141.796875"/>
      </g>
     </g>
    </g>
    <g id="ytick_3">
     <g id="line2d_23">
      <path d="M 69.12 195.57818 
L 410.792727 195.57818 
" clip-path="url(#peb207bb5d7)" style="fill: none; stroke: #ffffff; stroke-width: 0.5"/>
     </g>
     <g id="line2d_24"/>
     <g id="text_12">
      <!-- −1.0 -->
      <g style="fill: #555555" transform="translate(45.879375 199.157086) scale(0.1 -0.1)">
       <use xlink:href="#ArialMT-2212"/>
       <use xlink:href="#ArialMT-31" x="58.398438"/>
       <use xlink:href="#ArialMT-2e" x="114.013672"/>
       <use xlink:href="#ArialMT-30" x="141.796875"/>
      </g>
     </g>
    </g>
    <g id="ytick_4">
     <g id="line2d_25">
      <path d="M 69.12 165.46909 
L 410.792727 165.46909 
" clip-path="url(#peb207bb5d7)" style="fill: none; stroke: #ffffff; stroke-width: 0.5"/>
     </g>
     <g id="line2d_26"/>
     <g id="text_13">
      <!-- −0.5 -->
      <g style="fill: #555555" transform="translate(45.879375 169.047996) scale(0.1 -0.1)">
       <use xlink:href="#ArialMT-2212"/>
       <use xlink:href="#ArialMT-30" x="58.398438"/>
       <use xlink:href="#ArialMT-2e" x="114.013672"/>
       <use xlink:href="#ArialMT-35" x="141.796875"/>
      </g>
     </g>
    </g>
    <g id="ytick_5">
     <g id="line2d_27">
      <path d="M 69.12 135.36 
L 410.792727 135.36 
" clip-path="url(#peb207bb5d7)" style="fill: none; stroke: #ffffff; stroke-width: 0.5"/>
     </g>
     <g id="line2d_28"/>
     <g id="text_14">
      <!-- 0.0 -->
      <g style="fill: #555555" transform="translate(51.72 138.938906) scale(0.1 -0.1)">
       <use xlink:href="#ArialMT-30"/>
       <use xlink:href="#ArialMT-2e" x="55.615234"/>
       <use xlink:href="#ArialMT-30" x="83.398438"/>
      </g>
     </g>
    </g>
    <g id="ytick_6">
     <g id="line2d_29">
      <path d="M 69.12 105.25091 
L 410.792727 105.25091 
" clip-path="url(#peb207bb5d7)" style="fill: none; stroke: #ffffff; stroke-width: 0.5"/>
     </g>
     <g id="line2d_30"/>
     <g id="text_15">
      <!-- 0.5 -->
      <g style="fill: #555555" transform="translate(51.72 108.829816) scale(0.1 -0.1)">
       <use xlink:href="#ArialMT-30"/>
       <use xlink:href="#ArialMT-2e" x="55.615234"/>
       <use xlink:href="#ArialMT-35" x="83.398438"/>
      </g>
     </g>
    </g>
    <g id="ytick_7">
     <g id="line2d_31">
      <path d="M 69.12 75.14182 
L 410.792727 75.14182 
" clip-path="url(#peb207bb5d7)" style="fill: none; stroke: #ffffff; stroke-width: 0.5"/>
     </g>
     <g id="line2d_32"/>
     <g id="text_16">
      <!-- 1.0 -->
      <g style="fill: #555555" transform="translate(51.72 78.720727) scale(0.1 -0.1)">
       <use xlink:href="#ArialMT-31"/>
       <use xlink:href="#ArialMT-2e" x="55.615234"/>
       <use xlink:href="#ArialMT-30" x="83.398438"/>
      </g>
     </g>
    </g>
    <g id="ytick_8">
     <g id="line2d_33">
      <path d="M 69.12 45.03273 
L 410.792727 45.03273 
" clip-path="url(#peb207bb5d7)" style="fill: none; stroke: #ffffff; stroke-width: 0.5"/>
     </g>
     <g id="line2d_34"/>
     <g id="text_17">
      <!-- 1.5 -->
      <g style="fill: #555555" transform="translate(51.72 48.611637) scale(0.1 -0.1)">
       <use xlink:href="#ArialMT-31"/>
       <use xlink:href="#ArialMT-2e" x="55.615234"/>
       <use xlink:href="#ArialMT-35" x="83.398438"/>
      </g>
     </g>
    </g>
    <g id="ytick_9">
     <g id="line2d_35">
      <path d="M 69.12 14.923641 
L 410.792727 14.923641 
" clip-path="url(#peb207bb5d7)" style="fill: none; stroke: #ffffff; stroke-width: 0.5"/>
     </g>
     <g id="line2d_36"/>
     <g id="text_18">
      <!-- 2.0 -->
      <g style="fill: #555555" transform="translate(51.72 18.502547) scale(0.1 -0.1)">
       <use xlink:href="#ArialMT-32"/>
       <use xlink:href="#ArialMT-2e" x="55.615234"/>
       <use xlink:href="#ArialMT-30" x="83.398438"/>
      </g>
     </g>
    </g>
   </g>
   <g id="line2d_37">
    <path d="M 84.650579 135.36 
L 111.700835 134.372923 
L 121.961278 131.742979 
L 132.22172 127.026012 
L 144.036775 119.262706 
L 198.759133 80.298989 
L 209.330498 76.814111 
L 220.523708 75.351947 
L 243.531972 75.141823 
L 266.851159 76.104332 
L 277.111602 78.703511 
L 287.372044 83.388853 
L 299.187099 91.125361 
L 333.07765 117.182496 
L 348.00193 127.199461 
L 358.884217 132.067722 
L 369.144659 134.514142 
L 381.892482 135.331678 
L 395.262149 135.36 
L 395.262149 135.36 
" clip-path="url(#peb207bb5d7)" style="fill: none; stroke: #ff0000; stroke-width: 2"/>
   </g>
   <g id="line2d_38">
    <path d="M 84.650579 135.36 
L 96.154711 134.409758 
L 100.196703 131.801428 
L 104.238696 126.722869 
L 109.213455 116.903031 
L 116.05375 98.066271 
L 139.994782 28.447359 
L 145.280465 20.036321 
L 149.633379 16.401942 
L 154.297217 15.077492 
L 166.112272 14.925348 
L 173.885334 15.904184 
L 177.927326 18.555463 
L 181.969319 23.683984 
L 186.944079 33.564445 
L 193.784373 52.452723 
L 217.725405 121.992273 
L 223.011088 130.337725 
L 227.364003 133.922023 
L 232.02784 135.214025 
L 244.46474 135.365187 
L 251.615957 136.371513 
L 255.65795 139.066016 
L 260.010864 144.750881 
L 264.985624 154.933068 
L 272.136842 175.017705 
L 294.834184 241.316625 
L 300.119866 250.121033 
L 304.783703 254.235094 
L 309.447541 255.625809 
L 320.640751 255.796013 
L 329.035658 254.875758 
L 333.07765 252.310103 
L 337.119643 247.281474 
L 342.094403 237.522345 
L 348.934697 218.737728 
L 373.186652 148.418621 
L 378.472334 140.204352 
L 382.825249 136.719605 
L 387.489086 135.491136 
L 395.262149 135.36 
L 395.262149 135.36 
" clip-path="url(#peb207bb5d7)" style="fill: none; stroke: #0000ff; stroke-width: 2"/>
   </g>
   <g id="patch_3">
    <path d="M 69.12 267.84 
L 69.12 2.88 
" style="fill: none; stroke: #ffffff; stroke-linejoin: miter; stroke-linecap: square"/>
   </g>
   <g id="patch_4">
    <path d="M 410.792727 267.84 
L 410.792727 2.88 
" style="fill: none; stroke: #ffffff; stroke-linejoin: miter; stroke-linecap: square"/>
   </g>
   <g id="patch_5">
    <path d="M 69.12 267.84 
L 410.792727 267.84 
" style="fill: none; stroke: #ffffff; stroke-linejoin: miter; stroke-linecap: square"/>
   </g>
   <g id="patch_6">
    <path d="M 69.12 2.88 
L 410.792727 2.88 
" style="fill: none; stroke: #ffffff; stroke-linejoin: miter; stroke-linecap: square"/>
   </g>
   <g id="legend_1">
    <g id="line2d_39">
     <path d="M 346.092727 15.88 
L 356.092727 15.88 
L 366.092727 15.88 
" style="fill: none; stroke: #ff0000; stroke-width: 2"/>
    </g>
    <g id="text_19">
     <!-- $\mathrm{up}(x)$ -->
     <g style="fill: #262626" transform="translate(374.092727 19.38) scale(0.1 -0.1)">
      <defs>
       <path id="Cmr10-75" d="M 691 763 
L 691 2175 
Q 691 2347 639 2423 
Q 588 2500 491 2517 
Q 394 2534 191 2534 
L 191 2759 
L 1159 2828 
L 1159 763 
Q 1159 513 1195 373 
Q 1231 234 1348 165 
Q 1466 97 1722 97 
Q 2066 97 2269 384 
Q 2472 672 2472 1038 
L 2472 2175 
Q 2472 2347 2419 2423 
Q 2366 2500 2270 2517 
Q 2175 2534 1972 2534 
L 1972 2759 
L 2938 2828 
L 2938 581 
Q 2938 413 2989 336 
Q 3041 259 3137 242 
Q 3234 225 3438 225 
L 3438 0 
L 2491 -72 
L 2491 469 
Q 2372 228 2159 78 
Q 1947 -72 1691 -72 
Q 1231 -72 961 123 
Q 691 319 691 763 
z
" transform="scale(0.015625)"/>
       <path id="Cmr10-70" d="M 166 -1241 
L 166 -1019 
Q 384 -1019 525 -981 
Q 666 -944 666 -813 
L 666 2272 
Q 666 2447 541 2490 
Q 416 2534 166 2534 
L 166 2759 
L 1113 2828 
L 1113 2431 
Q 1288 2625 1520 2726 
Q 1753 2828 2016 2828 
Q 2394 2828 2697 2623 
Q 3000 2419 3170 2086 
Q 3341 1753 3341 1381 
Q 3341 994 3152 659 
Q 2963 325 2636 126 
Q 2309 -72 1919 -72 
Q 1453 -72 1131 306 
L 1131 -813 
Q 1131 -944 1273 -981 
Q 1416 -1019 1631 -1019 
L 1631 -1241 
L 166 -1241 
z
M 1131 622 
Q 1244 394 1444 245 
Q 1644 97 1881 97 
Q 2103 97 2273 215 
Q 2444 334 2559 534 
Q 2675 734 2729 954 
Q 2784 1175 2784 1381 
Q 2784 1638 2692 1936 
Q 2600 2234 2411 2439 
Q 2222 2644 1953 2644 
Q 1694 2644 1476 2511 
Q 1259 2378 1131 2150 
L 1131 622 
z
" transform="scale(0.015625)"/>
       <path id="Cmr10-28" d="M 1984 -1588 
Q 1628 -1306 1370 -942 
Q 1113 -578 948 -165 
Q 784 247 703 697 
Q 622 1147 622 1600 
Q 622 2059 703 2509 
Q 784 2959 951 3375 
Q 1119 3791 1378 4153 
Q 1638 4516 1984 4788 
Q 1984 4800 2016 4800 
L 2075 4800 
Q 2094 4800 2109 4783 
Q 2125 4766 2125 4744 
Q 2125 4716 2113 4703 
Q 1800 4397 1592 4047 
Q 1384 3697 1257 3301 
Q 1131 2906 1075 2482 
Q 1019 2059 1019 1600 
Q 1019 -434 2106 -1491 
Q 2125 -1509 2125 -1544 
Q 2125 -1559 2108 -1579 
Q 2091 -1600 2075 -1600 
L 2016 -1600 
Q 1984 -1600 1984 -1588 
z
" transform="scale(0.015625)"/>
       <path id="Cmmi10-78" d="M 500 184 
Q 613 97 819 97 
Q 1019 97 1172 289 
Q 1325 481 1381 709 
L 1672 1844 
Q 1741 2153 1741 2266 
Q 1741 2425 1652 2544 
Q 1563 2663 1403 2663 
Q 1200 2663 1022 2536 
Q 844 2409 722 2214 
Q 600 2019 550 1819 
Q 538 1778 500 1778 
L 422 1778 
Q 372 1778 372 1838 
L 372 1856 
Q 434 2094 584 2320 
Q 734 2547 951 2687 
Q 1169 2828 1416 2828 
Q 1650 2828 1839 2703 
Q 2028 2578 2106 2363 
Q 2216 2559 2386 2693 
Q 2556 2828 2759 2828 
Q 2897 2828 3040 2779 
Q 3184 2731 3275 2631 
Q 3366 2531 3366 2381 
Q 3366 2219 3261 2101 
Q 3156 1984 2994 1984 
Q 2891 1984 2822 2050 
Q 2753 2116 2753 2216 
Q 2753 2350 2845 2451 
Q 2938 2553 3066 2572 
Q 2950 2663 2747 2663 
Q 2541 2663 2389 2472 
Q 2238 2281 2175 2047 
L 1894 916 
Q 1825 659 1825 494 
Q 1825 331 1917 214 
Q 2009 97 2163 97 
Q 2463 97 2698 361 
Q 2934 625 3009 941 
Q 3022 978 3059 978 
L 3138 978 
Q 3163 978 3178 961 
Q 3194 944 3194 922 
Q 3194 916 3188 903 
Q 3097 522 2806 225 
Q 2516 -72 2150 -72 
Q 1916 -72 1727 54 
Q 1538 181 1459 397 
Q 1359 209 1182 68 
Q 1006 -72 806 -72 
Q 669 -72 523 -23 
Q 378 25 287 125 
Q 197 225 197 378 
Q 197 528 301 651 
Q 406 775 563 775 
Q 669 775 741 711 
Q 813 647 813 544 
Q 813 409 723 309 
Q 634 209 500 184 
z
" transform="scale(0.015625)"/>
       <path id="Cmr10-29" d="M 416 -1600 
Q 359 -1600 359 -1544 
Q 359 -1516 372 -1503 
Q 1466 -434 1466 1600 
Q 1466 3634 384 4691 
Q 359 4706 359 4744 
Q 359 4766 376 4783 
Q 394 4800 416 4800 
L 475 4800 
Q 494 4800 506 4788 
Q 966 4425 1272 3906 
Q 1578 3388 1720 2800 
Q 1863 2213 1863 1600 
Q 1863 1147 1786 708 
Q 1709 269 1542 -157 
Q 1375 -584 1119 -945 
Q 863 -1306 506 -1588 
Q 494 -1600 475 -1600 
L 416 -1600 
z
" transform="scale(0.015625)"/>
      </defs>
      <use xlink:href="#Cmr10-75"/>
      <use xlink:href="#Cmr10-70" transform="translate(55.517578 0)"/>
      <use xlink:href="#Cmr10-28" transform="translate(111.035156 0)"/>
      <use xlink:href="#Cmmi10-78" transform="translate(149.853516 0)"/>
      <use xlink:href="#Cmr10-29" transform="translate(206.933594 0)"/>
     </g>
    </g>
    <g id="line2d_40">
     <path d="M 346.092727 31.28 
L 356.092727 31.28 
L 366.092727 31.28 
" style="fill: none; stroke: #0000ff; stroke-width: 2"/>
    </g>
    <g id="text_20">
     <!-- $\mathrm{up'}(x)$ -->
     <g style="fill: #262626" transform="translate(374.092727 34.78) scale(0.1 -0.1)">
      <defs>
       <path id="Cmsy10-30" d="M 225 347 
Q 184 359 184 409 
L 966 3316 
Q 1003 3434 1093 3506 
Q 1184 3578 1300 3578 
Q 1450 3578 1564 3479 
Q 1678 3381 1678 3231 
Q 1678 3166 1644 3084 
L 488 319 
Q 466 275 428 275 
Q 394 275 320 306 
Q 247 338 225 347 
z
" transform="scale(0.015625)"/>
      </defs>
      <use xlink:href="#Cmr10-75" transform="translate(0 0.715625)"/>
      <use xlink:href="#Cmr10-70" transform="translate(55.517578 0.715625)"/>
      <use xlink:href="#Cmsy10-30" transform="translate(115.602656 39.865625) scale(0.7)"/>
      <use xlink:href="#Cmr10-28" transform="translate(141.37082 0.715625)"/>
      <use xlink:href="#Cmmi10-78" transform="translate(180.18918 0.715625)"/>
      <use xlink:href="#Cmr10-29" transform="translate(237.269258 0.715625)"/>
     </g>
    </g>
   </g>
  </g>
  <g id="axes_2">
   <g id="patch_7">
    <path d="M 479.127273 267.84 
L 820.8 267.84 
L 820.8 2.88 
L 479.127273 2.88 
z
" style="fill: #e5e5e5"/>
   </g>
   <g id="matplotlib.axis_3">
    <g id="xtick_10">
     <g id="line2d_41">
      <path d="M 494.657851 267.84 
L 494.657851 2.88 
" clip-path="url(#p73138c1aee)" style="fill: none; stroke: #ffffff; stroke-width: 0.5"/>
     </g>
     <g id="line2d_42"/>
     <g id="text_21">
      <!-- −1.00 -->
      <g style="fill: #555555" transform="translate(482.00707 278.497813) scale(0.1 -0.1)">
       <use xlink:href="#ArialMT-2212"/>
       <use xlink:href="#ArialMT-31" x="58.398438"/>
       <use xlink:href="#ArialMT-2e" x="114.013672"/>
       <use xlink:href="#ArialMT-30" x="141.796875"/>
       <use xlink:href="#ArialMT-30" x="197.412109"/>
      </g>
     </g>
    </g>
    <g id="xtick_11">
     <g id="line2d_43">
      <path d="M 533.484298 267.84 
L 533.484298 2.88 
" clip-path="url(#p73138c1aee)" style="fill: none; stroke: #ffffff; stroke-width: 0.5"/>
     </g>
     <g id="line2d_44"/>
     <g id="text_22">
      <!-- −0.75 -->
      <g style="fill: #555555" transform="translate(520.833516 278.497813) scale(0.1 -0.1)">
       <use xlink:href="#ArialMT-2212"/>
       <use xlink:href="#ArialMT-30" x="58.398438"/>
       <use xlink:href="#ArialMT-2e" x="114.013672"/>
       <use xlink:href="#ArialMT-37" x="141.796875"/>
       <use xlink:href="#ArialMT-35" x="197.412109"/>
      </g>
     </g>
    </g>
    <g id="xtick_12">
     <g id="line2d_45">
      <path d="M 572.310744 267.84 
L 572.310744 2.88 
" clip-path="url(#p73138c1aee)" style="fill: none; stroke: #ffffff; stroke-width: 0.5"/>
     </g>
     <g id="line2d_46"/>
     <g id="text_23">
      <!-- −0.50 -->
      <g style="fill: #555555" transform="translate(559.659963 278.497813) scale(0.1 -0.1)">
       <use xlink:href="#ArialMT-2212"/>
       <use xlink:href="#ArialMT-30" x="58.398438"/>
       <use xlink:href="#ArialMT-2e" x="114.013672"/>
       <use xlink:href="#ArialMT-35" x="141.796875"/>
       <use xlink:href="#ArialMT-30" x="197.412109"/>
      </g>
     </g>
    </g>
    <g id="xtick_13">
     <g id="line2d_47">
      <path d="M 611.13719 267.84 
L 611.13719 2.88 
" clip-path="url(#p73138c1aee)" style="fill: none; stroke: #ffffff; stroke-width: 0.5"/>
     </g>
     <g id="line2d_48"/>
     <g id="text_24">
      <!-- −0.25 -->
      <g style="fill: #555555" transform="translate(598.486409 278.497813) scale(0.1 -0.1)">
       <use xlink:href="#ArialMT-2212"/>
       <use xlink:href="#ArialMT-30" x="58.398438"/>
       <use xlink:href="#ArialMT-2e" x="114.013672"/>
       <use xlink:href="#ArialMT-32" x="141.796875"/>
       <use xlink:href="#ArialMT-35" x="197.412109"/>
      </g>
     </g>
    </g>
    <g id="xtick_14">
     <g id="line2d_49">
      <path d="M 649.963636 267.84 
L 649.963636 2.88 
" clip-path="url(#p73138c1aee)" style="fill: none; stroke: #ffffff; stroke-width: 0.5"/>
     </g>
     <g id="line2d_50"/>
     <g id="text_25">
      <!-- 0.00 -->
      <g style="fill: #555555" transform="translate(640.233168 278.497813) scale(0.1 -0.1)">
       <use xlink:href="#ArialMT-30"/>
       <use xlink:href="#ArialMT-2e" x="55.615234"/>
       <use xlink:href="#ArialMT-30" x="83.398438"/>
       <use xlink:href="#ArialMT-30" x="139.013672"/>
      </g>
     </g>
    </g>
    <g id="xtick_15">
     <g id="line2d_51">
      <path d="M 688.790083 267.84 
L 688.790083 2.88 
" clip-path="url(#p73138c1aee)" style="fill: none; stroke: #ffffff; stroke-width: 0.5"/>
     </g>
     <g id="line2d_52"/>
     <g id="text_26">
      <!-- 0.25 -->
      <g style="fill: #555555" transform="translate(679.059614 278.497813) scale(0.1 -0.1)">
       <use xlink:href="#ArialMT-30"/>
       <use xlink:href="#ArialMT-2e" x="55.615234"/>
       <use xlink:href="#ArialMT-32" x="83.398438"/>
       <use xlink:href="#ArialMT-35" x="139.013672"/>
      </g>
     </g>
    </g>
    <g id="xtick_16">
     <g id="line2d_53">
      <path d="M 727.616529 267.84 
L 727.616529 2.88 
" clip-path="url(#p73138c1aee)" style="fill: none; stroke: #ffffff; stroke-width: 0.5"/>
     </g>
     <g id="line2d_54"/>
     <g id="text_27">
      <!-- 0.50 -->
      <g style="fill: #555555" transform="translate(717.88606 278.497813) scale(0.1 -0.1)">
       <use xlink:href="#ArialMT-30"/>
       <use xlink:href="#ArialMT-2e" x="55.615234"/>
       <use xlink:href="#ArialMT-35" x="83.398438"/>
       <use xlink:href="#ArialMT-30" x="139.013672"/>
      </g>
     </g>
    </g>
    <g id="xtick_17">
     <g id="line2d_55">
      <path d="M 766.442975 267.84 
L 766.442975 2.88 
" clip-path="url(#p73138c1aee)" style="fill: none; stroke: #ffffff; stroke-width: 0.5"/>
     </g>
     <g id="line2d_56"/>
     <g id="text_28">
      <!-- 0.75 -->
      <g style="fill: #555555" transform="translate(756.712506 278.497813) scale(0.1 -0.1)">
       <use xlink:href="#ArialMT-30"/>
       <use xlink:href="#ArialMT-2e" x="55.615234"/>
       <use xlink:href="#ArialMT-37" x="83.398438"/>
       <use xlink:href="#ArialMT-35" x="139.013672"/>
      </g>
     </g>
    </g>
    <g id="xtick_18">
     <g id="line2d_57">
      <path d="M 805.269421 267.84 
L 805.269421 2.88 
" clip-path="url(#p73138c1aee)" style="fill: none; stroke: #ffffff; stroke-width: 0.5"/>
     </g>
     <g id="line2d_58"/>
     <g id="text_29">
      <!-- 1.00 -->
      <g style="fill: #555555" transform="translate(795.538953 278.497813) scale(0.1 -0.1)">
       <use xlink:href="#ArialMT-31"/>
       <use xlink:href="#ArialMT-2e" x="55.615234"/>
       <use xlink:href="#ArialMT-30" x="83.398438"/>
       <use xlink:href="#ArialMT-30" x="139.013672"/>
      </g>
     </g>
    </g>
   </g>
   <g id="matplotlib.axis_4">
    <g id="ytick_10">
     <g id="line2d_59">
      <path d="M 479.127273 255.716705 
L 820.8 255.716705 
" clip-path="url(#p73138c1aee)" style="fill: none; stroke: #ffffff; stroke-width: 0.5"/>
     </g>
     <g id="line2d_60"/>
     <g id="text_30">
      <!-- −2.0 -->
      <g style="fill: #555555" transform="translate(455.886648 259.295611) scale(0.1 -0.1)">
       <use xlink:href="#ArialMT-2212"/>
       <use xlink:href="#ArialMT-32" x="58.398438"/>
       <use xlink:href="#ArialMT-2e" x="114.013672"/>
       <use xlink:href="#ArialMT-30" x="141.796875"/>
      </g>
     </g>
    </g>
    <g id="ytick_11">
     <g id="line2d_61">
      <path d="M 479.127273 225.627529 
L 820.8 225.627529 
" clip-path="url(#p73138c1aee)" style="fill: none; stroke: #ffffff; stroke-width: 0.5"/>
     </g>
     <g id="line2d_62"/>
     <g id="text_31">
      <!-- −1.5 -->
      <g style="fill: #555555" transform="translate(455.886648 229.206435) scale(0.1 -0.1)">
       <use xlink:href="#ArialMT-2212"/>
       <use xlink:href="#ArialMT-31" x="58.398438"/>
       <use xlink:href="#ArialMT-2e" x="114.013672"/>
       <use xlink:href="#ArialMT-35" x="141.796875"/>
      </g>
     </g>
    </g>
    <g id="ytick_12">
     <g id="line2d_63">
      <path d="M 479.127273 195.538352 
L 820.8 195.538352 
" clip-path="url(#p73138c1aee)" style="fill: none; stroke: #ffffff; stroke-width: 0.5"/>
     </g>
     <g id="line2d_64"/>
     <g id="text_32">
      <!-- −1.0 -->
      <g style="fill: #555555" transform="translate(455.886648 199.117259) scale(0.1 -0.1)">
       <use xlink:href="#ArialMT-2212"/>
       <use xlink:href="#ArialMT-31" x="58.398438"/>
       <use xlink:href="#ArialMT-2e" x="114.013672"/>
       <use xlink:href="#ArialMT-30" x="141.796875"/>
      </g>
     </g>
    </g>
    <g id="ytick_13">
     <g id="line2d_65">
      <path d="M 479.127273 165.449176 
L 820.8 165.449176 
" clip-path="url(#p73138c1aee)" style="fill: none; stroke: #ffffff; stroke-width: 0.5"/>
     </g>
     <g id="line2d_66"/>
     <g id="text_33">
      <!-- −0.5 -->
      <g style="fill: #555555" transform="translate(455.886648 169.028082) scale(0.1 -0.1)">
       <use xlink:href="#ArialMT-2212"/>
       <use xlink:href="#ArialMT-30" x="58.398438"/>
       <use xlink:href="#ArialMT-2e" x="114.013672"/>
       <use xlink:href="#ArialMT-35" x="141.796875"/>
      </g>
     </g>
    </g>
    <g id="ytick_14">
     <g id="line2d_67">
      <path d="M 479.127273 135.36 
L 820.8 135.36 
" clip-path="url(#p73138c1aee)" style="fill: none; stroke: #ffffff; stroke-width: 0.5"/>
     </g>
     <g id="line2d_68"/>
     <g id="text_34">
      <!-- 0.0 -->
      <g style="fill: #555555" transform="translate(461.727273 138.938906) scale(0.1 -0.1)">
       <use xlink:href="#ArialMT-30"/>
       <use xlink:href="#ArialMT-2e" x="55.615234"/>
       <use xlink:href="#ArialMT-30" x="83.398438"/>
      </g>
     </g>
    </g>
    <g id="ytick_15">
     <g id="line2d_69">
      <path d="M 479.127273 105.270824 
L 820.8 105.270824 
" clip-path="url(#p73138c1aee)" style="fill: none; stroke: #ffffff; stroke-width: 0.5"/>
     </g>
     <g id="line2d_70"/>
     <g id="text_35">
      <!-- 0.5 -->
      <g style="fill: #555555" transform="translate(461.727273 108.84973) scale(0.1 -0.1)">
       <use xlink:href="#ArialMT-30"/>
       <use xlink:href="#ArialMT-2e" x="55.615234"/>
       <use xlink:href="#ArialMT-35" x="83.398438"/>
      </g>
     </g>
    </g>
    <g id="ytick_16">
     <g id="line2d_71">
      <path d="M 479.127273 75.181648 
L 820.8 75.181648 
" clip-path="url(#p73138c1aee)" style="fill: none; stroke: #ffffff; stroke-width: 0.5"/>
     </g>
     <g id="line2d_72"/>
     <g id="text_36">
      <!-- 1.0 -->
      <g style="fill: #555555" transform="translate(461.727273 78.760554) scale(0.1 -0.1)">
       <use xlink:href="#ArialMT-31"/>
       <use xlink:href="#ArialMT-2e" x="55.615234"/>
       <use xlink:href="#ArialMT-30" x="83.398438"/>
      </g>
     </g>
    </g>
    <g id="ytick_17">
     <g id="line2d_73">
      <path d="M 479.127273 45.092471 
L 820.8 45.092471 
" clip-path="url(#p73138c1aee)" style="fill: none; stroke: #ffffff; stroke-width: 0.5"/>
     </g>
     <g id="line2d_74"/>
     <g id="text_37">
      <!-- 1.5 -->
      <g style="fill: #555555" transform="translate(461.727273 48.671378) scale(0.1 -0.1)">
       <use xlink:href="#ArialMT-31"/>
       <use xlink:href="#ArialMT-2e" x="55.615234"/>
       <use xlink:href="#ArialMT-35" x="83.398438"/>
      </g>
     </g>
    </g>
    <g id="ytick_18">
     <g id="line2d_75">
      <path d="M 479.127273 15.003295 
L 820.8 15.003295 
" clip-path="url(#p73138c1aee)" style="fill: none; stroke: #ffffff; stroke-width: 0.5"/>
     </g>
     <g id="line2d_76"/>
     <g id="text_38">
      <!-- 2.0 -->
      <g style="fill: #555555" transform="translate(461.727273 18.582201) scale(0.1 -0.1)">
       <use xlink:href="#ArialMT-32"/>
       <use xlink:href="#ArialMT-2e" x="55.615234"/>
       <use xlink:href="#ArialMT-30" x="83.398438"/>
      </g>
     </g>
    </g>
   </g>
   <g id="line2d_77">
    <path d="M 494.657851 135.360905 
L 502.741836 134.386238 
L 511.447666 131.143504 
L 520.464418 125.390584 
L 529.48117 119.597024 
L 537.876078 116.393913 
L 545.960063 115.300574 
L 554.35497 114.366588 
L 563.0608 111.163895 
L 572.077552 105.45158 
L 581.405227 99.457534 
L 589.489212 96.374674 
L 597.573196 95.241428 
L 606.279026 94.267456 
L 614.984856 91.024579 
L 624.001608 85.271623 
L 633.018361 79.478119 
L 641.413268 76.275068 
L 649.497253 75.181328 
L 657.89216 76.115837 
L 666.59799 79.318314 
L 675.614742 85.030533 
L 684.942417 91.024579 
L 693.026402 94.107549 
L 701.110386 95.240803 
L 709.816216 96.214648 
L 718.522046 99.457534 
L 727.538798 105.210564 
L 736.555551 111.004179 
L 744.950458 114.207193 
L 753.034443 115.30046 
L 761.42935 116.234617 
L 770.13518 119.437259 
L 779.151932 125.149488 
L 788.479607 131.143504 
L 796.563592 134.226426 
L 804.958499 135.360651 
L 805.269421 135.360905 
L 805.269421 135.360905 
" clip-path="url(#p73138c1aee)" style="fill: none; stroke: #ff0000; stroke-width: 2"/>
   </g>
   <g id="line2d_78">
    <path d="M 494.657851 135.36 
L 496.212464 132.931959 
L 497.767076 124.975468 
L 502.430914 96.135517 
L 505.229216 91.447763 
L 507.094751 79.420008 
L 510.825821 56.380404 
L 514.245968 49.513706 
L 516.733348 30.729055 
L 519.531651 16.034122 
L 520.775341 14.974327 
L 521.086263 15.235344 
L 522.329953 18.324609 
L 524.195488 29.441105 
L 527.926558 53.46867 
L 531.96855 63.428974 
L 537.565155 95.0192 
L 539.119768 97.073756 
L 540.67438 103.981284 
L 545.960063 135.17551 
L 546.89283 135.202857 
L 548.13652 132.349574 
L 550.002055 121.533052 
L 554.044047 96.425171 
L 557.464195 89.268789 
L 564.30449 54.536373 
L 565.54818 51.598046 
L 567.413715 39.969077 
L 571.144784 16.358432 
L 572.699397 15.112701 
L 573.943087 17.723342 
L 575.808622 28.243665 
L 579.850614 53.783846 
L 583.270762 60.665645 
L 586.069064 81.888861 
L 588.556444 94.10458 
L 591.665669 99.728766 
L 593.531204 112.346253 
L 596.951351 133.811076 
L 598.505964 135.305684 
L 599.749654 132.889061 
L 601.615189 122.714991 
L 605.968104 96.149288 
L 608.766406 91.475558 
L 610.631941 79.400582 
L 614.363011 56.381136 
L 617.783158 49.520592 
L 620.270538 30.712488 
L 623.068841 16.017296 
L 624.312531 14.98226 
L 625.556221 17.256797 
L 627.421756 27.029355 
L 631.774671 54.119266 
L 634.883895 59.942677 
L 637.371275 78.122995 
L 640.169578 93.783959 
L 643.900648 102.094673 
L 650.119098 135.485642 
L 651.362788 137.351942 
L 652.9174 144.663151 
L 658.203082 175.139799 
L 660.068617 177.691501 
L 661.62323 185.302143 
L 666.59799 215.027392 
L 668.774447 218.069593 
L 670.32906 225.927058 
L 675.30382 255.468855 
L 676.236587 255.641644 
L 676.547509 255.275326 
L 678.102122 250.392524 
L 680.278579 234.685518 
L 683.076882 217.642755 
L 685.564262 214.338864 
L 686.807952 210.019131 
L 689.606254 188.807751 
L 692.093634 176.633569 
L 695.202859 171.0099 
L 697.379317 155.713914 
L 700.488541 136.92912 
L 702.043154 135.394462 
L 703.286844 137.830523 
L 705.152379 147.985781 
L 709.505294 174.568574 
L 712.614519 180.636779 
L 715.101899 199.102978 
L 717.900201 214.306246 
L 721.320348 221.162344 
L 723.807728 239.991452 
L 726.606031 254.711937 
L 727.849721 255.706355 
L 728.160643 255.458571 
L 729.404333 252.434003 
L 731.269868 241.252793 
L 735.000938 217.268222 
L 739.042931 207.317211 
L 744.639535 175.730136 
L 746.194148 173.617329 
L 747.74876 166.767249 
L 753.034443 135.517143 
L 753.96721 135.54449 
L 755.2109 138.360381 
L 757.076435 149.213878 
L 761.118428 174.307424 
L 764.538575 181.443433 
L 767.958722 207.291026 
L 770.13518 215.010513 
L 772.311637 218.087499 
L 773.86625 225.908833 
L 778.84101 255.484656 
L 779.773777 255.629218 
L 780.0847 255.257574 
L 781.639312 250.409768 
L 783.815769 234.671632 
L 786.614072 217.623143 
L 788.790529 214.838375 
L 790.034219 211.48371 
L 792.210677 196.548231 
L 795.319902 177.286598 
L 799.361894 167.691802 
L 805.269421 135.36 
L 805.269421 135.36 
" clip-path="url(#p73138c1aee)" style="fill: none; stroke: #0000ff; stroke-width: 2"/>
   </g>
   <g id="patch_8">
    <path d="M 479.127273 267.84 
L 479.127273 2.88 
" style="fill: none; stroke: #ffffff; stroke-linejoin: miter; stroke-linecap: square"/>
   </g>
   <g id="patch_9">
    <path d="M 820.8 267.84 
L 820.8 2.88 
" style="fill: none; stroke: #ffffff; stroke-linejoin: miter; stroke-linecap: square"/>
   </g>
   <g id="patch_10">
    <path d="M 479.127273 267.84 
L 820.8 267.84 
" style="fill: none; stroke: #ffffff; stroke-linejoin: miter; stroke-linecap: square"/>
   </g>
   <g id="patch_11">
    <path d="M 479.127273 2.88 
L 820.8 2.88 
" style="fill: none; stroke: #ffffff; stroke-linejoin: miter; stroke-linecap: square"/>
   </g>
   <g id="legend_2">
    <g id="line2d_79">
     <path d="M 751.5 15.88 
L 761.5 15.88 
L 771.5 15.88 
" style="fill: none; stroke: #ff0000; stroke-width: 2"/>
    </g>
    <g id="text_39">
     <!-- $\mathrm{up_3}(x)$ -->
     <g style="fill: #262626" transform="translate(779.5 19.38) scale(0.1 -0.1)">
      <defs>
       <path id="Cmr10-33" d="M 609 494 
Q 759 275 1012 169 
Q 1266 63 1556 63 
Q 1928 63 2084 380 
Q 2241 697 2241 1100 
Q 2241 1281 2208 1462 
Q 2175 1644 2097 1800 
Q 2019 1956 1883 2050 
Q 1747 2144 1550 2144 
L 1125 2144 
Q 1069 2144 1069 2203 
L 1069 2259 
Q 1069 2309 1125 2309 
L 1478 2338 
Q 1703 2338 1851 2506 
Q 2000 2675 2069 2917 
Q 2138 3159 2138 3378 
Q 2138 3684 1994 3881 
Q 1850 4078 1556 4078 
Q 1313 4078 1091 3986 
Q 869 3894 738 3706 
Q 750 3709 759 3711 
Q 769 3713 781 3713 
Q 925 3713 1022 3613 
Q 1119 3513 1119 3372 
Q 1119 3234 1022 3134 
Q 925 3034 781 3034 
Q 641 3034 541 3134 
Q 441 3234 441 3372 
Q 441 3647 606 3850 
Q 772 4053 1033 4158 
Q 1294 4263 1556 4263 
Q 1750 4263 1965 4205 
Q 2181 4147 2356 4039 
Q 2531 3931 2642 3762 
Q 2753 3594 2753 3378 
Q 2753 3109 2633 2881 
Q 2513 2653 2303 2487 
Q 2094 2322 1844 2241 
Q 2122 2188 2372 2031 
Q 2622 1875 2773 1631 
Q 2925 1388 2925 1106 
Q 2925 753 2731 467 
Q 2538 181 2222 20 
Q 1906 -141 1556 -141 
Q 1256 -141 954 -26 
Q 653 88 461 316 
Q 269 544 269 863 
Q 269 1022 375 1128 
Q 481 1234 641 1234 
Q 744 1234 830 1186 
Q 916 1138 964 1050 
Q 1013 963 1013 863 
Q 1013 706 903 600 
Q 794 494 641 494 
L 609 494 
z
" transform="scale(0.015625)"/>
      </defs>
      <use xlink:href="#Cmr10-75"/>
      <use xlink:href="#Cmr10-70" transform="translate(55.517578 0)"/>
      <use xlink:href="#Cmr10-33" transform="translate(115.602656 -17.4) scale(0.7)"/>
      <use xlink:href="#Cmr10-28" transform="translate(157.127656 0)"/>
      <use xlink:href="#Cmmi10-78" transform="translate(195.946016 0)"/>
      <use xlink:href="#Cmr10-29" transform="translate(253.026094 0)"/>
     </g>
    </g>
    <g id="line2d_80">
     <path d="M 751.5 31.28 
L 761.5 31.28 
L 771.5 31.28 
" style="fill: none; stroke: #0000ff; stroke-width: 2"/>
    </g>
    <g id="text_40">
     <!-- $\mathrm{up'_3}(x)$ -->
     <g style="fill: #262626" transform="translate(779.5 34.78) scale(0.1 -0.1)">
      <use xlink:href="#Cmr10-75" transform="translate(0 0.715625)"/>
      <use xlink:href="#Cmr10-70" transform="translate(55.517578 0.715625)"/>
      <use xlink:href="#Cmsy10-30" transform="translate(115.602656 39.865625) scale(0.7)"/>
      <use xlink:href="#Cmr10-33" transform="translate(145.93832 -16.684375) scale(0.7)"/>
      <use xlink:href="#Cmr10-28" transform="translate(187.46332 0.715625)"/>
      <use xlink:href="#Cmmi10-78" transform="translate(226.28168 0.715625)"/>
      <use xlink:href="#Cmr10-29" transform="translate(283.361758 0.715625)"/>
     </g>
    </g>
   </g>
  </g>
 </g>
 <defs>
  <clipPath id="peb207bb5d7">
   <rect x="69.12" y="2.88" width="341.672727" height="264.96"/>
  </clipPath>
  <clipPath id="p73138c1aee">
   <rect x="479.127273" y="2.88" width="341.672727" height="264.96"/>
  </clipPath>
 </defs>
</svg>
