<?xml version="1.0" encoding="utf-8" standalone="no"?>
<!DOCTYPE svg PUBLIC "-//W3C//DTD SVG 1.1//EN"
  "http://www.w3.org/Graphics/SVG/1.1/DTD/svg11.dtd">
<svg xmlns:xlink="http://www.w3.org/1999/xlink" width="864pt" height="288pt" viewBox="0 0 864 288" xmlns="http://www.w3.org/2000/svg" version="1.1">
 <metadata>
  <rdf:RDF xmlns:dc="http://purl.org/dc/elements/1.1/" xmlns:cc="http://creativecommons.org/ns#" xmlns:rdf="http://www.w3.org/1999/02/22-rdf-syntax-ns#">
   <cc:Work>
    <dc:type rdf:resource="http://purl.org/dc/dcmitype/StillImage"/>
    <dc:date>2023-07-29T17:07:11.655780</dc:date>
    <dc:format>image/svg+xml</dc:format>
    <dc:creator>
     <cc:Agent>
      <dc:title>Matplotlib v3.7.1, https://matplotlib.org/</dc:title>
     </cc:Agent>
    </dc:creator>
   </cc:Work>
  </rdf:RDF>
 </metadata>
 <defs>
  <style type="text/css">*{stroke-linejoin: round; stroke-linecap: butt}</style>
 </defs>
 <g id="figure_1">
  <g id="patch_1">
   <path d="M 0 288 
L 864 288 
L 864 0 
L 0 0 
z
" style="fill: #f0f0f0"/>
  </g>
  <g id="axes_1">
   <g id="patch_2">
    <path d="M 69.12 267.84 
L 410.792727 267.84 
L 410.792727 43.2 
L 69.12 43.2 
z
" style="fill: #e5e5e5"/>
   </g>
   <g id="matplotlib.axis_1">
    <g id="xtick_1">
     <g id="line2d_1">
      <path d="M 84.650579 267.84 
L 84.650579 43.2 
" clip-path="url(#p783164b5a1)" style="fill: none; stroke: #ffffff; stroke-width: 0.5"/>
     </g>
     <g id="line2d_2"/>
     <g id="text_1">
      <!-- −1.00 -->
      <g style="fill: #555555" transform="translate(71.999797 278.497813) scale(0.1 -0.1)">
       <defs>
        <path id="ArialMT-2212" d="M 3381 1997 
L 356 1997 
L 356 2522 
L 3381 2522 
L 3381 1997 
z
" transform="scale(0.015625)"/>
        <path id="ArialMT-31" d="M 2384 0 
L 1822 0 
L 1822 3584 
Q 1619 3391 1289 3197 
Q 959 3003 697 2906 
L 697 3450 
Q 1169 3672 1522 3987 
Q 1875 4303 2022 4600 
L 2384 4600 
L 2384 0 
z
" transform="scale(0.015625)"/>
        <path id="ArialMT-2e" d="M 581 0 
L 581 641 
L 1222 641 
L 1222 0 
L 581 0 
z
" transform="scale(0.015625)"/>
        <path id="ArialMT-30" d="M 266 2259 
Q 266 3072 433 3567 
Q 600 4063 929 4331 
Q 1259 4600 1759 4600 
Q 2128 4600 2406 4451 
Q 2684 4303 2865 4023 
Q 3047 3744 3150 3342 
Q 3253 2941 3253 2259 
Q 3253 1453 3087 958 
Q 2922 463 2592 192 
Q 2263 -78 1759 -78 
Q 1097 -78 719 397 
Q 266 969 266 2259 
z
M 844 2259 
Q 844 1131 1108 757 
Q 1372 384 1759 384 
Q 2147 384 2411 759 
Q 2675 1134 2675 2259 
Q 2675 3391 2411 3762 
Q 2147 4134 1753 4134 
Q 1366 4134 1134 3806 
Q 844 3388 844 2259 
z
" transform="scale(0.015625)"/>
       </defs>
       <use xlink:href="#ArialMT-2212"/>
       <use xlink:href="#ArialMT-31" x="58.398438"/>
       <use xlink:href="#ArialMT-2e" x="114.013672"/>
       <use xlink:href="#ArialMT-30" x="141.796875"/>
       <use xlink:href="#ArialMT-30" x="197.412109"/>
      </g>
     </g>
    </g>
    <g id="xtick_2">
     <g id="line2d_3">
      <path d="M 123.477025 267.84 
L 123.477025 43.2 
" clip-path="url(#p783164b5a1)" style="fill: none; stroke: #ffffff; stroke-width: 0.5"/>
     </g>
     <g id="line2d_4"/>
     <g id="text_2">
      <!-- −0.75 -->
      <g style="fill: #555555" transform="translate(110.826244 278.497813) scale(0.1 -0.1)">
       <defs>
        <path id="ArialMT-37" d="M 303 3981 
L 303 4522 
L 3269 4522 
L 3269 4084 
Q 2831 3619 2401 2847 
Q 1972 2075 1738 1259 
Q 1569 684 1522 0 
L 944 0 
Q 953 541 1156 1306 
Q 1359 2072 1739 2783 
Q 2119 3494 2547 3981 
L 303 3981 
z
" transform="scale(0.015625)"/>
        <path id="ArialMT-35" d="M 266 1200 
L 856 1250 
Q 922 819 1161 601 
Q 1400 384 1738 384 
Q 2144 384 2425 690 
Q 2706 997 2706 1503 
Q 2706 1984 2436 2262 
Q 2166 2541 1728 2541 
Q 1456 2541 1237 2417 
Q 1019 2294 894 2097 
L 366 2166 
L 809 4519 
L 3088 4519 
L 3088 3981 
L 1259 3981 
L 1013 2750 
Q 1425 3038 1878 3038 
Q 2478 3038 2890 2622 
Q 3303 2206 3303 1553 
Q 3303 931 2941 478 
Q 2500 -78 1738 -78 
Q 1113 -78 717 272 
Q 322 622 266 1200 
z
" transform="scale(0.015625)"/>
       </defs>
       <use xlink:href="#ArialMT-2212"/>
       <use xlink:href="#ArialMT-30" x="58.398438"/>
       <use xlink:href="#ArialMT-2e" x="114.013672"/>
       <use xlink:href="#ArialMT-37" x="141.796875"/>
       <use xlink:href="#ArialMT-35" x="197.412109"/>
      </g>
     </g>
    </g>
    <g id="xtick_3">
     <g id="line2d_5">
      <path d="M 162.303471 267.84 
L 162.303471 43.2 
" clip-path="url(#p783164b5a1)" style="fill: none; stroke: #ffffff; stroke-width: 0.5"/>
     </g>
     <g id="line2d_6"/>
     <g id="text_3">
      <!-- −0.50 -->
      <g style="fill: #555555" transform="translate(149.65269 278.497813) scale(0.1 -0.1)">
       <use xlink:href="#ArialMT-2212"/>
       <use xlink:href="#ArialMT-30" x="58.398438"/>
       <use xlink:href="#ArialMT-2e" x="114.013672"/>
       <use xlink:href="#ArialMT-35" x="141.796875"/>
       <use xlink:href="#ArialMT-30" x="197.412109"/>
      </g>
     </g>
    </g>
    <g id="xtick_4">
     <g id="line2d_7">
      <path d="M 201.129917 267.84 
L 201.129917 43.2 
" clip-path="url(#p783164b5a1)" style="fill: none; stroke: #ffffff; stroke-width: 0.5"/>
     </g>
     <g id="line2d_8"/>
     <g id="text_4">
      <!-- −0.25 -->
      <g style="fill: #555555" transform="translate(188.479136 278.497813) scale(0.1 -0.1)">
       <defs>
        <path id="ArialMT-32" d="M 3222 541 
L 3222 0 
L 194 0 
Q 188 203 259 391 
Q 375 700 629 1000 
Q 884 1300 1366 1694 
Q 2113 2306 2375 2664 
Q 2638 3022 2638 3341 
Q 2638 3675 2398 3904 
Q 2159 4134 1775 4134 
Q 1369 4134 1125 3890 
Q 881 3647 878 3216 
L 300 3275 
Q 359 3922 746 4261 
Q 1134 4600 1788 4600 
Q 2447 4600 2831 4234 
Q 3216 3869 3216 3328 
Q 3216 3053 3103 2787 
Q 2991 2522 2730 2228 
Q 2469 1934 1863 1422 
Q 1356 997 1212 845 
Q 1069 694 975 541 
L 3222 541 
z
" transform="scale(0.015625)"/>
       </defs>
       <use xlink:href="#ArialMT-2212"/>
       <use xlink:href="#ArialMT-30" x="58.398438"/>
       <use xlink:href="#ArialMT-2e" x="114.013672"/>
       <use xlink:href="#ArialMT-32" x="141.796875"/>
       <use xlink:href="#ArialMT-35" x="197.412109"/>
      </g>
     </g>
    </g>
    <g id="xtick_5">
     <g id="line2d_9">
      <path d="M 239.956364 267.84 
L 239.956364 43.2 
" clip-path="url(#p783164b5a1)" style="fill: none; stroke: #ffffff; stroke-width: 0.5"/>
     </g>
     <g id="line2d_10"/>
     <g id="text_5">
      <!-- 0.00 -->
      <g style="fill: #555555" transform="translate(230.225895 278.497813) scale(0.1 -0.1)">
       <use xlink:href="#ArialMT-30"/>
       <use xlink:href="#ArialMT-2e" x="55.615234"/>
       <use xlink:href="#ArialMT-30" x="83.398438"/>
       <use xlink:href="#ArialMT-30" x="139.013672"/>
      </g>
     </g>
    </g>
    <g id="xtick_6">
     <g id="line2d_11">
      <path d="M 278.78281 267.84 
L 278.78281 43.2 
" clip-path="url(#p783164b5a1)" style="fill: none; stroke: #ffffff; stroke-width: 0.5"/>
     </g>
     <g id="line2d_12"/>
     <g id="text_6">
      <!-- 0.25 -->
      <g style="fill: #555555" transform="translate(269.052341 278.497813) scale(0.1 -0.1)">
       <use xlink:href="#ArialMT-30"/>
       <use xlink:href="#ArialMT-2e" x="55.615234"/>
       <use xlink:href="#ArialMT-32" x="83.398438"/>
       <use xlink:href="#ArialMT-35" x="139.013672"/>
      </g>
     </g>
    </g>
    <g id="xtick_7">
     <g id="line2d_13">
      <path d="M 317.609256 267.84 
L 317.609256 43.2 
" clip-path="url(#p783164b5a1)" style="fill: none; stroke: #ffffff; stroke-width: 0.5"/>
     </g>
     <g id="line2d_14"/>
     <g id="text_7">
      <!-- 0.50 -->
      <g style="fill: #555555" transform="translate(307.878787 278.497813) scale(0.1 -0.1)">
       <use xlink:href="#ArialMT-30"/>
       <use xlink:href="#ArialMT-2e" x="55.615234"/>
       <use xlink:href="#ArialMT-35" x="83.398438"/>
       <use xlink:href="#ArialMT-30" x="139.013672"/>
      </g>
     </g>
    </g>
    <g id="xtick_8">
     <g id="line2d_15">
      <path d="M 356.435702 267.84 
L 356.435702 43.2 
" clip-path="url(#p783164b5a1)" style="fill: none; stroke: #ffffff; stroke-width: 0.5"/>
     </g>
     <g id="line2d_16"/>
     <g id="text_8">
      <!-- 0.75 -->
      <g style="fill: #555555" transform="translate(346.705234 278.497813) scale(0.1 -0.1)">
       <use xlink:href="#ArialMT-30"/>
       <use xlink:href="#ArialMT-2e" x="55.615234"/>
       <use xlink:href="#ArialMT-37" x="83.398438"/>
       <use xlink:href="#ArialMT-35" x="139.013672"/>
      </g>
     </g>
    </g>
    <g id="xtick_9">
     <g id="line2d_17">
      <path d="M 395.262149 267.84 
L 395.262149 43.2 
" clip-path="url(#p783164b5a1)" style="fill: none; stroke: #ffffff; stroke-width: 0.5"/>
     </g>
     <g id="line2d_18"/>
     <g id="text_9">
      <!-- 1.00 -->
      <g style="fill: #555555" transform="translate(385.53168 278.497813) scale(0.1 -0.1)">
       <use xlink:href="#ArialMT-31"/>
       <use xlink:href="#ArialMT-2e" x="55.615234"/>
       <use xlink:href="#ArialMT-30" x="83.398438"/>
       <use xlink:href="#ArialMT-30" x="139.013672"/>
      </g>
     </g>
    </g>
   </g>
   <g id="matplotlib.axis_2">
    <g id="ytick_1">
     <g id="line2d_19">
      <path d="M 69.12 257.629087 
L 410.792727 257.629087 
" clip-path="url(#p783164b5a1)" style="fill: none; stroke: #ffffff; stroke-width: 0.5"/>
     </g>
     <g id="line2d_20"/>
     <g id="text_10">
      <!-- −2.0 -->
      <g style="fill: #555555" transform="translate(45.879375 261.207994) scale(0.1 -0.1)">
       <use xlink:href="#ArialMT-2212"/>
       <use xlink:href="#ArialMT-32" x="58.398438"/>
       <use xlink:href="#ArialMT-2e" x="114.013672"/>
       <use xlink:href="#ArialMT-30" x="141.796875"/>
      </g>
     </g>
    </g>
    <g id="ytick_2">
     <g id="line2d_21">
      <path d="M 69.12 232.101816 
L 410.792727 232.101816 
" clip-path="url(#p783164b5a1)" style="fill: none; stroke: #ffffff; stroke-width: 0.5"/>
     </g>
     <g id="line2d_22"/>
     <g id="text_11">
      <!-- −1.5 -->
      <g style="fill: #555555" transform="translate(45.879375 235.680722) scale(0.1 -0.1)">
       <use xlink:href="#ArialMT-2212"/>
       <use xlink:href="#ArialMT-31" x="58.398438"/>
       <use xlink:href="#ArialMT-2e" x="114.013672"/>
       <use xlink:href="#ArialMT-35" x="141.796875"/>
      </g>
     </g>
    </g>
    <g id="ytick_3">
     <g id="line2d_23">
      <path d="M 69.12 206.574544 
L 410.792727 206.574544 
" clip-path="url(#p783164b5a1)" style="fill: none; stroke: #ffffff; stroke-width: 0.5"/>
     </g>
     <g id="line2d_24"/>
     <g id="text_12">
      <!-- −1.0 -->
      <g style="fill: #555555" transform="translate(45.879375 210.15345) scale(0.1 -0.1)">
       <use xlink:href="#ArialMT-2212"/>
       <use xlink:href="#ArialMT-31" x="58.398438"/>
       <use xlink:href="#ArialMT-2e" x="114.013672"/>
       <use xlink:href="#ArialMT-30" x="141.796875"/>
      </g>
     </g>
    </g>
    <g id="ytick_4">
     <g id="line2d_25">
      <path d="M 69.12 181.047272 
L 410.792727 181.047272 
" clip-path="url(#p783164b5a1)" style="fill: none; stroke: #ffffff; stroke-width: 0.5"/>
     </g>
     <g id="line2d_26"/>
     <g id="text_13">
      <!-- −0.5 -->
      <g style="fill: #555555" transform="translate(45.879375 184.626178) scale(0.1 -0.1)">
       <use xlink:href="#ArialMT-2212"/>
       <use xlink:href="#ArialMT-30" x="58.398438"/>
       <use xlink:href="#ArialMT-2e" x="114.013672"/>
       <use xlink:href="#ArialMT-35" x="141.796875"/>
      </g>
     </g>
    </g>
    <g id="ytick_5">
     <g id="line2d_27">
      <path d="M 69.12 155.52 
L 410.792727 155.52 
" clip-path="url(#p783164b5a1)" style="fill: none; stroke: #ffffff; stroke-width: 0.5"/>
     </g>
     <g id="line2d_28"/>
     <g id="text_14">
      <!-- 0.0 -->
      <g style="fill: #555555" transform="translate(51.72 159.098906) scale(0.1 -0.1)">
       <use xlink:href="#ArialMT-30"/>
       <use xlink:href="#ArialMT-2e" x="55.615234"/>
       <use xlink:href="#ArialMT-30" x="83.398438"/>
      </g>
     </g>
    </g>
    <g id="ytick_6">
     <g id="line2d_29">
      <path d="M 69.12 129.992728 
L 410.792727 129.992728 
" clip-path="url(#p783164b5a1)" style="fill: none; stroke: #ffffff; stroke-width: 0.5"/>
     </g>
     <g id="line2d_30"/>
     <g id="text_15">
      <!-- 0.5 -->
      <g style="fill: #555555" transform="translate(51.72 133.571634) scale(0.1 -0.1)">
       <use xlink:href="#ArialMT-30"/>
       <use xlink:href="#ArialMT-2e" x="55.615234"/>
       <use xlink:href="#ArialMT-35" x="83.398438"/>
      </g>
     </g>
    </g>
    <g id="ytick_7">
     <g id="line2d_31">
      <path d="M 69.12 104.465456 
L 410.792727 104.465456 
" clip-path="url(#p783164b5a1)" style="fill: none; stroke: #ffffff; stroke-width: 0.5"/>
     </g>
     <g id="line2d_32"/>
     <g id="text_16">
      <!-- 1.0 -->
      <g style="fill: #555555" transform="translate(51.72 108.044363) scale(0.1 -0.1)">
       <use xlink:href="#ArialMT-31"/>
       <use xlink:href="#ArialMT-2e" x="55.615234"/>
       <use xlink:href="#ArialMT-30" x="83.398438"/>
      </g>
     </g>
    </g>
    <g id="ytick_8">
     <g id="line2d_33">
      <path d="M 69.12 78.938184 
L 410.792727 78.938184 
" clip-path="url(#p783164b5a1)" style="fill: none; stroke: #ffffff; stroke-width: 0.5"/>
     </g>
     <g id="line2d_34"/>
     <g id="text_17">
      <!-- 1.5 -->
      <g style="fill: #555555" transform="translate(51.72 82.517091) scale(0.1 -0.1)">
       <use xlink:href="#ArialMT-31"/>
       <use xlink:href="#ArialMT-2e" x="55.615234"/>
       <use xlink:href="#ArialMT-35" x="83.398438"/>
      </g>
     </g>
    </g>
    <g id="ytick_9">
     <g id="line2d_35">
      <path d="M 69.12 53.410913 
L 410.792727 53.410913 
" clip-path="url(#p783164b5a1)" style="fill: none; stroke: #ffffff; stroke-width: 0.5"/>
     </g>
     <g id="line2d_36"/>
     <g id="text_18">
      <!-- 2.0 -->
      <g style="fill: #555555" transform="translate(51.72 56.989819) scale(0.1 -0.1)">
       <use xlink:href="#ArialMT-32"/>
       <use xlink:href="#ArialMT-2e" x="55.615234"/>
       <use xlink:href="#ArialMT-30" x="83.398438"/>
      </g>
     </g>
    </g>
   </g>
   <g id="line2d_37">
    <path d="M 84.650579 155.52 
L 112.633603 154.550649 
L 123.826813 151.858544 
L 135.020022 147.062036 
L 149.322457 138.507095 
L 193.473451 111.023427 
L 204.977583 106.871366 
L 216.170793 104.935415 
L 232.649685 104.466004 
L 267.783927 105.411821 
L 278.977136 108.075091 
L 290.170346 112.842926 
L 304.472781 121.377586 
L 348.934697 149.032989 
L 360.43883 153.154864 
L 371.632039 155.064039 
L 388.110931 155.519527 
L 395.262149 155.52 
L 395.262149 155.52 
" clip-path="url(#p783164b5a1)" style="fill: none; stroke: #ff0000; stroke-width: 2"/>
   </g>
   <g id="line2d_38">
    <path d="M 84.650579 155.52 
L 96.465633 154.608173 
L 100.818548 151.983709 
L 105.171463 146.889651 
L 110.457145 137.290903 
L 118.54113 117.438474 
L 138.751092 67.102345 
L 144.347697 58.729061 
L 149.011535 54.961692 
L 153.986294 53.570785 
L 166.112272 53.412361 
L 174.196256 54.350733 
L 178.549171 57.015727 
L 182.902086 62.155546 
L 188.187769 71.807268 
L 196.271753 91.696119 
L 216.481715 141.973659 
L 222.07832 150.288306 
L 226.742158 154.008777 
L 231.716918 155.367908 
L 244.153817 155.522764 
L 251.92688 156.488409 
L 256.279795 159.194146 
L 260.632709 164.379736 
L 265.918392 174.084283 
L 274.002377 194.008945 
L 294.212339 244.227046 
L 299.808943 252.483031 
L 304.472781 256.15673 
L 309.447541 257.48449 
L 322.195363 257.624177 
L 329.657503 256.631494 
L 334.010418 253.884799 
L 338.363333 248.65343 
L 343.649015 238.89621 
L 352.043922 218.120708 
L 371.632039 169.35731 
L 377.228644 160.925423 
L 381.892482 157.111028 
L 386.867241 155.687946 
L 395.262149 155.52 
L 395.262149 155.52 
" clip-path="url(#p783164b5a1)" style="fill: none; stroke: #0000ff; stroke-width: 2"/>
   </g>
   <g id="patch_3">
    <path d="M 69.12 267.84 
L 69.12 43.2 
" style="fill: none; stroke: #ffffff; stroke-linejoin: miter; stroke-linecap: square"/>
   </g>
   <g id="patch_4">
    <path d="M 410.792727 267.84 
L 410.792727 43.2 
" style="fill: none; stroke: #ffffff; stroke-linejoin: miter; stroke-linecap: square"/>
   </g>
   <g id="patch_5">
    <path d="M 69.12 267.84 
L 410.792727 267.84 
" style="fill: none; stroke: #ffffff; stroke-linejoin: miter; stroke-linecap: square"/>
   </g>
   <g id="patch_6">
    <path d="M 69.12 43.2 
L 410.792727 43.2 
" style="fill: none; stroke: #ffffff; stroke-linejoin: miter; stroke-linecap: square"/>
   </g>
   <g id="legend_1">
    <g id="line2d_39">
     <path d="M 346.092727 56.2 
L 356.092727 56.2 
L 366.092727 56.2 
" style="fill: none; stroke: #ff0000; stroke-width: 2"/>
    </g>
    <g id="text_19">
     <!-- $\mathrm{up}(x)$ -->
     <g style="fill: #262626" transform="translate(374.092727 59.7) scale(0.1 -0.1)">
      <defs>
       <path id="Cmr10-75" d="M 691 763 
L 691 2175 
Q 691 2347 639 2423 
Q 588 2500 491 2517 
Q 394 2534 191 2534 
L 191 2759 
L 1159 2828 
L 1159 763 
Q 1159 513 1195 373 
Q 1231 234 1348 165 
Q 1466 97 1722 97 
Q 2066 97 2269 384 
Q 2472 672 2472 1038 
L 2472 2175 
Q 2472 2347 2419 2423 
Q 2366 2500 2270 2517 
Q 2175 2534 1972 2534 
L 1972 2759 
L 2938 2828 
L 2938 581 
Q 2938 413 2989 336 
Q 3041 259 3137 242 
Q 3234 225 3438 225 
L 3438 0 
L 2491 -72 
L 2491 469 
Q 2372 228 2159 78 
Q 1947 -72 1691 -72 
Q 1231 -72 961 123 
Q 691 319 691 763 
z
" transform="scale(0.015625)"/>
       <path id="Cmr10-70" d="M 166 -1241 
L 166 -1019 
Q 384 -1019 525 -981 
Q 666 -944 666 -813 
L 666 2272 
Q 666 2447 541 2490 
Q 416 2534 166 2534 
L 166 2759 
L 1113 2828 
L 1113 2431 
Q 1288 2625 1520 2726 
Q 1753 2828 2016 2828 
Q 2394 2828 2697 2623 
Q 3000 2419 3170 2086 
Q 3341 1753 3341 1381 
Q 3341 994 3152 659 
Q 2963 325 2636 126 
Q 2309 -72 1919 -72 
Q 1453 -72 1131 306 
L 1131 -813 
Q 1131 -944 1273 -981 
Q 1416 -1019 1631 -1019 
L 1631 -1241 
L 166 -1241 
z
M 1131 622 
Q 1244 394 1444 245 
Q 1644 97 1881 97 
Q 2103 97 2273 215 
Q 2444 334 2559 534 
Q 2675 734 2729 954 
Q 2784 1175 2784 1381 
Q 2784 1638 2692 1936 
Q 2600 2234 2411 2439 
Q 2222 2644 1953 2644 
Q 1694 2644 1476 2511 
Q 1259 2378 1131 2150 
L 1131 622 
z
" transform="scale(0.015625)"/>
       <path id="Cmr10-28" d="M 1984 -1588 
Q 1628 -1306 1370 -942 
Q 1113 -578 948 -165 
Q 784 247 703 697 
Q 622 1147 622 1600 
Q 622 2059 703 2509 
Q 784 2959 951 3375 
Q 1119 3791 1378 4153 
Q 1638 4516 1984 4788 
Q 1984 4800 2016 4800 
L 2075 4800 
Q 2094 4800 2109 4783 
Q 2125 4766 2125 4744 
Q 2125 4716 2113 4703 
Q 1800 4397 1592 4047 
Q 1384 3697 1257 3301 
Q 1131 2906 1075 2482 
Q 1019 2059 1019 1600 
Q 1019 -434 2106 -1491 
Q 2125 -1509 2125 -1544 
Q 2125 -1559 2108 -1579 
Q 2091 -1600 2075 -1600 
L 2016 -1600 
Q 1984 -1600 1984 -1588 
z
" transform="scale(0.015625)"/>
       <path id="Cmmi10-78" d="M 500 184 
Q 613 97 819 97 
Q 1019 97 1172 289 
Q 1325 481 1381 709 
L 1672 1844 
Q 1741 2153 1741 2266 
Q 1741 2425 1652 2544 
Q 1563 2663 1403 2663 
Q 1200 2663 1022 2536 
Q 844 2409 722 2214 
Q 600 2019 550 1819 
Q 538 1778 500 1778 
L 422 1778 
Q 372 1778 372 1838 
L 372 1856 
Q 434 2094 584 2320 
Q 734 2547 951 2687 
Q 1169 2828 1416 2828 
Q 1650 2828 1839 2703 
Q 2028 2578 2106 2363 
Q 2216 2559 2386 2693 
Q 2556 2828 2759 2828 
Q 2897 2828 3040 2779 
Q 3184 2731 3275 2631 
Q 3366 2531 3366 2381 
Q 3366 2219 3261 2101 
Q 3156 1984 2994 1984 
Q 2891 1984 2822 2050 
Q 2753 2116 2753 2216 
Q 2753 2350 2845 2451 
Q 2938 2553 3066 2572 
Q 2950 2663 2747 2663 
Q 2541 2663 2389 2472 
Q 2238 2281 2175 2047 
L 1894 916 
Q 1825 659 1825 494 
Q 1825 331 1917 214 
Q 2009 97 2163 97 
Q 2463 97 2698 361 
Q 2934 625 3009 941 
Q 3022 978 3059 978 
L 3138 978 
Q 3163 978 3178 961 
Q 3194 944 3194 922 
Q 3194 916 3188 903 
Q 3097 522 2806 225 
Q 2516 -72 2150 -72 
Q 1916 -72 1727 54 
Q 1538 181 1459 397 
Q 1359 209 1182 68 
Q 1006 -72 806 -72 
Q 669 -72 523 -23 
Q 378 25 287 125 
Q 197 225 197 378 
Q 197 528 301 651 
Q 406 775 563 775 
Q 669 775 741 711 
Q 813 647 813 544 
Q 813 409 723 309 
Q 634 209 500 184 
z
" transform="scale(0.015625)"/>
       <path id="Cmr10-29" d="M 416 -1600 
Q 359 -1600 359 -1544 
Q 359 -1516 372 -1503 
Q 1466 -434 1466 1600 
Q 1466 3634 384 4691 
Q 359 4706 359 4744 
Q 359 4766 376 4783 
Q 394 4800 416 4800 
L 475 4800 
Q 494 4800 506 4788 
Q 966 4425 1272 3906 
Q 1578 3388 1720 2800 
Q 1863 2213 1863 1600 
Q 1863 1147 1786 708 
Q 1709 269 1542 -157 
Q 1375 -584 1119 -945 
Q 863 -1306 506 -1588 
Q 494 -1600 475 -1600 
L 416 -1600 
z
" transform="scale(0.015625)"/>
      </defs>
      <use xlink:href="#Cmr10-75"/>
      <use xlink:href="#Cmr10-70" transform="translate(55.517578 0)"/>
      <use xlink:href="#Cmr10-28" transform="translate(111.035156 0)"/>
      <use xlink:href="#Cmmi10-78" transform="translate(149.853516 0)"/>
      <use xlink:href="#Cmr10-29" transform="translate(206.933594 0)"/>
     </g>
    </g>
    <g id="line2d_40">
     <path d="M 346.092727 71.6 
L 356.092727 71.6 
L 366.092727 71.6 
" style="fill: none; stroke: #0000ff; stroke-width: 2"/>
    </g>
    <g id="text_20">
     <!-- $\mathrm{up'}(x)$ -->
     <g style="fill: #262626" transform="translate(374.092727 75.1) scale(0.1 -0.1)">
      <defs>
       <path id="Cmsy10-30" d="M 225 347 
Q 184 359 184 409 
L 966 3316 
Q 1003 3434 1093 3506 
Q 1184 3578 1300 3578 
Q 1450 3578 1564 3479 
Q 1678 3381 1678 3231 
Q 1678 3166 1644 3084 
L 488 319 
Q 466 275 428 275 
Q 394 275 320 306 
Q 247 338 225 347 
z
" transform="scale(0.015625)"/>
      </defs>
      <use xlink:href="#Cmr10-75" transform="translate(0 0.715625)"/>
      <use xlink:href="#Cmr10-70" transform="translate(55.517578 0.715625)"/>
      <use xlink:href="#Cmsy10-30" transform="translate(115.602656 39.865625) scale(0.7)"/>
      <use xlink:href="#Cmr10-28" transform="translate(141.37082 0.715625)"/>
      <use xlink:href="#Cmmi10-78" transform="translate(180.18918 0.715625)"/>
      <use xlink:href="#Cmr10-29" transform="translate(237.269258 0.715625)"/>
     </g>
    </g>
   </g>
  </g>
  <g id="axes_2">
   <g id="patch_7">
    <path d="M 479.127273 267.84 
L 820.8 267.84 
L 820.8 43.2 
L 479.127273 43.2 
z
" style="fill: #e5e5e5"/>
   </g>
   <g id="matplotlib.axis_3">
    <g id="xtick_10">
     <g id="line2d_41">
      <path d="M 494.657851 267.84 
L 494.657851 43.2 
" clip-path="url(#p9a50817efb)" style="fill: none; stroke: #ffffff; stroke-width: 0.5"/>
     </g>
     <g id="line2d_42"/>
     <g id="text_21">
      <!-- −1.00 -->
      <g style="fill: #555555" transform="translate(482.00707 278.497813) scale(0.1 -0.1)">
       <use xlink:href="#ArialMT-2212"/>
       <use xlink:href="#ArialMT-31" x="58.398438"/>
       <use xlink:href="#ArialMT-2e" x="114.013672"/>
       <use xlink:href="#ArialMT-30" x="141.796875"/>
       <use xlink:href="#ArialMT-30" x="197.412109"/>
      </g>
     </g>
    </g>
    <g id="xtick_11">
     <g id="line2d_43">
      <path d="M 533.484298 267.84 
L 533.484298 43.2 
" clip-path="url(#p9a50817efb)" style="fill: none; stroke: #ffffff; stroke-width: 0.5"/>
     </g>
     <g id="line2d_44"/>
     <g id="text_22">
      <!-- −0.75 -->
      <g style="fill: #555555" transform="translate(520.833516 278.497813) scale(0.1 -0.1)">
       <use xlink:href="#ArialMT-2212"/>
       <use xlink:href="#ArialMT-30" x="58.398438"/>
       <use xlink:href="#ArialMT-2e" x="114.013672"/>
       <use xlink:href="#ArialMT-37" x="141.796875"/>
       <use xlink:href="#ArialMT-35" x="197.412109"/>
      </g>
     </g>
    </g>
    <g id="xtick_12">
     <g id="line2d_45">
      <path d="M 572.310744 267.84 
L 572.310744 43.2 
" clip-path="url(#p9a50817efb)" style="fill: none; stroke: #ffffff; stroke-width: 0.5"/>
     </g>
     <g id="line2d_46"/>
     <g id="text_23">
      <!-- −0.50 -->
      <g style="fill: #555555" transform="translate(559.659963 278.497813) scale(0.1 -0.1)">
       <use xlink:href="#ArialMT-2212"/>
       <use xlink:href="#ArialMT-30" x="58.398438"/>
       <use xlink:href="#ArialMT-2e" x="114.013672"/>
       <use xlink:href="#ArialMT-35" x="141.796875"/>
       <use xlink:href="#ArialMT-30" x="197.412109"/>
      </g>
     </g>
    </g>
    <g id="xtick_13">
     <g id="line2d_47">
      <path d="M 611.13719 267.84 
L 611.13719 43.2 
" clip-path="url(#p9a50817efb)" style="fill: none; stroke: #ffffff; stroke-width: 0.5"/>
     </g>
     <g id="line2d_48"/>
     <g id="text_24">
      <!-- −0.25 -->
      <g style="fill: #555555" transform="translate(598.486409 278.497813) scale(0.1 -0.1)">
       <use xlink:href="#ArialMT-2212"/>
       <use xlink:href="#ArialMT-30" x="58.398438"/>
       <use xlink:href="#ArialMT-2e" x="114.013672"/>
       <use xlink:href="#ArialMT-32" x="141.796875"/>
       <use xlink:href="#ArialMT-35" x="197.412109"/>
      </g>
     </g>
    </g>
    <g id="xtick_14">
     <g id="line2d_49">
      <path d="M 649.963636 267.84 
L 649.963636 43.2 
" clip-path="url(#p9a50817efb)" style="fill: none; stroke: #ffffff; stroke-width: 0.5"/>
     </g>
     <g id="line2d_50"/>
     <g id="text_25">
      <!-- 0.00 -->
      <g style="fill: #555555" transform="translate(640.233168 278.497813) scale(0.1 -0.1)">
       <use xlink:href="#ArialMT-30"/>
       <use xlink:href="#ArialMT-2e" x="55.615234"/>
       <use xlink:href="#ArialMT-30" x="83.398438"/>
       <use xlink:href="#ArialMT-30" x="139.013672"/>
      </g>
     </g>
    </g>
    <g id="xtick_15">
     <g id="line2d_51">
      <path d="M 688.790083 267.84 
L 688.790083 43.2 
" clip-path="url(#p9a50817efb)" style="fill: none; stroke: #ffffff; stroke-width: 0.5"/>
     </g>
     <g id="line2d_52"/>
     <g id="text_26">
      <!-- 0.25 -->
      <g style="fill: #555555" transform="translate(679.059614 278.497813) scale(0.1 -0.1)">
       <use xlink:href="#ArialMT-30"/>
       <use xlink:href="#ArialMT-2e" x="55.615234"/>
       <use xlink:href="#ArialMT-32" x="83.398438"/>
       <use xlink:href="#ArialMT-35" x="139.013672"/>
      </g>
     </g>
    </g>
    <g id="xtick_16">
     <g id="line2d_53">
      <path d="M 727.616529 267.84 
L 727.616529 43.2 
" clip-path="url(#p9a50817efb)" style="fill: none; stroke: #ffffff; stroke-width: 0.5"/>
     </g>
     <g id="line2d_54"/>
     <g id="text_27">
      <!-- 0.50 -->
      <g style="fill: #555555" transform="translate(717.88606 278.497813) scale(0.1 -0.1)">
       <use xlink:href="#ArialMT-30"/>
       <use xlink:href="#ArialMT-2e" x="55.615234"/>
       <use xlink:href="#ArialMT-35" x="83.398438"/>
       <use xlink:href="#ArialMT-30" x="139.013672"/>
      </g>
     </g>
    </g>
    <g id="xtick_17">
     <g id="line2d_55">
      <path d="M 766.442975 267.84 
L 766.442975 43.2 
" clip-path="url(#p9a50817efb)" style="fill: none; stroke: #ffffff; stroke-width: 0.5"/>
     </g>
     <g id="line2d_56"/>
     <g id="text_28">
      <!-- 0.75 -->
      <g style="fill: #555555" transform="translate(756.712506 278.497813) scale(0.1 -0.1)">
       <use xlink:href="#ArialMT-30"/>
       <use xlink:href="#ArialMT-2e" x="55.615234"/>
       <use xlink:href="#ArialMT-37" x="83.398438"/>
       <use xlink:href="#ArialMT-35" x="139.013672"/>
      </g>
     </g>
    </g>
    <g id="xtick_18">
     <g id="line2d_57">
      <path d="M 805.269421 267.84 
L 805.269421 43.2 
" clip-path="url(#p9a50817efb)" style="fill: none; stroke: #ffffff; stroke-width: 0.5"/>
     </g>
     <g id="line2d_58"/>
     <g id="text_29">
      <!-- 1.00 -->
      <g style="fill: #555555" transform="translate(795.538953 278.497813) scale(0.1 -0.1)">
       <use xlink:href="#ArialMT-31"/>
       <use xlink:href="#ArialMT-2e" x="55.615234"/>
       <use xlink:href="#ArialMT-30" x="83.398438"/>
       <use xlink:href="#ArialMT-30" x="139.013672"/>
      </g>
     </g>
    </g>
   </g>
   <g id="matplotlib.axis_4">
    <g id="ytick_10">
     <g id="line2d_59">
      <path d="M 479.127273 257.561554 
L 820.8 257.561554 
" clip-path="url(#p9a50817efb)" style="fill: none; stroke: #ffffff; stroke-width: 0.5"/>
     </g>
     <g id="line2d_60"/>
     <g id="text_30">
      <!-- −2.0 -->
      <g style="fill: #555555" transform="translate(455.886648 261.14046) scale(0.1 -0.1)">
       <use xlink:href="#ArialMT-2212"/>
       <use xlink:href="#ArialMT-32" x="58.398438"/>
       <use xlink:href="#ArialMT-2e" x="114.013672"/>
       <use xlink:href="#ArialMT-30" x="141.796875"/>
      </g>
     </g>
    </g>
    <g id="ytick_11">
     <g id="line2d_61">
      <path d="M 479.127273 232.051166 
L 820.8 232.051166 
" clip-path="url(#p9a50817efb)" style="fill: none; stroke: #ffffff; stroke-width: 0.5"/>
     </g>
     <g id="line2d_62"/>
     <g id="text_31">
      <!-- −1.5 -->
      <g style="fill: #555555" transform="translate(455.886648 235.630072) scale(0.1 -0.1)">
       <use xlink:href="#ArialMT-2212"/>
       <use xlink:href="#ArialMT-31" x="58.398438"/>
       <use xlink:href="#ArialMT-2e" x="114.013672"/>
       <use xlink:href="#ArialMT-35" x="141.796875"/>
      </g>
     </g>
    </g>
    <g id="ytick_12">
     <g id="line2d_63">
      <path d="M 479.127273 206.540777 
L 820.8 206.540777 
" clip-path="url(#p9a50817efb)" style="fill: none; stroke: #ffffff; stroke-width: 0.5"/>
     </g>
     <g id="line2d_64"/>
     <g id="text_32">
      <!-- −1.0 -->
      <g style="fill: #555555" transform="translate(455.886648 210.119683) scale(0.1 -0.1)">
       <use xlink:href="#ArialMT-2212"/>
       <use xlink:href="#ArialMT-31" x="58.398438"/>
       <use xlink:href="#ArialMT-2e" x="114.013672"/>
       <use xlink:href="#ArialMT-30" x="141.796875"/>
      </g>
     </g>
    </g>
    <g id="ytick_13">
     <g id="line2d_65">
      <path d="M 479.127273 181.030389 
L 820.8 181.030389 
" clip-path="url(#p9a50817efb)" style="fill: none; stroke: #ffffff; stroke-width: 0.5"/>
     </g>
     <g id="line2d_66"/>
     <g id="text_33">
      <!-- −0.5 -->
      <g style="fill: #555555" transform="translate(455.886648 184.609295) scale(0.1 -0.1)">
       <use xlink:href="#ArialMT-2212"/>
       <use xlink:href="#ArialMT-30" x="58.398438"/>
       <use xlink:href="#ArialMT-2e" x="114.013672"/>
       <use xlink:href="#ArialMT-35" x="141.796875"/>
      </g>
     </g>
    </g>
    <g id="ytick_14">
     <g id="line2d_67">
      <path d="M 479.127273 155.52 
L 820.8 155.52 
" clip-path="url(#p9a50817efb)" style="fill: none; stroke: #ffffff; stroke-width: 0.5"/>
     </g>
     <g id="line2d_68"/>
     <g id="text_34">
      <!-- 0.0 -->
      <g style="fill: #555555" transform="translate(461.727273 159.098906) scale(0.1 -0.1)">
       <use xlink:href="#ArialMT-30"/>
       <use xlink:href="#ArialMT-2e" x="55.615234"/>
       <use xlink:href="#ArialMT-30" x="83.398438"/>
      </g>
     </g>
    </g>
    <g id="ytick_15">
     <g id="line2d_69">
      <path d="M 479.127273 130.009611 
L 820.8 130.009611 
" clip-path="url(#p9a50817efb)" style="fill: none; stroke: #ffffff; stroke-width: 0.5"/>
     </g>
     <g id="line2d_70"/>
     <g id="text_35">
      <!-- 0.5 -->
      <g style="fill: #555555" transform="translate(461.727273 133.588518) scale(0.1 -0.1)">
       <use xlink:href="#ArialMT-30"/>
       <use xlink:href="#ArialMT-2e" x="55.615234"/>
       <use xlink:href="#ArialMT-35" x="83.398438"/>
      </g>
     </g>
    </g>
    <g id="ytick_16">
     <g id="line2d_71">
      <path d="M 479.127273 104.499223 
L 820.8 104.499223 
" clip-path="url(#p9a50817efb)" style="fill: none; stroke: #ffffff; stroke-width: 0.5"/>
     </g>
     <g id="line2d_72"/>
     <g id="text_36">
      <!-- 1.0 -->
      <g style="fill: #555555" transform="translate(461.727273 108.078129) scale(0.1 -0.1)">
       <use xlink:href="#ArialMT-31"/>
       <use xlink:href="#ArialMT-2e" x="55.615234"/>
       <use xlink:href="#ArialMT-30" x="83.398438"/>
      </g>
     </g>
    </g>
    <g id="ytick_17">
     <g id="line2d_73">
      <path d="M 479.127273 78.988834 
L 820.8 78.988834 
" clip-path="url(#p9a50817efb)" style="fill: none; stroke: #ffffff; stroke-width: 0.5"/>
     </g>
     <g id="line2d_74"/>
     <g id="text_37">
      <!-- 1.5 -->
      <g style="fill: #555555" transform="translate(461.727273 82.567741) scale(0.1 -0.1)">
       <use xlink:href="#ArialMT-31"/>
       <use xlink:href="#ArialMT-2e" x="55.615234"/>
       <use xlink:href="#ArialMT-35" x="83.398438"/>
      </g>
     </g>
    </g>
    <g id="ytick_18">
     <g id="line2d_75">
      <path d="M 479.127273 53.478446 
L 820.8 53.478446 
" clip-path="url(#p9a50817efb)" style="fill: none; stroke: #ffffff; stroke-width: 0.5"/>
     </g>
     <g id="line2d_76"/>
     <g id="text_38">
      <!-- 2.0 -->
      <g style="fill: #555555" transform="translate(461.727273 57.057352) scale(0.1 -0.1)">
       <use xlink:href="#ArialMT-32"/>
       <use xlink:href="#ArialMT-2e" x="55.615234"/>
       <use xlink:href="#ArialMT-30" x="83.398438"/>
      </g>
     </g>
    </g>
   </g>
   <g id="line2d_77">
    <path d="M 494.657851 155.520768 
L 503.363681 154.558927 
L 512.069511 151.673291 
L 521.086263 146.659117 
L 530.103015 141.885413 
L 538.497923 139.305001 
L 546.89283 138.512999 
L 555.287737 137.517792 
L 563.993567 134.598263 
L 573.010319 129.55043 
L 582.027072 124.811387 
L 590.421979 122.264607 
L 598.505964 121.506225 
L 606.900871 120.545096 
L 615.606701 117.659483 
L 624.623453 112.64524 
L 633.640205 107.871505 
L 642.035113 105.291253 
L 650.43002 104.498952 
L 658.824927 105.494448 
L 667.530757 108.414156 
L 676.547509 113.461968 
L 685.564262 118.200953 
L 693.959169 120.747597 
L 702.043154 121.506147 
L 710.438061 122.467224 
L 719.143891 125.352727 
L 728.160643 130.366949 
L 737.177396 135.140722 
L 745.572303 137.721238 
L 753.96721 138.513096 
L 762.362117 139.508307 
L 771.067947 142.427955 
L 780.0847 147.47583 
L 789.101452 152.214865 
L 797.496359 154.761353 
L 805.269421 155.520768 
L 805.269421 155.520768 
" clip-path="url(#p9a50817efb)" style="fill: none; stroke: #ff0000; stroke-width: 2"/>
   </g>
   <g id="line2d_78">
    <path d="M 494.657851 155.52 
L 496.212464 153.461444 
L 497.767076 146.715723 
L 502.430914 122.26446 
L 505.229216 118.29006 
L 507.094751 108.092615 
L 510.825821 88.559038 
L 514.245968 82.737272 
L 516.733348 66.811156 
L 519.531651 54.352408 
L 520.775341 53.453886 
L 521.086263 53.675183 
L 522.329953 56.294342 
L 524.195488 65.719198 
L 527.926558 86.090394 
L 531.96855 94.534999 
L 537.565155 121.318017 
L 539.43069 123.798829 
L 540.985303 130.743697 
L 545.64914 155.018255 
L 546.89283 155.38677 
L 548.13652 152.967682 
L 550.002055 143.797153 
L 554.044047 122.510036 
L 557.464195 116.442669 
L 564.30449 86.99562 
L 565.54818 84.50443 
L 567.413715 74.645087 
L 571.144784 54.627366 
L 572.699397 53.571203 
L 573.943087 55.784572 
L 575.808622 64.703977 
L 579.850614 86.357608 
L 583.270762 92.192177 
L 586.069064 110.185773 
L 588.556444 120.542578 
L 591.665669 125.310911 
L 593.842126 138.281184 
L 596.951351 154.206782 
L 598.505964 155.473949 
L 599.749654 153.425074 
L 601.615189 144.799231 
L 605.968104 122.276136 
L 608.766406 118.313626 
L 610.631941 108.076145 
L 614.363011 88.559659 
L 617.783158 82.74311 
L 620.270538 66.797109 
L 623.068841 54.338142 
L 624.312531 53.460612 
L 624.623453 53.688579 
L 625.867143 56.289399 
L 627.732678 65.730477 
L 631.463748 86.106981 
L 635.50574 94.532626 
L 641.102345 121.345971 
L 642.96788 123.765744 
L 644.522493 130.7865 
L 649.18633 154.861972 
L 651.984633 159.010784 
L 654.16109 171.687159 
L 657.270315 188.011822 
L 661.312307 196.123137 
L 667.219835 223.518247 
L 668.774447 225.64335 
L 670.32906 232.305114 
L 675.30382 257.351421 
L 676.547509 257.187342 
L 678.102122 253.047575 
L 680.278579 239.730765 
L 683.076882 225.281466 
L 687.740719 213.752823 
L 692.093634 190.512808 
L 695.202859 185.744915 
L 697.379317 172.776579 
L 700.488541 156.850341 
L 702.043154 155.549218 
L 703.286844 157.614574 
L 705.152379 166.224466 
L 709.505294 188.762052 
L 712.614519 193.906835 
L 715.101899 209.56296 
L 717.900201 222.452687 
L 721.320348 228.265466 
L 723.807728 244.229275 
L 726.606031 256.709686 
L 727.849721 257.55278 
L 728.160643 257.342701 
L 729.404333 254.778394 
L 731.269868 245.298673 
L 735.000938 224.963928 
L 739.042931 216.527201 
L 744.639535 189.746855 
L 746.194148 187.955561 
L 747.74876 182.147885 
L 753.034443 155.65323 
L 754.278133 156.021745 
L 755.832745 160.335239 
L 758.320125 176.142265 
L 761.118428 188.540642 
L 764.538575 194.590737 
L 767.958722 216.505001 
L 770.13518 223.049783 
L 772.311637 225.658532 
L 773.86625 232.289663 
L 778.84101 257.364817 
L 780.0847 257.172291 
L 781.639312 253.062195 
L 783.815769 239.718993 
L 786.614072 225.264839 
L 791.277909 213.769714 
L 795.630824 190.513959 
L 799.050972 184.459291 
L 802.160197 164.324277 
L 804.336654 156.377343 
L 805.269421 155.52 
L 805.269421 155.52 
" clip-path="url(#p9a50817efb)" style="fill: none; stroke: #0000ff; stroke-width: 2"/>
   </g>
   <g id="patch_8">
    <path d="M 479.127273 267.84 
L 479.127273 43.2 
" style="fill: none; stroke: #ffffff; stroke-linejoin: miter; stroke-linecap: square"/>
   </g>
   <g id="patch_9">
    <path d="M 820.8 267.84 
L 820.8 43.2 
" style="fill: none; stroke: #ffffff; stroke-linejoin: miter; stroke-linecap: square"/>
   </g>
   <g id="patch_10">
    <path d="M 479.127273 267.84 
L 820.8 267.84 
" style="fill: none; stroke: #ffffff; stroke-linejoin: miter; stroke-linecap: square"/>
   </g>
   <g id="patch_11">
    <path d="M 479.127273 43.2 
L 820.8 43.2 
" style="fill: none; stroke: #ffffff; stroke-linejoin: miter; stroke-linecap: square"/>
   </g>
   <g id="legend_2">
    <g id="line2d_79">
     <path d="M 751.5 56.2 
L 761.5 56.2 
L 771.5 56.2 
" style="fill: none; stroke: #ff0000; stroke-width: 2"/>
    </g>
    <g id="text_39">
     <!-- $\mathrm{up_3}(x)$ -->
     <g style="fill: #262626" transform="translate(779.5 59.7) scale(0.1 -0.1)">
      <defs>
       <path id="Cmr10-33" d="M 609 494 
Q 759 275 1012 169 
Q 1266 63 1556 63 
Q 1928 63 2084 380 
Q 2241 697 2241 1100 
Q 2241 1281 2208 1462 
Q 2175 1644 2097 1800 
Q 2019 1956 1883 2050 
Q 1747 2144 1550 2144 
L 1125 2144 
Q 1069 2144 1069 2203 
L 1069 2259 
Q 1069 2309 1125 2309 
L 1478 2338 
Q 1703 2338 1851 2506 
Q 2000 2675 2069 2917 
Q 2138 3159 2138 3378 
Q 2138 3684 1994 3881 
Q 1850 4078 1556 4078 
Q 1313 4078 1091 3986 
Q 869 3894 738 3706 
Q 750 3709 759 3711 
Q 769 3713 781 3713 
Q 925 3713 1022 3613 
Q 1119 3513 1119 3372 
Q 1119 3234 1022 3134 
Q 925 3034 781 3034 
Q 641 3034 541 3134 
Q 441 3234 441 3372 
Q 441 3647 606 3850 
Q 772 4053 1033 4158 
Q 1294 4263 1556 4263 
Q 1750 4263 1965 4205 
Q 2181 4147 2356 4039 
Q 2531 3931 2642 3762 
Q 2753 3594 2753 3378 
Q 2753 3109 2633 2881 
Q 2513 2653 2303 2487 
Q 2094 2322 1844 2241 
Q 2122 2188 2372 2031 
Q 2622 1875 2773 1631 
Q 2925 1388 2925 1106 
Q 2925 753 2731 467 
Q 2538 181 2222 20 
Q 1906 -141 1556 -141 
Q 1256 -141 954 -26 
Q 653 88 461 316 
Q 269 544 269 863 
Q 269 1022 375 1128 
Q 481 1234 641 1234 
Q 744 1234 830 1186 
Q 916 1138 964 1050 
Q 1013 963 1013 863 
Q 1013 706 903 600 
Q 794 494 641 494 
L 609 494 
z
" transform="scale(0.015625)"/>
      </defs>
      <use xlink:href="#Cmr10-75"/>
      <use xlink:href="#Cmr10-70" transform="translate(55.517578 0)"/>
      <use xlink:href="#Cmr10-33" transform="translate(115.602656 -17.4) scale(0.7)"/>
      <use xlink:href="#Cmr10-28" transform="translate(157.127656 0)"/>
      <use xlink:href="#Cmmi10-78" transform="translate(195.946016 0)"/>
      <use xlink:href="#Cmr10-29" transform="translate(253.026094 0)"/>
     </g>
    </g>
    <g id="line2d_80">
     <path d="M 751.5 71.6 
L 761.5 71.6 
L 771.5 71.6 
" style="fill: none; stroke: #0000ff; stroke-width: 2"/>
    </g>
    <g id="text_40">
     <!-- $\mathrm{up'_3}(x)$ -->
     <g style="fill: #262626" transform="translate(779.5 75.1) scale(0.1 -0.1)">
      <use xlink:href="#Cmr10-75" transform="translate(0 0.715625)"/>
      <use xlink:href="#Cmr10-70" transform="translate(55.517578 0.715625)"/>
      <use xlink:href="#Cmsy10-30" transform="translate(115.602656 39.865625) scale(0.7)"/>
      <use xlink:href="#Cmr10-33" transform="translate(145.93832 -16.684375) scale(0.7)"/>
      <use xlink:href="#Cmr10-28" transform="translate(187.46332 0.715625)"/>
      <use xlink:href="#Cmmi10-78" transform="translate(226.28168 0.715625)"/>
      <use xlink:href="#Cmr10-29" transform="translate(283.361758 0.715625)"/>
     </g>
    </g>
   </g>
  </g>
 </g>
 <defs>
  <clipPath id="p783164b5a1">
   <rect x="69.12" y="43.2" width="341.672727" height="224.64"/>
  </clipPath>
  <clipPath id="p9a50817efb">
   <rect x="479.127273" y="43.2" width="341.672727" height="224.64"/>
  </clipPath>
 </defs>
</svg>
