<?xml version="1.0" encoding="utf-8" standalone="no"?>
<!DOCTYPE svg PUBLIC "-//W3C//DTD SVG 1.1//EN"
  "http://www.w3.org/Graphics/SVG/1.1/DTD/svg11.dtd">
<svg xmlns:xlink="http://www.w3.org/1999/xlink" width="648pt" height="288pt" viewBox="0 0 648 288" xmlns="http://www.w3.org/2000/svg" version="1.1">
 <metadata>
  <rdf:RDF xmlns:dc="http://purl.org/dc/elements/1.1/" xmlns:cc="http://creativecommons.org/ns#" xmlns:rdf="http://www.w3.org/1999/02/22-rdf-syntax-ns#">
   <cc:Work>
    <dc:type rdf:resource="http://purl.org/dc/dcmitype/StillImage"/>
    <dc:date>2023-07-29T17:08:59.437033</dc:date>
    <dc:format>image/svg+xml</dc:format>
    <dc:creator>
     <cc:Agent>
      <dc:title>Matplotlib v3.7.1, https://matplotlib.org/</dc:title>
     </cc:Agent>
    </dc:creator>
   </cc:Work>
  </rdf:RDF>
 </metadata>
 <defs>
  <style type="text/css">*{stroke-linejoin: round; stroke-linecap: butt}</style>
 </defs>
 <g id="figure_1">
  <g id="patch_1">
   <path d="M 0 288 
L 648 288 
L 648 0 
L 0 0 
z
" style="fill: #f0f0f0"/>
  </g>
  <g id="axes_1">
   <g id="patch_2">
    <path d="M 51.84 267.84 
L 308.094545 267.84 
L 308.094545 2.88 
L 51.84 2.88 
z
" style="fill: #e5e5e5"/>
   </g>
   <g id="matplotlib.axis_1">
    <g id="xtick_1">
     <g id="line2d_1">
      <path d="M 63.487934 267.84 
L 63.487934 2.88 
" clip-path="url(#pbe8f52e0f5)" style="fill: none; stroke: #ffffff; stroke-width: 0.5"/>
     </g>
     <g id="line2d_2"/>
     <g id="text_1">
      <!-- 0 -->
      <g style="fill: #555555" transform="translate(60.707465 278.497813) scale(0.1 -0.1)">
       <defs>
        <path id="ArialMT-30" d="M 266 2259 
Q 266 3072 433 3567 
Q 600 4063 929 4331 
Q 1259 4600 1759 4600 
Q 2128 4600 2406 4451 
Q 2684 4303 2865 4023 
Q 3047 3744 3150 3342 
Q 3253 2941 3253 2259 
Q 3253 1453 3087 958 
Q 2922 463 2592 192 
Q 2263 -78 1759 -78 
Q 1097 -78 719 397 
Q 266 969 266 2259 
z
M 844 2259 
Q 844 1131 1108 757 
Q 1372 384 1759 384 
Q 2147 384 2411 759 
Q 2675 1134 2675 2259 
Q 2675 3391 2411 3762 
Q 2147 4134 1753 4134 
Q 1366 4134 1134 3806 
Q 844 3388 844 2259 
z
" transform="scale(0.015625)"/>
       </defs>
       <use xlink:href="#ArialMT-30"/>
      </g>
     </g>
    </g>
    <g id="xtick_2">
     <g id="line2d_3">
      <path d="M 110.550293 267.84 
L 110.550293 2.88 
" clip-path="url(#pbe8f52e0f5)" style="fill: none; stroke: #ffffff; stroke-width: 0.5"/>
     </g>
     <g id="line2d_4"/>
     <g id="text_2">
      <!-- 20 -->
      <g style="fill: #555555" transform="translate(104.989356 278.497813) scale(0.1 -0.1)">
       <defs>
        <path id="ArialMT-32" d="M 3222 541 
L 3222 0 
L 194 0 
Q 188 203 259 391 
Q 375 700 629 1000 
Q 884 1300 1366 1694 
Q 2113 2306 2375 2664 
Q 2638 3022 2638 3341 
Q 2638 3675 2398 3904 
Q 2159 4134 1775 4134 
Q 1369 4134 1125 3890 
Q 881 3647 878 3216 
L 300 3275 
Q 359 3922 746 4261 
Q 1134 4600 1788 4600 
Q 2447 4600 2831 4234 
Q 3216 3869 3216 3328 
Q 3216 3053 3103 2787 
Q 2991 2522 2730 2228 
Q 2469 1934 1863 1422 
Q 1356 997 1212 845 
Q 1069 694 975 541 
L 3222 541 
z
" transform="scale(0.015625)"/>
       </defs>
       <use xlink:href="#ArialMT-32"/>
       <use xlink:href="#ArialMT-30" x="55.615234"/>
      </g>
     </g>
    </g>
    <g id="xtick_3">
     <g id="line2d_5">
      <path d="M 157.612652 267.84 
L 157.612652 2.88 
" clip-path="url(#pbe8f52e0f5)" style="fill: none; stroke: #ffffff; stroke-width: 0.5"/>
     </g>
     <g id="line2d_6"/>
     <g id="text_3">
      <!-- 40 -->
      <g style="fill: #555555" transform="translate(152.051715 278.497813) scale(0.1 -0.1)">
       <defs>
        <path id="ArialMT-34" d="M 2069 0 
L 2069 1097 
L 81 1097 
L 81 1613 
L 2172 4581 
L 2631 4581 
L 2631 1613 
L 3250 1613 
L 3250 1097 
L 2631 1097 
L 2631 0 
L 2069 0 
z
M 2069 1613 
L 2069 3678 
L 634 1613 
L 2069 1613 
z
" transform="scale(0.015625)"/>
       </defs>
       <use xlink:href="#ArialMT-34"/>
       <use xlink:href="#ArialMT-30" x="55.615234"/>
      </g>
     </g>
    </g>
    <g id="xtick_4">
     <g id="line2d_7">
      <path d="M 204.675011 267.84 
L 204.675011 2.88 
" clip-path="url(#pbe8f52e0f5)" style="fill: none; stroke: #ffffff; stroke-width: 0.5"/>
     </g>
     <g id="line2d_8"/>
     <g id="text_4">
      <!-- 60 -->
      <g style="fill: #555555" transform="translate(199.114074 278.497813) scale(0.1 -0.1)">
       <defs>
        <path id="ArialMT-36" d="M 3184 3459 
L 2625 3416 
Q 2550 3747 2413 3897 
Q 2184 4138 1850 4138 
Q 1581 4138 1378 3988 
Q 1113 3794 959 3422 
Q 806 3050 800 2363 
Q 1003 2672 1297 2822 
Q 1591 2972 1913 2972 
Q 2475 2972 2870 2558 
Q 3266 2144 3266 1488 
Q 3266 1056 3080 686 
Q 2894 316 2569 119 
Q 2244 -78 1831 -78 
Q 1128 -78 684 439 
Q 241 956 241 2144 
Q 241 3472 731 4075 
Q 1159 4600 1884 4600 
Q 2425 4600 2770 4297 
Q 3116 3994 3184 3459 
z
M 888 1484 
Q 888 1194 1011 928 
Q 1134 663 1356 523 
Q 1578 384 1822 384 
Q 2178 384 2434 671 
Q 2691 959 2691 1453 
Q 2691 1928 2437 2201 
Q 2184 2475 1800 2475 
Q 1419 2475 1153 2201 
Q 888 1928 888 1484 
z
" transform="scale(0.015625)"/>
       </defs>
       <use xlink:href="#ArialMT-36"/>
       <use xlink:href="#ArialMT-30" x="55.615234"/>
      </g>
     </g>
    </g>
    <g id="xtick_5">
     <g id="line2d_9">
      <path d="M 251.73737 267.84 
L 251.73737 2.88 
" clip-path="url(#pbe8f52e0f5)" style="fill: none; stroke: #ffffff; stroke-width: 0.5"/>
     </g>
     <g id="line2d_10"/>
     <g id="text_5">
      <!-- 80 -->
      <g style="fill: #555555" transform="translate(246.176433 278.497813) scale(0.1 -0.1)">
       <defs>
        <path id="ArialMT-38" d="M 1131 2484 
Q 781 2613 612 2850 
Q 444 3088 444 3419 
Q 444 3919 803 4259 
Q 1163 4600 1759 4600 
Q 2359 4600 2725 4251 
Q 3091 3903 3091 3403 
Q 3091 3084 2923 2848 
Q 2756 2613 2416 2484 
Q 2838 2347 3058 2040 
Q 3278 1734 3278 1309 
Q 3278 722 2862 322 
Q 2447 -78 1769 -78 
Q 1091 -78 675 323 
Q 259 725 259 1325 
Q 259 1772 486 2073 
Q 713 2375 1131 2484 
z
M 1019 3438 
Q 1019 3113 1228 2906 
Q 1438 2700 1772 2700 
Q 2097 2700 2305 2904 
Q 2513 3109 2513 3406 
Q 2513 3716 2298 3927 
Q 2084 4138 1766 4138 
Q 1444 4138 1231 3931 
Q 1019 3725 1019 3438 
z
M 838 1322 
Q 838 1081 952 856 
Q 1066 631 1291 507 
Q 1516 384 1775 384 
Q 2178 384 2440 643 
Q 2703 903 2703 1303 
Q 2703 1709 2433 1975 
Q 2163 2241 1756 2241 
Q 1359 2241 1098 1978 
Q 838 1716 838 1322 
z
" transform="scale(0.015625)"/>
       </defs>
       <use xlink:href="#ArialMT-38"/>
       <use xlink:href="#ArialMT-30" x="55.615234"/>
      </g>
     </g>
    </g>
    <g id="xtick_6">
     <g id="line2d_11">
      <path d="M 298.79973 267.84 
L 298.79973 2.88 
" clip-path="url(#pbe8f52e0f5)" style="fill: none; stroke: #ffffff; stroke-width: 0.5"/>
     </g>
     <g id="line2d_12"/>
     <g id="text_6">
      <!-- 100 -->
      <g style="fill: #555555" transform="translate(290.458323 278.497813) scale(0.1 -0.1)">
       <defs>
        <path id="ArialMT-31" d="M 2384 0 
L 1822 0 
L 1822 3584 
Q 1619 3391 1289 3197 
Q 959 3003 697 2906 
L 697 3450 
Q 1169 3672 1522 3987 
Q 1875 4303 2022 4600 
L 2384 4600 
L 2384 0 
z
" transform="scale(0.015625)"/>
       </defs>
       <use xlink:href="#ArialMT-31"/>
       <use xlink:href="#ArialMT-30" x="55.615234"/>
       <use xlink:href="#ArialMT-30" x="111.230469"/>
      </g>
     </g>
    </g>
   </g>
   <g id="matplotlib.axis_2">
    <g id="ytick_1">
     <g id="line2d_13">
      <path d="M 51.84 255.792739 
L 308.094545 255.792739 
" clip-path="url(#pbe8f52e0f5)" style="fill: none; stroke: #ffffff; stroke-width: 0.5"/>
     </g>
     <g id="line2d_14"/>
     <g id="text_7">
      <!-- 0.0 -->
      <g style="fill: #555555" transform="translate(34.44 259.371646) scale(0.1 -0.1)">
       <defs>
        <path id="ArialMT-2e" d="M 581 0 
L 581 641 
L 1222 641 
L 1222 0 
L 581 0 
z
" transform="scale(0.015625)"/>
       </defs>
       <use xlink:href="#ArialMT-30"/>
       <use xlink:href="#ArialMT-2e" x="55.615234"/>
       <use xlink:href="#ArialMT-30" x="83.398438"/>
      </g>
     </g>
    </g>
    <g id="ytick_2">
     <g id="line2d_15">
      <path d="M 51.84 207.618919 
L 308.094545 207.618919 
" clip-path="url(#pbe8f52e0f5)" style="fill: none; stroke: #ffffff; stroke-width: 0.5"/>
     </g>
     <g id="line2d_16"/>
     <g id="text_8">
      <!-- 0.2 -->
      <g style="fill: #555555" transform="translate(34.44 211.197825) scale(0.1 -0.1)">
       <use xlink:href="#ArialMT-30"/>
       <use xlink:href="#ArialMT-2e" x="55.615234"/>
       <use xlink:href="#ArialMT-32" x="83.398438"/>
      </g>
     </g>
    </g>
    <g id="ytick_3">
     <g id="line2d_17">
      <path d="M 51.84 159.445098 
L 308.094545 159.445098 
" clip-path="url(#pbe8f52e0f5)" style="fill: none; stroke: #ffffff; stroke-width: 0.5"/>
     </g>
     <g id="line2d_18"/>
     <g id="text_9">
      <!-- 0.4 -->
      <g style="fill: #555555" transform="translate(34.44 163.024004) scale(0.1 -0.1)">
       <use xlink:href="#ArialMT-30"/>
       <use xlink:href="#ArialMT-2e" x="55.615234"/>
       <use xlink:href="#ArialMT-34" x="83.398438"/>
      </g>
     </g>
    </g>
    <g id="ytick_4">
     <g id="line2d_19">
      <path d="M 51.84 111.271278 
L 308.094545 111.271278 
" clip-path="url(#pbe8f52e0f5)" style="fill: none; stroke: #ffffff; stroke-width: 0.5"/>
     </g>
     <g id="line2d_20"/>
     <g id="text_10">
      <!-- 0.6 -->
      <g style="fill: #555555" transform="translate(34.44 114.850184) scale(0.1 -0.1)">
       <use xlink:href="#ArialMT-30"/>
       <use xlink:href="#ArialMT-2e" x="55.615234"/>
       <use xlink:href="#ArialMT-36" x="83.398438"/>
      </g>
     </g>
    </g>
    <g id="ytick_5">
     <g id="line2d_21">
      <path d="M 51.84 63.097457 
L 308.094545 63.097457 
" clip-path="url(#pbe8f52e0f5)" style="fill: none; stroke: #ffffff; stroke-width: 0.5"/>
     </g>
     <g id="line2d_22"/>
     <g id="text_11">
      <!-- 0.8 -->
      <g style="fill: #555555" transform="translate(34.44 66.676363) scale(0.1 -0.1)">
       <use xlink:href="#ArialMT-30"/>
       <use xlink:href="#ArialMT-2e" x="55.615234"/>
       <use xlink:href="#ArialMT-38" x="83.398438"/>
      </g>
     </g>
    </g>
    <g id="ytick_6">
     <g id="line2d_23">
      <path d="M 51.84 14.923636 
L 308.094545 14.923636 
" clip-path="url(#pbe8f52e0f5)" style="fill: none; stroke: #ffffff; stroke-width: 0.5"/>
     </g>
     <g id="line2d_24"/>
     <g id="text_12">
      <!-- 1.0 -->
      <g style="fill: #555555" transform="translate(34.44 18.502543) scale(0.1 -0.1)">
       <use xlink:href="#ArialMT-31"/>
       <use xlink:href="#ArialMT-2e" x="55.615234"/>
       <use xlink:href="#ArialMT-30" x="83.398438"/>
      </g>
     </g>
    </g>
   </g>
   <g id="line2d_25">
    <path d="M 63.487934 255.792739 
L 65.841052 255.792735 
L 68.19417 255.791841 
L 70.547288 255.779072 
L 72.900406 255.714059 
L 75.253524 255.517186 
L 77.606642 255.076384 
L 79.95976 254.26618 
L 82.312878 252.959935 
L 84.665995 251.038255 
L 87.019113 248.407641 
L 89.372231 245.013262 
L 91.725349 240.835291 
L 94.078467 235.870944 
L 96.431585 230.120366 
L 98.784703 223.588717 
L 101.137821 216.3033 
L 103.490939 208.328914 
L 105.844057 199.767333 
L 108.197175 190.741191 
L 110.550293 181.377361 
L 112.903411 171.799663 
L 115.256529 162.113611 
L 117.609647 152.388993 
L 119.962765 142.657251 
L 122.315883 132.925167 
L 124.669001 123.193108 
L 127.022119 113.463038 
L 129.375237 103.751502 
L 131.728355 94.108414 
L 134.081473 84.622806 
L 136.434591 75.411969 
L 138.787708 66.602287 
L 141.140826 58.319762 
L 143.493944 50.679247 
L 145.847062 43.765135 
L 148.20018 37.622505 
L 150.553298 32.264955 
L 152.906416 27.693822 
L 155.259534 23.908557 
L 157.612652 20.900442 
L 159.96577 18.633668 
L 162.318888 17.033498 
L 164.672006 15.990977 
L 167.025124 15.381353 
L 169.378242 15.077825 
L 171.73136 14.959228 
L 174.084478 14.927802 
L 176.437596 14.923745 
L 178.790714 14.923636 
L 181.143832 14.923636 
L 183.49695 14.923745 
L 185.850068 14.927802 
L 188.203186 14.959228 
L 190.556304 15.077825 
L 192.909421 15.381353 
L 195.262539 15.990977 
L 197.615657 17.033498 
L 199.968775 18.633668 
L 202.321893 20.900442 
L 204.675011 23.908557 
L 207.028129 27.693822 
L 209.381247 32.264955 
L 211.734365 37.622505 
L 214.087483 43.765135 
L 216.440601 50.679247 
L 218.793719 58.319762 
L 221.146837 66.602287 
L 223.499955 75.411969 
L 225.853073 84.622806 
L 228.206191 94.108414 
L 230.559309 103.751502 
L 232.912427 113.463038 
L 235.265545 123.193108 
L 237.618663 132.925167 
L 239.971781 142.657251 
L 242.324899 152.388993 
L 244.678017 162.113611 
L 247.031134 171.799663 
L 249.384252 181.377361 
L 251.73737 190.741191 
L 254.090488 199.767333 
L 256.443606 208.328914 
L 258.796724 216.3033 
L 261.149842 223.588717 
L 263.50296 230.120366 
L 265.856078 235.870944 
L 268.209196 240.835291 
L 270.562314 245.013262 
L 272.915432 248.407641 
L 275.26855 251.038255 
L 277.621668 252.959935 
L 279.974786 254.26618 
L 282.327904 255.076384 
L 284.681022 255.517186 
L 287.03414 255.714059 
L 289.387258 255.779072 
L 291.740376 255.791841 
L 294.093494 255.792735 
L 296.446612 255.792739 
" clip-path="url(#pbe8f52e0f5)" style="fill: none; stroke: #e24a33; stroke-width: 2"/>
   </g>
   <g id="line2d_26">
    <path d="M 63.487934 255.796364 
L 65.841052 255.516941 
L 68.19417 253.651061 
L 70.547288 250.516999 
L 72.900406 246.725522 
L 75.253524 241.158434 
L 77.606642 234.669529 
L 79.95976 227.25887 
L 82.312878 218.072723 
L 84.665995 208.456511 
L 87.019113 200.101319 
L 89.372231 193.332744 
L 91.725349 187.123064 
L 94.078467 182.499842 
L 96.431585 179.144764 
L 98.784703 176.446975 
L 101.137821 175.524201 
L 103.490939 175.45946 
L 105.844057 174.536689 
L 108.197175 171.838902 
L 110.550293 168.48383 
L 112.903411 163.860616 
L 115.256529 157.650945 
L 117.609647 150.882384 
L 119.962765 142.527209 
L 122.315883 132.911018 
L 124.669001 123.724901 
L 127.022119 116.314279 
L 129.375237 109.825427 
L 131.728355 104.258415 
L 134.081473 100.467055 
L 136.434591 97.333197 
L 138.787708 95.467791 
L 141.140826 95.190705 
L 143.493944 94.91362 
L 145.847062 93.048216 
L 148.20018 89.914363 
L 150.553298 86.123009 
L 152.906416 80.556006 
L 155.259534 74.067165 
L 157.612652 66.656559 
L 159.96577 57.47046 
L 162.318888 47.854295 
L 164.672006 39.499153 
L 167.025124 32.730636 
L 169.378242 26.521028 
L 171.73136 21.897907 
L 174.084478 18.542986 
L 176.437596 15.845495 
L 178.790714 14.923636 
L 181.143832 14.923636 
L 183.49695 15.845495 
L 185.850068 18.542986 
L 188.203186 21.897907 
L 190.556304 26.521028 
L 192.909421 32.730636 
L 195.262539 39.499153 
L 197.615657 47.854295 
L 199.968775 57.47046 
L 202.321893 66.656559 
L 204.675011 74.067165 
L 207.028129 80.556006 
L 209.381247 86.123009 
L 211.734365 89.914363 
L 214.087483 93.048216 
L 216.440601 94.91362 
L 218.793719 95.190705 
L 221.146837 95.467791 
L 223.499955 97.333197 
L 225.853073 100.467055 
L 228.206191 104.258415 
L 230.559309 109.825427 
L 232.912427 116.314279 
L 235.265545 123.724901 
L 237.618663 132.911018 
L 239.971781 142.527209 
L 242.324899 150.882384 
L 244.678017 157.650945 
L 247.031134 163.860616 
L 249.384252 168.48383 
L 251.73737 171.838902 
L 254.090488 174.536689 
L 256.443606 175.45946 
L 258.796724 175.524201 
L 261.149842 176.446975 
L 263.50296 179.144764 
L 265.856078 182.499842 
L 268.209196 187.123064 
L 270.562314 193.332744 
L 272.915432 200.101319 
L 275.26855 208.456511 
L 277.621668 218.072723 
L 279.974786 227.25887 
L 282.327904 234.669529 
L 284.681022 241.158434 
L 287.03414 246.725522 
L 289.387258 250.516999 
L 291.740376 253.651061 
L 294.093494 255.516941 
L 296.446612 255.796364 
" clip-path="url(#pbe8f52e0f5)" style="fill: none; stroke: #348abd; stroke-width: 2"/>
   </g>
   <g id="line2d_27">
    <path d="M 63.487934 255.792715 
L 65.841052 255.779354 
L 68.19417 255.493595 
L 70.547288 254.360212 
L 72.900406 251.870167 
L 75.253524 247.888866 
L 77.606642 242.414568 
L 79.95976 235.447274 
L 82.312878 226.988723 
L 84.665995 217.173511 
L 87.019113 206.510679 
L 89.372231 195.575457 
L 91.725349 184.626875 
L 94.078467 173.678283 
L 96.431585 162.729688 
L 98.784703 151.781093 
L 101.137821 140.832497 
L 103.490939 129.883902 
L 105.844057 118.935306 
L 108.197175 107.98671 
L 110.550293 97.038116 
L 112.903411 86.089523 
L 115.256529 75.140941 
L 117.609647 64.205719 
L 119.962765 53.542887 
L 122.315883 43.727674 
L 124.669001 35.269123 
L 127.022119 28.301829 
L 129.375237 22.827531 
L 131.728355 18.846228 
L 134.081473 16.356183 
L 136.434591 15.222799 
L 138.787708 14.937035 
L 141.140826 14.92366 
L 143.493944 14.923646 
L 145.847062 14.923642 
L 148.20018 14.923641 
L 150.553298 14.92364 
L 152.906416 14.923639 
L 155.259534 14.923639 
L 157.612652 14.923638 
L 159.96577 14.923638 
L 162.318888 14.923638 
L 164.672006 14.923637 
L 167.025124 14.923637 
L 169.378242 14.923637 
L 171.73136 14.923637 
L 174.084478 14.923636 
L 176.437596 14.923636 
L 178.790714 14.923636 
L 181.143832 14.923636 
L 183.49695 14.923636 
L 185.850068 14.923636 
L 188.203186 14.923637 
L 190.556304 14.923637 
L 192.909421 14.923637 
L 195.262539 14.923637 
L 197.615657 14.923638 
L 199.968775 14.923638 
L 202.321893 14.923638 
L 204.675011 14.923639 
L 207.028129 14.923639 
L 209.381247 14.92364 
L 211.734365 14.923641 
L 214.087483 14.923642 
L 216.440601 14.923646 
L 218.793719 14.92366 
L 221.146837 14.937035 
L 223.499955 15.222799 
L 225.853073 16.356183 
L 228.206191 18.846228 
L 230.559309 22.827531 
L 232.912427 28.301829 
L 235.265545 35.269123 
L 237.618663 43.727674 
L 239.971781 53.542887 
L 242.324899 64.205719 
L 244.678017 75.140941 
L 247.031134 86.089523 
L 249.384252 97.038116 
L 251.73737 107.98671 
L 254.090488 118.935306 
L 256.443606 129.883902 
L 258.796724 140.832497 
L 261.149842 151.781093 
L 263.50296 162.729688 
L 265.856078 173.678283 
L 268.209196 184.626875 
L 270.562314 195.575457 
L 272.915432 206.510679 
L 275.26855 217.173511 
L 277.621668 226.988723 
L 279.974786 235.447274 
L 282.327904 242.414568 
L 284.681022 247.888866 
L 287.03414 251.870167 
L 289.387258 254.360212 
L 291.740376 255.493595 
L 294.093494 255.779354 
L 296.446612 255.792715 
" clip-path="url(#pbe8f52e0f5)" style="fill: none; stroke: #988ed5; stroke-width: 2"/>
   </g>
   <g id="line2d_28">
    <path d="M 63.487934 255.792739 
L 65.841052 255.792739 
L 68.19417 255.792739 
L 70.547288 255.792728 
L 72.900406 255.792546 
L 75.253524 255.791236 
L 77.606642 255.785575 
L 79.95976 255.767999 
L 82.312878 255.724365 
L 84.665995 255.6317 
L 87.019113 255.456214 
L 89.372231 255.152589 
L 91.725349 254.665665 
L 94.078467 253.934152 
L 96.431585 252.895069 
L 98.784703 251.488252 
L 101.137821 249.660711 
L 103.490939 247.369952 
L 105.844057 244.585033 
L 108.197175 241.285394 
L 110.550293 237.458748 
L 112.903411 233.098826 
L 115.256529 228.203149 
L 117.609647 222.771066 
L 119.962765 216.802485 
L 122.315883 210.297403 
L 124.669001 203.25582 
L 127.022119 195.677736 
L 129.375237 187.563224 
L 131.728355 178.913088 
L 134.081473 169.731388 
L 136.434591 160.030435 
L 138.787708 149.837213 
L 141.140826 139.200153 
L 143.493944 128.195803 
L 145.847062 116.934219 
L 148.20018 105.559518 
L 150.553298 94.242964 
L 152.906416 83.170962 
L 155.259534 72.531614 
L 157.612652 62.501198 
L 159.96577 53.231538 
L 162.318888 44.841436 
L 164.672006 37.415424 
L 167.025124 31.00835 
L 169.378242 25.651923 
L 171.73136 21.361496 
L 174.084478 18.142641 
L 176.437596 15.99664 
L 178.790714 14.923636 
L 181.143832 14.923636 
L 183.49695 15.99664 
L 185.850068 18.142641 
L 188.203186 21.361496 
L 190.556304 25.651923 
L 192.909421 31.00835 
L 195.262539 37.415424 
L 197.615657 44.841436 
L 199.968775 53.231538 
L 202.321893 62.501198 
L 204.675011 72.531614 
L 207.028129 83.170962 
L 209.381247 94.242964 
L 211.734365 105.559518 
L 214.087483 116.934219 
L 216.440601 128.195803 
L 218.793719 139.200153 
L 221.146837 149.837213 
L 223.499955 160.030435 
L 225.853073 169.731388 
L 228.206191 178.913088 
L 230.559309 187.563224 
L 232.912427 195.677736 
L 235.265545 203.25582 
L 237.618663 210.297403 
L 239.971781 216.802485 
L 242.324899 222.771066 
L 244.678017 228.203149 
L 247.031134 233.098826 
L 249.384252 237.458748 
L 251.73737 241.285394 
L 254.090488 244.585033 
L 256.443606 247.369952 
L 258.796724 249.660711 
L 261.149842 251.488252 
L 263.50296 252.895069 
L 265.856078 253.934152 
L 268.209196 254.665665 
L 270.562314 255.152589 
L 272.915432 255.456214 
L 275.26855 255.6317 
L 277.621668 255.724365 
L 279.974786 255.767999 
L 282.327904 255.785575 
L 284.681022 255.791236 
L 287.03414 255.792546 
L 289.387258 255.792728 
L 291.740376 255.792739 
L 294.093494 255.792739 
L 296.446612 255.792739 
" clip-path="url(#pbe8f52e0f5)" style="fill: none; stroke: #777777; stroke-width: 2"/>
   </g>
   <g id="line2d_29">
    <path d="M 63.487934 255.792739 
L 65.841052 255.792739 
L 68.19417 255.792739 
L 70.547288 255.792708 
L 72.900406 255.792407 
L 75.253524 255.790885 
L 77.606642 255.78566 
L 79.95976 255.771759 
L 82.312878 255.740763 
L 84.665995 255.680015 
L 87.019113 255.572152 
L 89.372231 255.394949 
L 91.725349 255.121299 
L 94.078467 254.719246 
L 96.431585 254.152194 
L 98.784703 253.379443 
L 101.137821 252.357034 
L 103.490939 251.038711 
L 105.844057 249.376869 
L 108.197175 247.32332 
L 110.550293 244.829724 
L 112.903411 241.847725 
L 115.256529 238.328974 
L 117.609647 234.225309 
L 119.962765 229.489691 
L 122.315883 224.078506 
L 124.669001 217.955001 
L 127.022119 211.093172 
L 129.375237 203.481511 
L 131.728355 195.125952 
L 134.081473 186.051455 
L 136.434591 176.30247 
L 138.787708 165.942972 
L 141.140826 155.056243 
L 143.493944 143.74381 
L 145.847062 132.123016 
L 148.20018 120.323496 
L 150.553298 108.483288 
L 152.906416 96.745128 
L 155.259534 85.253624 
L 157.612652 74.15381 
L 159.96577 63.590756 
L 162.318888 53.709505 
L 164.672006 44.65467 
L 167.025124 36.568658 
L 169.378242 29.587819 
L 171.73136 23.837062 
L 174.084478 19.424008 
L 176.437596 16.433516 
L 178.790714 14.923636 
L 181.143832 14.923636 
L 183.49695 16.433516 
L 185.850068 19.424008 
L 188.203186 23.837062 
L 190.556304 29.587819 
L 192.909421 36.568658 
L 195.262539 44.65467 
L 197.615657 53.709505 
L 199.968775 63.590756 
L 202.321893 74.15381 
L 204.675011 85.253624 
L 207.028129 96.745128 
L 209.381247 108.483288 
L 211.734365 120.323496 
L 214.087483 132.123016 
L 216.440601 143.74381 
L 218.793719 155.056243 
L 221.146837 165.942972 
L 223.499955 176.30247 
L 225.853073 186.051455 
L 228.206191 195.125952 
L 230.559309 203.481511 
L 232.912427 211.093172 
L 235.265545 217.955001 
L 237.618663 224.078506 
L 239.971781 229.489691 
L 242.324899 234.225309 
L 244.678017 238.328974 
L 247.031134 241.847725 
L 249.384252 244.829724 
L 251.73737 247.32332 
L 254.090488 249.376869 
L 256.443606 251.038711 
L 258.796724 252.357034 
L 261.149842 253.379443 
L 263.50296 254.152194 
L 265.856078 254.719246 
L 268.209196 255.121299 
L 270.562314 255.394949 
L 272.915432 255.572152 
L 275.26855 255.680015 
L 277.621668 255.740763 
L 279.974786 255.771759 
L 282.327904 255.78566 
L 284.681022 255.790885 
L 287.03414 255.792407 
L 289.387258 255.792708 
L 291.740376 255.792739 
L 294.093494 255.792739 
L 296.446612 255.792739 
" clip-path="url(#pbe8f52e0f5)" style="fill: none; stroke: #fbc15e; stroke-width: 2"/>
   </g>
   <g id="line2d_30">
    <path d="M 63.487934 255.792739 
L 65.841052 255.792739 
L 68.19417 255.792739 
L 70.547288 255.792739 
L 72.900406 255.792739 
L 75.253524 255.792739 
L 77.606642 255.792739 
L 79.95976 255.792739 
L 82.312878 255.792732 
L 84.665995 255.792693 
L 87.019113 255.792521 
L 89.372231 255.791899 
L 91.725349 255.79 
L 94.078467 255.784946 
L 96.431585 255.772947 
L 98.784703 255.747079 
L 101.137821 255.695705 
L 103.490939 255.600623 
L 105.844057 255.435085 
L 108.197175 255.161884 
L 110.550293 254.731787 
L 112.903411 254.082599 
L 115.256529 253.139133 
L 117.609647 251.814253 
L 119.962765 250.011001 
L 122.315883 247.625702 
L 124.669001 244.551786 
L 127.022119 240.684089 
L 129.375237 235.923404 
L 131.728355 230.181151 
L 134.081473 223.384079 
L 136.434591 215.478981 
L 138.787708 206.437401 
L 141.140826 196.260308 
L 143.493944 184.982626 
L 145.847062 172.67739 
L 148.20018 159.459095 
L 150.553298 145.485621 
L 152.906416 130.958039 
L 155.259534 116.117733 
L 157.612652 101.240575 
L 159.96577 86.62834 
L 162.318888 72.597912 
L 164.672006 59.46912 
L 167.025124 47.55214 
L 169.378242 37.135374 
L 171.73136 28.474605 
L 174.084478 21.784025 
L 176.437596 17.229439 
L 178.790714 14.923636 
L 181.143832 14.923636 
L 183.49695 17.229439 
L 185.850068 21.784025 
L 188.203186 28.474605 
L 190.556304 37.135374 
L 192.909421 47.55214 
L 195.262539 59.46912 
L 197.615657 72.597912 
L 199.968775 86.62834 
L 202.321893 101.240575 
L 204.675011 116.117733 
L 207.028129 130.958039 
L 209.381247 145.485621 
L 211.734365 159.459095 
L 214.087483 172.67739 
L 216.440601 184.982626 
L 218.793719 196.260308 
L 221.146837 206.437401 
L 223.499955 215.478981 
L 225.853073 223.384079 
L 228.206191 230.181151 
L 230.559309 235.923404 
L 232.912427 240.684089 
L 235.265545 244.551786 
L 237.618663 247.625702 
L 239.971781 250.011001 
L 242.324899 251.814253 
L 244.678017 253.139133 
L 247.031134 254.082599 
L 249.384252 254.731787 
L 251.73737 255.161884 
L 254.090488 255.435085 
L 256.443606 255.600623 
L 258.796724 255.695705 
L 261.149842 255.747079 
L 263.50296 255.772947 
L 265.856078 255.784946 
L 268.209196 255.79 
L 270.562314 255.791899 
L 272.915432 255.792521 
L 275.26855 255.792693 
L 277.621668 255.792732 
L 279.974786 255.792739 
L 282.327904 255.792739 
L 284.681022 255.792739 
L 287.03414 255.792739 
L 289.387258 255.792739 
L 291.740376 255.792739 
L 294.093494 255.792739 
L 296.446612 255.792739 
" clip-path="url(#pbe8f52e0f5)" style="fill: none; stroke: #8eba42; stroke-width: 2"/>
   </g>
   <g id="line2d_31">
    <path d="M 63.487934 255.792739 
L 65.841052 255.792739 
L 68.19417 255.792613 
L 70.547288 255.790366 
L 72.900406 255.776853 
L 75.253524 255.730166 
L 77.606642 255.613565 
L 79.95976 255.37667 
L 82.312878 254.960357 
L 84.665995 254.302621 
L 87.019113 253.341208 
L 89.372231 252.014979 
L 91.725349 250.268377 
L 94.078467 248.057474 
L 96.431585 245.352986 
L 98.784703 242.139896 
L 101.137821 238.413448 
L 103.490939 234.173022 
L 105.844057 229.418618 
L 108.197175 224.150856 
L 110.550293 218.374492 
L 112.903411 212.104544 
L 115.256529 205.370293 
L 117.609647 198.215671 
L 119.962765 190.696232 
L 122.315883 182.873116 
L 124.669001 174.808577 
L 127.022119 166.56462 
L 129.375237 158.200369 
L 131.728355 149.766204 
L 134.081473 141.298865 
L 136.434591 132.82026 
L 138.787708 124.339535 
L 141.140826 115.858683 
L 143.493944 107.377832 
L 145.847062 98.897233 
L 148.20018 90.420874 
L 150.553298 81.967048 
L 152.906416 73.579571 
L 155.259534 65.33192 
L 157.612652 57.324858 
L 159.96577 49.676632 
L 162.318888 42.511253 
L 164.672006 35.953226 
L 167.025124 30.124834 
L 169.378242 25.137184 
L 171.73136 21.07814 
L 174.084478 18.006263 
L 176.437596 15.951592 
L 178.790714 14.923636 
L 181.143832 14.923636 
L 183.49695 15.951592 
L 185.850068 18.006263 
L 188.203186 21.07814 
L 190.556304 25.137184 
L 192.909421 30.124834 
L 195.262539 35.953226 
L 197.615657 42.511253 
L 199.968775 49.676632 
L 202.321893 57.324858 
L 204.675011 65.33192 
L 207.028129 73.579571 
L 209.381247 81.967048 
L 211.734365 90.420874 
L 214.087483 98.897233 
L 216.440601 107.377832 
L 218.793719 115.858683 
L 221.146837 124.339535 
L 223.499955 132.82026 
L 225.853073 141.298865 
L 228.206191 149.766204 
L 230.559309 158.200369 
L 232.912427 166.56462 
L 235.265545 174.808577 
L 237.618663 182.873116 
L 239.971781 190.696232 
L 242.324899 198.215671 
L 244.678017 205.370293 
L 247.031134 212.104544 
L 249.384252 218.374492 
L 251.73737 224.150856 
L 254.090488 229.418618 
L 256.443606 234.173022 
L 258.796724 238.413448 
L 261.149842 242.139896 
L 263.50296 245.352986 
L 265.856078 248.057474 
L 268.209196 250.268377 
L 270.562314 252.014979 
L 272.915432 253.341208 
L 275.26855 254.302621 
L 277.621668 254.960357 
L 279.974786 255.37667 
L 282.327904 255.613565 
L 284.681022 255.730166 
L 287.03414 255.776853 
L 289.387258 255.790366 
L 291.740376 255.792613 
L 294.093494 255.792739 
L 296.446612 255.792739 
" clip-path="url(#pbe8f52e0f5)" style="fill: none; stroke: #ffb5b8; stroke-width: 2"/>
   </g>
   <g id="line2d_32">
    <path d="M 63.487934 255.792723 
L 65.841052 255.790654 
L 68.19417 255.749785 
L 70.547288 255.569162 
L 72.900406 255.141629 
L 75.253524 254.421689 
L 77.606642 253.376161 
L 79.95976 251.91123 
L 82.312878 249.914777 
L 84.665995 247.334805 
L 87.019113 244.188648 
L 89.372231 240.562311 
L 91.725349 236.57139 
L 94.078467 232.276943 
L 96.431585 227.705247 
L 98.784703 222.934084 
L 101.137821 218.080845 
L 103.490939 213.214801 
L 105.844057 208.335951 
L 108.197175 203.375025 
L 110.550293 198.214633 
L 112.903411 192.776991 
L 115.256529 187.035824 
L 117.609647 180.930073 
L 119.962765 174.344141 
L 122.315883 167.192024 
L 124.669001 159.456389 
L 127.022119 151.189231 
L 129.375237 142.502671 
L 131.728355 133.490523 
L 134.081473 124.185967 
L 136.434591 114.634503 
L 138.787708 104.943287 
L 141.140826 95.213279 
L 143.493944 85.485341 
L 145.847062 75.834994 
L 148.20018 66.464153 
L 150.553298 57.587129 
L 152.906416 49.294922 
L 155.259534 41.65389 
L 157.612652 34.851664 
L 159.96577 29.112481 
L 162.318888 24.540336 
L 164.672006 21.100561 
L 167.025124 18.621147 
L 169.378242 16.870901 
L 171.73136 15.727706 
L 174.084478 15.13901 
L 176.437596 14.949247 
L 178.790714 14.923636 
L 181.143832 14.923636 
L 183.49695 14.949247 
L 185.850068 15.13901 
L 188.203186 15.727706 
L 190.556304 16.870901 
L 192.909421 18.621147 
L 195.262539 21.100561 
L 197.615657 24.540336 
L 199.968775 29.112481 
L 202.321893 34.851664 
L 204.675011 41.65389 
L 207.028129 49.294922 
L 209.381247 57.587129 
L 211.734365 66.464153 
L 214.087483 75.834994 
L 216.440601 85.485341 
L 218.793719 95.213279 
L 221.146837 104.943287 
L 223.499955 114.634503 
L 225.853073 124.185967 
L 228.206191 133.490523 
L 230.559309 142.502671 
L 232.912427 151.189231 
L 235.265545 159.456389 
L 237.618663 167.192024 
L 239.971781 174.344141 
L 242.324899 180.930073 
L 244.678017 187.035824 
L 247.031134 192.776991 
L 249.384252 198.214633 
L 251.73737 203.375025 
L 254.090488 208.335951 
L 256.443606 213.214801 
L 258.796724 218.080845 
L 261.149842 222.934084 
L 263.50296 227.705247 
L 265.856078 232.276943 
L 268.209196 236.57139 
L 270.562314 240.562311 
L 272.915432 244.188648 
L 275.26855 247.334805 
L 277.621668 249.914777 
L 279.974786 251.91123 
L 282.327904 253.376161 
L 284.681022 254.421689 
L 287.03414 255.141629 
L 289.387258 255.569162 
L 291.740376 255.749785 
L 294.093494 255.790654 
L 296.446612 255.792723 
" clip-path="url(#pbe8f52e0f5)" style="fill: none; stroke: #e24a33; stroke-width: 2"/>
   </g>
   <g id="patch_3">
    <path d="M 51.84 267.84 
L 51.84 2.88 
" style="fill: none; stroke: #ffffff; stroke-linejoin: miter; stroke-linecap: square"/>
   </g>
   <g id="patch_4">
    <path d="M 308.094545 267.84 
L 308.094545 2.88 
" style="fill: none; stroke: #ffffff; stroke-linejoin: miter; stroke-linecap: square"/>
   </g>
   <g id="patch_5">
    <path d="M 51.84 267.84 
L 308.094545 267.84 
" style="fill: none; stroke: #ffffff; stroke-linejoin: miter; stroke-linecap: square"/>
   </g>
   <g id="patch_6">
    <path d="M 51.84 2.88 
L 308.094545 2.88 
" style="fill: none; stroke: #ffffff; stroke-linejoin: miter; stroke-linecap: square"/>
   </g>
   <g id="text_13">
    <!-- $\mathrm{mode}=max$ -->
    <g style="fill: #262626" transform="translate(140.799273 -3.12) scale(0.144 -0.144)">
     <defs>
      <path id="Cmr10-6d" d="M 191 0 
L 191 225 
Q 409 225 550 259 
Q 691 294 691 428 
L 691 2175 
Q 691 2347 639 2423 
Q 588 2500 491 2517 
Q 394 2534 191 2534 
L 191 2759 
L 1119 2828 
L 1119 2203 
Q 1247 2478 1498 2653 
Q 1750 2828 2047 2828 
Q 2784 2828 2913 2228 
Q 3041 2497 3287 2662 
Q 3534 2828 3828 2828 
Q 4119 2828 4317 2734 
Q 4516 2641 4616 2448 
Q 4716 2256 4716 1966 
L 4716 428 
Q 4716 294 4858 259 
Q 5000 225 5216 225 
L 5216 0 
L 3750 0 
L 3750 225 
Q 3969 225 4109 259 
Q 4250 294 4250 428 
L 4250 1947 
Q 4250 2269 4159 2466 
Q 4069 2663 3788 2663 
Q 3419 2663 3178 2366 
Q 2938 2069 2938 1691 
L 2938 428 
Q 2938 294 3078 259 
Q 3219 225 3438 225 
L 3438 0 
L 1972 0 
L 1972 225 
Q 2191 225 2331 259 
Q 2472 294 2472 428 
L 2472 1947 
Q 2472 2259 2381 2461 
Q 2291 2663 2009 2663 
Q 1638 2663 1398 2366 
Q 1159 2069 1159 1691 
L 1159 428 
Q 1159 294 1300 259 
Q 1441 225 1656 225 
L 1656 0 
L 191 0 
z
" transform="scale(0.015625)"/>
      <path id="Cmr10-6f" d="M 1600 -72 
Q 1216 -72 887 123 
Q 559 319 368 647 
Q 178 975 178 1363 
Q 178 1656 283 1928 
Q 388 2200 583 2414 
Q 778 2628 1037 2748 
Q 1297 2869 1600 2869 
Q 1994 2869 2317 2661 
Q 2641 2453 2828 2104 
Q 3016 1756 3016 1363 
Q 3016 978 2825 648 
Q 2634 319 2307 123 
Q 1981 -72 1600 -72 
z
M 1600 116 
Q 2113 116 2284 487 
Q 2456 859 2456 1434 
Q 2456 1756 2422 1967 
Q 2388 2178 2272 2350 
Q 2200 2456 2089 2536 
Q 1978 2616 1854 2658 
Q 1731 2700 1600 2700 
Q 1400 2700 1220 2609 
Q 1041 2519 922 2350 
Q 803 2169 770 1951 
Q 738 1734 738 1434 
Q 738 1075 800 789 
Q 863 503 1052 309 
Q 1241 116 1600 116 
z
" transform="scale(0.015625)"/>
      <path id="Cmr10-64" d="M 1563 -72 
Q 1184 -72 871 133 
Q 559 338 386 672 
Q 213 1006 213 1381 
Q 213 1769 402 2101 
Q 591 2434 916 2631 
Q 1241 2828 1631 2828 
Q 1866 2828 2075 2729 
Q 2284 2631 2438 2456 
L 2438 3788 
Q 2438 3959 2386 4036 
Q 2334 4113 2239 4130 
Q 2144 4147 1941 4147 
L 1941 4372 
L 2888 4441 
L 2888 581 
Q 2888 413 2939 336 
Q 2991 259 3086 242 
Q 3181 225 3384 225 
L 3384 0 
L 2419 -72 
L 2419 331 
Q 2253 141 2025 34 
Q 1797 -72 1563 -72 
z
M 909 556 
Q 1019 347 1201 222 
Q 1384 97 1600 97 
Q 1866 97 2087 250 
Q 2309 403 2419 647 
L 2419 2181 
Q 2344 2322 2230 2433 
Q 2116 2544 1973 2603 
Q 1831 2663 1672 2663 
Q 1338 2663 1134 2473 
Q 931 2284 850 1990 
Q 769 1697 769 1375 
Q 769 1119 795 928 
Q 822 738 909 556 
z
" transform="scale(0.015625)"/>
      <path id="Cmr10-65" d="M 1594 -72 
Q 1203 -72 876 133 
Q 550 338 364 680 
Q 178 1022 178 1403 
Q 178 1778 348 2115 
Q 519 2453 823 2661 
Q 1128 2869 1503 2869 
Q 1797 2869 2014 2770 
Q 2231 2672 2372 2497 
Q 2513 2322 2584 2084 
Q 2656 1847 2656 1563 
Q 2656 1478 2591 1478 
L 738 1478 
L 738 1409 
Q 738 878 952 497 
Q 1166 116 1650 116 
Q 1847 116 2014 203 
Q 2181 291 2304 447 
Q 2428 603 2472 781 
Q 2478 803 2495 820 
Q 2513 838 2534 838 
L 2591 838 
Q 2656 838 2656 756 
Q 2566 394 2266 161 
Q 1966 -72 1594 -72 
z
M 744 1638 
L 2203 1638 
Q 2203 1878 2136 2125 
Q 2069 2372 1912 2536 
Q 1756 2700 1503 2700 
Q 1141 2700 942 2361 
Q 744 2022 744 1638 
z
" transform="scale(0.015625)"/>
      <path id="Cmr10-3d" d="M 481 850 
Q 428 850 393 890 
Q 359 931 359 978 
Q 359 1031 393 1068 
Q 428 1106 481 1106 
L 4500 1106 
Q 4547 1106 4581 1068 
Q 4616 1031 4616 978 
Q 4616 931 4581 890 
Q 4547 850 4500 850 
L 481 850 
z
M 481 2094 
Q 428 2094 393 2131 
Q 359 2169 359 2222 
Q 359 2269 393 2309 
Q 428 2350 481 2350 
L 4500 2350 
Q 4547 2350 4581 2309 
Q 4616 2269 4616 2222 
Q 4616 2169 4581 2131 
Q 4547 2094 4500 2094 
L 481 2094 
z
" transform="scale(0.015625)"/>
      <path id="Cmmi10-6d" d="M 494 109 
Q 494 147 500 166 
L 978 2075 
Q 1025 2253 1025 2388 
Q 1025 2663 838 2663 
Q 638 2663 541 2423 
Q 444 2184 353 1819 
Q 353 1800 334 1789 
Q 316 1778 300 1778 
L 225 1778 
Q 203 1778 187 1801 
Q 172 1825 172 1844 
Q 241 2122 305 2315 
Q 369 2509 505 2668 
Q 641 2828 844 2828 
Q 1084 2828 1268 2676 
Q 1453 2525 1453 2291 
Q 1644 2541 1900 2684 
Q 2156 2828 2444 2828 
Q 2747 2828 2967 2673 
Q 3188 2519 3188 2234 
Q 3384 2513 3648 2670 
Q 3913 2828 4225 2828 
Q 4556 2828 4757 2648 
Q 4959 2469 4959 2138 
Q 4959 1875 4842 1503 
Q 4725 1131 4550 672 
Q 4459 450 4459 288 
Q 4459 97 4609 97 
Q 4859 97 5025 365 
Q 5191 634 5259 941 
Q 5278 978 5313 978 
L 5388 978 
Q 5413 978 5430 961 
Q 5447 944 5447 922 
Q 5447 916 5441 903 
Q 5353 541 5136 234 
Q 4919 -72 4594 -72 
Q 4369 -72 4209 83 
Q 4050 238 4050 459 
Q 4050 572 4103 709 
Q 4284 1191 4404 1569 
Q 4525 1947 4525 2234 
Q 4525 2413 4453 2538 
Q 4381 2663 4213 2663 
Q 3863 2663 3606 2448 
Q 3350 2234 3163 1881 
Q 3150 1819 3144 1784 
L 2731 141 
Q 2709 53 2632 -9 
Q 2556 -72 2463 -72 
Q 2388 -72 2330 -22 
Q 2272 28 2272 109 
Q 2272 147 2278 166 
L 2688 1797 
Q 2753 2059 2753 2234 
Q 2753 2413 2679 2538 
Q 2606 2663 2431 2663 
Q 2197 2663 2000 2559 
Q 1803 2456 1656 2286 
Q 1509 2116 1388 1881 
L 953 141 
Q 931 53 854 -9 
Q 778 -72 684 -72 
Q 606 -72 550 -22 
Q 494 28 494 109 
z
" transform="scale(0.015625)"/>
      <path id="Cmmi10-61" d="M 1113 -72 
Q 709 -72 476 233 
Q 244 538 244 953 
Q 244 1363 456 1803 
Q 669 2244 1030 2536 
Q 1391 2828 1806 2828 
Q 1997 2828 2147 2725 
Q 2297 2622 2381 2444 
Q 2453 2700 2663 2700 
Q 2744 2700 2798 2651 
Q 2853 2603 2853 2522 
Q 2853 2503 2851 2493 
Q 2850 2484 2847 2472 
L 2400 684 
Q 2356 494 2356 372 
Q 2356 97 2541 97 
Q 2741 97 2845 351 
Q 2950 606 3022 941 
Q 3034 978 3072 978 
L 3150 978 
Q 3175 978 3190 956 
Q 3206 934 3206 916 
Q 3094 469 2961 198 
Q 2828 -72 2528 -72 
Q 2313 -72 2147 54 
Q 1981 181 1941 391 
Q 1528 -72 1113 -72 
z
M 1119 97 
Q 1350 97 1567 270 
Q 1784 444 1941 678 
Q 1947 684 1947 697 
L 2291 2088 
L 2297 2106 
Q 2259 2334 2132 2498 
Q 2006 2663 1791 2663 
Q 1575 2663 1389 2486 
Q 1203 2309 1075 2069 
Q 950 1813 836 1366 
Q 722 919 722 672 
Q 722 450 817 273 
Q 913 97 1119 97 
z
" transform="scale(0.015625)"/>
      <path id="Cmmi10-78" d="M 500 184 
Q 613 97 819 97 
Q 1019 97 1172 289 
Q 1325 481 1381 709 
L 1672 1844 
Q 1741 2153 1741 2266 
Q 1741 2425 1652 2544 
Q 1563 2663 1403 2663 
Q 1200 2663 1022 2536 
Q 844 2409 722 2214 
Q 600 2019 550 1819 
Q 538 1778 500 1778 
L 422 1778 
Q 372 1778 372 1838 
L 372 1856 
Q 434 2094 584 2320 
Q 734 2547 951 2687 
Q 1169 2828 1416 2828 
Q 1650 2828 1839 2703 
Q 2028 2578 2106 2363 
Q 2216 2559 2386 2693 
Q 2556 2828 2759 2828 
Q 2897 2828 3040 2779 
Q 3184 2731 3275 2631 
Q 3366 2531 3366 2381 
Q 3366 2219 3261 2101 
Q 3156 1984 2994 1984 
Q 2891 1984 2822 2050 
Q 2753 2116 2753 2216 
Q 2753 2350 2845 2451 
Q 2938 2553 3066 2572 
Q 2950 2663 2747 2663 
Q 2541 2663 2389 2472 
Q 2238 2281 2175 2047 
L 1894 916 
Q 1825 659 1825 494 
Q 1825 331 1917 214 
Q 2009 97 2163 97 
Q 2463 97 2698 361 
Q 2934 625 3009 941 
Q 3022 978 3059 978 
L 3138 978 
Q 3163 978 3178 961 
Q 3194 944 3194 922 
Q 3194 916 3188 903 
Q 3097 522 2806 225 
Q 2516 -72 2150 -72 
Q 1916 -72 1727 54 
Q 1538 181 1459 397 
Q 1359 209 1182 68 
Q 1006 -72 806 -72 
Q 669 -72 523 -23 
Q 378 25 287 125 
Q 197 225 197 378 
Q 197 528 301 651 
Q 406 775 563 775 
Q 669 775 741 711 
Q 813 647 813 544 
Q 813 409 723 309 
Q 634 209 500 184 
z
" transform="scale(0.015625)"/>
     </defs>
     <use xlink:href="#Cmr10-6d" transform="translate(0 0.609375)"/>
     <use xlink:href="#Cmr10-6f" transform="translate(83.300781 0.609375)"/>
     <use xlink:href="#Cmr10-64" transform="translate(133.300781 0.609375)"/>
     <use xlink:href="#Cmr10-65" transform="translate(188.818359 0.609375)"/>
     <use xlink:href="#Cmr10-3d" transform="translate(250.761719 0.609375)"/>
     <use xlink:href="#Cmmi10-6d" transform="translate(346.005859 0.609375)"/>
     <use xlink:href="#Cmmi10-61" transform="translate(433.798828 0.609375)"/>
     <use xlink:href="#Cmmi10-78" transform="translate(486.582031 0.609375)"/>
    </g>
   </g>
   <g id="legend_1">
    <g id="line2d_33">
     <path d="M 154.617273 150.960312 
L 164.617273 150.960312 
L 174.617273 150.960312 
" style="fill: none; stroke: #e24a33; stroke-width: 2"/>
    </g>
    <g id="text_14">
     <!-- $\mathrm{up}$ -->
     <g style="fill: #262626" transform="translate(182.617273 154.460312) scale(0.1 -0.1)">
      <defs>
       <path id="Cmr10-75" d="M 691 763 
L 691 2175 
Q 691 2347 639 2423 
Q 588 2500 491 2517 
Q 394 2534 191 2534 
L 191 2759 
L 1159 2828 
L 1159 763 
Q 1159 513 1195 373 
Q 1231 234 1348 165 
Q 1466 97 1722 97 
Q 2066 97 2269 384 
Q 2472 672 2472 1038 
L 2472 2175 
Q 2472 2347 2419 2423 
Q 2366 2500 2270 2517 
Q 2175 2534 1972 2534 
L 1972 2759 
L 2938 2828 
L 2938 581 
Q 2938 413 2989 336 
Q 3041 259 3137 242 
Q 3234 225 3438 225 
L 3438 0 
L 2491 -72 
L 2491 469 
Q 2372 228 2159 78 
Q 1947 -72 1691 -72 
Q 1231 -72 961 123 
Q 691 319 691 763 
z
" transform="scale(0.015625)"/>
       <path id="Cmr10-70" d="M 166 -1241 
L 166 -1019 
Q 384 -1019 525 -981 
Q 666 -944 666 -813 
L 666 2272 
Q 666 2447 541 2490 
Q 416 2534 166 2534 
L 166 2759 
L 1113 2828 
L 1113 2431 
Q 1288 2625 1520 2726 
Q 1753 2828 2016 2828 
Q 2394 2828 2697 2623 
Q 3000 2419 3170 2086 
Q 3341 1753 3341 1381 
Q 3341 994 3152 659 
Q 2963 325 2636 126 
Q 2309 -72 1919 -72 
Q 1453 -72 1131 306 
L 1131 -813 
Q 1131 -944 1273 -981 
Q 1416 -1019 1631 -1019 
L 1631 -1241 
L 166 -1241 
z
M 1131 622 
Q 1244 394 1444 245 
Q 1644 97 1881 97 
Q 2103 97 2273 215 
Q 2444 334 2559 534 
Q 2675 734 2729 954 
Q 2784 1175 2784 1381 
Q 2784 1638 2692 1936 
Q 2600 2234 2411 2439 
Q 2222 2644 1953 2644 
Q 1694 2644 1476 2511 
Q 1259 2378 1131 2150 
L 1131 622 
z
" transform="scale(0.015625)"/>
      </defs>
      <use xlink:href="#Cmr10-75" transform="translate(0 0.8125)"/>
      <use xlink:href="#Cmr10-70" transform="translate(55.517578 0.8125)"/>
     </g>
    </g>
    <g id="line2d_34">
     <path d="M 154.617273 165.118125 
L 164.617273 165.118125 
L 174.617273 165.118125 
" style="fill: none; stroke: #348abd; stroke-width: 2"/>
    </g>
    <g id="text_15">
     <!-- $\mathrm{up}_3$ -->
     <g style="fill: #262626" transform="translate(182.617273 168.618125) scale(0.1 -0.1)">
      <defs>
       <path id="Cmr10-33" d="M 609 494 
Q 759 275 1012 169 
Q 1266 63 1556 63 
Q 1928 63 2084 380 
Q 2241 697 2241 1100 
Q 2241 1281 2208 1462 
Q 2175 1644 2097 1800 
Q 2019 1956 1883 2050 
Q 1747 2144 1550 2144 
L 1125 2144 
Q 1069 2144 1069 2203 
L 1069 2259 
Q 1069 2309 1125 2309 
L 1478 2338 
Q 1703 2338 1851 2506 
Q 2000 2675 2069 2917 
Q 2138 3159 2138 3378 
Q 2138 3684 1994 3881 
Q 1850 4078 1556 4078 
Q 1313 4078 1091 3986 
Q 869 3894 738 3706 
Q 750 3709 759 3711 
Q 769 3713 781 3713 
Q 925 3713 1022 3613 
Q 1119 3513 1119 3372 
Q 1119 3234 1022 3134 
Q 925 3034 781 3034 
Q 641 3034 541 3134 
Q 441 3234 441 3372 
Q 441 3647 606 3850 
Q 772 4053 1033 4158 
Q 1294 4263 1556 4263 
Q 1750 4263 1965 4205 
Q 2181 4147 2356 4039 
Q 2531 3931 2642 3762 
Q 2753 3594 2753 3378 
Q 2753 3109 2633 2881 
Q 2513 2653 2303 2487 
Q 2094 2322 1844 2241 
Q 2122 2188 2372 2031 
Q 2622 1875 2773 1631 
Q 2925 1388 2925 1106 
Q 2925 753 2731 467 
Q 2538 181 2222 20 
Q 1906 -141 1556 -141 
Q 1256 -141 954 -26 
Q 653 88 461 316 
Q 269 544 269 863 
Q 269 1022 375 1128 
Q 481 1234 641 1234 
Q 744 1234 830 1186 
Q 916 1138 964 1050 
Q 1013 963 1013 863 
Q 1013 706 903 600 
Q 794 494 641 494 
L 609 494 
z
" transform="scale(0.015625)"/>
      </defs>
      <use xlink:href="#Cmr10-75" transform="translate(0 0.8125)"/>
      <use xlink:href="#Cmr10-70" transform="translate(55.517578 0.8125)"/>
      <use xlink:href="#Cmr10-33" transform="translate(115.499297 -16.19375) scale(0.7)"/>
     </g>
    </g>
    <g id="line2d_35">
     <path d="M 154.617273 179.275937 
L 164.617273 179.275937 
L 174.617273 179.275937 
" style="fill: none; stroke: #988ed5; stroke-width: 2"/>
    </g>
    <g id="text_16">
     <!-- $\mathrm{h}_3$ -->
     <g style="fill: #262626" transform="translate(182.617273 182.775937) scale(0.1 -0.1)">
      <defs>
       <path id="Cmr10-68" d="M 191 0 
L 191 225 
Q 409 225 550 259 
Q 691 294 691 428 
L 691 3788 
Q 691 3959 639 4036 
Q 588 4113 491 4130 
Q 394 4147 191 4147 
L 191 4372 
L 1141 4441 
L 1141 2241 
Q 1275 2506 1515 2667 
Q 1756 2828 2047 2828 
Q 2491 2828 2714 2615 
Q 2938 2403 2938 1966 
L 2938 428 
Q 2938 294 3078 259 
Q 3219 225 3438 225 
L 3438 0 
L 1972 0 
L 1972 225 
Q 2191 225 2331 259 
Q 2472 294 2472 428 
L 2472 1947 
Q 2472 2259 2381 2461 
Q 2291 2663 2009 2663 
Q 1638 2663 1398 2366 
Q 1159 2069 1159 1691 
L 1159 428 
Q 1159 294 1300 259 
Q 1441 225 1656 225 
L 1656 0 
L 191 0 
z
" transform="scale(0.015625)"/>
      </defs>
      <use xlink:href="#Cmr10-68" transform="translate(0 0.609375)"/>
      <use xlink:href="#Cmr10-33" transform="translate(59.981719 -16.396875) scale(0.7)"/>
     </g>
    </g>
    <g id="line2d_36">
     <path d="M 154.617273 193.42125 
L 164.617273 193.42125 
L 174.617273 193.42125 
" style="fill: none; stroke: #777777; stroke-width: 2"/>
    </g>
    <g id="text_17">
     <!-- $\mathrm{\Xi}_3$ -->
     <g style="fill: #262626" transform="translate(182.617273 196.92125) scale(0.1 -0.1)">
      <defs>
       <path id="Cmr10-a5" d="M 319 0 
L 269 1094 
L 453 1094 
Q 469 603 544 519 
Q 569 494 781 484 
Q 994 475 1306 475 
L 2956 475 
Q 3272 475 3483 484 
Q 3694 494 3719 519 
Q 3794 603 3809 1094 
L 3994 1094 
L 3944 0 
L 319 0 
z
M 891 1709 
L 891 2834 
L 1075 2834 
L 1075 2509 
L 3188 2509 
L 3188 2834 
L 3372 2834 
L 3372 1709 
L 3188 1709 
L 3188 2034 
L 1075 2034 
L 1075 1709 
L 891 1709 
z
M 300 3347 
L 353 4372 
L 3909 4372 
L 3963 3347 
L 3775 3347 
Q 3759 3784 3694 3859 
Q 3647 3897 2938 3897 
L 1325 3897 
Q 616 3897 569 3859 
Q 503 3784 488 3347 
L 300 3347 
z
" transform="scale(0.015625)"/>
      </defs>
      <use xlink:href="#Cmr10-a5" transform="translate(0 0.6875)"/>
      <use xlink:href="#Cmr10-33" transform="translate(71.065703 -16.31875) scale(0.7)"/>
     </g>
    </g>
    <g id="line2d_37">
     <path d="M 154.617273 207.566562 
L 164.617273 207.566562 
L 174.617273 207.566562 
" style="fill: none; stroke: #fbc15e; stroke-width: 2"/>
    </g>
    <g id="text_18">
     <!-- $\mathrm{fup}_3$ -->
     <g style="fill: #262626" transform="translate(182.617273 211.066562) scale(0.1 -0.1)">
      <defs>
       <path id="Cmr10-66" d="M 206 0 
L 206 225 
Q 422 225 562 259 
Q 703 294 703 428 
L 703 2534 
L 213 2534 
L 213 2759 
L 703 2759 
L 703 3525 
Q 703 3731 789 3911 
Q 875 4091 1020 4225 
Q 1166 4359 1355 4436 
Q 1544 4513 1747 4513 
Q 1963 4513 2136 4384 
Q 2309 4256 2309 4044 
Q 2309 3922 2226 3839 
Q 2144 3756 2022 3756 
Q 1900 3756 1814 3839 
Q 1728 3922 1728 4044 
Q 1728 4244 1900 4313 
Q 1797 4347 1716 4347 
Q 1528 4347 1395 4214 
Q 1263 4081 1197 3890 
Q 1131 3700 1131 3513 
L 1131 2759 
L 1869 2759 
L 1869 2534 
L 1153 2534 
L 1153 428 
Q 1153 297 1340 261 
Q 1528 225 1772 225 
L 1772 0 
L 206 0 
z
" transform="scale(0.015625)"/>
      </defs>
      <use xlink:href="#Cmr10-66" transform="translate(0 0.484375)"/>
      <use xlink:href="#Cmr10-75" transform="translate(30.517578 0.484375)"/>
      <use xlink:href="#Cmr10-70" transform="translate(86.035156 0.484375)"/>
      <use xlink:href="#Cmr10-33" transform="translate(146.016875 -16.521875) scale(0.7)"/>
     </g>
    </g>
    <g id="line2d_38">
     <path d="M 154.617273 221.724375 
L 164.617273 221.724375 
L 174.617273 221.724375 
" style="fill: none; stroke: #8eba42; stroke-width: 2"/>
    </g>
    <g id="text_19">
     <!-- $\mathrm{ch}_{2,3}$ -->
     <g style="fill: #262626" transform="translate(182.617273 225.224375) scale(0.1 -0.1)">
      <defs>
       <path id="Cmr10-63" d="M 1594 -72 
Q 1206 -72 890 129 
Q 575 331 394 667 
Q 213 1003 213 1381 
Q 213 1759 392 2106 
Q 572 2453 889 2661 
Q 1206 2869 1594 2869 
Q 1969 2869 2276 2722 
Q 2584 2575 2584 2241 
Q 2584 2116 2495 2023 
Q 2406 1931 2278 1931 
Q 2150 1931 2061 2023 
Q 1972 2116 1972 2241 
Q 1972 2353 2044 2436 
Q 2116 2519 2222 2541 
Q 2000 2681 1600 2681 
Q 1294 2681 1106 2478 
Q 919 2275 844 1975 
Q 769 1675 769 1381 
Q 769 1072 861 783 
Q 953 494 1158 305 
Q 1363 116 1672 116 
Q 1975 116 2187 302 
Q 2400 488 2478 788 
Q 2478 825 2528 825 
L 2606 825 
Q 2625 825 2640 808 
Q 2656 791 2656 769 
L 2656 750 
Q 2559 372 2271 150 
Q 1984 -72 1594 -72 
z
" transform="scale(0.015625)"/>
       <path id="Cmr10-32" d="M 319 0 
L 319 172 
Q 319 188 331 206 
L 1325 1306 
Q 1550 1550 1690 1715 
Q 1831 1881 1968 2097 
Q 2106 2313 2186 2536 
Q 2266 2759 2266 3009 
Q 2266 3272 2169 3511 
Q 2072 3750 1880 3894 
Q 1688 4038 1416 4038 
Q 1138 4038 916 3870 
Q 694 3703 603 3438 
Q 628 3444 672 3444 
Q 816 3444 917 3347 
Q 1019 3250 1019 3097 
Q 1019 2950 917 2848 
Q 816 2747 672 2747 
Q 522 2747 420 2851 
Q 319 2956 319 3097 
Q 319 3338 409 3548 
Q 500 3759 670 3923 
Q 841 4088 1055 4175 
Q 1269 4263 1509 4263 
Q 1875 4263 2190 4108 
Q 2506 3953 2690 3670 
Q 2875 3388 2875 3009 
Q 2875 2731 2753 2481 
Q 2631 2231 2440 2026 
Q 2250 1822 1953 1562 
Q 1656 1303 1563 1216 
L 838 519 
L 1453 519 
Q 1906 519 2211 526 
Q 2516 534 2534 550 
Q 2609 631 2688 1141 
L 2875 1141 
L 2694 0 
L 319 0 
z
" transform="scale(0.015625)"/>
       <path id="Cmmi10-3b" d="M 634 -1153 
Q 634 -1125 659 -1100 
Q 891 -878 1019 -587 
Q 1147 -297 1147 25 
L 1147 103 
Q 1044 0 891 0 
Q 744 0 641 103 
Q 538 206 538 353 
Q 538 503 641 603 
Q 744 703 891 703 
Q 1119 703 1216 492 
Q 1313 281 1313 25 
Q 1313 -331 1170 -651 
Q 1028 -972 769 -1228 
Q 744 -1241 728 -1241 
Q 697 -1241 665 -1212 
Q 634 -1184 634 -1153 
z
" transform="scale(0.015625)"/>
      </defs>
      <use xlink:href="#Cmr10-63" transform="translate(0 0.609375)"/>
      <use xlink:href="#Cmr10-68" transform="translate(44.384766 0.609375)"/>
      <use xlink:href="#Cmr10-32" transform="translate(104.366484 -16.396875) scale(0.7)"/>
      <use xlink:href="#Cmmi10-3b" transform="translate(139.366484 -16.396875) scale(0.7)"/>
      <use xlink:href="#Cmr10-33" transform="translate(171.037383 -16.396875) scale(0.7)"/>
     </g>
    </g>
    <g id="line2d_39">
     <path d="M 154.617273 236.982188 
L 164.617273 236.982188 
L 174.617273 236.982188 
" style="fill: none; stroke: #ffb5b8; stroke-width: 2"/>
    </g>
    <g id="text_20">
     <!-- $\mathrm{fip}_{2,1}$ -->
     <g style="fill: #262626" transform="translate(182.617273 240.482188) scale(0.1 -0.1)">
      <defs>
       <path id="Cmr10-69" d="M 197 0 
L 197 225 
Q 416 225 556 259 
Q 697 294 697 428 
L 697 2175 
Q 697 2422 601 2478 
Q 506 2534 225 2534 
L 225 2759 
L 1147 2828 
L 1147 428 
Q 1147 294 1269 259 
Q 1391 225 1594 225 
L 1594 0 
L 197 0 
z
M 469 3928 
Q 469 4069 575 4175 
Q 681 4281 819 4281 
Q 909 4281 993 4234 
Q 1078 4188 1125 4103 
Q 1172 4019 1172 3928 
Q 1172 3791 1065 3684 
Q 959 3578 819 3578 
Q 681 3578 575 3684 
Q 469 3791 469 3928 
z
" transform="scale(0.015625)"/>
       <path id="Cmr10-31" d="M 594 0 
L 594 225 
Q 1394 225 1394 428 
L 1394 3788 
Q 1063 3628 556 3628 
L 556 3853 
Q 1341 3853 1741 4263 
L 1831 4263 
Q 1853 4263 1873 4245 
Q 1894 4228 1894 4206 
L 1894 428 
Q 1894 225 2694 225 
L 2694 0 
L 594 0 
z
" transform="scale(0.015625)"/>
      </defs>
      <use xlink:href="#Cmr10-66" transform="translate(0 0.484375)"/>
      <use xlink:href="#Cmr10-69" transform="translate(30.517578 0.484375)"/>
      <use xlink:href="#Cmr10-70" transform="translate(58.203125 0.484375)"/>
      <use xlink:href="#Cmr10-32" transform="translate(118.184844 -16.521875) scale(0.7)"/>
      <use xlink:href="#Cmmi10-3b" transform="translate(153.184844 -16.521875) scale(0.7)"/>
      <use xlink:href="#Cmr10-31" transform="translate(184.855742 -16.521875) scale(0.7)"/>
     </g>
    </g>
    <g id="line2d_40">
     <path d="M 154.617273 252.24 
L 164.617273 252.24 
L 174.617273 252.24 
" style="fill: none; stroke: #e24a33; stroke-width: 2"/>
    </g>
    <g id="text_21">
     <!-- $\mathrm{fp}_{2,1}$ -->
     <g style="fill: #262626" transform="translate(182.617273 255.74) scale(0.1 -0.1)">
      <use xlink:href="#Cmr10-66" transform="translate(0 0.484375)"/>
      <use xlink:href="#Cmr10-70" transform="translate(30.517578 0.484375)"/>
      <use xlink:href="#Cmr10-32" transform="translate(90.499297 -16.521875) scale(0.7)"/>
      <use xlink:href="#Cmmi10-3b" transform="translate(125.499297 -16.521875) scale(0.7)"/>
      <use xlink:href="#Cmr10-31" transform="translate(157.170195 -16.521875) scale(0.7)"/>
     </g>
    </g>
   </g>
  </g>
  <g id="axes_2">
   <g id="patch_7">
    <path d="M 359.345455 267.84 
L 615.6 267.84 
L 615.6 2.88 
L 359.345455 2.88 
z
" style="fill: #e5e5e5"/>
   </g>
   <g id="matplotlib.axis_3">
    <g id="xtick_7">
     <g id="line2d_41">
      <path d="M 370.993388 267.84 
L 370.993388 2.88 
" clip-path="url(#p42e00d1655)" style="fill: none; stroke: #ffffff; stroke-width: 0.5"/>
     </g>
     <g id="line2d_42"/>
     <g id="text_22">
      <!-- 0 -->
      <g style="fill: #555555" transform="translate(368.21292 278.497813) scale(0.1 -0.1)">
       <use xlink:href="#ArialMT-30"/>
      </g>
     </g>
    </g>
    <g id="xtick_8">
     <g id="line2d_43">
      <path d="M 418.055748 267.84 
L 418.055748 2.88 
" clip-path="url(#p42e00d1655)" style="fill: none; stroke: #ffffff; stroke-width: 0.5"/>
     </g>
     <g id="line2d_44"/>
     <g id="text_23">
      <!-- 20 -->
      <g style="fill: #555555" transform="translate(412.49481 278.497813) scale(0.1 -0.1)">
       <use xlink:href="#ArialMT-32"/>
       <use xlink:href="#ArialMT-30" x="55.615234"/>
      </g>
     </g>
    </g>
    <g id="xtick_9">
     <g id="line2d_45">
      <path d="M 465.118107 267.84 
L 465.118107 2.88 
" clip-path="url(#p42e00d1655)" style="fill: none; stroke: #ffffff; stroke-width: 0.5"/>
     </g>
     <g id="line2d_46"/>
     <g id="text_24">
      <!-- 40 -->
      <g style="fill: #555555" transform="translate(459.557169 278.497813) scale(0.1 -0.1)">
       <use xlink:href="#ArialMT-34"/>
       <use xlink:href="#ArialMT-30" x="55.615234"/>
      </g>
     </g>
    </g>
    <g id="xtick_10">
     <g id="line2d_47">
      <path d="M 512.180466 267.84 
L 512.180466 2.88 
" clip-path="url(#p42e00d1655)" style="fill: none; stroke: #ffffff; stroke-width: 0.5"/>
     </g>
     <g id="line2d_48"/>
     <g id="text_25">
      <!-- 60 -->
      <g style="fill: #555555" transform="translate(506.619528 278.497813) scale(0.1 -0.1)">
       <use xlink:href="#ArialMT-36"/>
       <use xlink:href="#ArialMT-30" x="55.615234"/>
      </g>
     </g>
    </g>
    <g id="xtick_11">
     <g id="line2d_49">
      <path d="M 559.242825 267.84 
L 559.242825 2.88 
" clip-path="url(#p42e00d1655)" style="fill: none; stroke: #ffffff; stroke-width: 0.5"/>
     </g>
     <g id="line2d_50"/>
     <g id="text_26">
      <!-- 80 -->
      <g style="fill: #555555" transform="translate(553.681887 278.497813) scale(0.1 -0.1)">
       <use xlink:href="#ArialMT-38"/>
       <use xlink:href="#ArialMT-30" x="55.615234"/>
      </g>
     </g>
    </g>
    <g id="xtick_12">
     <g id="line2d_51">
      <path d="M 606.305184 267.84 
L 606.305184 2.88 
" clip-path="url(#p42e00d1655)" style="fill: none; stroke: #ffffff; stroke-width: 0.5"/>
     </g>
     <g id="line2d_52"/>
     <g id="text_27">
      <!-- 100 -->
      <g style="fill: #555555" transform="translate(597.963778 278.497813) scale(0.1 -0.1)">
       <use xlink:href="#ArialMT-31"/>
       <use xlink:href="#ArialMT-30" x="55.615234"/>
       <use xlink:href="#ArialMT-30" x="111.230469"/>
      </g>
     </g>
    </g>
   </g>
   <g id="matplotlib.axis_4">
    <g id="ytick_7">
     <g id="line2d_53">
      <path d="M 359.345455 255.794556 
L 615.6 255.794556 
" clip-path="url(#p42e00d1655)" style="fill: none; stroke: #ffffff; stroke-width: 0.5"/>
     </g>
     <g id="line2d_54"/>
     <g id="text_28">
      <!-- 0.00 -->
      <g style="fill: #555555" transform="translate(336.384517 259.373462) scale(0.1 -0.1)">
       <use xlink:href="#ArialMT-30"/>
       <use xlink:href="#ArialMT-2e" x="55.615234"/>
       <use xlink:href="#ArialMT-30" x="83.398438"/>
       <use xlink:href="#ArialMT-30" x="139.013672"/>
      </g>
     </g>
    </g>
    <g id="ytick_8">
     <g id="line2d_55">
      <path d="M 359.345455 225.752758 
L 615.6 225.752758 
" clip-path="url(#p42e00d1655)" style="fill: none; stroke: #ffffff; stroke-width: 0.5"/>
     </g>
     <g id="line2d_56"/>
     <g id="text_29">
      <!-- 0.25 -->
      <g style="fill: #555555" transform="translate(336.384517 229.331664) scale(0.1 -0.1)">
       <defs>
        <path id="ArialMT-35" d="M 266 1200 
L 856 1250 
Q 922 819 1161 601 
Q 1400 384 1738 384 
Q 2144 384 2425 690 
Q 2706 997 2706 1503 
Q 2706 1984 2436 2262 
Q 2166 2541 1728 2541 
Q 1456 2541 1237 2417 
Q 1019 2294 894 2097 
L 366 2166 
L 809 4519 
L 3088 4519 
L 3088 3981 
L 1259 3981 
L 1013 2750 
Q 1425 3038 1878 3038 
Q 2478 3038 2890 2622 
Q 3303 2206 3303 1553 
Q 3303 931 2941 478 
Q 2500 -78 1738 -78 
Q 1113 -78 717 272 
Q 322 622 266 1200 
z
" transform="scale(0.015625)"/>
       </defs>
       <use xlink:href="#ArialMT-30"/>
       <use xlink:href="#ArialMT-2e" x="55.615234"/>
       <use xlink:href="#ArialMT-32" x="83.398438"/>
       <use xlink:href="#ArialMT-35" x="139.013672"/>
      </g>
     </g>
    </g>
    <g id="ytick_9">
     <g id="line2d_57">
      <path d="M 359.345455 195.710959 
L 615.6 195.710959 
" clip-path="url(#p42e00d1655)" style="fill: none; stroke: #ffffff; stroke-width: 0.5"/>
     </g>
     <g id="line2d_58"/>
     <g id="text_30">
      <!-- 0.50 -->
      <g style="fill: #555555" transform="translate(336.384517 199.289866) scale(0.1 -0.1)">
       <use xlink:href="#ArialMT-30"/>
       <use xlink:href="#ArialMT-2e" x="55.615234"/>
       <use xlink:href="#ArialMT-35" x="83.398438"/>
       <use xlink:href="#ArialMT-30" x="139.013672"/>
      </g>
     </g>
    </g>
    <g id="ytick_10">
     <g id="line2d_59">
      <path d="M 359.345455 165.669161 
L 615.6 165.669161 
" clip-path="url(#p42e00d1655)" style="fill: none; stroke: #ffffff; stroke-width: 0.5"/>
     </g>
     <g id="line2d_60"/>
     <g id="text_31">
      <!-- 0.75 -->
      <g style="fill: #555555" transform="translate(336.384517 169.248067) scale(0.1 -0.1)">
       <defs>
        <path id="ArialMT-37" d="M 303 3981 
L 303 4522 
L 3269 4522 
L 3269 4084 
Q 2831 3619 2401 2847 
Q 1972 2075 1738 1259 
Q 1569 684 1522 0 
L 944 0 
Q 953 541 1156 1306 
Q 1359 2072 1739 2783 
Q 2119 3494 2547 3981 
L 303 3981 
z
" transform="scale(0.015625)"/>
       </defs>
       <use xlink:href="#ArialMT-30"/>
       <use xlink:href="#ArialMT-2e" x="55.615234"/>
       <use xlink:href="#ArialMT-37" x="83.398438"/>
       <use xlink:href="#ArialMT-35" x="139.013672"/>
      </g>
     </g>
    </g>
    <g id="ytick_11">
     <g id="line2d_61">
      <path d="M 359.345455 135.627363 
L 615.6 135.627363 
" clip-path="url(#p42e00d1655)" style="fill: none; stroke: #ffffff; stroke-width: 0.5"/>
     </g>
     <g id="line2d_62"/>
     <g id="text_32">
      <!-- 1.00 -->
      <g style="fill: #555555" transform="translate(336.384517 139.206269) scale(0.1 -0.1)">
       <use xlink:href="#ArialMT-31"/>
       <use xlink:href="#ArialMT-2e" x="55.615234"/>
       <use xlink:href="#ArialMT-30" x="83.398438"/>
       <use xlink:href="#ArialMT-30" x="139.013672"/>
      </g>
     </g>
    </g>
    <g id="ytick_12">
     <g id="line2d_63">
      <path d="M 359.345455 105.585565 
L 615.6 105.585565 
" clip-path="url(#p42e00d1655)" style="fill: none; stroke: #ffffff; stroke-width: 0.5"/>
     </g>
     <g id="line2d_64"/>
     <g id="text_33">
      <!-- 1.25 -->
      <g style="fill: #555555" transform="translate(336.384517 109.164471) scale(0.1 -0.1)">
       <use xlink:href="#ArialMT-31"/>
       <use xlink:href="#ArialMT-2e" x="55.615234"/>
       <use xlink:href="#ArialMT-32" x="83.398438"/>
       <use xlink:href="#ArialMT-35" x="139.013672"/>
      </g>
     </g>
    </g>
    <g id="ytick_13">
     <g id="line2d_65">
      <path d="M 359.345455 75.543766 
L 615.6 75.543766 
" clip-path="url(#p42e00d1655)" style="fill: none; stroke: #ffffff; stroke-width: 0.5"/>
     </g>
     <g id="line2d_66"/>
     <g id="text_34">
      <!-- 1.50 -->
      <g style="fill: #555555" transform="translate(336.384517 79.122673) scale(0.1 -0.1)">
       <use xlink:href="#ArialMT-31"/>
       <use xlink:href="#ArialMT-2e" x="55.615234"/>
       <use xlink:href="#ArialMT-35" x="83.398438"/>
       <use xlink:href="#ArialMT-30" x="139.013672"/>
      </g>
     </g>
    </g>
    <g id="ytick_14">
     <g id="line2d_67">
      <path d="M 359.345455 45.501968 
L 615.6 45.501968 
" clip-path="url(#p42e00d1655)" style="fill: none; stroke: #ffffff; stroke-width: 0.5"/>
     </g>
     <g id="line2d_68"/>
     <g id="text_35">
      <!-- 1.75 -->
      <g style="fill: #555555" transform="translate(336.384517 49.080874) scale(0.1 -0.1)">
       <use xlink:href="#ArialMT-31"/>
       <use xlink:href="#ArialMT-2e" x="55.615234"/>
       <use xlink:href="#ArialMT-37" x="83.398438"/>
       <use xlink:href="#ArialMT-35" x="139.013672"/>
      </g>
     </g>
    </g>
    <g id="ytick_15">
     <g id="line2d_69">
      <path d="M 359.345455 15.46017 
L 615.6 15.46017 
" clip-path="url(#p42e00d1655)" style="fill: none; stroke: #ffffff; stroke-width: 0.5"/>
     </g>
     <g id="line2d_70"/>
     <g id="text_36">
      <!-- 2.00 -->
      <g style="fill: #555555" transform="translate(336.384517 19.039076) scale(0.1 -0.1)">
       <use xlink:href="#ArialMT-32"/>
       <use xlink:href="#ArialMT-2e" x="55.615234"/>
       <use xlink:href="#ArialMT-30" x="83.398438"/>
       <use xlink:href="#ArialMT-30" x="139.013672"/>
      </g>
     </g>
    </g>
   </g>
   <g id="line2d_71">
    <path d="M 370.993388 255.794556 
L 373.346506 255.794554 
L 375.699624 255.794108 
L 378.052742 255.787737 
L 380.40586 255.755303 
L 382.758978 255.657085 
L 385.112096 255.437173 
L 387.465214 255.032971 
L 389.818332 254.381298 
L 392.17145 253.422591 
L 394.524568 252.110204 
L 396.877686 250.416782 
L 399.230804 248.332434 
L 401.583922 245.855771 
L 403.93704 242.986865 
L 406.290158 239.72829 
L 408.643276 236.093668 
L 410.996394 232.115327 
L 413.349512 227.844039 
L 415.70263 223.340987 
L 418.055748 218.669466 
L 420.408866 213.891248 
L 422.761983 209.058973 
L 425.115101 204.207458 
L 427.468219 199.352389 
L 429.821337 194.497149 
L 432.174455 189.641922 
L 434.527573 184.787687 
L 436.880691 179.942699 
L 439.233809 175.131859 
L 441.586927 170.399583 
L 443.940045 165.804389 
L 446.293163 161.409326 
L 448.646281 157.277257 
L 450.999399 153.465481 
L 453.352517 150.016099 
L 455.705635 146.951602 
L 458.058753 144.278774 
L 460.411871 141.998281 
L 462.764989 140.10985 
L 465.118107 138.609132 
L 467.471225 137.478261 
L 469.824343 136.679952 
L 472.177461 136.159849 
L 474.530579 135.855713 
L 476.883696 135.704286 
L 479.236814 135.645119 
L 481.589932 135.629441 
L 483.94305 135.627417 
L 486.296168 135.627363 
L 488.649286 135.627363 
L 491.002404 135.627417 
L 493.355522 135.629441 
L 495.70864 135.645119 
L 498.061758 135.704286 
L 500.414876 135.855713 
L 502.767994 136.159849 
L 505.121112 136.679952 
L 507.47423 137.478261 
L 509.827348 138.609132 
L 512.180466 140.10985 
L 514.533584 141.998281 
L 516.886702 144.278774 
L 519.23982 146.951602 
L 521.592938 150.016099 
L 523.946056 153.465481 
L 526.299174 157.277257 
L 528.652292 161.409326 
L 531.005409 165.804389 
L 533.358527 170.399583 
L 535.711645 175.131859 
L 538.064763 179.942699 
L 540.417881 184.787687 
L 542.770999 189.641922 
L 545.124117 194.497149 
L 547.477235 199.352389 
L 549.830353 204.207458 
L 552.183471 209.058973 
L 554.536589 213.891248 
L 556.889707 218.669466 
L 559.242825 223.340987 
L 561.595943 227.844039 
L 563.949061 232.115327 
L 566.302179 236.093668 
L 568.655297 239.72829 
L 571.008415 242.986865 
L 573.361533 245.855771 
L 575.714651 248.332434 
L 578.067769 250.416782 
L 580.420887 252.110204 
L 582.774005 253.422591 
L 585.127122 254.381298 
L 587.48024 255.032971 
L 589.833358 255.437173 
L 592.186476 255.657085 
L 594.539594 255.755303 
L 596.892712 255.787737 
L 599.24583 255.794108 
L 601.598948 255.794554 
L 603.952066 255.794556 
" clip-path="url(#p42e00d1655)" style="fill: none; stroke: #e24a33; stroke-width: 2"/>
   </g>
   <g id="line2d_72">
    <path d="M 370.993388 255.796364 
L 373.346506 255.656982 
L 375.699624 254.726244 
L 378.052742 253.16291 
L 380.40586 251.271645 
L 382.758978 248.49467 
L 385.112096 245.257873 
L 387.465214 241.561287 
L 389.818332 236.979052 
L 392.17145 232.182292 
L 394.524568 228.014554 
L 396.877686 224.638253 
L 399.230804 221.540739 
L 401.583922 219.234583 
L 403.93704 217.561002 
L 406.290158 216.215291 
L 408.643276 215.754993 
L 410.996394 215.722699 
L 413.349512 215.262402 
L 415.70263 213.916691 
L 418.055748 212.243114 
L 420.408866 209.936961 
L 422.761983 206.839453 
L 425.115101 203.463158 
L 427.468219 199.295428 
L 429.821337 194.498679 
L 432.174455 189.916458 
L 434.527573 186.219891 
L 436.880691 182.983121 
L 439.233809 180.206184 
L 441.586927 178.314977 
L 443.940045 176.751745 
L 446.293163 175.821243 
L 448.646281 175.683027 
L 450.999399 175.544812 
L 453.352517 174.614311 
L 455.705635 173.051082 
L 458.058753 171.159878 
L 460.411871 168.382945 
L 462.764989 165.14618 
L 465.118107 161.44962 
L 467.471225 156.867409 
L 469.824343 152.070672 
L 472.177461 147.902959 
L 474.530579 144.526687 
L 476.883696 141.42921 
L 479.236814 139.123104 
L 481.589932 137.449601 
L 483.94305 136.104039 
L 486.296168 135.644197 
L 488.649286 135.644197 
L 491.002404 136.104039 
L 493.355522 137.449601 
L 495.70864 139.123104 
L 498.061758 141.42921 
L 500.414876 144.526687 
L 502.767994 147.902959 
L 505.121112 152.070672 
L 507.47423 156.867409 
L 509.827348 161.44962 
L 512.180466 165.14618 
L 514.533584 168.382945 
L 516.886702 171.159878 
L 519.23982 173.051082 
L 521.592938 174.614311 
L 523.946056 175.544812 
L 526.299174 175.683027 
L 528.652292 175.821243 
L 531.005409 176.751745 
L 533.358527 178.314977 
L 535.711645 180.206184 
L 538.064763 182.983121 
L 540.417881 186.219891 
L 542.770999 189.916458 
L 545.124117 194.498679 
L 547.477235 199.295428 
L 549.830353 203.463158 
L 552.183471 206.839453 
L 554.536589 209.936961 
L 556.889707 212.243114 
L 559.242825 213.916691 
L 561.595943 215.262402 
L 563.949061 215.722699 
L 566.302179 215.754993 
L 568.655297 216.215291 
L 571.008415 217.561002 
L 573.361533 219.234583 
L 575.714651 221.540739 
L 578.067769 224.638253 
L 580.420887 228.014554 
L 582.774005 232.182292 
L 585.127122 236.979052 
L 587.48024 241.561287 
L 589.833358 245.257873 
L 592.186476 248.49467 
L 594.539594 251.271645 
L 596.892712 253.16291 
L 599.24583 254.726244 
L 601.598948 255.656982 
L 603.952066 255.796364 
" clip-path="url(#p42e00d1655)" style="fill: none; stroke: #348abd; stroke-width: 2"/>
   </g>
   <g id="line2d_73">
    <path d="M 370.993388 255.794547 
L 373.346506 255.789548 
L 375.699624 255.682626 
L 378.052742 255.258551 
L 380.40586 254.326857 
L 382.758978 252.837183 
L 385.112096 250.788878 
L 387.465214 248.181943 
L 389.818332 245.017028 
L 392.17145 241.344494 
L 394.524568 237.354809 
L 396.877686 233.263204 
L 399.230804 229.1666 
L 401.583922 225.069992 
L 403.93704 220.973383 
L 406.290158 216.876774 
L 408.643276 212.780165 
L 410.996394 208.683556 
L 413.349512 204.586947 
L 415.70263 200.490338 
L 418.055748 196.393729 
L 420.408866 192.297121 
L 422.761983 188.200517 
L 425.115101 184.108912 
L 427.468219 180.119227 
L 429.821337 176.446693 
L 432.174455 173.281777 
L 434.527573 170.674842 
L 436.880691 168.626537 
L 439.233809 167.136863 
L 441.586927 166.205169 
L 443.940045 165.781094 
L 446.293163 165.67417 
L 448.646281 165.669166 
L 450.999399 165.66916 
L 453.352517 165.669159 
L 455.705635 165.669158 
L 458.058753 165.669158 
L 460.411871 165.669158 
L 462.764989 165.669158 
L 465.118107 165.669157 
L 467.471225 165.669157 
L 469.824343 165.669157 
L 472.177461 165.669157 
L 474.530579 165.669157 
L 476.883696 165.669157 
L 479.236814 165.669157 
L 481.589932 165.669157 
L 483.94305 165.669157 
L 486.296168 165.669157 
L 488.649286 165.669157 
L 491.002404 165.669157 
L 493.355522 165.669157 
L 495.70864 165.669157 
L 498.061758 165.669157 
L 500.414876 165.669157 
L 502.767994 165.669157 
L 505.121112 165.669157 
L 507.47423 165.669157 
L 509.827348 165.669157 
L 512.180466 165.669158 
L 514.533584 165.669158 
L 516.886702 165.669158 
L 519.23982 165.669158 
L 521.592938 165.669159 
L 523.946056 165.66916 
L 526.299174 165.669166 
L 528.652292 165.67417 
L 531.005409 165.781094 
L 533.358527 166.205169 
L 535.711645 167.136863 
L 538.064763 168.626537 
L 540.417881 170.674842 
L 542.770999 173.281777 
L 545.124117 176.446693 
L 547.477235 180.119227 
L 549.830353 184.108912 
L 552.183471 188.200517 
L 554.536589 192.297121 
L 556.889707 196.393729 
L 559.242825 200.490338 
L 561.595943 204.586947 
L 563.949061 208.683556 
L 566.302179 212.780165 
L 568.655297 216.876774 
L 571.008415 220.973383 
L 573.361533 225.069992 
L 575.714651 229.1666 
L 578.067769 233.263204 
L 580.420887 237.354809 
L 582.774005 241.344494 
L 585.127122 245.017028 
L 587.48024 248.181943 
L 589.833358 250.788878 
L 592.186476 252.837183 
L 594.539594 254.326857 
L 596.892712 255.258551 
L 599.24583 255.682626 
L 601.598948 255.789548 
L 603.952066 255.794547 
" clip-path="url(#p42e00d1655)" style="fill: none; stroke: #988ed5; stroke-width: 2"/>
   </g>
   <g id="line2d_74">
    <path d="M 370.993388 255.794556 
L 373.346506 255.794556 
L 375.699624 255.794556 
L 378.052742 255.794548 
L 380.40586 255.794414 
L 382.758978 255.793457 
L 385.112096 255.789316 
L 387.465214 255.776463 
L 389.818332 255.744554 
L 392.17145 255.676788 
L 394.524568 255.548456 
L 396.877686 255.326415 
L 399.230804 254.970328 
L 401.583922 254.435375 
L 403.93704 253.675495 
L 406.290158 252.646692 
L 408.643276 251.310215 
L 410.996394 249.634987 
L 413.349512 247.598381 
L 415.70263 245.185361 
L 418.055748 242.386942 
L 420.408866 239.198539 
L 422.761983 235.618339 
L 425.115101 231.645867 
L 427.468219 227.281055 
L 429.821337 222.5239 
L 432.174455 217.374403 
L 434.527573 211.832565 
L 436.880691 205.898437 
L 439.233809 199.572608 
L 441.586927 192.858048 
L 443.940045 185.763759 
L 446.293163 178.309475 
L 448.646281 170.530612 
L 450.999399 162.483152 
L 453.352517 154.247576 
L 455.705635 145.929278 
L 458.058753 137.653503 
L 460.411871 129.556568 
L 462.764989 121.776033 
L 465.118107 114.440808 
L 467.471225 107.661923 
L 469.824343 101.526257 
L 472.177461 96.095628 
L 474.530579 91.410146 
L 476.883696 87.493002 
L 479.236814 84.35542 
L 481.589932 82.001477 
L 483.94305 80.43211 
L 486.296168 79.647425 
L 488.649286 79.647425 
L 491.002404 80.43211 
L 493.355522 82.001477 
L 495.70864 84.35542 
L 498.061758 87.493002 
L 500.414876 91.410146 
L 502.767994 96.095628 
L 505.121112 101.526257 
L 507.47423 107.661923 
L 509.827348 114.440808 
L 512.180466 121.776033 
L 514.533584 129.556568 
L 516.886702 137.653503 
L 519.23982 145.929278 
L 521.592938 154.247576 
L 523.946056 162.483152 
L 526.299174 170.530612 
L 528.652292 178.309475 
L 531.005409 185.763759 
L 533.358527 192.858048 
L 535.711645 199.572608 
L 538.064763 205.898437 
L 540.417881 211.832565 
L 542.770999 217.374403 
L 545.124117 222.5239 
L 547.477235 227.281055 
L 549.830353 231.645867 
L 552.183471 235.618339 
L 554.536589 239.198539 
L 556.889707 242.386942 
L 559.242825 245.185361 
L 561.595943 247.598381 
L 563.949061 249.634987 
L 566.302179 251.310215 
L 568.655297 252.646692 
L 571.008415 253.675495 
L 573.361533 254.435375 
L 575.714651 254.970328 
L 578.067769 255.326415 
L 580.420887 255.548456 
L 582.774005 255.676788 
L 585.127122 255.744554 
L 587.48024 255.776463 
L 589.833358 255.789316 
L 592.186476 255.793457 
L 594.539594 255.794414 
L 596.892712 255.794548 
L 599.24583 255.794556 
L 601.598948 255.794556 
L 603.952066 255.794556 
" clip-path="url(#p42e00d1655)" style="fill: none; stroke: #777777; stroke-width: 2"/>
   </g>
   <g id="line2d_75">
    <path d="M 370.993388 255.794556 
L 373.346506 255.794556 
L 375.699624 255.794555 
L 378.052742 255.79453 
L 380.40586 255.79429 
L 382.758978 255.793072 
L 385.112096 255.78889 
L 387.465214 255.777764 
L 389.818332 255.752957 
L 392.17145 255.704338 
L 394.524568 255.618011 
L 396.877686 255.476189 
L 399.230804 255.257177 
L 401.583922 254.935399 
L 403.93704 254.481565 
L 406.290158 253.863104 
L 408.643276 253.044832 
L 410.996394 251.989729 
L 413.349512 250.659694 
L 415.70263 249.016162 
L 418.055748 247.020444 
L 420.408866 244.633838 
L 422.761983 241.81765 
L 425.115101 238.533332 
L 427.468219 234.74324 
L 429.821337 230.412465 
L 432.174455 225.511595 
L 434.527573 220.019816 
L 436.880691 213.927919 
L 439.233809 207.240651 
L 441.586927 199.977991 
L 443.940045 192.175513 
L 446.293163 183.884419 
L 448.646281 175.171361 
L 450.999399 166.117596 
L 453.352517 156.817039 
L 455.705635 147.373441 
L 458.058753 137.897279 
L 460.411871 128.502789 
L 462.764989 119.305708 
L 465.118107 110.422111 
L 467.471225 101.968103 
L 469.824343 94.059767 
L 472.177461 86.812843 
L 474.530579 80.341304 
L 476.883696 74.754277 
L 479.236814 70.15173 
L 481.589932 66.619798 
L 483.94305 64.226395 
L 486.296168 63.017982 
L 488.649286 63.017982 
L 491.002404 64.226395 
L 493.355522 66.619798 
L 495.70864 70.15173 
L 498.061758 74.754277 
L 500.414876 80.341304 
L 502.767994 86.812843 
L 505.121112 94.059767 
L 507.47423 101.968103 
L 509.827348 110.422111 
L 512.180466 119.305708 
L 514.533584 128.502789 
L 516.886702 137.897279 
L 519.23982 147.373441 
L 521.592938 156.817039 
L 523.946056 166.117596 
L 526.299174 175.171361 
L 528.652292 183.884419 
L 531.005409 192.175513 
L 533.358527 199.977991 
L 535.711645 207.240651 
L 538.064763 213.927919 
L 540.417881 220.019816 
L 542.770999 225.511595 
L 545.124117 230.412465 
L 547.477235 234.74324 
L 549.830353 238.533332 
L 552.183471 241.81765 
L 554.536589 244.633838 
L 556.889707 247.020444 
L 559.242825 249.016162 
L 561.595943 250.659694 
L 563.949061 251.989729 
L 566.302179 253.044832 
L 568.655297 253.863104 
L 571.008415 254.481565 
L 573.361533 254.935399 
L 575.714651 255.257177 
L 578.067769 255.476189 
L 580.420887 255.618011 
L 582.774005 255.704338 
L 585.127122 255.752957 
L 587.48024 255.777764 
L 589.833358 255.78889 
L 592.186476 255.793072 
L 594.539594 255.79429 
L 596.892712 255.79453 
L 599.24583 255.794555 
L 601.598948 255.794556 
L 603.952066 255.794556 
" clip-path="url(#p42e00d1655)" style="fill: none; stroke: #fbc15e; stroke-width: 2"/>
   </g>
   <g id="line2d_76">
    <path d="M 370.993388 255.794556 
L 373.346506 255.794556 
L 375.699624 255.794556 
L 378.052742 255.794556 
L 380.40586 255.794556 
L 382.758978 255.794556 
L 385.112096 255.794556 
L 387.465214 255.794555 
L 389.818332 255.794548 
L 392.17145 255.79451 
L 394.524568 255.794337 
L 396.877686 255.793715 
L 399.230804 255.791816 
L 401.583922 255.786762 
L 403.93704 255.774764 
L 406.290158 255.748895 
L 408.643276 255.697521 
L 410.996394 255.602438 
L 413.349512 255.436899 
L 415.70263 255.163696 
L 418.055748 254.733595 
L 420.408866 254.084402 
L 422.761983 253.14093 
L 425.115101 251.816039 
L 427.468219 250.012774 
L 429.821337 247.627457 
L 432.174455 244.553518 
L 434.527573 240.685791 
L 436.880691 235.925071 
L 439.233809 230.182775 
L 441.586927 223.385651 
L 443.940045 215.480493 
L 446.293163 206.438845 
L 448.646281 196.261676 
L 450.999399 184.983908 
L 453.352517 172.678579 
L 455.705635 159.460185 
L 458.058753 145.486605 
L 460.411871 130.958914 
L 462.764989 116.118496 
L 465.118107 101.241226 
L 467.471225 86.628881 
L 469.824343 72.598347 
L 472.177461 59.469455 
L 474.530579 47.552386 
L 476.883696 37.135542 
L 479.236814 28.474708 
L 481.589932 21.784076 
L 483.94305 17.229456 
L 486.296168 14.923636 
L 488.649286 14.923636 
L 491.002404 17.229456 
L 493.355522 21.784076 
L 495.70864 28.474708 
L 498.061758 37.135542 
L 500.414876 47.552386 
L 502.767994 59.469455 
L 505.121112 72.598347 
L 507.47423 86.628881 
L 509.827348 101.241226 
L 512.180466 116.118496 
L 514.533584 130.958914 
L 516.886702 145.486605 
L 519.23982 159.460185 
L 521.592938 172.678579 
L 523.946056 184.983908 
L 526.299174 196.261676 
L 528.652292 206.438845 
L 531.005409 215.480493 
L 533.358527 223.385651 
L 535.711645 230.182775 
L 538.064763 235.925071 
L 540.417881 240.685791 
L 542.770999 244.553518 
L 545.124117 247.627457 
L 547.477235 250.012774 
L 549.830353 251.816039 
L 552.183471 253.14093 
L 554.536589 254.084402 
L 556.889707 254.733595 
L 559.242825 255.163696 
L 561.595943 255.436899 
L 563.949061 255.602438 
L 566.302179 255.697521 
L 568.655297 255.748895 
L 571.008415 255.774764 
L 573.361533 255.786762 
L 575.714651 255.791816 
L 578.067769 255.793715 
L 580.420887 255.794337 
L 582.774005 255.79451 
L 585.127122 255.794548 
L 587.48024 255.794555 
L 589.833358 255.794556 
L 592.186476 255.794556 
L 594.539594 255.794556 
L 596.892712 255.794556 
L 599.24583 255.794556 
L 601.598948 255.794556 
L 603.952066 255.794556 
" clip-path="url(#p42e00d1655)" style="fill: none; stroke: #8eba42; stroke-width: 2"/>
   </g>
   <g id="line2d_77">
    <path d="M 370.993388 255.794556 
L 373.346506 255.794556 
L 375.699624 255.794474 
L 378.052742 255.793027 
L 380.40586 255.784324 
L 382.758978 255.754255 
L 385.112096 255.679158 
L 387.465214 255.526584 
L 389.818332 255.258455 
L 392.17145 254.834836 
L 394.524568 254.215632 
L 396.877686 253.361466 
L 399.230804 252.236556 
L 401.583922 250.81261 
L 403.93704 249.070768 
L 406.290158 247.001357 
L 408.643276 244.601315 
L 410.996394 241.870243 
L 413.349512 238.80814 
L 415.70263 235.415405 
L 418.055748 231.695102 
L 420.408866 227.656903 
L 422.761983 223.319667 
L 425.115101 218.711689 
L 427.468219 213.868747 
L 429.821337 208.830221 
L 432.174455 203.636205 
L 434.527573 198.326634 
L 436.880691 192.939586 
L 439.233809 187.50751 
L 441.586927 182.054068 
L 443.940045 176.59337 
L 446.293163 171.131306 
L 448.646281 165.669161 
L 450.999399 160.207017 
L 453.352517 154.745034 
L 455.705635 149.285783 
L 458.058753 143.841044 
L 460.411871 138.439037 
L 462.764989 133.127087 
L 465.118107 127.970089 
L 467.471225 123.044202 
L 469.824343 118.429295 
L 472.177461 114.205557 
L 474.530579 110.451745 
L 476.883696 107.239419 
L 479.236814 104.625166 
L 481.589932 102.646705 
L 483.94305 101.323381 
L 486.296168 100.66132 
L 488.649286 100.66132 
L 491.002404 101.323381 
L 493.355522 102.646705 
L 495.70864 104.625166 
L 498.061758 107.239419 
L 500.414876 110.451745 
L 502.767994 114.205557 
L 505.121112 118.429295 
L 507.47423 123.044202 
L 509.827348 127.970089 
L 512.180466 133.127087 
L 514.533584 138.439037 
L 516.886702 143.841044 
L 519.23982 149.285783 
L 521.592938 154.745034 
L 523.946056 160.207017 
L 526.299174 165.669161 
L 528.652292 171.131306 
L 531.005409 176.59337 
L 533.358527 182.054068 
L 535.711645 187.50751 
L 538.064763 192.939586 
L 540.417881 198.326634 
L 542.770999 203.636205 
L 545.124117 208.830221 
L 547.477235 213.868747 
L 549.830353 218.711689 
L 552.183471 223.319667 
L 554.536589 227.656903 
L 556.889707 231.695102 
L 559.242825 235.415405 
L 561.595943 238.80814 
L 563.949061 241.870243 
L 566.302179 244.601315 
L 568.655297 247.001357 
L 571.008415 249.070768 
L 573.361533 250.81261 
L 575.714651 252.236556 
L 578.067769 253.361466 
L 580.420887 254.215632 
L 582.774005 254.834836 
L 585.127122 255.258455 
L 587.48024 255.526584 
L 589.833358 255.679158 
L 592.186476 255.754255 
L 594.539594 255.784324 
L 596.892712 255.793027 
L 599.24583 255.794474 
L 601.598948 255.794556 
L 603.952066 255.794556 
" clip-path="url(#p42e00d1655)" style="fill: none; stroke: #ffb5b8; stroke-width: 2"/>
   </g>
   <g id="line2d_78">
    <path d="M 370.993388 255.794547 
L 373.346506 255.793385 
L 375.699624 255.770448 
L 378.052742 255.669073 
L 380.40586 255.42912 
L 382.758978 255.025052 
L 385.112096 254.438248 
L 387.465214 253.616054 
L 389.818332 252.495543 
L 392.17145 251.047531 
L 394.524568 249.281747 
L 396.877686 247.246462 
L 399.230804 245.006553 
L 401.583922 242.59629 
L 403.93704 240.030421 
L 406.290158 237.352601 
L 408.643276 234.628716 
L 410.996394 231.897643 
L 413.349512 229.159384 
L 415.70263 226.375059 
L 418.055748 223.478783 
L 420.408866 220.426901 
L 422.761983 217.204665 
L 425.115101 213.777806 
L 427.468219 210.081445 
L 429.821337 206.067312 
L 432.174455 201.725678 
L 434.527573 197.085727 
L 436.880691 192.210386 
L 439.233809 187.152309 
L 441.586927 181.930117 
L 443.940045 176.569348 
L 446.293163 171.130143 
L 448.646281 165.669166 
L 450.999399 160.20935 
L 453.352517 154.793082 
L 455.705635 149.533688 
L 458.058753 144.55145 
L 460.411871 139.89744 
L 462.764989 135.608902 
L 465.118107 131.791146 
L 467.471225 128.570023 
L 469.824343 126.003902 
L 472.177461 124.073325 
L 474.530579 122.681751 
L 476.883696 121.699424 
L 479.236814 121.057804 
L 481.589932 120.727398 
L 483.94305 120.620893 
L 486.296168 120.606519 
L 488.649286 120.606519 
L 491.002404 120.620893 
L 493.355522 120.727398 
L 495.70864 121.057804 
L 498.061758 121.699424 
L 500.414876 122.681751 
L 502.767994 124.073325 
L 505.121112 126.003902 
L 507.47423 128.570023 
L 509.827348 131.791146 
L 512.180466 135.608902 
L 514.533584 139.89744 
L 516.886702 144.55145 
L 519.23982 149.533688 
L 521.592938 154.793082 
L 523.946056 160.20935 
L 526.299174 165.669166 
L 528.652292 171.130143 
L 531.005409 176.569348 
L 533.358527 181.930117 
L 535.711645 187.152309 
L 538.064763 192.210386 
L 540.417881 197.085727 
L 542.770999 201.725678 
L 545.124117 206.067312 
L 547.477235 210.081445 
L 549.830353 213.777806 
L 552.183471 217.204665 
L 554.536589 220.426901 
L 556.889707 223.478783 
L 559.242825 226.375059 
L 561.595943 229.159384 
L 563.949061 231.897643 
L 566.302179 234.628716 
L 568.655297 237.352601 
L 571.008415 240.030421 
L 573.361533 242.59629 
L 575.714651 245.006553 
L 578.067769 247.246462 
L 580.420887 249.281747 
L 582.774005 251.047531 
L 585.127122 252.495543 
L 587.48024 253.616054 
L 589.833358 254.438248 
L 592.186476 255.025052 
L 594.539594 255.42912 
L 596.892712 255.669073 
L 599.24583 255.770448 
L 601.598948 255.793385 
L 603.952066 255.794547 
" clip-path="url(#p42e00d1655)" style="fill: none; stroke: #e24a33; stroke-width: 2"/>
   </g>
   <g id="patch_8">
    <path d="M 359.345455 267.84 
L 359.345455 2.88 
" style="fill: none; stroke: #ffffff; stroke-linejoin: miter; stroke-linecap: square"/>
   </g>
   <g id="patch_9">
    <path d="M 615.6 267.84 
L 615.6 2.88 
" style="fill: none; stroke: #ffffff; stroke-linejoin: miter; stroke-linecap: square"/>
   </g>
   <g id="patch_10">
    <path d="M 359.345455 267.84 
L 615.6 267.84 
" style="fill: none; stroke: #ffffff; stroke-linejoin: miter; stroke-linecap: square"/>
   </g>
   <g id="patch_11">
    <path d="M 359.345455 2.88 
L 615.6 2.88 
" style="fill: none; stroke: #ffffff; stroke-linejoin: miter; stroke-linecap: square"/>
   </g>
   <g id="text_37">
    <!-- $\mathrm{mode}=area$ -->
    <g style="fill: #262626" transform="translate(448.304727 -3.12) scale(0.144 -0.144)">
     <defs>
      <path id="Cmmi10-72" d="M 494 109 
Q 494 147 500 166 
L 978 2075 
Q 1025 2253 1025 2388 
Q 1025 2663 838 2663 
Q 638 2663 541 2423 
Q 444 2184 353 1819 
Q 353 1800 334 1789 
Q 316 1778 300 1778 
L 225 1778 
Q 203 1778 187 1801 
Q 172 1825 172 1844 
Q 241 2122 305 2315 
Q 369 2509 505 2668 
Q 641 2828 844 2828 
Q 1066 2828 1233 2700 
Q 1400 2572 1441 2363 
Q 1603 2575 1811 2701 
Q 2019 2828 2266 2828 
Q 2469 2828 2623 2709 
Q 2778 2591 2778 2388 
Q 2778 2225 2676 2104 
Q 2575 1984 2406 1984 
Q 2303 1984 2233 2048 
Q 2163 2113 2163 2216 
Q 2163 2356 2266 2467 
Q 2369 2578 2503 2578 
Q 2400 2663 2253 2663 
Q 1978 2663 1775 2467 
Q 1572 2272 1409 1972 
L 953 141 
Q 931 53 854 -9 
Q 778 -72 684 -72 
Q 606 -72 550 -22 
Q 494 28 494 109 
z
" transform="scale(0.015625)"/>
      <path id="Cmmi10-65" d="M 1288 -72 
Q 981 -72 751 87 
Q 522 247 401 517 
Q 281 788 281 1088 
Q 281 1544 511 1945 
Q 741 2347 1134 2587 
Q 1528 2828 1978 2828 
Q 2253 2828 2458 2686 
Q 2663 2544 2663 2278 
Q 2663 1909 2369 1729 
Q 2075 1550 1706 1508 
Q 1338 1466 891 1466 
L 872 1466 
Q 769 1084 769 813 
Q 769 528 900 312 
Q 1031 97 1300 97 
Q 1681 97 2032 272 
Q 2384 447 2606 756 
Q 2625 775 2656 775 
Q 2688 775 2720 739 
Q 2753 703 2753 672 
Q 2753 647 2741 634 
Q 2506 306 2109 117 
Q 1713 -72 1288 -72 
z
M 909 1631 
Q 1281 1631 1597 1665 
Q 1913 1700 2169 1839 
Q 2425 1978 2425 2272 
Q 2425 2391 2359 2480 
Q 2294 2569 2189 2616 
Q 2084 2663 1972 2663 
Q 1700 2663 1483 2516 
Q 1266 2369 1125 2133 
Q 984 1897 909 1631 
z
" transform="scale(0.015625)"/>
     </defs>
     <use xlink:href="#Cmr10-6d" transform="translate(0 0.609375)"/>
     <use xlink:href="#Cmr10-6f" transform="translate(83.300781 0.609375)"/>
     <use xlink:href="#Cmr10-64" transform="translate(133.300781 0.609375)"/>
     <use xlink:href="#Cmr10-65" transform="translate(188.818359 0.609375)"/>
     <use xlink:href="#Cmr10-3d" transform="translate(250.761719 0.609375)"/>
     <use xlink:href="#Cmmi10-61" transform="translate(346.005859 0.609375)"/>
     <use xlink:href="#Cmmi10-72" transform="translate(398.789062 0.609375)"/>
     <use xlink:href="#Cmmi10-65" transform="translate(443.90625 0.609375)"/>
     <use xlink:href="#Cmmi10-61" transform="translate(490.390625 0.609375)"/>
    </g>
   </g>
   <g id="legend_2">
    <g id="line2d_79">
     <path d="M 555.9 15.537813 
L 565.9 15.537813 
L 575.9 15.537813 
" style="fill: none; stroke: #e24a33; stroke-width: 2"/>
    </g>
    <g id="text_38">
     <!-- $\mathrm{up}$ -->
     <g style="fill: #262626" transform="translate(583.9 19.037813) scale(0.1 -0.1)">
      <use xlink:href="#Cmr10-75" transform="translate(0 0.8125)"/>
      <use xlink:href="#Cmr10-70" transform="translate(55.517578 0.8125)"/>
     </g>
    </g>
    <g id="line2d_80">
     <path d="M 555.9 29.695625 
L 565.9 29.695625 
L 575.9 29.695625 
" style="fill: none; stroke: #348abd; stroke-width: 2"/>
    </g>
    <g id="text_39">
     <!-- $\mathrm{up}_3$ -->
     <g style="fill: #262626" transform="translate(583.9 33.195625) scale(0.1 -0.1)">
      <use xlink:href="#Cmr10-75" transform="translate(0 0.8125)"/>
      <use xlink:href="#Cmr10-70" transform="translate(55.517578 0.8125)"/>
      <use xlink:href="#Cmr10-33" transform="translate(115.499297 -16.19375) scale(0.7)"/>
     </g>
    </g>
    <g id="line2d_81">
     <path d="M 555.9 43.853438 
L 565.9 43.853438 
L 575.9 43.853438 
" style="fill: none; stroke: #988ed5; stroke-width: 2"/>
    </g>
    <g id="text_40">
     <!-- $\mathrm{h}_3$ -->
     <g style="fill: #262626" transform="translate(583.9 47.353438) scale(0.1 -0.1)">
      <use xlink:href="#Cmr10-68" transform="translate(0 0.609375)"/>
      <use xlink:href="#Cmr10-33" transform="translate(59.981719 -16.396875) scale(0.7)"/>
     </g>
    </g>
    <g id="line2d_82">
     <path d="M 555.9 57.99875 
L 565.9 57.99875 
L 575.9 57.99875 
" style="fill: none; stroke: #777777; stroke-width: 2"/>
    </g>
    <g id="text_41">
     <!-- $\mathrm{\Xi}_3$ -->
     <g style="fill: #262626" transform="translate(583.9 61.49875) scale(0.1 -0.1)">
      <use xlink:href="#Cmr10-a5" transform="translate(0 0.6875)"/>
      <use xlink:href="#Cmr10-33" transform="translate(71.065703 -16.31875) scale(0.7)"/>
     </g>
    </g>
    <g id="line2d_83">
     <path d="M 555.9 72.144063 
L 565.9 72.144063 
L 575.9 72.144063 
" style="fill: none; stroke: #fbc15e; stroke-width: 2"/>
    </g>
    <g id="text_42">
     <!-- $\mathrm{fup}_3$ -->
     <g style="fill: #262626" transform="translate(583.9 75.644063) scale(0.1 -0.1)">
      <use xlink:href="#Cmr10-66" transform="translate(0 0.484375)"/>
      <use xlink:href="#Cmr10-75" transform="translate(30.517578 0.484375)"/>
      <use xlink:href="#Cmr10-70" transform="translate(86.035156 0.484375)"/>
      <use xlink:href="#Cmr10-33" transform="translate(146.016875 -16.521875) scale(0.7)"/>
     </g>
    </g>
    <g id="line2d_84">
     <path d="M 555.9 86.301875 
L 565.9 86.301875 
L 575.9 86.301875 
" style="fill: none; stroke: #8eba42; stroke-width: 2"/>
    </g>
    <g id="text_43">
     <!-- $\mathrm{ch}_{2,3}$ -->
     <g style="fill: #262626" transform="translate(583.9 89.801875) scale(0.1 -0.1)">
      <use xlink:href="#Cmr10-63" transform="translate(0 0.609375)"/>
      <use xlink:href="#Cmr10-68" transform="translate(44.384766 0.609375)"/>
      <use xlink:href="#Cmr10-32" transform="translate(104.366484 -16.396875) scale(0.7)"/>
      <use xlink:href="#Cmmi10-3b" transform="translate(139.366484 -16.396875) scale(0.7)"/>
      <use xlink:href="#Cmr10-33" transform="translate(171.037383 -16.396875) scale(0.7)"/>
     </g>
    </g>
    <g id="line2d_85">
     <path d="M 555.9 101.559688 
L 565.9 101.559688 
L 575.9 101.559688 
" style="fill: none; stroke: #ffb5b8; stroke-width: 2"/>
    </g>
    <g id="text_44">
     <!-- $\mathrm{fip}_{2,1}$ -->
     <g style="fill: #262626" transform="translate(583.9 105.059688) scale(0.1 -0.1)">
      <use xlink:href="#Cmr10-66" transform="translate(0 0.484375)"/>
      <use xlink:href="#Cmr10-69" transform="translate(30.517578 0.484375)"/>
      <use xlink:href="#Cmr10-70" transform="translate(58.203125 0.484375)"/>
      <use xlink:href="#Cmr10-32" transform="translate(118.184844 -16.521875) scale(0.7)"/>
      <use xlink:href="#Cmmi10-3b" transform="translate(153.184844 -16.521875) scale(0.7)"/>
      <use xlink:href="#Cmr10-31" transform="translate(184.855742 -16.521875) scale(0.7)"/>
     </g>
    </g>
    <g id="line2d_86">
     <path d="M 555.9 116.8175 
L 565.9 116.8175 
L 575.9 116.8175 
" style="fill: none; stroke: #e24a33; stroke-width: 2"/>
    </g>
    <g id="text_45">
     <!-- $\mathrm{fp}_{2,1}$ -->
     <g style="fill: #262626" transform="translate(583.9 120.3175) scale(0.1 -0.1)">
      <use xlink:href="#Cmr10-66" transform="translate(0 0.484375)"/>
      <use xlink:href="#Cmr10-70" transform="translate(30.517578 0.484375)"/>
      <use xlink:href="#Cmr10-32" transform="translate(90.499297 -16.521875) scale(0.7)"/>
      <use xlink:href="#Cmmi10-3b" transform="translate(125.499297 -16.521875) scale(0.7)"/>
      <use xlink:href="#Cmr10-31" transform="translate(157.170195 -16.521875) scale(0.7)"/>
     </g>
    </g>
   </g>
  </g>
 </g>
 <defs>
  <clipPath id="pbe8f52e0f5">
   <rect x="51.84" y="2.88" width="256.254545" height="264.96"/>
  </clipPath>
  <clipPath id="p42e00d1655">
   <rect x="359.345455" y="2.88" width="256.254545" height="264.96"/>
  </clipPath>
 </defs>
</svg>
