<?xml version="1.0" encoding="utf-8" standalone="no"?>
<!DOCTYPE svg PUBLIC "-//W3C//DTD SVG 1.1//EN"
  "http://www.w3.org/Graphics/SVG/1.1/DTD/svg11.dtd">
<svg xmlns:xlink="http://www.w3.org/1999/xlink" width="864pt" height="288pt" viewBox="0 0 864 288" xmlns="http://www.w3.org/2000/svg" version="1.1">
 <metadata>
  <rdf:RDF xmlns:dc="http://purl.org/dc/elements/1.1/" xmlns:cc="http://creativecommons.org/ns#" xmlns:rdf="http://www.w3.org/1999/02/22-rdf-syntax-ns#">
   <cc:Work>
    <dc:type rdf:resource="http://purl.org/dc/dcmitype/StillImage"/>
    <dc:date>2023-07-29T17:07:12.288198</dc:date>
    <dc:format>image/svg+xml</dc:format>
    <dc:creator>
     <cc:Agent>
      <dc:title>Matplotlib v3.7.1, https://matplotlib.org/</dc:title>
     </cc:Agent>
    </dc:creator>
   </cc:Work>
  </rdf:RDF>
 </metadata>
 <defs>
  <style type="text/css">*{stroke-linejoin: round; stroke-linecap: butt}</style>
 </defs>
 <g id="figure_1">
  <g id="patch_1">
   <path d="M 0 288 
L 864 288 
L 864 0 
L 0 0 
z
" style="fill: #f0f0f0"/>
  </g>
  <g id="axes_1">
   <g id="patch_2">
    <path d="M 69.12 267.84 
L 410.792727 267.84 
L 410.792727 43.2 
L 69.12 43.2 
z
" style="fill: #e5e5e5"/>
   </g>
   <g id="matplotlib.axis_1">
    <g id="xtick_1">
     <g id="line2d_1">
      <path d="M 84.650579 267.84 
L 84.650579 43.2 
" clip-path="url(#pec5d6ba772)" style="fill: none; stroke: #ffffff; stroke-width: 0.5"/>
     </g>
     <g id="line2d_2"/>
     <g id="text_1">
      <!-- 0 -->
      <g style="fill: #555555" transform="translate(81.87011 278.497813) scale(0.1 -0.1)">
       <defs>
        <path id="ArialMT-30" d="M 266 2259 
Q 266 3072 433 3567 
Q 600 4063 929 4331 
Q 1259 4600 1759 4600 
Q 2128 4600 2406 4451 
Q 2684 4303 2865 4023 
Q 3047 3744 3150 3342 
Q 3253 2941 3253 2259 
Q 3253 1453 3087 958 
Q 2922 463 2592 192 
Q 2263 -78 1759 -78 
Q 1097 -78 719 397 
Q 266 969 266 2259 
z
M 844 2259 
Q 844 1131 1108 757 
Q 1372 384 1759 384 
Q 2147 384 2411 759 
Q 2675 1134 2675 2259 
Q 2675 3391 2411 3762 
Q 2147 4134 1753 4134 
Q 1366 4134 1134 3806 
Q 844 3388 844 2259 
z
" transform="scale(0.015625)"/>
       </defs>
       <use xlink:href="#ArialMT-30"/>
      </g>
     </g>
    </g>
    <g id="xtick_2">
     <g id="line2d_3">
      <path d="M 147.400391 267.84 
L 147.400391 43.2 
" clip-path="url(#pec5d6ba772)" style="fill: none; stroke: #ffffff; stroke-width: 0.5"/>
     </g>
     <g id="line2d_4"/>
     <g id="text_2">
      <!-- 20 -->
      <g style="fill: #555555" transform="translate(141.839453 278.497813) scale(0.1 -0.1)">
       <defs>
        <path id="ArialMT-32" d="M 3222 541 
L 3222 0 
L 194 0 
Q 188 203 259 391 
Q 375 700 629 1000 
Q 884 1300 1366 1694 
Q 2113 2306 2375 2664 
Q 2638 3022 2638 3341 
Q 2638 3675 2398 3904 
Q 2159 4134 1775 4134 
Q 1369 4134 1125 3890 
Q 881 3647 878 3216 
L 300 3275 
Q 359 3922 746 4261 
Q 1134 4600 1788 4600 
Q 2447 4600 2831 4234 
Q 3216 3869 3216 3328 
Q 3216 3053 3103 2787 
Q 2991 2522 2730 2228 
Q 2469 1934 1863 1422 
Q 1356 997 1212 845 
Q 1069 694 975 541 
L 3222 541 
z
" transform="scale(0.015625)"/>
       </defs>
       <use xlink:href="#ArialMT-32"/>
       <use xlink:href="#ArialMT-30" x="55.615234"/>
      </g>
     </g>
    </g>
    <g id="xtick_3">
     <g id="line2d_5">
      <path d="M 210.150203 267.84 
L 210.150203 43.2 
" clip-path="url(#pec5d6ba772)" style="fill: none; stroke: #ffffff; stroke-width: 0.5"/>
     </g>
     <g id="line2d_6"/>
     <g id="text_3">
      <!-- 40 -->
      <g style="fill: #555555" transform="translate(204.589265 278.497813) scale(0.1 -0.1)">
       <defs>
        <path id="ArialMT-34" d="M 2069 0 
L 2069 1097 
L 81 1097 
L 81 1613 
L 2172 4581 
L 2631 4581 
L 2631 1613 
L 3250 1613 
L 3250 1097 
L 2631 1097 
L 2631 0 
L 2069 0 
z
M 2069 1613 
L 2069 3678 
L 634 1613 
L 2069 1613 
z
" transform="scale(0.015625)"/>
       </defs>
       <use xlink:href="#ArialMT-34"/>
       <use xlink:href="#ArialMT-30" x="55.615234"/>
      </g>
     </g>
    </g>
    <g id="xtick_4">
     <g id="line2d_7">
      <path d="M 272.900015 267.84 
L 272.900015 43.2 
" clip-path="url(#pec5d6ba772)" style="fill: none; stroke: #ffffff; stroke-width: 0.5"/>
     </g>
     <g id="line2d_8"/>
     <g id="text_4">
      <!-- 60 -->
      <g style="fill: #555555" transform="translate(267.339078 278.497813) scale(0.1 -0.1)">
       <defs>
        <path id="ArialMT-36" d="M 3184 3459 
L 2625 3416 
Q 2550 3747 2413 3897 
Q 2184 4138 1850 4138 
Q 1581 4138 1378 3988 
Q 1113 3794 959 3422 
Q 806 3050 800 2363 
Q 1003 2672 1297 2822 
Q 1591 2972 1913 2972 
Q 2475 2972 2870 2558 
Q 3266 2144 3266 1488 
Q 3266 1056 3080 686 
Q 2894 316 2569 119 
Q 2244 -78 1831 -78 
Q 1128 -78 684 439 
Q 241 956 241 2144 
Q 241 3472 731 4075 
Q 1159 4600 1884 4600 
Q 2425 4600 2770 4297 
Q 3116 3994 3184 3459 
z
M 888 1484 
Q 888 1194 1011 928 
Q 1134 663 1356 523 
Q 1578 384 1822 384 
Q 2178 384 2434 671 
Q 2691 959 2691 1453 
Q 2691 1928 2437 2201 
Q 2184 2475 1800 2475 
Q 1419 2475 1153 2201 
Q 888 1928 888 1484 
z
" transform="scale(0.015625)"/>
       </defs>
       <use xlink:href="#ArialMT-36"/>
       <use xlink:href="#ArialMT-30" x="55.615234"/>
      </g>
     </g>
    </g>
    <g id="xtick_5">
     <g id="line2d_9">
      <path d="M 335.649827 267.84 
L 335.649827 43.2 
" clip-path="url(#pec5d6ba772)" style="fill: none; stroke: #ffffff; stroke-width: 0.5"/>
     </g>
     <g id="line2d_10"/>
     <g id="text_5">
      <!-- 80 -->
      <g style="fill: #555555" transform="translate(330.08889 278.497813) scale(0.1 -0.1)">
       <defs>
        <path id="ArialMT-38" d="M 1131 2484 
Q 781 2613 612 2850 
Q 444 3088 444 3419 
Q 444 3919 803 4259 
Q 1163 4600 1759 4600 
Q 2359 4600 2725 4251 
Q 3091 3903 3091 3403 
Q 3091 3084 2923 2848 
Q 2756 2613 2416 2484 
Q 2838 2347 3058 2040 
Q 3278 1734 3278 1309 
Q 3278 722 2862 322 
Q 2447 -78 1769 -78 
Q 1091 -78 675 323 
Q 259 725 259 1325 
Q 259 1772 486 2073 
Q 713 2375 1131 2484 
z
M 1019 3438 
Q 1019 3113 1228 2906 
Q 1438 2700 1772 2700 
Q 2097 2700 2305 2904 
Q 2513 3109 2513 3406 
Q 2513 3716 2298 3927 
Q 2084 4138 1766 4138 
Q 1444 4138 1231 3931 
Q 1019 3725 1019 3438 
z
M 838 1322 
Q 838 1081 952 856 
Q 1066 631 1291 507 
Q 1516 384 1775 384 
Q 2178 384 2440 643 
Q 2703 903 2703 1303 
Q 2703 1709 2433 1975 
Q 2163 2241 1756 2241 
Q 1359 2241 1098 1978 
Q 838 1716 838 1322 
z
" transform="scale(0.015625)"/>
       </defs>
       <use xlink:href="#ArialMT-38"/>
       <use xlink:href="#ArialMT-30" x="55.615234"/>
      </g>
     </g>
    </g>
    <g id="xtick_6">
     <g id="line2d_11">
      <path d="M 398.399639 267.84 
L 398.399639 43.2 
" clip-path="url(#pec5d6ba772)" style="fill: none; stroke: #ffffff; stroke-width: 0.5"/>
     </g>
     <g id="line2d_12"/>
     <g id="text_6">
      <!-- 100 -->
      <g style="fill: #555555" transform="translate(390.058233 278.497813) scale(0.1 -0.1)">
       <defs>
        <path id="ArialMT-31" d="M 2384 0 
L 1822 0 
L 1822 3584 
Q 1619 3391 1289 3197 
Q 959 3003 697 2906 
L 697 3450 
Q 1169 3672 1522 3987 
Q 1875 4303 2022 4600 
L 2384 4600 
L 2384 0 
z
" transform="scale(0.015625)"/>
       </defs>
       <use xlink:href="#ArialMT-31"/>
       <use xlink:href="#ArialMT-30" x="55.615234"/>
       <use xlink:href="#ArialMT-30" x="111.230469"/>
      </g>
     </g>
    </g>
   </g>
   <g id="matplotlib.axis_2">
    <g id="ytick_1">
     <g id="line2d_13">
      <path d="M 69.12 257.626018 
L 410.792727 257.626018 
" clip-path="url(#pec5d6ba772)" style="fill: none; stroke: #ffffff; stroke-width: 0.5"/>
     </g>
     <g id="line2d_14"/>
     <g id="text_7">
      <!-- 0.0 -->
      <g style="fill: #555555" transform="translate(51.72 261.204925) scale(0.1 -0.1)">
       <defs>
        <path id="ArialMT-2e" d="M 581 0 
L 581 641 
L 1222 641 
L 1222 0 
L 581 0 
z
" transform="scale(0.015625)"/>
       </defs>
       <use xlink:href="#ArialMT-30"/>
       <use xlink:href="#ArialMT-2e" x="55.615234"/>
       <use xlink:href="#ArialMT-30" x="83.398438"/>
      </g>
     </g>
    </g>
    <g id="ytick_2">
     <g id="line2d_15">
      <path d="M 69.12 216.782996 
L 410.792727 216.782996 
" clip-path="url(#pec5d6ba772)" style="fill: none; stroke: #ffffff; stroke-width: 0.5"/>
     </g>
     <g id="line2d_16"/>
     <g id="text_8">
      <!-- 0.2 -->
      <g style="fill: #555555" transform="translate(51.72 220.361903) scale(0.1 -0.1)">
       <use xlink:href="#ArialMT-30"/>
       <use xlink:href="#ArialMT-2e" x="55.615234"/>
       <use xlink:href="#ArialMT-32" x="83.398438"/>
      </g>
     </g>
    </g>
    <g id="ytick_3">
     <g id="line2d_17">
      <path d="M 69.12 175.939975 
L 410.792727 175.939975 
" clip-path="url(#pec5d6ba772)" style="fill: none; stroke: #ffffff; stroke-width: 0.5"/>
     </g>
     <g id="line2d_18"/>
     <g id="text_9">
      <!-- 0.4 -->
      <g style="fill: #555555" transform="translate(51.72 179.518881) scale(0.1 -0.1)">
       <use xlink:href="#ArialMT-30"/>
       <use xlink:href="#ArialMT-2e" x="55.615234"/>
       <use xlink:href="#ArialMT-34" x="83.398438"/>
      </g>
     </g>
    </g>
    <g id="ytick_4">
     <g id="line2d_19">
      <path d="M 69.12 135.096953 
L 410.792727 135.096953 
" clip-path="url(#pec5d6ba772)" style="fill: none; stroke: #ffffff; stroke-width: 0.5"/>
     </g>
     <g id="line2d_20"/>
     <g id="text_10">
      <!-- 0.6 -->
      <g style="fill: #555555" transform="translate(51.72 138.675859) scale(0.1 -0.1)">
       <use xlink:href="#ArialMT-30"/>
       <use xlink:href="#ArialMT-2e" x="55.615234"/>
       <use xlink:href="#ArialMT-36" x="83.398438"/>
      </g>
     </g>
    </g>
    <g id="ytick_5">
     <g id="line2d_21">
      <path d="M 69.12 94.253931 
L 410.792727 94.253931 
" clip-path="url(#pec5d6ba772)" style="fill: none; stroke: #ffffff; stroke-width: 0.5"/>
     </g>
     <g id="line2d_22"/>
     <g id="text_11">
      <!-- 0.8 -->
      <g style="fill: #555555" transform="translate(51.72 97.832837) scale(0.1 -0.1)">
       <use xlink:href="#ArialMT-30"/>
       <use xlink:href="#ArialMT-2e" x="55.615234"/>
       <use xlink:href="#ArialMT-38" x="83.398438"/>
      </g>
     </g>
    </g>
    <g id="ytick_6">
     <g id="line2d_23">
      <path d="M 69.12 53.410909 
L 410.792727 53.410909 
" clip-path="url(#pec5d6ba772)" style="fill: none; stroke: #ffffff; stroke-width: 0.5"/>
     </g>
     <g id="line2d_24"/>
     <g id="text_12">
      <!-- 1.0 -->
      <g style="fill: #555555" transform="translate(51.72 56.989815) scale(0.1 -0.1)">
       <use xlink:href="#ArialMT-31"/>
       <use xlink:href="#ArialMT-2e" x="55.615234"/>
       <use xlink:href="#ArialMT-30" x="83.398438"/>
      </g>
     </g>
    </g>
   </g>
   <g id="line2d_25">
    <path d="M 84.650579 257.626018 
L 87.788069 257.626015 
L 90.92556 257.625257 
L 94.06305 257.61443 
L 97.200541 257.559311 
L 100.338032 257.392397 
L 103.475522 257.018673 
L 106.613013 256.331761 
L 109.750503 255.224292 
L 112.887994 253.595042 
L 116.025485 251.364739 
L 119.162975 248.486896 
L 122.300466 244.944703 
L 125.437956 240.735801 
L 128.575447 235.86031 
L 131.712938 230.322608 
L 134.850428 224.145841 
L 137.987919 217.384949 
L 141.125409 210.126217 
L 144.2629 202.473618 
L 147.400391 194.534719 
L 150.537881 186.414497 
L 153.675372 178.202409 
L 156.812863 169.957624 
L 159.950353 161.7068 
L 163.087844 153.455685 
L 166.225334 145.204592 
L 169.362825 136.955184 
L 172.500316 128.721491 
L 175.637806 120.545829 
L 178.775297 112.503683 
L 181.912787 104.694495 
L 185.050278 97.225417 
L 188.187769 90.203277 
L 191.325259 83.725449 
L 194.46275 77.863484 
L 197.60024 72.655602 
L 200.737731 68.113331 
L 203.875222 64.237806 
L 207.012712 61.028559 
L 210.150203 58.478201 
L 213.287693 56.556371 
L 216.425184 55.199704 
L 219.562675 54.315829 
L 222.700165 53.798973 
L 225.837656 53.541635 
L 228.975147 53.441084 
L 232.112637 53.414441 
L 235.250128 53.411002 
L 238.387618 53.410909 
L 241.525109 53.410909 
L 244.6626 53.411002 
L 247.80009 53.414441 
L 250.937581 53.441084 
L 254.075071 53.541635 
L 257.212562 53.798973 
L 260.350053 54.315829 
L 263.487543 55.199704 
L 266.625034 56.556371 
L 269.762524 58.478201 
L 272.900015 61.028559 
L 276.037506 64.237806 
L 279.174996 68.113331 
L 282.312487 72.655602 
L 285.449977 77.863484 
L 288.587468 83.725449 
L 291.724959 90.203277 
L 294.862449 97.225417 
L 297.99994 104.694495 
L 301.137431 112.503683 
L 304.274921 120.545829 
L 307.412412 128.721491 
L 310.549902 136.955184 
L 313.687393 145.204592 
L 316.824884 153.455685 
L 319.962374 161.7068 
L 323.099865 169.957624 
L 326.237355 178.202409 
L 329.374846 186.414497 
L 332.512337 194.534719 
L 335.649827 202.473618 
L 338.787318 210.126217 
L 341.924808 217.384949 
L 345.062299 224.145841 
L 348.19979 230.322608 
L 351.33728 235.86031 
L 354.474771 240.735801 
L 357.612261 244.944703 
L 360.749752 248.486896 
L 363.887243 251.364739 
L 367.024733 253.595042 
L 370.162224 255.224292 
L 373.299715 256.331761 
L 376.437205 257.018673 
L 379.574696 257.392397 
L 382.712186 257.559311 
L 385.849677 257.61443 
L 388.987168 257.625257 
L 392.124658 257.626015 
L 395.262149 257.626018 
" clip-path="url(#pec5d6ba772)" style="fill: none; stroke: #e24a33; stroke-width: 2"/>
   </g>
   <g id="line2d_26">
    <path d="M 84.650579 257.629091 
L 87.788069 257.392189 
L 90.92556 255.810248 
L 94.06305 253.153108 
L 97.200541 249.938595 
L 100.338032 245.218672 
L 103.475522 239.71721 
L 106.613013 233.434259 
L 109.750503 225.646004 
L 112.887994 217.493129 
L 116.025485 210.409379 
L 119.162975 204.670805 
L 122.300466 199.406076 
L 125.437956 195.486388 
L 128.575447 192.641865 
L 131.712938 190.354609 
L 134.850428 189.572258 
L 137.987919 189.517368 
L 141.125409 188.735019 
L 144.2629 186.447765 
L 147.400391 183.603247 
L 150.537881 179.683565 
L 153.675372 174.418845 
L 156.812863 168.680282 
L 159.950353 161.596547 
L 163.087844 153.443689 
L 166.225334 145.655459 
L 169.362825 139.372541 
L 172.500316 133.871123 
L 175.637806 129.151265 
L 178.775297 125.936851 
L 181.912787 123.279885 
L 185.050278 121.698344 
L 188.187769 121.463424 
L 191.325259 121.228504 
L 194.46275 119.646966 
L 197.60024 116.990004 
L 200.737731 113.775595 
L 203.875222 109.055744 
L 207.012712 103.554336 
L 210.150203 97.27143 
L 213.287693 89.483216 
L 216.425184 81.33038 
L 219.562675 74.246673 
L 222.700165 68.508148 
L 225.837656 63.24348 
L 228.975147 59.323878 
L 232.112637 56.479488 
L 235.250128 54.192485 
L 238.387618 53.410909 
L 241.525109 53.410909 
L 244.6626 54.192485 
L 247.80009 56.479488 
L 250.937581 59.323878 
L 254.075071 63.24348 
L 257.212562 68.508148 
L 260.350053 74.246673 
L 263.487543 81.33038 
L 266.625034 89.483216 
L 269.762524 97.27143 
L 272.900015 103.554336 
L 276.037506 109.055744 
L 279.174996 113.775595 
L 282.312487 116.990004 
L 285.449977 119.646966 
L 288.587468 121.228504 
L 291.724959 121.463424 
L 294.862449 121.698344 
L 297.99994 123.279885 
L 301.137431 125.936851 
L 304.274921 129.151265 
L 307.412412 133.871123 
L 310.549902 139.372541 
L 313.687393 145.655459 
L 316.824884 153.443689 
L 319.962374 161.596547 
L 323.099865 168.680282 
L 326.237355 174.418845 
L 329.374846 179.683565 
L 332.512337 183.603247 
L 335.649827 186.447765 
L 338.787318 188.735019 
L 341.924808 189.517368 
L 345.062299 189.572258 
L 348.19979 190.354609 
L 351.33728 192.641865 
L 354.474771 195.486388 
L 357.612261 199.406076 
L 360.749752 204.670805 
L 363.887243 210.409379 
L 367.024733 217.493129 
L 370.162224 225.646004 
L 373.299715 233.434259 
L 376.437205 239.71721 
L 379.574696 245.218672 
L 382.712186 249.938595 
L 385.849677 253.153108 
L 388.987168 255.810248 
L 392.124658 257.392189 
L 395.262149 257.629091 
" clip-path="url(#pec5d6ba772)" style="fill: none; stroke: #348abd; stroke-width: 2"/>
   </g>
   <g id="line2d_27">
    <path d="M 84.650579 257.625997 
L 87.788069 257.61467 
L 90.92556 257.372395 
L 94.06305 256.411484 
L 97.200541 254.300359 
L 100.338032 250.924908 
L 103.475522 246.283655 
L 106.613013 240.376602 
L 109.750503 233.205222 
L 112.887994 224.883629 
L 116.025485 215.843402 
L 119.162975 206.572236 
L 122.300466 197.289742 
L 125.437956 188.00724 
L 128.575447 178.724736 
L 131.712938 169.442231 
L 134.850428 160.159726 
L 137.987919 150.877221 
L 141.125409 141.594716 
L 144.2629 132.312211 
L 147.400391 123.029707 
L 150.537881 113.747204 
L 153.675372 104.464711 
L 156.812863 95.193545 
L 159.950353 86.153317 
L 163.087844 77.831724 
L 166.225334 70.660344 
L 169.362825 64.75329 
L 172.500316 60.112037 
L 175.637806 56.736585 
L 178.775297 54.625459 
L 181.912787 53.664547 
L 185.050278 53.422269 
L 188.187769 53.410929 
L 191.325259 53.410917 
L 194.46275 53.410914 
L 197.60024 53.410913 
L 200.737731 53.410912 
L 203.875222 53.410911 
L 207.012712 53.410911 
L 210.150203 53.410911 
L 213.287693 53.41091 
L 216.425184 53.41091 
L 219.562675 53.41091 
L 222.700165 53.41091 
L 225.837656 53.410909 
L 228.975147 53.410909 
L 232.112637 53.410909 
L 235.250128 53.410909 
L 238.387618 53.410909 
L 241.525109 53.410909 
L 244.6626 53.410909 
L 247.80009 53.410909 
L 250.937581 53.410909 
L 254.075071 53.410909 
L 257.212562 53.41091 
L 260.350053 53.41091 
L 263.487543 53.41091 
L 266.625034 53.41091 
L 269.762524 53.410911 
L 272.900015 53.410911 
L 276.037506 53.410911 
L 279.174996 53.410912 
L 282.312487 53.410913 
L 285.449977 53.410914 
L 288.587468 53.410917 
L 291.724959 53.410929 
L 294.862449 53.422269 
L 297.99994 53.664547 
L 301.137431 54.625459 
L 304.274921 56.736585 
L 307.412412 60.112037 
L 310.549902 64.75329 
L 313.687393 70.660344 
L 316.824884 77.831724 
L 319.962374 86.153317 
L 323.099865 95.193545 
L 326.237355 104.464711 
L 329.374846 113.747204 
L 332.512337 123.029707 
L 335.649827 132.312211 
L 338.787318 141.594716 
L 341.924808 150.877221 
L 345.062299 160.159726 
L 348.19979 169.442231 
L 351.33728 178.724736 
L 354.474771 188.00724 
L 357.612261 197.289742 
L 360.749752 206.572236 
L 363.887243 215.843402 
L 367.024733 224.883629 
L 370.162224 233.205222 
L 373.299715 240.376602 
L 376.437205 246.283655 
L 379.574696 250.924908 
L 382.712186 254.300359 
L 385.849677 256.411484 
L 388.987168 257.372395 
L 392.124658 257.61467 
L 395.262149 257.625997 
" clip-path="url(#pec5d6ba772)" style="fill: none; stroke: #988ed5; stroke-width: 2"/>
   </g>
   <g id="line2d_28">
    <path d="M 84.650579 257.626018 
L 87.788069 257.626018 
L 90.92556 257.626018 
L 94.06305 257.626009 
L 97.200541 257.625854 
L 100.338032 257.624744 
L 103.475522 257.619944 
L 106.613013 257.605043 
L 109.750503 257.568049 
L 112.887994 257.489484 
L 116.025485 257.340703 
L 119.162975 257.083282 
L 122.300466 256.670455 
L 125.437956 256.05026 
L 128.575447 255.169297 
L 131.712938 253.976562 
L 134.850428 252.427125 
L 137.987919 250.484959 
L 141.125409 248.123832 
L 144.2629 245.326312 
L 147.400391 242.081982 
L 150.537881 238.385526 
L 153.675372 234.234844 
L 156.812863 229.629382 
L 159.950353 224.569063 
L 163.087844 219.053885 
L 166.225334 213.083847 
L 169.362825 206.65895 
L 172.500316 199.779255 
L 175.637806 192.445444 
L 178.775297 184.660959 
L 181.912787 176.436238 
L 185.050278 167.794159 
L 188.187769 158.775782 
L 191.325259 149.446007 
L 194.46275 139.898142 
L 197.60024 130.254374 
L 200.737731 120.659904 
L 203.875222 111.272772 
L 207.012712 102.252456 
L 210.150203 93.748407 
L 213.287693 85.889348 
L 216.425184 78.776 
L 219.562675 72.480033 
L 222.700165 67.047949 
L 225.837656 62.506631 
L 228.975147 58.869094 
L 232.112637 56.140065 
L 235.250128 54.320629 
L 238.387618 53.410909 
L 241.525109 53.410909 
L 244.6626 54.320629 
L 247.80009 56.140065 
L 250.937581 58.869094 
L 254.075071 62.506631 
L 257.212562 67.047949 
L 260.350053 72.480033 
L 263.487543 78.776 
L 266.625034 85.889348 
L 269.762524 93.748407 
L 272.900015 102.252456 
L 276.037506 111.272772 
L 279.174996 120.659904 
L 282.312487 130.254374 
L 285.449977 139.898142 
L 288.587468 149.446007 
L 291.724959 158.775782 
L 294.862449 167.794159 
L 297.99994 176.436238 
L 301.137431 184.660959 
L 304.274921 192.445444 
L 307.412412 199.779255 
L 310.549902 206.65895 
L 313.687393 213.083847 
L 316.824884 219.053885 
L 319.962374 224.569063 
L 323.099865 229.629382 
L 326.237355 234.234844 
L 329.374846 238.385526 
L 332.512337 242.081982 
L 335.649827 245.326312 
L 338.787318 248.123832 
L 341.924808 250.484959 
L 345.062299 252.427125 
L 348.19979 253.976562 
L 351.33728 255.169297 
L 354.474771 256.05026 
L 357.612261 256.670455 
L 360.749752 257.083282 
L 363.887243 257.340703 
L 367.024733 257.489484 
L 370.162224 257.568049 
L 373.299715 257.605043 
L 376.437205 257.619944 
L 379.574696 257.624744 
L 382.712186 257.625854 
L 385.849677 257.626009 
L 388.987168 257.626018 
L 392.124658 257.626018 
L 395.262149 257.626018 
" clip-path="url(#pec5d6ba772)" style="fill: none; stroke: #777777; stroke-width: 2"/>
   </g>
   <g id="line2d_29">
    <path d="M 84.650579 257.626018 
L 87.788069 257.626018 
L 90.92556 257.626017 
L 94.06305 257.625991 
L 97.200541 257.625736 
L 100.338032 257.624446 
L 103.475522 257.620016 
L 106.613013 257.60823 
L 109.750503 257.581951 
L 112.887994 257.530447 
L 116.025485 257.438998 
L 119.162975 257.288761 
L 122.300466 257.056754 
L 125.437956 256.715883 
L 128.575447 256.235121 
L 131.712938 255.579963 
L 134.850428 254.713138 
L 137.987919 253.595429 
L 141.125409 252.186476 
L 144.2629 250.445424 
L 147.400391 248.331288 
L 150.537881 245.803071 
L 153.675372 242.819783 
L 156.812863 239.340588 
L 159.950353 235.325608 
L 163.087844 230.737864 
L 166.225334 225.546196 
L 169.362825 219.728559 
L 172.500316 213.275194 
L 175.637806 206.191133 
L 178.775297 198.497538 
L 181.912787 190.232094 
L 185.050278 181.449042 
L 188.187769 172.218989 
L 191.325259 162.628013 
L 194.46275 152.7756 
L 197.60024 142.771659 
L 200.737731 132.733222 
L 203.875222 122.781304 
L 207.012712 113.038507 
L 210.150203 103.627796 
L 213.287693 94.672163 
L 216.425184 86.29458 
L 219.562675 78.617655 
L 222.700165 71.762123 
L 225.837656 65.843586 
L 228.975147 60.967944 
L 232.112637 57.226441 
L 235.250128 54.691025 
L 238.387618 53.410909 
L 241.525109 53.410909 
L 244.6626 54.691025 
L 247.80009 57.226441 
L 250.937581 60.967944 
L 254.075071 65.843586 
L 257.212562 71.762123 
L 260.350053 78.617655 
L 263.487543 86.29458 
L 266.625034 94.672163 
L 269.762524 103.627796 
L 272.900015 113.038507 
L 276.037506 122.781304 
L 279.174996 132.733222 
L 282.312487 142.771659 
L 285.449977 152.7756 
L 288.587468 162.628013 
L 291.724959 172.218989 
L 294.862449 181.449042 
L 297.99994 190.232094 
L 301.137431 198.497538 
L 304.274921 206.191133 
L 307.412412 213.275194 
L 310.549902 219.728559 
L 313.687393 225.546196 
L 316.824884 230.737864 
L 319.962374 235.325608 
L 323.099865 239.340588 
L 326.237355 242.819783 
L 329.374846 245.803071 
L 332.512337 248.331288 
L 335.649827 250.445424 
L 338.787318 252.186476 
L 341.924808 253.595429 
L 345.062299 254.713138 
L 348.19979 255.579963 
L 351.33728 256.235121 
L 354.474771 256.715883 
L 357.612261 257.056754 
L 360.749752 257.288761 
L 363.887243 257.438998 
L 367.024733 257.530447 
L 370.162224 257.581951 
L 373.299715 257.60823 
L 376.437205 257.620016 
L 379.574696 257.624446 
L 382.712186 257.625736 
L 385.849677 257.625991 
L 388.987168 257.626017 
L 392.124658 257.626018 
L 395.262149 257.626018 
" clip-path="url(#pec5d6ba772)" style="fill: none; stroke: #fbc15e; stroke-width: 2"/>
   </g>
   <g id="line2d_30">
    <path d="M 84.650579 257.626018 
L 87.788069 257.626018 
L 90.92556 257.626018 
L 94.06305 257.626018 
L 97.200541 257.626018 
L 100.338032 257.626018 
L 103.475522 257.626018 
L 106.613013 257.626018 
L 109.750503 257.626012 
L 112.887994 257.625979 
L 116.025485 257.625833 
L 119.162975 257.625306 
L 122.300466 257.623695 
L 125.437956 257.619411 
L 128.575447 257.609238 
L 131.712938 257.587307 
L 134.850428 257.54375 
L 137.987919 257.463137 
L 141.125409 257.32279 
L 144.2629 257.091163 
L 147.400391 256.726515 
L 150.537881 256.176116 
L 153.675372 255.376222 
L 156.812863 254.252954 
L 159.950353 252.72411 
L 163.087844 250.701791 
L 166.225334 248.095645 
L 169.362825 244.81651 
L 172.500316 240.780278 
L 175.637806 235.911846 
L 178.775297 230.149111 
L 181.912787 223.446962 
L 185.050278 215.781275 
L 188.187769 207.15287 
L 191.325259 197.591357 
L 194.46275 187.158656 
L 197.60024 175.951841 
L 200.737731 164.104765 
L 203.875222 151.787903 
L 207.012712 139.205904 
L 210.150203 126.592662 
L 213.287693 114.204028 
L 216.425184 102.308665 
L 219.562675 91.177732 
L 222.700165 81.074205 
L 225.837656 72.2426 
L 228.975147 64.899774 
L 232.112637 59.227325 
L 235.250128 55.365828 
L 238.387618 53.410909 
L 241.525109 53.410909 
L 244.6626 55.365828 
L 247.80009 59.227325 
L 250.937581 64.899774 
L 254.075071 72.2426 
L 257.212562 81.074205 
L 260.350053 91.177732 
L 263.487543 102.308665 
L 266.625034 114.204028 
L 269.762524 126.592662 
L 272.900015 139.205904 
L 276.037506 151.787903 
L 279.174996 164.104765 
L 282.312487 175.951841 
L 285.449977 187.158656 
L 288.587468 197.591357 
L 291.724959 207.15287 
L 294.862449 215.781275 
L 297.99994 223.446962 
L 301.137431 230.149111 
L 304.274921 235.911846 
L 307.412412 240.780278 
L 310.549902 244.81651 
L 313.687393 248.095645 
L 316.824884 250.701791 
L 319.962374 252.72411 
L 323.099865 254.252954 
L 326.237355 255.376222 
L 329.374846 256.176116 
L 332.512337 256.726515 
L 335.649827 257.091163 
L 338.787318 257.32279 
L 341.924808 257.463137 
L 345.062299 257.54375 
L 348.19979 257.587307 
L 351.33728 257.609238 
L 354.474771 257.619411 
L 357.612261 257.623695 
L 360.749752 257.625306 
L 363.887243 257.625833 
L 367.024733 257.625979 
L 370.162224 257.626012 
L 373.299715 257.626018 
L 376.437205 257.626018 
L 379.574696 257.626018 
L 382.712186 257.626018 
L 385.849677 257.626018 
L 388.987168 257.626018 
L 392.124658 257.626018 
L 395.262149 257.626018 
" clip-path="url(#pec5d6ba772)" style="fill: none; stroke: #8eba42; stroke-width: 2"/>
   </g>
   <g id="line2d_31">
    <path d="M 84.650579 257.626018 
L 87.788069 257.626018 
L 90.92556 257.625911 
L 94.06305 257.624006 
L 97.200541 257.612549 
L 100.338032 257.572967 
L 103.475522 257.47411 
L 106.613013 257.273264 
L 109.750503 256.920303 
L 112.887994 256.362657 
L 116.025485 255.547546 
L 119.162975 254.423134 
L 122.300466 252.94232 
L 125.437956 251.067858 
L 128.575447 248.774923 
L 131.712938 246.050781 
L 134.850428 242.891401 
L 137.987919 239.296258 
L 141.125409 235.26535 
L 144.2629 230.799204 
L 147.400391 225.901852 
L 150.537881 220.586026 
L 153.675372 214.876553 
L 156.812863 208.810678 
L 159.950353 202.435501 
L 163.087844 195.802859 
L 166.225334 188.965533 
L 169.362825 181.976091 
L 172.500316 174.884661 
L 175.637806 167.733956 
L 178.775297 160.555125 
L 181.912787 153.366742 
L 185.050278 146.176562 
L 188.187769 138.986275 
L 191.325259 131.795988 
L 194.46275 124.605915 
L 197.60024 117.419437 
L 200.737731 110.252063 
L 203.875222 103.140941 
L 207.012712 96.148367 
L 210.150203 89.359771 
L 213.287693 82.875406 
L 216.425184 76.80041 
L 219.562675 71.240344 
L 222.700165 66.298881 
L 225.837656 62.070222 
L 228.975147 58.628858 
L 232.112637 56.024441 
L 235.250128 54.282436 
L 238.387618 53.410909 
L 241.525109 53.410909 
L 244.6626 54.282436 
L 247.80009 56.024441 
L 250.937581 58.628858 
L 254.075071 62.070222 
L 257.212562 66.298881 
L 260.350053 71.240344 
L 263.487543 76.80041 
L 266.625034 82.875406 
L 269.762524 89.359771 
L 272.900015 96.148367 
L 276.037506 103.140941 
L 279.174996 110.252063 
L 282.312487 117.419437 
L 285.449977 124.605915 
L 288.587468 131.795988 
L 291.724959 138.986275 
L 294.862449 146.176562 
L 297.99994 153.366742 
L 301.137431 160.555125 
L 304.274921 167.733956 
L 307.412412 174.884661 
L 310.549902 181.976091 
L 313.687393 188.965533 
L 316.824884 195.802859 
L 319.962374 202.435501 
L 323.099865 208.810678 
L 326.237355 214.876553 
L 329.374846 220.586026 
L 332.512337 225.901852 
L 335.649827 230.799204 
L 338.787318 235.26535 
L 341.924808 239.296258 
L 345.062299 242.891401 
L 348.19979 246.050781 
L 351.33728 248.774923 
L 354.474771 251.067858 
L 357.612261 252.94232 
L 360.749752 254.423134 
L 363.887243 255.547546 
L 367.024733 256.362657 
L 370.162224 256.920303 
L 373.299715 257.273264 
L 376.437205 257.47411 
L 379.574696 257.572967 
L 382.712186 257.612549 
L 385.849677 257.624006 
L 388.987168 257.625911 
L 392.124658 257.626018 
L 395.262149 257.626018 
" clip-path="url(#pec5d6ba772)" style="fill: none; stroke: #ffb5b8; stroke-width: 2"/>
   </g>
   <g id="line2d_32">
    <path d="M 84.650579 257.626005 
L 87.788069 257.62425 
L 90.92556 257.5896 
L 94.06305 257.436463 
L 97.200541 257.07399 
L 100.338032 256.463606 
L 103.475522 255.57718 
L 106.613013 254.335173 
L 109.750503 252.642528 
L 112.887994 250.455161 
L 116.025485 247.787767 
L 119.162975 244.713264 
L 122.300466 241.329656 
L 125.437956 237.688712 
L 128.575447 233.812709 
L 131.712938 229.767593 
L 134.850428 225.65289 
L 137.987919 221.527331 
L 141.125409 217.390915 
L 144.2629 213.184913 
L 147.400391 208.809798 
L 150.537881 204.199623 
L 153.675372 199.332112 
L 156.812863 194.155496 
L 159.950353 188.571772 
L 163.087844 182.508021 
L 166.225334 175.949547 
L 169.362825 168.940435 
L 172.500316 161.575743 
L 175.637806 153.935009 
L 178.775297 146.046364 
L 181.912787 137.948383 
L 185.050278 129.731917 
L 188.187769 121.482563 
L 191.325259 113.234963 
L 194.46275 105.053147 
L 197.60024 97.108304 
L 200.737731 89.582131 
L 203.875222 82.551782 
L 207.012712 76.073516 
L 210.150203 70.30641 
L 213.287693 65.440582 
L 216.425184 61.564198 
L 219.562675 58.647867 
L 222.700165 56.545755 
L 225.837656 55.061851 
L 228.975147 54.09262 
L 232.112637 53.593509 
L 235.250128 53.432622 
L 238.387618 53.410909 
L 241.525109 53.410909 
L 244.6626 53.432622 
L 247.80009 53.593509 
L 250.937581 54.09262 
L 254.075071 55.061851 
L 257.212562 56.545755 
L 260.350053 58.647867 
L 263.487543 61.564198 
L 266.625034 65.440582 
L 269.762524 70.30641 
L 272.900015 76.073516 
L 276.037506 82.551782 
L 279.174996 89.582131 
L 282.312487 97.108304 
L 285.449977 105.053147 
L 288.587468 113.234963 
L 291.724959 121.482563 
L 294.862449 129.731917 
L 297.99994 137.948383 
L 301.137431 146.046364 
L 304.274921 153.935009 
L 307.412412 161.575743 
L 310.549902 168.940435 
L 313.687393 175.949547 
L 316.824884 182.508021 
L 319.962374 188.571772 
L 323.099865 194.155496 
L 326.237355 199.332112 
L 329.374846 204.199623 
L 332.512337 208.809798 
L 335.649827 213.184913 
L 338.787318 217.390915 
L 341.924808 221.527331 
L 345.062299 225.65289 
L 348.19979 229.767593 
L 351.33728 233.812709 
L 354.474771 237.688712 
L 357.612261 241.329656 
L 360.749752 244.713264 
L 363.887243 247.787767 
L 367.024733 250.455161 
L 370.162224 252.642528 
L 373.299715 254.335173 
L 376.437205 255.57718 
L 379.574696 256.463606 
L 382.712186 257.07399 
L 385.849677 257.436463 
L 388.987168 257.5896 
L 392.124658 257.62425 
L 395.262149 257.626005 
" clip-path="url(#pec5d6ba772)" style="fill: none; stroke: #e24a33; stroke-width: 2"/>
   </g>
   <g id="patch_3">
    <path d="M 69.12 267.84 
L 69.12 43.2 
" style="fill: none; stroke: #ffffff; stroke-linejoin: miter; stroke-linecap: square"/>
   </g>
   <g id="patch_4">
    <path d="M 410.792727 267.84 
L 410.792727 43.2 
" style="fill: none; stroke: #ffffff; stroke-linejoin: miter; stroke-linecap: square"/>
   </g>
   <g id="patch_5">
    <path d="M 69.12 267.84 
L 410.792727 267.84 
" style="fill: none; stroke: #ffffff; stroke-linejoin: miter; stroke-linecap: square"/>
   </g>
   <g id="patch_6">
    <path d="M 69.12 43.2 
L 410.792727 43.2 
" style="fill: none; stroke: #ffffff; stroke-linejoin: miter; stroke-linecap: square"/>
   </g>
   <g id="text_13">
    <!-- $\mathrm{mode}=max$ -->
    <g style="fill: #262626" transform="translate(200.788364 37.2) scale(0.144 -0.144)">
     <defs>
      <path id="Cmr10-6d" d="M 191 0 
L 191 225 
Q 409 225 550 259 
Q 691 294 691 428 
L 691 2175 
Q 691 2347 639 2423 
Q 588 2500 491 2517 
Q 394 2534 191 2534 
L 191 2759 
L 1119 2828 
L 1119 2203 
Q 1247 2478 1498 2653 
Q 1750 2828 2047 2828 
Q 2784 2828 2913 2228 
Q 3041 2497 3287 2662 
Q 3534 2828 3828 2828 
Q 4119 2828 4317 2734 
Q 4516 2641 4616 2448 
Q 4716 2256 4716 1966 
L 4716 428 
Q 4716 294 4858 259 
Q 5000 225 5216 225 
L 5216 0 
L 3750 0 
L 3750 225 
Q 3969 225 4109 259 
Q 4250 294 4250 428 
L 4250 1947 
Q 4250 2269 4159 2466 
Q 4069 2663 3788 2663 
Q 3419 2663 3178 2366 
Q 2938 2069 2938 1691 
L 2938 428 
Q 2938 294 3078 259 
Q 3219 225 3438 225 
L 3438 0 
L 1972 0 
L 1972 225 
Q 2191 225 2331 259 
Q 2472 294 2472 428 
L 2472 1947 
Q 2472 2259 2381 2461 
Q 2291 2663 2009 2663 
Q 1638 2663 1398 2366 
Q 1159 2069 1159 1691 
L 1159 428 
Q 1159 294 1300 259 
Q 1441 225 1656 225 
L 1656 0 
L 191 0 
z
" transform="scale(0.015625)"/>
      <path id="Cmr10-6f" d="M 1600 -72 
Q 1216 -72 887 123 
Q 559 319 368 647 
Q 178 975 178 1363 
Q 178 1656 283 1928 
Q 388 2200 583 2414 
Q 778 2628 1037 2748 
Q 1297 2869 1600 2869 
Q 1994 2869 2317 2661 
Q 2641 2453 2828 2104 
Q 3016 1756 3016 1363 
Q 3016 978 2825 648 
Q 2634 319 2307 123 
Q 1981 -72 1600 -72 
z
M 1600 116 
Q 2113 116 2284 487 
Q 2456 859 2456 1434 
Q 2456 1756 2422 1967 
Q 2388 2178 2272 2350 
Q 2200 2456 2089 2536 
Q 1978 2616 1854 2658 
Q 1731 2700 1600 2700 
Q 1400 2700 1220 2609 
Q 1041 2519 922 2350 
Q 803 2169 770 1951 
Q 738 1734 738 1434 
Q 738 1075 800 789 
Q 863 503 1052 309 
Q 1241 116 1600 116 
z
" transform="scale(0.015625)"/>
      <path id="Cmr10-64" d="M 1563 -72 
Q 1184 -72 871 133 
Q 559 338 386 672 
Q 213 1006 213 1381 
Q 213 1769 402 2101 
Q 591 2434 916 2631 
Q 1241 2828 1631 2828 
Q 1866 2828 2075 2729 
Q 2284 2631 2438 2456 
L 2438 3788 
Q 2438 3959 2386 4036 
Q 2334 4113 2239 4130 
Q 2144 4147 1941 4147 
L 1941 4372 
L 2888 4441 
L 2888 581 
Q 2888 413 2939 336 
Q 2991 259 3086 242 
Q 3181 225 3384 225 
L 3384 0 
L 2419 -72 
L 2419 331 
Q 2253 141 2025 34 
Q 1797 -72 1563 -72 
z
M 909 556 
Q 1019 347 1201 222 
Q 1384 97 1600 97 
Q 1866 97 2087 250 
Q 2309 403 2419 647 
L 2419 2181 
Q 2344 2322 2230 2433 
Q 2116 2544 1973 2603 
Q 1831 2663 1672 2663 
Q 1338 2663 1134 2473 
Q 931 2284 850 1990 
Q 769 1697 769 1375 
Q 769 1119 795 928 
Q 822 738 909 556 
z
" transform="scale(0.015625)"/>
      <path id="Cmr10-65" d="M 1594 -72 
Q 1203 -72 876 133 
Q 550 338 364 680 
Q 178 1022 178 1403 
Q 178 1778 348 2115 
Q 519 2453 823 2661 
Q 1128 2869 1503 2869 
Q 1797 2869 2014 2770 
Q 2231 2672 2372 2497 
Q 2513 2322 2584 2084 
Q 2656 1847 2656 1563 
Q 2656 1478 2591 1478 
L 738 1478 
L 738 1409 
Q 738 878 952 497 
Q 1166 116 1650 116 
Q 1847 116 2014 203 
Q 2181 291 2304 447 
Q 2428 603 2472 781 
Q 2478 803 2495 820 
Q 2513 838 2534 838 
L 2591 838 
Q 2656 838 2656 756 
Q 2566 394 2266 161 
Q 1966 -72 1594 -72 
z
M 744 1638 
L 2203 1638 
Q 2203 1878 2136 2125 
Q 2069 2372 1912 2536 
Q 1756 2700 1503 2700 
Q 1141 2700 942 2361 
Q 744 2022 744 1638 
z
" transform="scale(0.015625)"/>
      <path id="Cmr10-3d" d="M 481 850 
Q 428 850 393 890 
Q 359 931 359 978 
Q 359 1031 393 1068 
Q 428 1106 481 1106 
L 4500 1106 
Q 4547 1106 4581 1068 
Q 4616 1031 4616 978 
Q 4616 931 4581 890 
Q 4547 850 4500 850 
L 481 850 
z
M 481 2094 
Q 428 2094 393 2131 
Q 359 2169 359 2222 
Q 359 2269 393 2309 
Q 428 2350 481 2350 
L 4500 2350 
Q 4547 2350 4581 2309 
Q 4616 2269 4616 2222 
Q 4616 2169 4581 2131 
Q 4547 2094 4500 2094 
L 481 2094 
z
" transform="scale(0.015625)"/>
      <path id="Cmmi10-6d" d="M 494 109 
Q 494 147 500 166 
L 978 2075 
Q 1025 2253 1025 2388 
Q 1025 2663 838 2663 
Q 638 2663 541 2423 
Q 444 2184 353 1819 
Q 353 1800 334 1789 
Q 316 1778 300 1778 
L 225 1778 
Q 203 1778 187 1801 
Q 172 1825 172 1844 
Q 241 2122 305 2315 
Q 369 2509 505 2668 
Q 641 2828 844 2828 
Q 1084 2828 1268 2676 
Q 1453 2525 1453 2291 
Q 1644 2541 1900 2684 
Q 2156 2828 2444 2828 
Q 2747 2828 2967 2673 
Q 3188 2519 3188 2234 
Q 3384 2513 3648 2670 
Q 3913 2828 4225 2828 
Q 4556 2828 4757 2648 
Q 4959 2469 4959 2138 
Q 4959 1875 4842 1503 
Q 4725 1131 4550 672 
Q 4459 450 4459 288 
Q 4459 97 4609 97 
Q 4859 97 5025 365 
Q 5191 634 5259 941 
Q 5278 978 5313 978 
L 5388 978 
Q 5413 978 5430 961 
Q 5447 944 5447 922 
Q 5447 916 5441 903 
Q 5353 541 5136 234 
Q 4919 -72 4594 -72 
Q 4369 -72 4209 83 
Q 4050 238 4050 459 
Q 4050 572 4103 709 
Q 4284 1191 4404 1569 
Q 4525 1947 4525 2234 
Q 4525 2413 4453 2538 
Q 4381 2663 4213 2663 
Q 3863 2663 3606 2448 
Q 3350 2234 3163 1881 
Q 3150 1819 3144 1784 
L 2731 141 
Q 2709 53 2632 -9 
Q 2556 -72 2463 -72 
Q 2388 -72 2330 -22 
Q 2272 28 2272 109 
Q 2272 147 2278 166 
L 2688 1797 
Q 2753 2059 2753 2234 
Q 2753 2413 2679 2538 
Q 2606 2663 2431 2663 
Q 2197 2663 2000 2559 
Q 1803 2456 1656 2286 
Q 1509 2116 1388 1881 
L 953 141 
Q 931 53 854 -9 
Q 778 -72 684 -72 
Q 606 -72 550 -22 
Q 494 28 494 109 
z
" transform="scale(0.015625)"/>
      <path id="Cmmi10-61" d="M 1113 -72 
Q 709 -72 476 233 
Q 244 538 244 953 
Q 244 1363 456 1803 
Q 669 2244 1030 2536 
Q 1391 2828 1806 2828 
Q 1997 2828 2147 2725 
Q 2297 2622 2381 2444 
Q 2453 2700 2663 2700 
Q 2744 2700 2798 2651 
Q 2853 2603 2853 2522 
Q 2853 2503 2851 2493 
Q 2850 2484 2847 2472 
L 2400 684 
Q 2356 494 2356 372 
Q 2356 97 2541 97 
Q 2741 97 2845 351 
Q 2950 606 3022 941 
Q 3034 978 3072 978 
L 3150 978 
Q 3175 978 3190 956 
Q 3206 934 3206 916 
Q 3094 469 2961 198 
Q 2828 -72 2528 -72 
Q 2313 -72 2147 54 
Q 1981 181 1941 391 
Q 1528 -72 1113 -72 
z
M 1119 97 
Q 1350 97 1567 270 
Q 1784 444 1941 678 
Q 1947 684 1947 697 
L 2291 2088 
L 2297 2106 
Q 2259 2334 2132 2498 
Q 2006 2663 1791 2663 
Q 1575 2663 1389 2486 
Q 1203 2309 1075 2069 
Q 950 1813 836 1366 
Q 722 919 722 672 
Q 722 450 817 273 
Q 913 97 1119 97 
z
" transform="scale(0.015625)"/>
      <path id="Cmmi10-78" d="M 500 184 
Q 613 97 819 97 
Q 1019 97 1172 289 
Q 1325 481 1381 709 
L 1672 1844 
Q 1741 2153 1741 2266 
Q 1741 2425 1652 2544 
Q 1563 2663 1403 2663 
Q 1200 2663 1022 2536 
Q 844 2409 722 2214 
Q 600 2019 550 1819 
Q 538 1778 500 1778 
L 422 1778 
Q 372 1778 372 1838 
L 372 1856 
Q 434 2094 584 2320 
Q 734 2547 951 2687 
Q 1169 2828 1416 2828 
Q 1650 2828 1839 2703 
Q 2028 2578 2106 2363 
Q 2216 2559 2386 2693 
Q 2556 2828 2759 2828 
Q 2897 2828 3040 2779 
Q 3184 2731 3275 2631 
Q 3366 2531 3366 2381 
Q 3366 2219 3261 2101 
Q 3156 1984 2994 1984 
Q 2891 1984 2822 2050 
Q 2753 2116 2753 2216 
Q 2753 2350 2845 2451 
Q 2938 2553 3066 2572 
Q 2950 2663 2747 2663 
Q 2541 2663 2389 2472 
Q 2238 2281 2175 2047 
L 1894 916 
Q 1825 659 1825 494 
Q 1825 331 1917 214 
Q 2009 97 2163 97 
Q 2463 97 2698 361 
Q 2934 625 3009 941 
Q 3022 978 3059 978 
L 3138 978 
Q 3163 978 3178 961 
Q 3194 944 3194 922 
Q 3194 916 3188 903 
Q 3097 522 2806 225 
Q 2516 -72 2150 -72 
Q 1916 -72 1727 54 
Q 1538 181 1459 397 
Q 1359 209 1182 68 
Q 1006 -72 806 -72 
Q 669 -72 523 -23 
Q 378 25 287 125 
Q 197 225 197 378 
Q 197 528 301 651 
Q 406 775 563 775 
Q 669 775 741 711 
Q 813 647 813 544 
Q 813 409 723 309 
Q 634 209 500 184 
z
" transform="scale(0.015625)"/>
     </defs>
     <use xlink:href="#Cmr10-6d" transform="translate(0 0.609375)"/>
     <use xlink:href="#Cmr10-6f" transform="translate(83.300781 0.609375)"/>
     <use xlink:href="#Cmr10-64" transform="translate(133.300781 0.609375)"/>
     <use xlink:href="#Cmr10-65" transform="translate(188.818359 0.609375)"/>
     <use xlink:href="#Cmr10-3d" transform="translate(250.761719 0.609375)"/>
     <use xlink:href="#Cmmi10-6d" transform="translate(346.005859 0.609375)"/>
     <use xlink:href="#Cmmi10-61" transform="translate(433.798828 0.609375)"/>
     <use xlink:href="#Cmmi10-78" transform="translate(486.582031 0.609375)"/>
    </g>
   </g>
   <g id="legend_1">
    <g id="line2d_33">
     <path d="M 214.606364 150.960313 
L 224.606364 150.960313 
L 234.606364 150.960313 
" style="fill: none; stroke: #e24a33; stroke-width: 2"/>
    </g>
    <g id="text_14">
     <!-- $\mathrm{up}$ -->
     <g style="fill: #262626" transform="translate(242.606364 154.460313) scale(0.1 -0.1)">
      <defs>
       <path id="Cmr10-75" d="M 691 763 
L 691 2175 
Q 691 2347 639 2423 
Q 588 2500 491 2517 
Q 394 2534 191 2534 
L 191 2759 
L 1159 2828 
L 1159 763 
Q 1159 513 1195 373 
Q 1231 234 1348 165 
Q 1466 97 1722 97 
Q 2066 97 2269 384 
Q 2472 672 2472 1038 
L 2472 2175 
Q 2472 2347 2419 2423 
Q 2366 2500 2270 2517 
Q 2175 2534 1972 2534 
L 1972 2759 
L 2938 2828 
L 2938 581 
Q 2938 413 2989 336 
Q 3041 259 3137 242 
Q 3234 225 3438 225 
L 3438 0 
L 2491 -72 
L 2491 469 
Q 2372 228 2159 78 
Q 1947 -72 1691 -72 
Q 1231 -72 961 123 
Q 691 319 691 763 
z
" transform="scale(0.015625)"/>
       <path id="Cmr10-70" d="M 166 -1241 
L 166 -1019 
Q 384 -1019 525 -981 
Q 666 -944 666 -813 
L 666 2272 
Q 666 2447 541 2490 
Q 416 2534 166 2534 
L 166 2759 
L 1113 2828 
L 1113 2431 
Q 1288 2625 1520 2726 
Q 1753 2828 2016 2828 
Q 2394 2828 2697 2623 
Q 3000 2419 3170 2086 
Q 3341 1753 3341 1381 
Q 3341 994 3152 659 
Q 2963 325 2636 126 
Q 2309 -72 1919 -72 
Q 1453 -72 1131 306 
L 1131 -813 
Q 1131 -944 1273 -981 
Q 1416 -1019 1631 -1019 
L 1631 -1241 
L 166 -1241 
z
M 1131 622 
Q 1244 394 1444 245 
Q 1644 97 1881 97 
Q 2103 97 2273 215 
Q 2444 334 2559 534 
Q 2675 734 2729 954 
Q 2784 1175 2784 1381 
Q 2784 1638 2692 1936 
Q 2600 2234 2411 2439 
Q 2222 2644 1953 2644 
Q 1694 2644 1476 2511 
Q 1259 2378 1131 2150 
L 1131 622 
z
" transform="scale(0.015625)"/>
      </defs>
      <use xlink:href="#Cmr10-75" transform="translate(0 0.8125)"/>
      <use xlink:href="#Cmr10-70" transform="translate(55.517578 0.8125)"/>
     </g>
    </g>
    <g id="line2d_34">
     <path d="M 214.606364 165.118125 
L 224.606364 165.118125 
L 234.606364 165.118125 
" style="fill: none; stroke: #348abd; stroke-width: 2"/>
    </g>
    <g id="text_15">
     <!-- $\mathrm{up}_3$ -->
     <g style="fill: #262626" transform="translate(242.606364 168.618125) scale(0.1 -0.1)">
      <defs>
       <path id="Cmr10-33" d="M 609 494 
Q 759 275 1012 169 
Q 1266 63 1556 63 
Q 1928 63 2084 380 
Q 2241 697 2241 1100 
Q 2241 1281 2208 1462 
Q 2175 1644 2097 1800 
Q 2019 1956 1883 2050 
Q 1747 2144 1550 2144 
L 1125 2144 
Q 1069 2144 1069 2203 
L 1069 2259 
Q 1069 2309 1125 2309 
L 1478 2338 
Q 1703 2338 1851 2506 
Q 2000 2675 2069 2917 
Q 2138 3159 2138 3378 
Q 2138 3684 1994 3881 
Q 1850 4078 1556 4078 
Q 1313 4078 1091 3986 
Q 869 3894 738 3706 
Q 750 3709 759 3711 
Q 769 3713 781 3713 
Q 925 3713 1022 3613 
Q 1119 3513 1119 3372 
Q 1119 3234 1022 3134 
Q 925 3034 781 3034 
Q 641 3034 541 3134 
Q 441 3234 441 3372 
Q 441 3647 606 3850 
Q 772 4053 1033 4158 
Q 1294 4263 1556 4263 
Q 1750 4263 1965 4205 
Q 2181 4147 2356 4039 
Q 2531 3931 2642 3762 
Q 2753 3594 2753 3378 
Q 2753 3109 2633 2881 
Q 2513 2653 2303 2487 
Q 2094 2322 1844 2241 
Q 2122 2188 2372 2031 
Q 2622 1875 2773 1631 
Q 2925 1388 2925 1106 
Q 2925 753 2731 467 
Q 2538 181 2222 20 
Q 1906 -141 1556 -141 
Q 1256 -141 954 -26 
Q 653 88 461 316 
Q 269 544 269 863 
Q 269 1022 375 1128 
Q 481 1234 641 1234 
Q 744 1234 830 1186 
Q 916 1138 964 1050 
Q 1013 963 1013 863 
Q 1013 706 903 600 
Q 794 494 641 494 
L 609 494 
z
" transform="scale(0.015625)"/>
      </defs>
      <use xlink:href="#Cmr10-75" transform="translate(0 0.8125)"/>
      <use xlink:href="#Cmr10-70" transform="translate(55.517578 0.8125)"/>
      <use xlink:href="#Cmr10-33" transform="translate(115.499297 -16.19375) scale(0.7)"/>
     </g>
    </g>
    <g id="line2d_35">
     <path d="M 214.606364 179.275937 
L 224.606364 179.275937 
L 234.606364 179.275937 
" style="fill: none; stroke: #988ed5; stroke-width: 2"/>
    </g>
    <g id="text_16">
     <!-- $\mathrm{h}_3$ -->
     <g style="fill: #262626" transform="translate(242.606364 182.775937) scale(0.1 -0.1)">
      <defs>
       <path id="Cmr10-68" d="M 191 0 
L 191 225 
Q 409 225 550 259 
Q 691 294 691 428 
L 691 3788 
Q 691 3959 639 4036 
Q 588 4113 491 4130 
Q 394 4147 191 4147 
L 191 4372 
L 1141 4441 
L 1141 2241 
Q 1275 2506 1515 2667 
Q 1756 2828 2047 2828 
Q 2491 2828 2714 2615 
Q 2938 2403 2938 1966 
L 2938 428 
Q 2938 294 3078 259 
Q 3219 225 3438 225 
L 3438 0 
L 1972 0 
L 1972 225 
Q 2191 225 2331 259 
Q 2472 294 2472 428 
L 2472 1947 
Q 2472 2259 2381 2461 
Q 2291 2663 2009 2663 
Q 1638 2663 1398 2366 
Q 1159 2069 1159 1691 
L 1159 428 
Q 1159 294 1300 259 
Q 1441 225 1656 225 
L 1656 0 
L 191 0 
z
" transform="scale(0.015625)"/>
      </defs>
      <use xlink:href="#Cmr10-68" transform="translate(0 0.609375)"/>
      <use xlink:href="#Cmr10-33" transform="translate(59.981719 -16.396875) scale(0.7)"/>
     </g>
    </g>
    <g id="line2d_36">
     <path d="M 214.606364 193.42125 
L 224.606364 193.42125 
L 234.606364 193.42125 
" style="fill: none; stroke: #777777; stroke-width: 2"/>
    </g>
    <g id="text_17">
     <!-- $\mathrm{\Xi}_3$ -->
     <g style="fill: #262626" transform="translate(242.606364 196.92125) scale(0.1 -0.1)">
      <defs>
       <path id="Cmr10-a5" d="M 319 0 
L 269 1094 
L 453 1094 
Q 469 603 544 519 
Q 569 494 781 484 
Q 994 475 1306 475 
L 2956 475 
Q 3272 475 3483 484 
Q 3694 494 3719 519 
Q 3794 603 3809 1094 
L 3994 1094 
L 3944 0 
L 319 0 
z
M 891 1709 
L 891 2834 
L 1075 2834 
L 1075 2509 
L 3188 2509 
L 3188 2834 
L 3372 2834 
L 3372 1709 
L 3188 1709 
L 3188 2034 
L 1075 2034 
L 1075 1709 
L 891 1709 
z
M 300 3347 
L 353 4372 
L 3909 4372 
L 3963 3347 
L 3775 3347 
Q 3759 3784 3694 3859 
Q 3647 3897 2938 3897 
L 1325 3897 
Q 616 3897 569 3859 
Q 503 3784 488 3347 
L 300 3347 
z
" transform="scale(0.015625)"/>
      </defs>
      <use xlink:href="#Cmr10-a5" transform="translate(0 0.6875)"/>
      <use xlink:href="#Cmr10-33" transform="translate(71.065703 -16.31875) scale(0.7)"/>
     </g>
    </g>
    <g id="line2d_37">
     <path d="M 214.606364 207.566563 
L 224.606364 207.566563 
L 234.606364 207.566563 
" style="fill: none; stroke: #fbc15e; stroke-width: 2"/>
    </g>
    <g id="text_18">
     <!-- $\mathrm{fup}_3$ -->
     <g style="fill: #262626" transform="translate(242.606364 211.066563) scale(0.1 -0.1)">
      <defs>
       <path id="Cmr10-66" d="M 206 0 
L 206 225 
Q 422 225 562 259 
Q 703 294 703 428 
L 703 2534 
L 213 2534 
L 213 2759 
L 703 2759 
L 703 3525 
Q 703 3731 789 3911 
Q 875 4091 1020 4225 
Q 1166 4359 1355 4436 
Q 1544 4513 1747 4513 
Q 1963 4513 2136 4384 
Q 2309 4256 2309 4044 
Q 2309 3922 2226 3839 
Q 2144 3756 2022 3756 
Q 1900 3756 1814 3839 
Q 1728 3922 1728 4044 
Q 1728 4244 1900 4313 
Q 1797 4347 1716 4347 
Q 1528 4347 1395 4214 
Q 1263 4081 1197 3890 
Q 1131 3700 1131 3513 
L 1131 2759 
L 1869 2759 
L 1869 2534 
L 1153 2534 
L 1153 428 
Q 1153 297 1340 261 
Q 1528 225 1772 225 
L 1772 0 
L 206 0 
z
" transform="scale(0.015625)"/>
      </defs>
      <use xlink:href="#Cmr10-66" transform="translate(0 0.484375)"/>
      <use xlink:href="#Cmr10-75" transform="translate(30.517578 0.484375)"/>
      <use xlink:href="#Cmr10-70" transform="translate(86.035156 0.484375)"/>
      <use xlink:href="#Cmr10-33" transform="translate(146.016875 -16.521875) scale(0.7)"/>
     </g>
    </g>
    <g id="line2d_38">
     <path d="M 214.606364 221.724375 
L 224.606364 221.724375 
L 234.606364 221.724375 
" style="fill: none; stroke: #8eba42; stroke-width: 2"/>
    </g>
    <g id="text_19">
     <!-- $\mathrm{ch}_{2,3}$ -->
     <g style="fill: #262626" transform="translate(242.606364 225.224375) scale(0.1 -0.1)">
      <defs>
       <path id="Cmr10-63" d="M 1594 -72 
Q 1206 -72 890 129 
Q 575 331 394 667 
Q 213 1003 213 1381 
Q 213 1759 392 2106 
Q 572 2453 889 2661 
Q 1206 2869 1594 2869 
Q 1969 2869 2276 2722 
Q 2584 2575 2584 2241 
Q 2584 2116 2495 2023 
Q 2406 1931 2278 1931 
Q 2150 1931 2061 2023 
Q 1972 2116 1972 2241 
Q 1972 2353 2044 2436 
Q 2116 2519 2222 2541 
Q 2000 2681 1600 2681 
Q 1294 2681 1106 2478 
Q 919 2275 844 1975 
Q 769 1675 769 1381 
Q 769 1072 861 783 
Q 953 494 1158 305 
Q 1363 116 1672 116 
Q 1975 116 2187 302 
Q 2400 488 2478 788 
Q 2478 825 2528 825 
L 2606 825 
Q 2625 825 2640 808 
Q 2656 791 2656 769 
L 2656 750 
Q 2559 372 2271 150 
Q 1984 -72 1594 -72 
z
" transform="scale(0.015625)"/>
       <path id="Cmr10-32" d="M 319 0 
L 319 172 
Q 319 188 331 206 
L 1325 1306 
Q 1550 1550 1690 1715 
Q 1831 1881 1968 2097 
Q 2106 2313 2186 2536 
Q 2266 2759 2266 3009 
Q 2266 3272 2169 3511 
Q 2072 3750 1880 3894 
Q 1688 4038 1416 4038 
Q 1138 4038 916 3870 
Q 694 3703 603 3438 
Q 628 3444 672 3444 
Q 816 3444 917 3347 
Q 1019 3250 1019 3097 
Q 1019 2950 917 2848 
Q 816 2747 672 2747 
Q 522 2747 420 2851 
Q 319 2956 319 3097 
Q 319 3338 409 3548 
Q 500 3759 670 3923 
Q 841 4088 1055 4175 
Q 1269 4263 1509 4263 
Q 1875 4263 2190 4108 
Q 2506 3953 2690 3670 
Q 2875 3388 2875 3009 
Q 2875 2731 2753 2481 
Q 2631 2231 2440 2026 
Q 2250 1822 1953 1562 
Q 1656 1303 1563 1216 
L 838 519 
L 1453 519 
Q 1906 519 2211 526 
Q 2516 534 2534 550 
Q 2609 631 2688 1141 
L 2875 1141 
L 2694 0 
L 319 0 
z
" transform="scale(0.015625)"/>
       <path id="Cmmi10-3b" d="M 634 -1153 
Q 634 -1125 659 -1100 
Q 891 -878 1019 -587 
Q 1147 -297 1147 25 
L 1147 103 
Q 1044 0 891 0 
Q 744 0 641 103 
Q 538 206 538 353 
Q 538 503 641 603 
Q 744 703 891 703 
Q 1119 703 1216 492 
Q 1313 281 1313 25 
Q 1313 -331 1170 -651 
Q 1028 -972 769 -1228 
Q 744 -1241 728 -1241 
Q 697 -1241 665 -1212 
Q 634 -1184 634 -1153 
z
" transform="scale(0.015625)"/>
      </defs>
      <use xlink:href="#Cmr10-63" transform="translate(0 0.609375)"/>
      <use xlink:href="#Cmr10-68" transform="translate(44.384766 0.609375)"/>
      <use xlink:href="#Cmr10-32" transform="translate(104.366484 -16.396875) scale(0.7)"/>
      <use xlink:href="#Cmmi10-3b" transform="translate(139.366484 -16.396875) scale(0.7)"/>
      <use xlink:href="#Cmr10-33" transform="translate(171.037383 -16.396875) scale(0.7)"/>
     </g>
    </g>
    <g id="line2d_39">
     <path d="M 214.606364 236.982188 
L 224.606364 236.982188 
L 234.606364 236.982188 
" style="fill: none; stroke: #ffb5b8; stroke-width: 2"/>
    </g>
    <g id="text_20">
     <!-- $\mathrm{fip}_{2,1}$ -->
     <g style="fill: #262626" transform="translate(242.606364 240.482188) scale(0.1 -0.1)">
      <defs>
       <path id="Cmr10-69" d="M 197 0 
L 197 225 
Q 416 225 556 259 
Q 697 294 697 428 
L 697 2175 
Q 697 2422 601 2478 
Q 506 2534 225 2534 
L 225 2759 
L 1147 2828 
L 1147 428 
Q 1147 294 1269 259 
Q 1391 225 1594 225 
L 1594 0 
L 197 0 
z
M 469 3928 
Q 469 4069 575 4175 
Q 681 4281 819 4281 
Q 909 4281 993 4234 
Q 1078 4188 1125 4103 
Q 1172 4019 1172 3928 
Q 1172 3791 1065 3684 
Q 959 3578 819 3578 
Q 681 3578 575 3684 
Q 469 3791 469 3928 
z
" transform="scale(0.015625)"/>
       <path id="Cmr10-31" d="M 594 0 
L 594 225 
Q 1394 225 1394 428 
L 1394 3788 
Q 1063 3628 556 3628 
L 556 3853 
Q 1341 3853 1741 4263 
L 1831 4263 
Q 1853 4263 1873 4245 
Q 1894 4228 1894 4206 
L 1894 428 
Q 1894 225 2694 225 
L 2694 0 
L 594 0 
z
" transform="scale(0.015625)"/>
      </defs>
      <use xlink:href="#Cmr10-66" transform="translate(0 0.484375)"/>
      <use xlink:href="#Cmr10-69" transform="translate(30.517578 0.484375)"/>
      <use xlink:href="#Cmr10-70" transform="translate(58.203125 0.484375)"/>
      <use xlink:href="#Cmr10-32" transform="translate(118.184844 -16.521875) scale(0.7)"/>
      <use xlink:href="#Cmmi10-3b" transform="translate(153.184844 -16.521875) scale(0.7)"/>
      <use xlink:href="#Cmr10-31" transform="translate(184.855742 -16.521875) scale(0.7)"/>
     </g>
    </g>
    <g id="line2d_40">
     <path d="M 214.606364 252.24 
L 224.606364 252.24 
L 234.606364 252.24 
" style="fill: none; stroke: #e24a33; stroke-width: 2"/>
    </g>
    <g id="text_21">
     <!-- $\mathrm{fp}_{2,1}$ -->
     <g style="fill: #262626" transform="translate(242.606364 255.74) scale(0.1 -0.1)">
      <use xlink:href="#Cmr10-66" transform="translate(0 0.484375)"/>
      <use xlink:href="#Cmr10-70" transform="translate(30.517578 0.484375)"/>
      <use xlink:href="#Cmr10-32" transform="translate(90.499297 -16.521875) scale(0.7)"/>
      <use xlink:href="#Cmmi10-3b" transform="translate(125.499297 -16.521875) scale(0.7)"/>
      <use xlink:href="#Cmr10-31" transform="translate(157.170195 -16.521875) scale(0.7)"/>
     </g>
    </g>
   </g>
  </g>
  <g id="axes_2">
   <g id="patch_7">
    <path d="M 479.127273 267.84 
L 820.8 267.84 
L 820.8 43.2 
L 479.127273 43.2 
z
" style="fill: #e5e5e5"/>
   </g>
   <g id="matplotlib.axis_3">
    <g id="xtick_7">
     <g id="line2d_41">
      <path d="M 494.657851 267.84 
L 494.657851 43.2 
" clip-path="url(#pba3906119e)" style="fill: none; stroke: #ffffff; stroke-width: 0.5"/>
     </g>
     <g id="line2d_42"/>
     <g id="text_22">
      <!-- 0 -->
      <g style="fill: #555555" transform="translate(491.877382 278.497813) scale(0.1 -0.1)">
       <use xlink:href="#ArialMT-30"/>
      </g>
     </g>
    </g>
    <g id="xtick_8">
     <g id="line2d_43">
      <path d="M 557.407663 267.84 
L 557.407663 43.2 
" clip-path="url(#pba3906119e)" style="fill: none; stroke: #ffffff; stroke-width: 0.5"/>
     </g>
     <g id="line2d_44"/>
     <g id="text_23">
      <!-- 20 -->
      <g style="fill: #555555" transform="translate(551.846726 278.497813) scale(0.1 -0.1)">
       <use xlink:href="#ArialMT-32"/>
       <use xlink:href="#ArialMT-30" x="55.615234"/>
      </g>
     </g>
    </g>
    <g id="xtick_9">
     <g id="line2d_45">
      <path d="M 620.157476 267.84 
L 620.157476 43.2 
" clip-path="url(#pba3906119e)" style="fill: none; stroke: #ffffff; stroke-width: 0.5"/>
     </g>
     <g id="line2d_46"/>
     <g id="text_24">
      <!-- 40 -->
      <g style="fill: #555555" transform="translate(614.596538 278.497813) scale(0.1 -0.1)">
       <use xlink:href="#ArialMT-34"/>
       <use xlink:href="#ArialMT-30" x="55.615234"/>
      </g>
     </g>
    </g>
    <g id="xtick_10">
     <g id="line2d_47">
      <path d="M 682.907288 267.84 
L 682.907288 43.2 
" clip-path="url(#pba3906119e)" style="fill: none; stroke: #ffffff; stroke-width: 0.5"/>
     </g>
     <g id="line2d_48"/>
     <g id="text_25">
      <!-- 60 -->
      <g style="fill: #555555" transform="translate(677.34635 278.497813) scale(0.1 -0.1)">
       <use xlink:href="#ArialMT-36"/>
       <use xlink:href="#ArialMT-30" x="55.615234"/>
      </g>
     </g>
    </g>
    <g id="xtick_11">
     <g id="line2d_49">
      <path d="M 745.6571 267.84 
L 745.6571 43.2 
" clip-path="url(#pba3906119e)" style="fill: none; stroke: #ffffff; stroke-width: 0.5"/>
     </g>
     <g id="line2d_50"/>
     <g id="text_26">
      <!-- 80 -->
      <g style="fill: #555555" transform="translate(740.096162 278.497813) scale(0.1 -0.1)">
       <use xlink:href="#ArialMT-38"/>
       <use xlink:href="#ArialMT-30" x="55.615234"/>
      </g>
     </g>
    </g>
    <g id="xtick_12">
     <g id="line2d_51">
      <path d="M 808.406912 267.84 
L 808.406912 43.2 
" clip-path="url(#pba3906119e)" style="fill: none; stroke: #ffffff; stroke-width: 0.5"/>
     </g>
     <g id="line2d_52"/>
     <g id="text_27">
      <!-- 100 -->
      <g style="fill: #555555" transform="translate(800.065506 278.497813) scale(0.1 -0.1)">
       <use xlink:href="#ArialMT-31"/>
       <use xlink:href="#ArialMT-30" x="55.615234"/>
       <use xlink:href="#ArialMT-30" x="111.230469"/>
      </g>
     </g>
    </g>
   </g>
   <g id="matplotlib.axis_4">
    <g id="ytick_7">
     <g id="line2d_53">
      <path d="M 479.127273 257.627558 
L 820.8 257.627558 
" clip-path="url(#pba3906119e)" style="fill: none; stroke: #ffffff; stroke-width: 0.5"/>
     </g>
     <g id="line2d_54"/>
     <g id="text_28">
      <!-- 0.00 -->
      <g style="fill: #555555" transform="translate(456.166335 261.206464) scale(0.1 -0.1)">
       <use xlink:href="#ArialMT-30"/>
       <use xlink:href="#ArialMT-2e" x="55.615234"/>
       <use xlink:href="#ArialMT-30" x="83.398438"/>
       <use xlink:href="#ArialMT-30" x="139.013672"/>
      </g>
     </g>
    </g>
    <g id="ytick_8">
     <g id="line2d_55">
      <path d="M 479.127273 232.157338 
L 820.8 232.157338 
" clip-path="url(#pba3906119e)" style="fill: none; stroke: #ffffff; stroke-width: 0.5"/>
     </g>
     <g id="line2d_56"/>
     <g id="text_29">
      <!-- 0.25 -->
      <g style="fill: #555555" transform="translate(456.166335 235.736244) scale(0.1 -0.1)">
       <defs>
        <path id="ArialMT-35" d="M 266 1200 
L 856 1250 
Q 922 819 1161 601 
Q 1400 384 1738 384 
Q 2144 384 2425 690 
Q 2706 997 2706 1503 
Q 2706 1984 2436 2262 
Q 2166 2541 1728 2541 
Q 1456 2541 1237 2417 
Q 1019 2294 894 2097 
L 366 2166 
L 809 4519 
L 3088 4519 
L 3088 3981 
L 1259 3981 
L 1013 2750 
Q 1425 3038 1878 3038 
Q 2478 3038 2890 2622 
Q 3303 2206 3303 1553 
Q 3303 931 2941 478 
Q 2500 -78 1738 -78 
Q 1113 -78 717 272 
Q 322 622 266 1200 
z
" transform="scale(0.015625)"/>
       </defs>
       <use xlink:href="#ArialMT-30"/>
       <use xlink:href="#ArialMT-2e" x="55.615234"/>
       <use xlink:href="#ArialMT-32" x="83.398438"/>
       <use xlink:href="#ArialMT-35" x="139.013672"/>
      </g>
     </g>
    </g>
    <g id="ytick_9">
     <g id="line2d_57">
      <path d="M 479.127273 206.687118 
L 820.8 206.687118 
" clip-path="url(#pba3906119e)" style="fill: none; stroke: #ffffff; stroke-width: 0.5"/>
     </g>
     <g id="line2d_58"/>
     <g id="text_30">
      <!-- 0.50 -->
      <g style="fill: #555555" transform="translate(456.166335 210.266024) scale(0.1 -0.1)">
       <use xlink:href="#ArialMT-30"/>
       <use xlink:href="#ArialMT-2e" x="55.615234"/>
       <use xlink:href="#ArialMT-35" x="83.398438"/>
       <use xlink:href="#ArialMT-30" x="139.013672"/>
      </g>
     </g>
    </g>
    <g id="ytick_10">
     <g id="line2d_59">
      <path d="M 479.127273 181.216897 
L 820.8 181.216897 
" clip-path="url(#pba3906119e)" style="fill: none; stroke: #ffffff; stroke-width: 0.5"/>
     </g>
     <g id="line2d_60"/>
     <g id="text_31">
      <!-- 0.75 -->
      <g style="fill: #555555" transform="translate(456.166335 184.795804) scale(0.1 -0.1)">
       <defs>
        <path id="ArialMT-37" d="M 303 3981 
L 303 4522 
L 3269 4522 
L 3269 4084 
Q 2831 3619 2401 2847 
Q 1972 2075 1738 1259 
Q 1569 684 1522 0 
L 944 0 
Q 953 541 1156 1306 
Q 1359 2072 1739 2783 
Q 2119 3494 2547 3981 
L 303 3981 
z
" transform="scale(0.015625)"/>
       </defs>
       <use xlink:href="#ArialMT-30"/>
       <use xlink:href="#ArialMT-2e" x="55.615234"/>
       <use xlink:href="#ArialMT-37" x="83.398438"/>
       <use xlink:href="#ArialMT-35" x="139.013672"/>
      </g>
     </g>
    </g>
    <g id="ytick_11">
     <g id="line2d_61">
      <path d="M 479.127273 155.746677 
L 820.8 155.746677 
" clip-path="url(#pba3906119e)" style="fill: none; stroke: #ffffff; stroke-width: 0.5"/>
     </g>
     <g id="line2d_62"/>
     <g id="text_32">
      <!-- 1.00 -->
      <g style="fill: #555555" transform="translate(456.166335 159.325583) scale(0.1 -0.1)">
       <use xlink:href="#ArialMT-31"/>
       <use xlink:href="#ArialMT-2e" x="55.615234"/>
       <use xlink:href="#ArialMT-30" x="83.398438"/>
       <use xlink:href="#ArialMT-30" x="139.013672"/>
      </g>
     </g>
    </g>
    <g id="ytick_12">
     <g id="line2d_63">
      <path d="M 479.127273 130.276457 
L 820.8 130.276457 
" clip-path="url(#pba3906119e)" style="fill: none; stroke: #ffffff; stroke-width: 0.5"/>
     </g>
     <g id="line2d_64"/>
     <g id="text_33">
      <!-- 1.25 -->
      <g style="fill: #555555" transform="translate(456.166335 133.855363) scale(0.1 -0.1)">
       <use xlink:href="#ArialMT-31"/>
       <use xlink:href="#ArialMT-2e" x="55.615234"/>
       <use xlink:href="#ArialMT-32" x="83.398438"/>
       <use xlink:href="#ArialMT-35" x="139.013672"/>
      </g>
     </g>
    </g>
    <g id="ytick_13">
     <g id="line2d_65">
      <path d="M 479.127273 104.806237 
L 820.8 104.806237 
" clip-path="url(#pba3906119e)" style="fill: none; stroke: #ffffff; stroke-width: 0.5"/>
     </g>
     <g id="line2d_66"/>
     <g id="text_34">
      <!-- 1.50 -->
      <g style="fill: #555555" transform="translate(456.166335 108.385143) scale(0.1 -0.1)">
       <use xlink:href="#ArialMT-31"/>
       <use xlink:href="#ArialMT-2e" x="55.615234"/>
       <use xlink:href="#ArialMT-35" x="83.398438"/>
       <use xlink:href="#ArialMT-30" x="139.013672"/>
      </g>
     </g>
    </g>
    <g id="ytick_14">
     <g id="line2d_67">
      <path d="M 479.127273 79.336016 
L 820.8 79.336016 
" clip-path="url(#pba3906119e)" style="fill: none; stroke: #ffffff; stroke-width: 0.5"/>
     </g>
     <g id="line2d_68"/>
     <g id="text_35">
      <!-- 1.75 -->
      <g style="fill: #555555" transform="translate(456.166335 82.914923) scale(0.1 -0.1)">
       <use xlink:href="#ArialMT-31"/>
       <use xlink:href="#ArialMT-2e" x="55.615234"/>
       <use xlink:href="#ArialMT-37" x="83.398438"/>
       <use xlink:href="#ArialMT-35" x="139.013672"/>
      </g>
     </g>
    </g>
    <g id="ytick_15">
     <g id="line2d_69">
      <path d="M 479.127273 53.865796 
L 820.8 53.865796 
" clip-path="url(#pba3906119e)" style="fill: none; stroke: #ffffff; stroke-width: 0.5"/>
     </g>
     <g id="line2d_70"/>
     <g id="text_36">
      <!-- 2.00 -->
      <g style="fill: #555555" transform="translate(456.166335 57.444703) scale(0.1 -0.1)">
       <use xlink:href="#ArialMT-32"/>
       <use xlink:href="#ArialMT-2e" x="55.615234"/>
       <use xlink:href="#ArialMT-30" x="83.398438"/>
       <use xlink:href="#ArialMT-30" x="139.013672"/>
      </g>
     </g>
    </g>
   </g>
   <g id="line2d_71">
    <path d="M 494.657851 257.627558 
L 497.795342 257.627556 
L 500.932832 257.627178 
L 504.070323 257.621777 
L 507.207814 257.594278 
L 510.345304 257.511007 
L 513.482795 257.32456 
L 516.620285 256.981866 
L 519.757776 256.429361 
L 522.895267 255.616544 
L 526.032757 254.503868 
L 529.170248 253.068141 
L 532.307739 251.300976 
L 535.445229 249.201197 
L 538.58272 246.768863 
L 541.72021 244.006159 
L 544.857701 240.924632 
L 547.995192 237.55169 
L 551.132682 233.930381 
L 554.270173 230.112576 
L 557.407663 226.151938 
L 560.545154 222.10084 
L 563.682645 218.003912 
L 566.820135 213.890671 
L 569.957626 209.774417 
L 573.095116 205.658018 
L 576.232607 201.54163 
L 579.370098 197.426083 
L 582.507588 193.318375 
L 585.645079 189.239619 
L 588.782569 185.227473 
L 591.92006 181.331547 
L 595.057551 177.605298 
L 598.195041 174.102022 
L 601.332532 170.870299 
L 604.470023 167.945823 
L 607.607513 165.347663 
L 610.745004 163.081569 
L 613.882494 161.148108 
L 617.019985 159.547047 
L 620.157476 158.274699 
L 623.294966 157.315917 
L 626.432457 156.639089 
L 629.569947 156.198133 
L 632.707438 155.940278 
L 635.844929 155.811895 
L 638.982419 155.761731 
L 642.11991 155.748439 
L 645.2574 155.746723 
L 648.394891 155.746677 
L 651.532382 155.746677 
L 654.669872 155.746723 
L 657.807363 155.748439 
L 660.944853 155.761731 
L 664.082344 155.811895 
L 667.219835 155.940278 
L 670.357325 156.198133 
L 673.494816 156.639089 
L 676.632307 157.315917 
L 679.769797 158.274699 
L 682.907288 159.547047 
L 686.044778 161.148108 
L 689.182269 163.081569 
L 692.31976 165.347663 
L 695.45725 167.945823 
L 698.594741 170.870299 
L 701.732231 174.102022 
L 704.869722 177.605298 
L 708.007213 181.331547 
L 711.144703 185.227473 
L 714.282194 189.239619 
L 717.419684 193.318375 
L 720.557175 197.426083 
L 723.694666 201.54163 
L 726.832156 205.658018 
L 729.969647 209.774417 
L 733.107137 213.890671 
L 736.244628 218.003912 
L 739.382119 222.10084 
L 742.519609 226.151938 
L 745.6571 230.112576 
L 748.794591 233.930381 
L 751.932081 237.55169 
L 755.069572 240.924632 
L 758.207062 244.006159 
L 761.344553 246.768863 
L 764.482044 249.201197 
L 767.619534 251.300976 
L 770.757025 253.068141 
L 773.894515 254.503868 
L 777.032006 255.616544 
L 780.169497 256.429361 
L 783.306987 256.981866 
L 786.444478 257.32456 
L 789.581968 257.511007 
L 792.719459 257.594278 
L 795.85695 257.621777 
L 798.99444 257.627178 
L 802.131931 257.627556 
L 805.269421 257.627558 
" clip-path="url(#pba3906119e)" style="fill: none; stroke: #e24a33; stroke-width: 2"/>
   </g>
   <g id="line2d_72">
    <path d="M 494.657851 257.629091 
L 497.795342 257.51092 
L 500.932832 256.721815 
L 504.070323 255.39638 
L 507.207814 253.792916 
L 510.345304 251.438524 
L 513.482795 248.694284 
L 516.620285 245.560222 
L 519.757776 241.675283 
L 522.895267 237.608465 
L 526.032757 234.074948 
L 529.170248 231.212432 
L 532.307739 228.586279 
L 535.445229 226.631059 
L 538.58272 225.212154 
L 541.72021 224.071225 
L 544.857701 223.680972 
L 547.995192 223.653592 
L 551.132682 223.26334 
L 554.270173 222.122412 
L 557.407663 220.703509 
L 560.545154 218.748293 
L 563.682645 216.122145 
L 566.820135 213.259634 
L 569.957626 209.726124 
L 573.095116 205.659315 
L 576.232607 201.774389 
L 579.370098 198.640343 
L 582.507588 195.896125 
L 585.645079 193.541764 
L 588.782569 191.93835 
L 591.92006 190.613002 
L 595.057551 189.824097 
L 598.195041 189.706914 
L 601.332532 189.589732 
L 604.470023 188.800829 
L 607.607513 187.475482 
L 610.745004 185.87207 
L 613.882494 183.517714 
L 617.019985 180.773501 
L 620.157476 177.639461 
L 623.294966 173.754543 
L 626.432457 169.687744 
L 629.569947 166.154248 
L 632.707438 163.291756 
L 635.844929 160.665634 
L 638.982419 158.710458 
L 642.11991 157.291619 
L 645.2574 156.150815 
L 648.394891 155.76095 
L 651.532382 155.76095 
L 654.669872 156.150815 
L 657.807363 157.291619 
L 660.944853 158.710458 
L 664.082344 160.665634 
L 667.219835 163.291756 
L 670.357325 166.154248 
L 673.494816 169.687744 
L 676.632307 173.754543 
L 679.769797 177.639461 
L 682.907288 180.773501 
L 686.044778 183.517714 
L 689.182269 185.87207 
L 692.31976 187.475482 
L 695.45725 188.800829 
L 698.594741 189.589732 
L 701.732231 189.706914 
L 704.869722 189.824097 
L 708.007213 190.613002 
L 711.144703 191.93835 
L 714.282194 193.541764 
L 717.419684 195.896125 
L 720.557175 198.640343 
L 723.694666 201.774389 
L 726.832156 205.659315 
L 729.969647 209.726124 
L 733.107137 213.259634 
L 736.244628 216.122145 
L 739.382119 218.748293 
L 742.519609 220.703509 
L 745.6571 222.122412 
L 748.794591 223.26334 
L 751.932081 223.653592 
L 755.069572 223.680972 
L 758.207062 224.071225 
L 761.344553 225.212154 
L 764.482044 226.631059 
L 767.619534 228.586279 
L 770.757025 231.212432 
L 773.894515 234.074948 
L 777.032006 237.608465 
L 780.169497 241.675283 
L 783.306987 245.560222 
L 786.444478 248.694284 
L 789.581968 251.438524 
L 792.719459 253.792916 
L 795.85695 255.39638 
L 798.99444 256.721815 
L 802.131931 257.51092 
L 805.269421 257.629091 
" clip-path="url(#pba3906119e)" style="fill: none; stroke: #348abd; stroke-width: 2"/>
   </g>
   <g id="line2d_73">
    <path d="M 494.657851 257.62755 
L 497.795342 257.623312 
L 500.932832 257.532661 
L 504.070323 257.173119 
L 507.207814 256.383205 
L 510.345304 255.12022 
L 513.482795 253.383614 
L 516.620285 251.173387 
L 519.757776 248.490089 
L 522.895267 245.376419 
L 526.032757 241.993859 
L 529.170248 238.52489 
L 532.307739 235.051682 
L 535.445229 231.578471 
L 538.58272 228.10526 
L 541.72021 224.632048 
L 544.857701 221.158836 
L 547.995192 217.685624 
L 551.132682 214.212412 
L 554.270173 210.7392 
L 557.407663 207.265988 
L 560.545154 203.792777 
L 563.682645 200.319569 
L 566.820135 196.8506 
L 569.957626 193.46804 
L 573.095116 190.35437 
L 576.232607 187.671072 
L 579.370098 185.460844 
L 582.507588 183.724238 
L 585.645079 182.461254 
L 588.782569 181.671339 
L 591.92006 181.311797 
L 595.057551 181.221144 
L 598.195041 181.216901 
L 601.332532 181.216897 
L 604.470023 181.216896 
L 607.607513 181.216895 
L 610.745004 181.216895 
L 613.882494 181.216895 
L 617.019985 181.216895 
L 620.157476 181.216894 
L 623.294966 181.216894 
L 626.432457 181.216894 
L 629.569947 181.216894 
L 632.707438 181.216894 
L 635.844929 181.216894 
L 638.982419 181.216894 
L 642.11991 181.216894 
L 645.2574 181.216894 
L 648.394891 181.216894 
L 651.532382 181.216894 
L 654.669872 181.216894 
L 657.807363 181.216894 
L 660.944853 181.216894 
L 664.082344 181.216894 
L 667.219835 181.216894 
L 670.357325 181.216894 
L 673.494816 181.216894 
L 676.632307 181.216894 
L 679.769797 181.216894 
L 682.907288 181.216895 
L 686.044778 181.216895 
L 689.182269 181.216895 
L 692.31976 181.216895 
L 695.45725 181.216896 
L 698.594741 181.216897 
L 701.732231 181.216901 
L 704.869722 181.221144 
L 708.007213 181.311797 
L 711.144703 181.671339 
L 714.282194 182.461254 
L 717.419684 183.724238 
L 720.557175 185.460844 
L 723.694666 187.671072 
L 726.832156 190.35437 
L 729.969647 193.46804 
L 733.107137 196.8506 
L 736.244628 200.319569 
L 739.382119 203.792777 
L 742.519609 207.265988 
L 745.6571 210.7392 
L 748.794591 214.212412 
L 751.932081 217.685624 
L 755.069572 221.158836 
L 758.207062 224.632048 
L 761.344553 228.10526 
L 764.482044 231.578471 
L 767.619534 235.051682 
L 770.757025 238.52489 
L 773.894515 241.993859 
L 777.032006 245.376419 
L 780.169497 248.490089 
L 783.306987 251.173387 
L 786.444478 253.383614 
L 789.581968 255.12022 
L 792.719459 256.383205 
L 795.85695 257.173119 
L 798.99444 257.532661 
L 802.131931 257.623312 
L 805.269421 257.62755 
" clip-path="url(#pba3906119e)" style="fill: none; stroke: #988ed5; stroke-width: 2"/>
   </g>
   <g id="line2d_74">
    <path d="M 494.657851 257.627558 
L 497.795342 257.627558 
L 500.932832 257.627558 
L 504.070323 257.627551 
L 507.207814 257.627438 
L 510.345304 257.626626 
L 513.482795 257.623116 
L 516.620285 257.612219 
L 519.757776 257.585165 
L 522.895267 257.527711 
L 526.032757 257.418908 
L 529.170248 257.230656 
L 532.307739 256.928756 
L 535.445229 256.475209 
L 538.58272 255.830963 
L 541.72021 254.958717 
L 544.857701 253.825617 
L 547.995192 252.405315 
L 551.132682 250.678627 
L 554.270173 248.632806 
L 557.407663 246.260233 
L 560.545154 243.557022 
L 563.682645 240.521635 
L 566.820135 237.15367 
L 569.957626 233.453068 
L 573.095116 229.419829 
L 576.232607 225.053951 
L 579.370098 220.355435 
L 582.507588 215.324327 
L 585.645079 209.961124 
L 588.782569 204.268345 
L 591.92006 198.253622 
L 595.057551 191.933685 
L 598.195041 185.338563 
L 601.332532 178.515715 
L 604.470023 171.53338 
L 607.607513 164.48091 
L 610.745004 157.464492 
L 613.882494 150.599699 
L 617.019985 144.003159 
L 620.157476 137.784164 
L 623.294966 132.036848 
L 626.432457 126.83487 
L 629.569947 122.230641 
L 632.707438 118.258167 
L 635.844929 114.93711 
L 638.982419 112.276987 
L 642.11991 110.281252 
L 645.2574 108.950702 
L 648.394891 108.285426 
L 651.532382 108.285426 
L 654.669872 108.950702 
L 657.807363 110.281252 
L 660.944853 112.276987 
L 664.082344 114.93711 
L 667.219835 118.258167 
L 670.357325 122.230641 
L 673.494816 126.83487 
L 676.632307 132.036848 
L 679.769797 137.784164 
L 682.907288 144.003159 
L 686.044778 150.599699 
L 689.182269 157.464492 
L 692.31976 164.48091 
L 695.45725 171.53338 
L 698.594741 178.515715 
L 701.732231 185.338563 
L 704.869722 191.933685 
L 708.007213 198.253622 
L 711.144703 204.268345 
L 714.282194 209.961124 
L 717.419684 215.324327 
L 720.557175 220.355435 
L 723.694666 225.053951 
L 726.832156 229.419829 
L 729.969647 233.453068 
L 733.107137 237.15367 
L 736.244628 240.521635 
L 739.382119 243.557022 
L 742.519609 246.260233 
L 745.6571 248.632806 
L 748.794591 250.678627 
L 751.932081 252.405315 
L 755.069572 253.825617 
L 758.207062 254.958717 
L 761.344553 255.830963 
L 764.482044 256.475209 
L 767.619534 256.928756 
L 770.757025 257.230656 
L 773.894515 257.418908 
L 777.032006 257.527711 
L 780.169497 257.585165 
L 783.306987 257.612219 
L 786.444478 257.623116 
L 789.581968 257.626626 
L 792.719459 257.627438 
L 795.85695 257.627551 
L 798.99444 257.627558 
L 802.131931 257.627558 
L 805.269421 257.627558 
" clip-path="url(#pba3906119e)" style="fill: none; stroke: #777777; stroke-width: 2"/>
   </g>
   <g id="line2d_75">
    <path d="M 494.657851 257.627558 
L 497.795342 257.627558 
L 500.932832 257.627558 
L 504.070323 257.627537 
L 507.207814 257.627333 
L 510.345304 257.6263 
L 513.482795 257.622754 
L 516.620285 257.613322 
L 519.757776 257.59229 
L 522.895267 257.551069 
L 526.032757 257.477879 
L 529.170248 257.357639 
L 532.307739 257.171955 
L 535.445229 256.899143 
L 538.58272 256.514371 
L 541.72021 255.990023 
L 544.857701 255.296271 
L 547.995192 254.401727 
L 551.132682 253.274089 
L 554.270173 251.880659 
L 557.407663 250.188637 
L 560.545154 248.16521 
L 563.682645 245.777573 
L 566.820135 242.993043 
L 569.957626 239.779704 
L 573.095116 236.10796 
L 576.232607 231.952874 
L 579.370098 227.296801 
L 582.507588 222.131931 
L 585.645079 216.462291 
L 588.782569 210.304819 
L 591.92006 203.689674 
L 595.057551 196.660268 
L 598.195041 189.27311 
L 601.332532 181.597093 
L 604.470023 173.711838 
L 607.607513 165.705309 
L 610.745004 157.671171 
L 613.882494 149.706278 
L 617.019985 141.908752 
L 620.157476 134.377007 
L 623.294966 127.209478 
L 626.432457 120.504585 
L 629.569947 114.360454 
L 632.707438 108.873714 
L 635.844929 104.136887 
L 638.982419 100.234728 
L 642.11991 97.240263 
L 645.2574 95.211074 
L 648.394891 94.18655 
L 651.532382 94.18655 
L 654.669872 95.211074 
L 657.807363 97.240263 
L 660.944853 100.234728 
L 664.082344 104.136887 
L 667.219835 108.873714 
L 670.357325 114.360454 
L 673.494816 120.504585 
L 676.632307 127.209478 
L 679.769797 134.377007 
L 682.907288 141.908752 
L 686.044778 149.706278 
L 689.182269 157.671171 
L 692.31976 165.705309 
L 695.45725 173.711838 
L 698.594741 181.597093 
L 701.732231 189.27311 
L 704.869722 196.660268 
L 708.007213 203.689674 
L 711.144703 210.304819 
L 714.282194 216.462291 
L 717.419684 222.131931 
L 720.557175 227.296801 
L 723.694666 231.952874 
L 726.832156 236.10796 
L 729.969647 239.779704 
L 733.107137 242.993043 
L 736.244628 245.777573 
L 739.382119 248.16521 
L 742.519609 250.188637 
L 745.6571 251.880659 
L 748.794591 253.274089 
L 751.932081 254.401727 
L 755.069572 255.296271 
L 758.207062 255.990023 
L 761.344553 256.514371 
L 764.482044 256.899143 
L 767.619534 257.171955 
L 770.757025 257.357639 
L 773.894515 257.477879 
L 777.032006 257.551069 
L 780.169497 257.59229 
L 783.306987 257.613322 
L 786.444478 257.622754 
L 789.581968 257.6263 
L 792.719459 257.627333 
L 795.85695 257.627537 
L 798.99444 257.627558 
L 802.131931 257.627558 
L 805.269421 257.627558 
" clip-path="url(#pba3906119e)" style="fill: none; stroke: #fbc15e; stroke-width: 2"/>
   </g>
   <g id="line2d_76">
    <path d="M 494.657851 257.627558 
L 497.795342 257.627558 
L 500.932832 257.627558 
L 504.070323 257.627558 
L 507.207814 257.627558 
L 510.345304 257.627558 
L 513.482795 257.627558 
L 516.620285 257.627557 
L 519.757776 257.627552 
L 522.895267 257.627519 
L 526.032757 257.627373 
L 529.170248 257.626845 
L 532.307739 257.625235 
L 535.445229 257.62095 
L 538.58272 257.610778 
L 541.72021 257.588846 
L 544.857701 257.545289 
L 547.995192 257.464676 
L 551.132682 257.324328 
L 554.270173 257.092699 
L 557.407663 256.728048 
L 560.545154 256.177645 
L 563.682645 255.377745 
L 566.820135 254.254468 
L 569.957626 252.725613 
L 573.095116 250.703279 
L 576.232607 248.097113 
L 579.370098 244.817954 
L 582.507588 240.78169 
L 585.645079 235.913222 
L 588.782569 230.150443 
L 591.92006 223.448244 
L 595.057551 215.782499 
L 598.195041 207.154029 
L 601.332532 197.592444 
L 604.470023 187.159665 
L 607.607513 175.952765 
L 610.745004 164.1056 
L 613.882494 151.788645 
L 617.019985 139.206551 
L 620.157476 126.593213 
L 623.294966 114.204486 
L 626.432457 102.309033 
L 629.569947 91.178017 
L 632.707438 81.074414 
L 635.844929 72.242742 
L 638.982419 64.899861 
L 642.11991 59.227369 
L 645.2574 55.365843 
L 648.394891 53.410909 
L 651.532382 53.410909 
L 654.669872 55.365843 
L 657.807363 59.227369 
L 660.944853 64.899861 
L 664.082344 72.242742 
L 667.219835 81.074414 
L 670.357325 91.178017 
L 673.494816 102.309033 
L 676.632307 114.204486 
L 679.769797 126.593213 
L 682.907288 139.206551 
L 686.044778 151.788645 
L 689.182269 164.1056 
L 692.31976 175.952765 
L 695.45725 187.159665 
L 698.594741 197.592444 
L 701.732231 207.154029 
L 704.869722 215.782499 
L 708.007213 223.448244 
L 711.144703 230.150443 
L 714.282194 235.913222 
L 717.419684 240.78169 
L 720.557175 244.817954 
L 723.694666 248.097113 
L 726.832156 250.703279 
L 729.969647 252.725613 
L 733.107137 254.254468 
L 736.244628 255.377745 
L 739.382119 256.177645 
L 742.519609 256.728048 
L 745.6571 257.092699 
L 748.794591 257.324328 
L 751.932081 257.464676 
L 755.069572 257.545289 
L 758.207062 257.588846 
L 761.344553 257.610778 
L 764.482044 257.62095 
L 767.619534 257.625235 
L 770.757025 257.626845 
L 773.894515 257.627373 
L 777.032006 257.627519 
L 780.169497 257.627552 
L 783.306987 257.627557 
L 786.444478 257.627558 
L 789.581968 257.627558 
L 792.719459 257.627558 
L 795.85695 257.627558 
L 798.99444 257.627558 
L 802.131931 257.627558 
L 805.269421 257.627558 
" clip-path="url(#pba3906119e)" style="fill: none; stroke: #8eba42; stroke-width: 2"/>
   </g>
   <g id="line2d_77">
    <path d="M 494.657851 257.627558 
L 497.795342 257.627558 
L 500.932832 257.627489 
L 504.070323 257.626262 
L 507.207814 257.618883 
L 510.345304 257.59339 
L 513.482795 257.529721 
L 516.620285 257.400365 
L 519.757776 257.173038 
L 522.895267 256.813883 
L 526.032757 256.288905 
L 529.170248 255.564721 
L 532.307739 254.610993 
L 535.445229 253.403735 
L 538.58272 251.926956 
L 541.72021 250.172455 
L 544.857701 248.137637 
L 547.995192 245.822162 
L 551.132682 243.226032 
L 554.270173 240.349583 
L 557.407663 237.195413 
L 560.545154 233.771722 
L 563.682645 230.094501 
L 566.820135 226.187736 
L 569.957626 222.081764 
L 573.095116 217.80997 
L 576.232607 213.406348 
L 579.370098 208.904755 
L 582.507588 204.337475 
L 585.645079 199.732019 
L 588.782569 195.108449 
L 591.92006 190.478726 
L 595.057551 185.847846 
L 598.195041 181.216897 
L 601.332532 176.585949 
L 604.470023 171.955138 
L 607.607513 167.326642 
L 610.745004 162.71045 
L 613.882494 158.130488 
L 617.019985 153.626878 
L 620.157476 149.254641 
L 623.294966 145.078345 
L 626.432457 141.165706 
L 629.569947 137.584712 
L 632.707438 134.402132 
L 635.844929 131.678638 
L 638.982419 129.462206 
L 642.11991 127.784815 
L 645.2574 126.662866 
L 648.394891 126.101554 
L 651.532382 126.101554 
L 654.669872 126.662866 
L 657.807363 127.784815 
L 660.944853 129.462206 
L 664.082344 131.678638 
L 667.219835 134.402132 
L 670.357325 137.584712 
L 673.494816 141.165706 
L 676.632307 145.078345 
L 679.769797 149.254641 
L 682.907288 153.626878 
L 686.044778 158.130488 
L 689.182269 162.71045 
L 692.31976 167.326642 
L 695.45725 171.955138 
L 698.594741 176.585949 
L 701.732231 181.216897 
L 704.869722 185.847846 
L 708.007213 190.478726 
L 711.144703 195.108449 
L 714.282194 199.732019 
L 717.419684 204.337475 
L 720.557175 208.904755 
L 723.694666 213.406348 
L 726.832156 217.80997 
L 729.969647 222.081764 
L 733.107137 226.187736 
L 736.244628 230.094501 
L 739.382119 233.771722 
L 742.519609 237.195413 
L 745.6571 240.349583 
L 748.794591 243.226032 
L 751.932081 245.822162 
L 755.069572 248.137637 
L 758.207062 250.172455 
L 761.344553 251.926956 
L 764.482044 253.403735 
L 767.619534 254.610993 
L 770.757025 255.564721 
L 773.894515 256.288905 
L 777.032006 256.813883 
L 780.169497 257.173038 
L 783.306987 257.400365 
L 786.444478 257.529721 
L 789.581968 257.59339 
L 792.719459 257.618883 
L 795.85695 257.626262 
L 798.99444 257.627489 
L 802.131931 257.627558 
L 805.269421 257.627558 
" clip-path="url(#pba3906119e)" style="fill: none; stroke: #ffb5b8; stroke-width: 2"/>
   </g>
   <g id="line2d_78">
    <path d="M 494.657851 257.627551 
L 497.795342 257.626566 
L 500.932832 257.607119 
L 504.070323 257.52117 
L 507.207814 257.317732 
L 510.345304 256.975153 
L 513.482795 256.477645 
L 516.620285 255.780568 
L 519.757776 254.830569 
L 522.895267 253.602907 
L 526.032757 252.105829 
L 529.170248 250.380261 
L 532.307739 248.481208 
L 535.445229 246.437724 
L 538.58272 244.262314 
L 541.72021 241.991988 
L 544.857701 239.682607 
L 547.995192 237.367132 
L 551.132682 235.045564 
L 554.270173 232.684941 
L 557.407663 230.229403 
L 560.545154 227.641938 
L 563.682645 224.910042 
L 566.820135 222.004661 
L 569.957626 218.87079 
L 573.095116 215.467503 
L 576.232607 211.786553 
L 579.370098 207.852682 
L 582.507588 203.71924 
L 585.645079 199.430871 
L 588.782569 195.00336 
L 591.92006 190.45836 
L 595.057551 185.84686 
L 598.195041 181.216901 
L 601.332532 176.587927 
L 604.470023 171.995874 
L 607.607513 167.536823 
L 610.745004 163.312751 
L 613.882494 159.36696 
L 617.019985 155.731026 
L 620.157476 152.494232 
L 623.294966 149.763281 
L 626.432457 147.587656 
L 629.569947 145.950862 
L 632.707438 144.77105 
L 635.844929 143.938207 
L 638.982419 143.394225 
L 642.11991 143.114098 
L 645.2574 143.023801 
L 648.394891 143.011614 
L 651.532382 143.011614 
L 654.669872 143.023801 
L 657.807363 143.114098 
L 660.944853 143.394225 
L 664.082344 143.938207 
L 667.219835 144.77105 
L 670.357325 145.950862 
L 673.494816 147.587656 
L 676.632307 149.763281 
L 679.769797 152.494232 
L 682.907288 155.731026 
L 686.044778 159.36696 
L 689.182269 163.312751 
L 692.31976 167.536823 
L 695.45725 171.995874 
L 698.594741 176.587927 
L 701.732231 181.216901 
L 704.869722 185.84686 
L 708.007213 190.45836 
L 711.144703 195.00336 
L 714.282194 199.430871 
L 717.419684 203.71924 
L 720.557175 207.852682 
L 723.694666 211.786553 
L 726.832156 215.467503 
L 729.969647 218.87079 
L 733.107137 222.004661 
L 736.244628 224.910042 
L 739.382119 227.641938 
L 742.519609 230.229403 
L 745.6571 232.684941 
L 748.794591 235.045564 
L 751.932081 237.367132 
L 755.069572 239.682607 
L 758.207062 241.991988 
L 761.344553 244.262314 
L 764.482044 246.437724 
L 767.619534 248.481208 
L 770.757025 250.380261 
L 773.894515 252.105829 
L 777.032006 253.602907 
L 780.169497 254.830569 
L 783.306987 255.780568 
L 786.444478 256.477645 
L 789.581968 256.975153 
L 792.719459 257.317732 
L 795.85695 257.52117 
L 798.99444 257.607119 
L 802.131931 257.626566 
L 805.269421 257.627551 
" clip-path="url(#pba3906119e)" style="fill: none; stroke: #e24a33; stroke-width: 2"/>
   </g>
   <g id="patch_8">
    <path d="M 479.127273 267.84 
L 479.127273 43.2 
" style="fill: none; stroke: #ffffff; stroke-linejoin: miter; stroke-linecap: square"/>
   </g>
   <g id="patch_9">
    <path d="M 820.8 267.84 
L 820.8 43.2 
" style="fill: none; stroke: #ffffff; stroke-linejoin: miter; stroke-linecap: square"/>
   </g>
   <g id="patch_10">
    <path d="M 479.127273 267.84 
L 820.8 267.84 
" style="fill: none; stroke: #ffffff; stroke-linejoin: miter; stroke-linecap: square"/>
   </g>
   <g id="patch_11">
    <path d="M 479.127273 43.2 
L 820.8 43.2 
" style="fill: none; stroke: #ffffff; stroke-linejoin: miter; stroke-linecap: square"/>
   </g>
   <g id="text_37">
    <!-- $\mathrm{mode}=area$ -->
    <g style="fill: #262626" transform="translate(610.795636 37.2) scale(0.144 -0.144)">
     <defs>
      <path id="Cmmi10-72" d="M 494 109 
Q 494 147 500 166 
L 978 2075 
Q 1025 2253 1025 2388 
Q 1025 2663 838 2663 
Q 638 2663 541 2423 
Q 444 2184 353 1819 
Q 353 1800 334 1789 
Q 316 1778 300 1778 
L 225 1778 
Q 203 1778 187 1801 
Q 172 1825 172 1844 
Q 241 2122 305 2315 
Q 369 2509 505 2668 
Q 641 2828 844 2828 
Q 1066 2828 1233 2700 
Q 1400 2572 1441 2363 
Q 1603 2575 1811 2701 
Q 2019 2828 2266 2828 
Q 2469 2828 2623 2709 
Q 2778 2591 2778 2388 
Q 2778 2225 2676 2104 
Q 2575 1984 2406 1984 
Q 2303 1984 2233 2048 
Q 2163 2113 2163 2216 
Q 2163 2356 2266 2467 
Q 2369 2578 2503 2578 
Q 2400 2663 2253 2663 
Q 1978 2663 1775 2467 
Q 1572 2272 1409 1972 
L 953 141 
Q 931 53 854 -9 
Q 778 -72 684 -72 
Q 606 -72 550 -22 
Q 494 28 494 109 
z
" transform="scale(0.015625)"/>
      <path id="Cmmi10-65" d="M 1288 -72 
Q 981 -72 751 87 
Q 522 247 401 517 
Q 281 788 281 1088 
Q 281 1544 511 1945 
Q 741 2347 1134 2587 
Q 1528 2828 1978 2828 
Q 2253 2828 2458 2686 
Q 2663 2544 2663 2278 
Q 2663 1909 2369 1729 
Q 2075 1550 1706 1508 
Q 1338 1466 891 1466 
L 872 1466 
Q 769 1084 769 813 
Q 769 528 900 312 
Q 1031 97 1300 97 
Q 1681 97 2032 272 
Q 2384 447 2606 756 
Q 2625 775 2656 775 
Q 2688 775 2720 739 
Q 2753 703 2753 672 
Q 2753 647 2741 634 
Q 2506 306 2109 117 
Q 1713 -72 1288 -72 
z
M 909 1631 
Q 1281 1631 1597 1665 
Q 1913 1700 2169 1839 
Q 2425 1978 2425 2272 
Q 2425 2391 2359 2480 
Q 2294 2569 2189 2616 
Q 2084 2663 1972 2663 
Q 1700 2663 1483 2516 
Q 1266 2369 1125 2133 
Q 984 1897 909 1631 
z
" transform="scale(0.015625)"/>
     </defs>
     <use xlink:href="#Cmr10-6d" transform="translate(0 0.609375)"/>
     <use xlink:href="#Cmr10-6f" transform="translate(83.300781 0.609375)"/>
     <use xlink:href="#Cmr10-64" transform="translate(133.300781 0.609375)"/>
     <use xlink:href="#Cmr10-65" transform="translate(188.818359 0.609375)"/>
     <use xlink:href="#Cmr10-3d" transform="translate(250.761719 0.609375)"/>
     <use xlink:href="#Cmmi10-61" transform="translate(346.005859 0.609375)"/>
     <use xlink:href="#Cmmi10-72" transform="translate(398.789062 0.609375)"/>
     <use xlink:href="#Cmmi10-65" transform="translate(443.90625 0.609375)"/>
     <use xlink:href="#Cmmi10-61" transform="translate(490.390625 0.609375)"/>
    </g>
   </g>
   <g id="legend_2">
    <g id="line2d_79">
     <path d="M 761.1 55.857813 
L 771.1 55.857813 
L 781.1 55.857813 
" style="fill: none; stroke: #e24a33; stroke-width: 2"/>
    </g>
    <g id="text_38">
     <!-- $\mathrm{up}$ -->
     <g style="fill: #262626" transform="translate(789.1 59.357813) scale(0.1 -0.1)">
      <use xlink:href="#Cmr10-75" transform="translate(0 0.8125)"/>
      <use xlink:href="#Cmr10-70" transform="translate(55.517578 0.8125)"/>
     </g>
    </g>
    <g id="line2d_80">
     <path d="M 761.1 70.015625 
L 771.1 70.015625 
L 781.1 70.015625 
" style="fill: none; stroke: #348abd; stroke-width: 2"/>
    </g>
    <g id="text_39">
     <!-- $\mathrm{up}_3$ -->
     <g style="fill: #262626" transform="translate(789.1 73.515625) scale(0.1 -0.1)">
      <use xlink:href="#Cmr10-75" transform="translate(0 0.8125)"/>
      <use xlink:href="#Cmr10-70" transform="translate(55.517578 0.8125)"/>
      <use xlink:href="#Cmr10-33" transform="translate(115.499297 -16.19375) scale(0.7)"/>
     </g>
    </g>
    <g id="line2d_81">
     <path d="M 761.1 84.173438 
L 771.1 84.173438 
L 781.1 84.173438 
" style="fill: none; stroke: #988ed5; stroke-width: 2"/>
    </g>
    <g id="text_40">
     <!-- $\mathrm{h}_3$ -->
     <g style="fill: #262626" transform="translate(789.1 87.673438) scale(0.1 -0.1)">
      <use xlink:href="#Cmr10-68" transform="translate(0 0.609375)"/>
      <use xlink:href="#Cmr10-33" transform="translate(59.981719 -16.396875) scale(0.7)"/>
     </g>
    </g>
    <g id="line2d_82">
     <path d="M 761.1 98.31875 
L 771.1 98.31875 
L 781.1 98.31875 
" style="fill: none; stroke: #777777; stroke-width: 2"/>
    </g>
    <g id="text_41">
     <!-- $\mathrm{\Xi}_3$ -->
     <g style="fill: #262626" transform="translate(789.1 101.81875) scale(0.1 -0.1)">
      <use xlink:href="#Cmr10-a5" transform="translate(0 0.6875)"/>
      <use xlink:href="#Cmr10-33" transform="translate(71.065703 -16.31875) scale(0.7)"/>
     </g>
    </g>
    <g id="line2d_83">
     <path d="M 761.1 112.464063 
L 771.1 112.464063 
L 781.1 112.464063 
" style="fill: none; stroke: #fbc15e; stroke-width: 2"/>
    </g>
    <g id="text_42">
     <!-- $\mathrm{fup}_3$ -->
     <g style="fill: #262626" transform="translate(789.1 115.964063) scale(0.1 -0.1)">
      <use xlink:href="#Cmr10-66" transform="translate(0 0.484375)"/>
      <use xlink:href="#Cmr10-75" transform="translate(30.517578 0.484375)"/>
      <use xlink:href="#Cmr10-70" transform="translate(86.035156 0.484375)"/>
      <use xlink:href="#Cmr10-33" transform="translate(146.016875 -16.521875) scale(0.7)"/>
     </g>
    </g>
    <g id="line2d_84">
     <path d="M 761.1 126.621875 
L 771.1 126.621875 
L 781.1 126.621875 
" style="fill: none; stroke: #8eba42; stroke-width: 2"/>
    </g>
    <g id="text_43">
     <!-- $\mathrm{ch}_{2,3}$ -->
     <g style="fill: #262626" transform="translate(789.1 130.121875) scale(0.1 -0.1)">
      <use xlink:href="#Cmr10-63" transform="translate(0 0.609375)"/>
      <use xlink:href="#Cmr10-68" transform="translate(44.384766 0.609375)"/>
      <use xlink:href="#Cmr10-32" transform="translate(104.366484 -16.396875) scale(0.7)"/>
      <use xlink:href="#Cmmi10-3b" transform="translate(139.366484 -16.396875) scale(0.7)"/>
      <use xlink:href="#Cmr10-33" transform="translate(171.037383 -16.396875) scale(0.7)"/>
     </g>
    </g>
    <g id="line2d_85">
     <path d="M 761.1 141.879688 
L 771.1 141.879688 
L 781.1 141.879688 
" style="fill: none; stroke: #ffb5b8; stroke-width: 2"/>
    </g>
    <g id="text_44">
     <!-- $\mathrm{fip}_{2,1}$ -->
     <g style="fill: #262626" transform="translate(789.1 145.379688) scale(0.1 -0.1)">
      <use xlink:href="#Cmr10-66" transform="translate(0 0.484375)"/>
      <use xlink:href="#Cmr10-69" transform="translate(30.517578 0.484375)"/>
      <use xlink:href="#Cmr10-70" transform="translate(58.203125 0.484375)"/>
      <use xlink:href="#Cmr10-32" transform="translate(118.184844 -16.521875) scale(0.7)"/>
      <use xlink:href="#Cmmi10-3b" transform="translate(153.184844 -16.521875) scale(0.7)"/>
      <use xlink:href="#Cmr10-31" transform="translate(184.855742 -16.521875) scale(0.7)"/>
     </g>
    </g>
    <g id="line2d_86">
     <path d="M 761.1 157.1375 
L 771.1 157.1375 
L 781.1 157.1375 
" style="fill: none; stroke: #e24a33; stroke-width: 2"/>
    </g>
    <g id="text_45">
     <!-- $\mathrm{fp}_{2,1}$ -->
     <g style="fill: #262626" transform="translate(789.1 160.6375) scale(0.1 -0.1)">
      <use xlink:href="#Cmr10-66" transform="translate(0 0.484375)"/>
      <use xlink:href="#Cmr10-70" transform="translate(30.517578 0.484375)"/>
      <use xlink:href="#Cmr10-32" transform="translate(90.499297 -16.521875) scale(0.7)"/>
      <use xlink:href="#Cmmi10-3b" transform="translate(125.499297 -16.521875) scale(0.7)"/>
      <use xlink:href="#Cmr10-31" transform="translate(157.170195 -16.521875) scale(0.7)"/>
     </g>
    </g>
   </g>
  </g>
 </g>
 <defs>
  <clipPath id="pec5d6ba772">
   <rect x="69.12" y="43.2" width="341.672727" height="224.64"/>
  </clipPath>
  <clipPath id="pba3906119e">
   <rect x="479.127273" y="43.2" width="341.672727" height="224.64"/>
  </clipPath>
 </defs>
</svg>
